<?xml version="1.0" encoding="utf-8"?>
<!-- Generator: Adobe Illustrator 21.0.0, SVG Export Plug-In . SVG Version: 6.00 Build 0)  -->
<svg version="1.1" id="Layer_1" xmlns="http://www.w3.org/2000/svg" xmlns:xlink="http://www.w3.org/1999/xlink" x="0px" y="0px"
	 viewBox="0 0 204 79.5" style="enable-background:new 0 0 204 79.5;" xml:space="preserve">
<style type="text/css">
	.st0{fill:#0E2635;}
</style>
<g>
	<g>
		<path class="st0" d="M53,34.3c0,0.3,0.1,1.9,0.2,3c-0.1,0.2-0.6,0.3-0.7,0.1c-0.5-1.8-1.7-2.7-3.6-2.7c-2.1,0-4.4,1.8-4.4,5.6
			s2.2,5.8,4.4,5.8c2.3,0,3.3-1.6,3.9-2.9c0.2-0.2,0.6-0.1,0.7,0.1c-0.1,1.4-0.5,2.5-0.7,3c-1,0.3-2.4,0.7-3.8,0.7
			c-1.9,0-3.7-0.4-5.1-1.4c-1.4-1-2.4-2.6-2.4-5c0-2.3,1-3.9,2.3-5s3.3-1.7,5.2-1.7C51,33.8,52.4,34.2,53,34.3z"/>
		<path class="st0" d="M69.7,40.3c0,4.1-2.8,6.6-6.8,6.6c-3.8,0-6.6-2.5-6.6-6.5c0-3.7,2.8-6.6,6.8-6.6C67,33.8,69.7,36.4,69.7,40.3
			z M62.9,34.7c-2.3,0-3.6,2.2-3.6,5.3c0,2.3,0.8,6,3.9,6c2.5,0,3.4-2.4,3.4-5.5C66.7,37.3,65.2,34.7,62.9,34.7z"/>
		<path class="st0" d="M73,34.7c-0.2-0.2-0.2-0.6,0.1-0.7c0.6,0,1.5,0.1,2.4,0.1c0.6,0,1.2,0,1.9-0.1c0,1.2,0.7,2.3,1.5,4.1l1.2,2.7
			c0.2,0.4,0.9,1.6,1.1,2c0.2-0.5,0.5-1,1.1-2.2l1-2.1c0.9-1.9,1.4-3,1.8-4.6C86,34,86.4,34,87,34s1.5,0,2.2-0.1
			c0.2,0.1,0.2,0.5,0.1,0.7l-0.5,0.1c-0.8,0.1-1.2,0.4-1.2,1.4c0,3.9,0,5.9,0.2,8.3c0,0.9,0.1,1.3,0.9,1.4L89,46
			c0.2,0.2,0.2,0.6,0,0.7c-0.9,0-1.7-0.1-2.6-0.1s-1.9,0-2.8,0.1c-0.2-0.1-0.2-0.5-0.1-0.7l0.6-0.1c0.9-0.1,0.9-0.3,0.9-1.5v-4.9
			v-2.2l0,0c-1.4,3-2.9,6.2-4.2,9.4c-0.1,0.1-0.2,0.1-0.4,0.1c-0.2,0-0.4,0-0.5-0.1c-0.7-2.3-3.1-7-4.1-9.5l0,0
			c-0.1,1.2-0.1,2.1-0.1,3c0,1.2,0,3.1,0,4.3c0,0.9,0.1,1.2,0.9,1.3l0.7,0.1c0.2,0.1,0.1,0.6,0,0.7c-0.7,0-1.5-0.1-2.2-0.1
			c-0.6,0-1.3,0-2.1,0.1c-0.2-0.1-0.2-0.6-0.1-0.7l0.3-0.1c1-0.2,1.1-0.3,1.2-1.5c0.1-0.9,0.2-2.6,0.3-4.4c0.1-1.3,0.1-2.8,0.1-3.8
			c0-1.1-0.4-1.4-1.2-1.5L73,34.7z"/>
		<path class="st0" d="M92,34.7c-0.2-0.2-0.2-0.6,0.1-0.7c0.6,0,1.5,0.1,2.4,0.1c0.6,0,1.2,0,1.9-0.1c0,1.2,0.7,2.3,1.5,4.1l1.2,2.7
			c0.2,0.4,0.9,1.6,1.1,2c0.2-0.5,0.5-1,1.1-2.2l1-2.1c0.9-1.9,1.4-3,1.8-4.6C105,34,105.4,34,106,34s1.5,0,2.2-0.1
			c0.2,0.1,0.2,0.5,0.1,0.7l-0.5,0.1c-0.8,0.1-1.2,0.4-1.2,1.4c0,3.9,0,5.9,0.2,8.3c0,0.9,0.1,1.3,0.9,1.4L108,46
			c0.2,0.2,0.2,0.6,0,0.7c-0.9,0-1.7-0.1-2.6-0.1s-1.9,0-2.8,0.1c-0.2-0.1-0.2-0.5-0.1-0.7l0.6-0.1c0.9-0.1,0.9-0.3,0.9-1.5v-4.9
			v-2.2l0,0c-1.4,3-2.9,6.2-4.2,9.4c-0.1,0.1-0.2,0.1-0.4,0.1c-0.2,0-0.4,0-0.5-0.1c-0.7-2.3-3.1-7-4.1-9.5l0,0
			c-0.1,1.2-0.1,2.1-0.1,3c0,1.2,0,3.1,0,4.3c0,0.9,0.1,1.2,0.9,1.3l0.7,0.1c0.2,0.1,0.1,0.6,0,0.7c-0.7,0-1.5-0.1-2.2-0.1
			c-0.6,0-1.3,0-2.1,0.1c-0.2-0.1-0.2-0.6-0.1-0.7l0.3-0.1c1-0.2,1.1-0.3,1.2-1.5c0.1-0.9,0.2-2.6,0.3-4.4c0.1-1.3,0.1-2.8,0.1-3.8
			c0-1.1-0.4-1.4-1.2-1.5L92,34.7z"/>
		<path class="st0" d="M115.3,39c0,0.5,0,0.6,0.5,0.6h1.3c1,0,1.2-0.1,1.4-1l0.1-0.5c0.1-0.2,0.6-0.2,0.7,0c0,0.6-0.1,1.3-0.1,2
			s0,1.4,0.1,2c-0.1,0.2-0.6,0.2-0.7,0l-0.1-0.5c-0.2-0.9-0.4-1.1-1.4-1.1h-1.3c-0.5,0-0.5,0-0.5,0.6v2.3c0,0.9,0.1,1.5,0.3,1.8
			c0.2,0.3,0.6,0.5,2,0.5c1.6,0,2.3-0.1,3.3-2.2c0.2-0.2,0.6-0.1,0.7,0.1c-0.1,1-0.5,2.5-0.8,3c-1,0-2.8-0.1-4.4-0.1H114
			c-0.9,0-1.8,0-3.3,0.1c-0.2-0.1-0.2-0.6,0-0.7l0.9-0.1c0.9-0.1,1-0.2,1-2v-7.1c0-1.7-0.1-1.8-1-2l-0.5-0.1c-0.2-0.1-0.2-0.5,0-0.7
			c0.9,0,1.8,0.1,2.7,0.1h4c1.2,0,2.3,0,2.5-0.1c0,0.3,0.2,1.7,0.2,2.9c-0.1,0.2-0.5,0.2-0.7,0.1c-0.2-0.7-0.5-1.2-0.7-1.5
			c-0.4-0.4-0.9-0.6-1.9-0.6H116c-0.6,0-0.6,0-0.6,0.7L115.3,39L115.3,39z"/>
		<path class="st0" d="M135.9,43.4c0,1.2,0,2.4,0,3c-0.1,0.2-0.7,0.4-1.1,0.4c0,0-0.6-1-1.5-2.1l-4.4-5.4c-1.1-1.3-1.7-2.1-2.1-2.4
			c-0.1,0.2-0.1,0.5-0.1,1.2v3.7c0,1.5,0.1,3,0.3,3.5c0.2,0.4,0.6,0.5,1.1,0.6l0.5,0.1c0.2,0.2,0.1,0.5,0,0.7c-1,0-1.8-0.1-2.5-0.1
			s-1.4,0-2.1,0.1c-0.1-0.1-0.2-0.5,0-0.7l0.3-0.1c0.5-0.1,0.9-0.2,1-0.6c0.2-0.5,0.3-1.9,0.3-3.5V37c0-1,0-1.3-0.1-1.6
			c-0.2-0.3-0.4-0.5-1.1-0.6l-0.5-0.1c-0.1-0.2-0.1-0.6,0.1-0.7c0.9,0,1.8,0.1,2.6,0.1c0.6,0,1.2,0,1.6-0.1c0.2,0.9,1.4,2.3,3.1,4.3
			l1.6,1.9c0.8,1,1.4,1.6,1.8,2.1c0.1-0.2,0.1-0.5,0.1-0.9v-2.6c0-1.5-0.1-3-0.3-3.5c-0.2-0.4-0.6-0.5-1.1-0.6l-0.5-0.1
			c-0.2-0.2-0.1-0.5,0-0.7c1,0,1.8,0.1,2.5,0.1s1.4,0,2.1-0.1c0.1,0.1,0.2,0.5,0,0.7l-0.3,0.1c-0.5,0.1-0.9,0.2-1,0.6
			c-0.2,0.5-0.3,1.9-0.3,3.5L135.9,43.4L135.9,43.4z"/>
		<path class="st0" d="M144.5,35.5c0-0.5,0-0.5-0.5-0.5h-1.2c-1.4,0-1.8,0.8-2.3,2.1c-0.2,0.1-0.6,0.1-0.7-0.2
			c0.4-1.3,0.5-2.5,0.6-3.2c0.1-0.1,0.2-0.1,0.3-0.1s0.2,0,0.3,0.1c0.1,0.3,0.2,0.4,1.6,0.4h7c1.2,0,1.5,0,1.7-0.4
			c0.1,0,0.1-0.1,0.2-0.1s0.2,0.1,0.3,0.1c-0.2,0.6-0.3,2.2-0.3,3.3c-0.1,0.2-0.6,0.2-0.7,0.1c-0.3-1.2-0.6-2.1-2-2.1h-1.1
			c-0.5,0-0.5,0.1-0.5,0.5v8.3c0,1.8,0.1,1.9,1,2l0.8,0.1c0.1,0.1,0.1,0.5,0,0.7c-1.2,0-2.2-0.1-3-0.1c-0.9,0-1.9,0-3.2,0.1
			c-0.2-0.1-0.2-0.5,0-0.7l0.9-0.1c0.9-0.1,1-0.3,1-2v-8.3H144.5z"/>
		<path class="st0" d="M157.8,46.9c-1.7,0-2.8-0.5-3.2-0.7c-0.4-0.4-0.6-1.8-0.6-3.1c0.1-0.2,0.6-0.3,0.7-0.1c0.4,1.2,1.6,3,3.3,3
			c1.4,0,2-1,2-1.9c0-1.5-1.4-2.4-2.6-3c-1.4-0.7-2.9-1.8-2.9-3.7c0-2.1,1.6-3.6,4.4-3.6c0.6,0,1.4,0.1,2.2,0.3
			c0.2,0.1,0.4,0.1,0.6,0.2c0.2,0.4,0.3,1.4,0.3,2.7c-0.1,0.2-0.6,0.2-0.7,0.1c-0.3-1-1.1-2.3-2.5-2.3c-1.2,0-1.9,0.8-1.9,1.8
			c0,0.9,0.8,1.7,1.7,2.2l1.2,0.7c1.2,0.6,2.7,1.7,2.7,3.8S160.6,46.9,157.8,46.9z"/>
	</g>
</g>
</svg>
