<?xml version="1.0" encoding="utf-8"?>
<!-- Generator: Adobe Illustrator 21.0.0, SVG Export Plug-In . SVG Version: 6.00 Build 0)  -->
<svg version="1.1" id="Layer_1" xmlns="http://www.w3.org/2000/svg" xmlns:xlink="http://www.w3.org/1999/xlink" x="0px" y="0px"
	 viewBox="0 0 204 79.5" style="enable-background:new 0 0 204 79.5;" xml:space="preserve">
<style type="text/css">
	.st0{fill:#0E2635;}
</style>
<g>
	<path class="st0" d="M0,0v79.5h204V0H0z M52.8,46.3c-1,0.3-2.4,0.7-3.8,0.7c-1.9,0-3.7-0.4-5.1-1.4c-1.4-1-2.4-2.6-2.4-5
		c0-2.3,1-3.9,2.3-5c1.3-1.1,3.3-1.7,5.2-1.7c2-0.1,3.4,0.3,4,0.4c0,0.3,0.1,1.9,0.2,3c-0.1,0.2-0.6,0.3-0.7,0.1
		c-0.5-1.8-1.7-2.7-3.6-2.7c-2.1,0-4.4,1.8-4.4,5.6s2.2,5.8,4.4,5.8c2.3,0,3.3-1.6,3.9-2.9c0.2-0.2,0.6-0.1,0.7,0.1
		C53.4,44.7,53,45.8,52.8,46.3z M62.9,46.9c-3.8,0-6.6-2.5-6.6-6.5c0-3.7,2.8-6.6,6.8-6.6c3.9,0,6.6,2.6,6.6,6.5
		C69.7,44.4,66.9,46.9,62.9,46.9z M89.3,34.6l-0.5,0.1c-0.8,0.1-1.2,0.4-1.2,1.4c0,3.9,0,5.9,0.2,8.3c0,0.9,0.1,1.3,0.9,1.4L89,46
		c0.2,0.2,0.2,0.6,0,0.7c-0.9,0-1.7-0.1-2.6-0.1c-0.9,0-1.9,0-2.8,0.1c-0.2-0.1-0.2-0.5-0.1-0.7l0.6-0.1c0.9-0.1,0.9-0.3,0.9-1.5
		v-4.9v-2.2c-1.4,3-2.9,6.2-4.2,9.4c-0.1,0.1-0.2,0.1-0.4,0.1s-0.4,0-0.5-0.1c-0.7-2.3-3.1-7-4.1-9.5c-0.1,1.2-0.1,2.1-0.1,3
		c0,1.2,0,3.1,0,4.3c0,0.9,0.1,1.2,0.9,1.3l0.7,0.1c0.2,0.1,0.1,0.6,0,0.7c-0.7,0-1.5-0.1-2.2-0.1c-0.6,0-1.3,0-2.1,0.1
		c-0.2-0.1-0.2-0.6-0.1-0.7l0.3-0.1c1-0.2,1.1-0.3,1.2-1.5c0.1-0.9,0.2-2.6,0.3-4.4c0.1-1.3,0.1-2.8,0.1-3.8c0-1.1-0.4-1.4-1.2-1.5
		L73,34.7c-0.2-0.2-0.2-0.6,0.1-0.7c0.6,0,1.5,0.1,2.4,0.1c0.6,0,1.2,0,1.9-0.1c0,1.2,0.7,2.3,1.5,4.1l1.2,2.7
		c0.2,0.4,0.9,1.6,1.1,2c0.2-0.5,0.5-1,1.1-2.2l1-2.1c0.9-1.9,1.4-3,1.8-4.6C86,34,86.4,34,87,34s1.5,0,2.2-0.1
		C89.4,34,89.4,34.4,89.3,34.6z M108.3,34.6l-0.5,0.1c-0.8,0.1-1.2,0.4-1.2,1.4c0,3.9,0,5.9,0.2,8.3c0,0.9,0.1,1.3,0.9,1.4L108,46
		c0.2,0.2,0.2,0.6,0,0.7c-0.9,0-1.7-0.1-2.6-0.1c-0.9,0-1.9,0-2.8,0.1c-0.2-0.1-0.2-0.5-0.1-0.7l0.6-0.1c0.9-0.1,0.9-0.3,0.9-1.5
		v-4.9v-2.2c-1.4,3-2.9,6.2-4.2,9.4c-0.1,0.1-0.2,0.1-0.4,0.1s-0.4,0-0.5-0.1c-0.7-2.3-3.1-7-4.1-9.5c-0.1,1.2-0.1,2.1-0.1,3
		c0,1.2,0,3.1,0,4.3c0,0.9,0.1,1.2,0.9,1.3l0.7,0.1c0.2,0.1,0.1,0.6,0,0.7c-0.7,0-1.5-0.1-2.2-0.1c-0.6,0-1.3,0-2.1,0.1
		c-0.2-0.1-0.2-0.6-0.1-0.7l0.3-0.1c1-0.2,1.1-0.3,1.2-1.5c0.1-0.9,0.2-2.6,0.3-4.4c0.1-1.3,0.1-2.8,0.1-3.8c0-1.1-0.4-1.4-1.2-1.5
		L92,34.7c-0.2-0.2-0.2-0.6,0.1-0.7c0.6,0,1.5,0.1,2.4,0.1c0.6,0,1.2,0,1.9-0.1c0,1.2,0.7,2.3,1.5,4.1l1.2,2.7
		c0.2,0.4,0.9,1.6,1.1,2c0.2-0.5,0.5-1,1.1-2.2l1-2.1c0.9-1.9,1.4-3,1.8-4.6C105,34,105.4,34,106,34s1.5,0,2.2-0.1
		C108.4,34,108.4,34.4,108.3,34.6z M120.8,46.6c-1,0-2.8-0.1-4.4-0.1H114c-0.9,0-1.8,0-3.3,0.1c-0.2-0.1-0.2-0.6,0-0.7l0.9-0.1
		c0.9-0.1,1-0.2,1-2v-7.1c0-1.7-0.1-1.8-1-2l-0.5-0.1c-0.2-0.1-0.2-0.5,0-0.7c0.9,0,1.8,0.1,2.7,0.1h4c1.2,0,2.3,0,2.5-0.1
		c0,0.3,0.2,1.7,0.2,2.9c-0.1,0.2-0.5,0.2-0.7,0.1c-0.2-0.7-0.5-1.2-0.7-1.5c-0.4-0.4-0.9-0.6-1.9-0.6H116c-0.6,0-0.6,0-0.6,0.7
		l-0.1,3.5c0,0.5,0,0.6,0.5,0.6h1.3c1,0,1.2-0.1,1.4-1l0.1-0.5c0.1-0.2,0.6-0.2,0.7,0c0,0.6-0.1,1.3-0.1,2c0,0.7,0,1.4,0.1,2
		c-0.1,0.2-0.6,0.2-0.7,0l-0.1-0.5c-0.2-0.9-0.4-1.1-1.4-1.1h-1.3c-0.5,0-0.5,0-0.5,0.6v2.3c0,0.9,0.1,1.5,0.3,1.8
		c0.2,0.3,0.6,0.5,2,0.5c1.6,0,2.3-0.1,3.3-2.2c0.2-0.2,0.6-0.1,0.7,0.1C121.5,44.6,121.1,46.1,120.8,46.6z M137.5,34.6l-0.3,0.1
		c-0.5,0.1-0.9,0.2-1,0.6c-0.2,0.5-0.3,1.9-0.3,3.5v4.6c0,1.2,0,2.4,0,3c-0.1,0.2-0.7,0.4-1.1,0.4c0,0-0.6-1-1.5-2.1l-4.4-5.4
		c-1.1-1.3-1.7-2.1-2.1-2.4c-0.1,0.2-0.1,0.5-0.1,1.2v3.7c0,1.5,0.1,3,0.3,3.5c0.2,0.4,0.6,0.5,1.1,0.6l0.5,0.1
		c0.2,0.2,0.1,0.5,0,0.7c-1,0-1.8-0.1-2.5-0.1c-0.7,0-1.4,0-2.1,0.1c-0.1-0.1-0.2-0.5,0-0.7l0.3-0.1c0.5-0.1,0.9-0.2,1-0.6
		c0.2-0.5,0.3-1.9,0.3-3.5V37c0-1,0-1.3-0.1-1.6c-0.2-0.3-0.4-0.5-1.1-0.6l-0.5-0.1c-0.1-0.2-0.1-0.6,0.1-0.7c0.9,0,1.8,0.1,2.6,0.1
		c0.6,0,1.2,0,1.6-0.1c0.2,0.9,1.4,2.3,3.1,4.3l1.6,1.9c0.8,1,1.4,1.6,1.8,2.1c0.1-0.2,0.1-0.5,0.1-0.9v-2.6c0-1.5-0.1-3-0.3-3.5
		c-0.2-0.4-0.6-0.5-1.1-0.6l-0.5-0.1c-0.2-0.2-0.1-0.5,0-0.7c1,0,1.8,0.1,2.5,0.1s1.4,0,2.1-0.1C137.6,34,137.7,34.4,137.5,34.6z
		 M151.5,37c-0.1,0.2-0.6,0.2-0.7,0.1c-0.3-1.2-0.6-2.1-2-2.1h-1.1c-0.5,0-0.5,0.1-0.5,0.5v8.3c0,1.8,0.1,1.9,1,2l0.8,0.1
		c0.1,0.1,0.1,0.5,0,0.7c-1.2,0-2.2-0.1-3-0.1c-0.9,0-1.9,0-3.2,0.1c-0.2-0.1-0.2-0.5,0-0.7l0.9-0.1c0.9-0.1,1-0.3,1-2v-8.3h-0.2
		c0-0.5,0-0.5-0.5-0.5h-1.2c-1.4,0-1.8,0.8-2.3,2.1c-0.2,0.1-0.6,0.1-0.7-0.2c0.4-1.3,0.5-2.5,0.6-3.2c0.1-0.1,0.2-0.1,0.3-0.1
		c0.1,0,0.2,0,0.3,0.1c0.1,0.3,0.2,0.4,1.6,0.4h7c1.2,0,1.5,0,1.7-0.4c0.1,0,0.1-0.1,0.2-0.1c0.1,0,0.2,0.1,0.3,0.1
		C151.6,34.3,151.5,35.9,151.5,37z M157.8,46.9c-1.7,0-2.8-0.5-3.2-0.7c-0.4-0.4-0.6-1.8-0.6-3.1c0.1-0.2,0.6-0.3,0.7-0.1
		c0.4,1.2,1.6,3,3.3,3c1.4,0,2-1,2-1.9c0-1.5-1.4-2.4-2.6-3c-1.4-0.7-2.9-1.8-2.9-3.7c0-2.1,1.6-3.6,4.4-3.6c0.6,0,1.4,0.1,2.2,0.3
		c0.2,0.1,0.4,0.1,0.6,0.2c0.2,0.4,0.3,1.4,0.3,2.7c-0.1,0.2-0.6,0.2-0.7,0.1c-0.3-1-1.1-2.3-2.5-2.3c-1.2,0-1.9,0.8-1.9,1.8
		c0,0.9,0.8,1.7,1.7,2.2l1.2,0.7c1.2,0.6,2.7,1.7,2.7,3.8C162.5,45.4,160.6,46.9,157.8,46.9z"/>
	<path class="st0" d="M62.9,34.7c-2.3,0-3.6,2.2-3.6,5.3c0,2.3,0.8,6,3.9,6c2.5,0,3.4-2.4,3.4-5.5C66.7,37.3,65.2,34.7,62.9,34.7z"
		/>
</g>
</svg>
