<?xml version="1.0" encoding="utf-8"?>
<!-- Generator: Adobe Illustrator 21.0.0, SVG Export Plug-In . SVG Version: 6.00 Build 0)  -->
<svg version="1.1" id="Layer_1" xmlns="http://www.w3.org/2000/svg" xmlns:xlink="http://www.w3.org/1999/xlink" x="0px" y="0px"
	 viewBox="0 0 119.4 78.6" style="enable-background:new 0 0 119.4 78.6;" xml:space="preserve">
<style type="text/css">
	.st0{fill:#F9F1DD;}
</style>
<g>
	<path class="st0" d="M48.4,17c0.2,0,0.4,0,0.6,0.1c0.3,0,0.7,0.1,1.1,0.1c0.1,0,0.5,0,1.1,0c0.9,0,1.7-0.1,2.4-0.1h1.1
		c0.2,0,0.6,0,1.1,0.1c0.1,0.1,0.1,0.2,0.1,0.3v1.2v0.2V19h-0.2c0,0-0.1,0-0.2,0c0-0.1-0.1-0.2-0.1-0.3l-0.2-0.4
		c-0.1-0.2-0.2-0.4-0.4-0.5c-0.1,0-0.2,0-0.4,0c0,0-0.2,0-0.4,0c-0.4,0-0.8,0-1.2,0c-0.5,0-0.9,0-1.3,0c0,0.1,0,0.5,0,1.2v1v0.7
		c0.1,0,0.2,0,0.3,0c0.7,0,1.2,0,1.5,0c0.3,0,0.5-0.1,0.6-0.1s0.1-0.1,0.2-0.3c0-0.1,0.1-0.4,0.2-0.9h0.1h0.3c0,0.3,0,0.6,0,0.8
		c0,0.4,0,0.7,0,0.8s0,0.2,0,0.3c0,0.1,0,0.3,0,0.5s0,0.4,0,0.5v0.1h-0.4c0-0.1,0-0.2-0.1-0.4c-0.1-0.4-0.1-0.6-0.2-0.7
		c0-0.1-0.1-0.1-0.2-0.2c-0.1,0-0.4,0-0.9,0c-0.6,0-1,0-1.3,0c0,0.1,0,0.2,0,0.2c0,0.5,0,0.9,0,1.2v1.3c0,0.1,0.1,0.2,0.2,0.3
		c0.2,0.1,0.7,0.1,1.5,0.1c0.5,0,1,0,1.4-0.1c0.3-0.1,0.5-0.2,0.7-0.4c0.3-0.3,0.5-0.6,0.7-1.1c0.1,0,0.2,0,0.3,0c0,0,0.1,0,0.2,0
		c0,0.1,0,0.2,0,0.2V23l-0.7,1l-0.1,0.7c-0.3,0-0.5,0-0.6,0c-0.2,0-0.8,0-1.8-0.1c-0.7,0-1.5,0-2.4,0c-0.5,0-1,0-1.7,0.1h-0.2h-0.7
		v-0.4c0.1,0,0.2,0,0.4-0.1c0.4,0,0.7-0.1,0.8-0.2c0-0.1,0.1-0.3,0.1-0.4s0-0.2,0-0.3v-0.2v-2.2v-0.7v-0.9v-0.7l-0.1-0.7v-0.1
		c0,0-0.1-0.1-0.2-0.1c0,0-0.1,0-0.2,0c-0.2,0-0.4-0.1-0.6-0.1c-0.1,0-0.2,0-0.3,0L48.4,17z"/>
	<path class="st0" d="M56.7,17.5v-0.4h0.5h0.2c0.2,0,0.4,0,0.5,0c0,0,0.2,0,0.4,0c0.1,0,0.1,0,0.1,0s0.2,0,0.4,0c0.2,0,0.3,0,0.4,0
		c0,0,0.1,0,0.2,0c0.6,0.5,1.1,1,1.5,1.4s1.8,1.8,4.1,4.1v-0.1v-0.7c0-0.4,0-0.7,0-0.9s0-0.5,0-0.8s0-0.6,0-0.9
		c0-0.5-0.1-0.8-0.1-0.9c0-0.3,0-0.4-0.1-0.5s-0.3-0.2-0.6-0.2c-0.2,0-0.4-0.1-0.5-0.1v-0.3h0.2h1.2h1.3c0.1,0,0.2,0,0.2,0v0.4
		c-0.1,0-0.2,0.1-0.3,0.1c-0.2,0.1-0.4,0.1-0.4,0.1c-0.2,0.1-0.3,0.2-0.3,0.2s-0.1,0.1-0.1,0.2c0,0,0,0.1,0,0.2s0,0.2,0,0.5
		c0,0.6,0,1,0,1.3c0,0.1,0,0.2,0,0.4l0.1,2.1c0,0.1,0,0.2,0,0.3v0.7V24v0.3c0,0.2,0,0.3,0,0.3v0.3h-0.7l-0.7-0.7l-1.4-1.4l-1-1
		L61,20.9c-0.5-0.5-0.9-0.9-1.3-1.2l-1-0.9l0.1,2.2c0,0.1,0,0.3,0,0.4v0.4v0.8c0,0.3,0,0.7,0.1,1c0,0.1,0,0.2,0,0.2s0,0.1,0.1,0.2
		c0.2,0.1,0.5,0.1,1,0.1c0,0,0.1,0,0.2,0v0.5H60c-0.1,0-0.5,0-1.2-0.1c-0.6,0-1,0-1.2,0c-0.2,0-0.3,0-0.3,0s-0.1,0-0.2,0
		c0-0.1,0-0.2,0-0.2s0-0.1,0-0.2c0.1,0,0.2,0,0.3,0c0,0,0.1,0,0.2,0c0.3,0,0.5,0,0.6-0.1s0.1-0.2,0.1-0.4c0-0.6,0-1,0-1.1v-0.3v-1.9
		v-1.2c0-0.5,0-0.8-0.1-0.9c0-0.1-0.1-0.2-0.1-0.2c-0.1-0.1-0.3-0.2-0.5-0.3S57.2,17.6,56.7,17.5z"/>
	<path class="st0" d="M74.4,17.5c0,0.1,0.1,0.3,0.1,0.7s0.1,0.6,0.1,0.7s0,0.1,0,0.2c-0.2,0-0.3,0-0.4,0c-0.3-0.5-0.5-0.7-0.6-0.9
		c-0.2-0.2-0.5-0.4-0.9-0.6c-0.3-0.1-0.6-0.2-0.9-0.2c-0.7,0-1.2,0.3-1.7,0.9s-0.7,1.5-0.7,2.6c0,0.5,0.1,1.1,0.3,1.6
		c0.2,0.5,0.5,0.9,0.9,1.2c0.4,0.3,0.8,0.4,1.4,0.4c0.3,0,0.5,0,0.8-0.1c0.1,0,0.3-0.1,0.4-0.2s0.1-0.2,0.1-0.3c0-0.2,0-0.5,0-1
		c0-0.4,0-0.7,0-0.8c0-0.1-0.1-0.1-0.1-0.1s-0.1,0-0.2-0.1l-0.5-0.1c-0.1,0-0.2-0.1-0.2-0.1c0-0.1,0-0.1,0-0.1c0-0.1,0-0.1,0-0.2
		c0.1,0,0.1,0,0.1,0c0.4,0,0.8,0,1.1,0c0.1,0,0.2,0,0.4,0h0.9h0.4c0,0,0.2,0,0.4,0c0,0.1,0,0.2,0,0.3v0.1c-0.1,0-0.2,0.1-0.3,0.1
		c-0.2,0.1-0.2,0.1-0.3,0.1l-0.1,0.1c0,0.1,0,0.3,0,0.7c0,0.5,0,0.7,0,0.8c0,0.3,0,0.5,0,0.5c0,0.1,0,0.2-0.1,0.3
		c-0.1,0.1-0.4,0.2-1,0.4c-0.6,0.1-1.2,0.2-2,0.2c-0.5,0-1,0-1.4-0.1s-0.7-0.2-1-0.4c-0.4-0.2-0.7-0.5-0.9-0.8
		c-0.2-0.3-0.5-0.7-0.6-1c-0.2-0.5-0.3-1-0.3-1.5c0-0.6,0.1-1.2,0.4-1.7c0.2-0.4,0.5-0.8,0.8-1.2c0.3-0.4,0.8-0.6,1.3-0.8
		s1.1-0.3,1.7-0.3c0.1,0,0.2,0,0.4,0c0.5,0,0.9,0.1,1.3,0.2C73.9,17.1,74.1,17.4,74.4,17.5z"/>
</g>
</svg>
