<?xml version="1.0" encoding="utf-8"?>
<!-- Generator: Adobe Illustrator 21.0.0, SVG Export Plug-In . SVG Version: 6.00 Build 0)  -->
<svg version="1.1" id="Layer_1" xmlns="http://www.w3.org/2000/svg" xmlns:xlink="http://www.w3.org/1999/xlink" x="0px" y="0px"
	 viewBox="0 0 119.4 78.6" style="enable-background:new 0 0 119.4 78.6;" xml:space="preserve">
<style type="text/css">
	.st0{fill:#F9F1DD;}
</style>
<path class="st0" d="M22.2,3.1v36.2h80.3V3.1H22.2z M56.5,22.7v0.2L56.2,24l-0.1,0.7c-0.3,0-0.5,0-0.6,0c-0.2,0-0.8,0-1.8-0.1
	c-0.7,0-1.5,0-2.4,0c-0.5,0-1,0-1.7,0.1h-0.2h-0.7v-0.4c0.1,0,0.2,0,0.4-0.1c0.4,0,0.7-0.1,0.8-0.2c0-0.1,0.1-0.3,0.1-0.4
	s0-0.2,0-0.3v-0.2v-2.2v-0.7v-0.9v-0.7l-0.1-0.7v-0.1c0,0-0.1-0.1-0.2-0.1c0,0-0.1,0-0.2,0c-0.2,0-0.4-0.1-0.6-0.1
	c-0.1,0-0.2,0-0.3,0v-0.5c0.2,0,0.4,0,0.6,0.1c0.3,0,0.7,0.1,1.1,0.1c0.1,0,0.5,0,1.1,0c0.9,0,1.7-0.1,2.4-0.1h1.1
	c0.2,0,0.6,0,1.1,0.1c0.1,0.1,0.1,0.2,0.1,0.3v1.2V19v0.1h-0.2c0,0-0.1,0-0.2,0c0-0.1-0.1-0.2-0.1-0.3l-0.2-0.4
	c-0.1-0.2-0.2-0.4-0.4-0.5c-0.1,0-0.2,0-0.4,0c0,0-0.2,0-0.4,0c-0.4,0-0.8,0-1.2,0c-0.5,0-0.9,0-1.3,0c0,0.1,0,0.5,0,1.2v1v0.7
	c0.1,0,0.2,0,0.3,0c0.7,0,1.2,0,1.5,0s0.5-0.1,0.6-0.1s0.1-0.1,0.2-0.3c0-0.1,0.1-0.4,0.2-0.9h0.1h0.3c0,0.3,0,0.6,0,0.8
	c0,0.4,0,0.7,0,0.8s0,0.2,0,0.3c0,0.1,0,0.3,0,0.5s0,0.4,0,0.5v0.1h-0.4c0-0.1,0-0.2-0.1-0.4c-0.1-0.4-0.1-0.6-0.2-0.7
	c0-0.1-0.1-0.1-0.2-0.2c-0.1,0-0.4,0-0.9,0c-0.6,0-1,0-1.3,0c0,0.1,0,0.2,0,0.2c0,0.5,0,0.9,0,1.2v1.3c0,0.1,0.1,0.2,0.2,0.3
	c0.2,0.1,0.7,0.1,1.5,0.1c0.5,0,1,0,1.4-0.1c0.3-0.1,0.5-0.2,0.7-0.4c0.3-0.3,0.5-0.6,0.7-1.1C56.3,22.7,56.4,22.7,56.5,22.7
	c0.1,0,0.2,0,0.3,0C56.5,22.6,56.5,22.6,56.5,22.7z M66.4,17.5c-0.2,0.1-0.4,0.1-0.4,0.1c-0.2,0.1-0.3,0.2-0.3,0.2s-0.1,0.1-0.1,0.2
	c0,0,0,0.1,0,0.2s0,0.2,0,0.5c0,0.6,0,1,0,1.3c0,0.1,0,0.2,0,0.4l0.1,2.1c0,0.1,0,0.2,0,0.3v0.7v0.3v0.3c0,0.2,0,0.3,0,0.3v0.3h-0.7
	L64.3,24l-1.4-1.4l-1-1l-0.7-0.7c-0.5-0.5-0.9-0.9-1.3-1.2l-1-0.9L59,21c0,0.1,0,0.3,0,0.4v0.4v0.8c0,0.3,0,0.7,0.1,1
	c0,0.1,0,0.2,0,0.2s0,0.1,0.1,0.2c0.2,0.1,0.5,0.1,1,0.1c0,0,0.1,0,0.2,0v0.5h-0.2c-0.1,0-0.5,0-1.2-0.1c-0.6,0-1,0-1.2,0
	s-0.3,0-0.3,0s-0.1,0-0.2,0c0-0.1,0-0.2,0-0.2s0-0.1,0-0.2c0.1,0,0.2,0,0.3,0c0,0,0.1,0,0.2,0c0.3,0,0.5,0,0.6-0.1s0.1-0.2,0.1-0.4
	c0-0.6,0-1,0-1.1v-0.3v-1.9v-1.2c0-0.5,0-0.8-0.1-0.9c0-0.1-0.1-0.2-0.1-0.2c-0.1-0.1-0.3-0.2-0.5-0.3c-0.1,0-0.4-0.1-0.8-0.2v-0.4
	h0.5h0.2c0.2,0,0.4,0,0.5,0c0,0,0.2,0,0.4,0c0.1,0,0.1,0,0.1,0s0.2,0,0.4,0s0.3,0,0.4,0c0,0,0.1,0,0.2,0c0.6,0.5,1.1,1,1.5,1.4
	s1.8,1.8,4.1,4.1v-0.1v-0.7c0-0.4,0-0.7,0-0.9s0-0.5,0-0.8s0-0.6,0-0.9c0-0.5-0.1-0.8-0.1-0.9c0-0.3,0-0.4-0.1-0.5s-0.3-0.2-0.6-0.2
	c-0.2,0-0.4-0.1-0.5-0.1v-0.3h0.2h1.2h1.3c0.1,0,0.2,0,0.2,0v0.4C66.7,17.5,66.6,17.5,66.4,17.5z M75.6,21.5c-0.1,0-0.2,0.1-0.3,0.1
	c-0.2,0.1-0.2,0.1-0.3,0.1l-0.1,0.1c0,0.1,0,0.3,0,0.7c0,0.5,0,0.7,0,0.8c0,0.3,0,0.5,0,0.5c0,0.1,0,0.2-0.1,0.3
	c-0.1,0.1-0.4,0.2-1,0.4c-0.6,0.1-1.2,0.2-2,0.2c-0.5,0-1,0-1.4-0.1c-0.4-0.1-0.7-0.2-1-0.4c-0.4-0.2-0.7-0.5-0.9-0.8
	c-0.2-0.3-0.5-0.7-0.6-1c-0.2-0.5-0.3-1-0.3-1.5c0-0.6,0.1-1.2,0.4-1.7c0.2-0.4,0.5-0.8,0.8-1.2c0.3-0.4,0.8-0.6,1.3-0.8
	s1.1-0.3,1.7-0.3c0.1,0,0.2,0,0.4,0c0.5,0,0.9,0.1,1.3,0.2s0.8,0.3,1,0.4c0,0.1,0.1,0.3,0.1,0.7s0.1,0.6,0.1,0.7s0,0.1,0,0.2
	c-0.2,0-0.3,0-0.4,0c-0.3-0.5-0.5-0.7-0.6-0.9c-0.2-0.2-0.5-0.4-0.9-0.6c-0.3-0.1-0.6-0.2-0.9-0.2c-0.7,0-1.2,0.3-1.7,0.9
	s-0.7,1.5-0.7,2.6c0,0.5,0.1,1.1,0.3,1.6c0.2,0.5,0.5,0.9,0.9,1.2c0.4,0.3,0.8,0.4,1.4,0.4c0.3,0,0.5,0,0.8-0.1
	c0.1,0,0.3-0.1,0.4-0.2c0.1-0.1,0.1-0.2,0.1-0.3c0-0.2,0-0.5,0-1c0-0.4,0-0.7,0-0.8c0-0.1-0.1-0.1-0.1-0.1s-0.1,0-0.2-0.1l-0.5-0.1
	c-0.1,0-0.2-0.1-0.2-0.1c0-0.1,0-0.1,0-0.1c0-0.1,0-0.1,0-0.2c0.1,0,0.1,0,0.1,0c0.4,0,0.8,0,1.1,0c0.1,0,0.2,0,0.4,0h0.9h0.4
	c0,0,0.2,0,0.4,0c0,0.1,0,0.2,0,0.3C75.6,21.4,75.6,21.4,75.6,21.5z"/>
</svg>
