<?xml version="1.0" encoding="utf-8"?>
<!-- Generator: Adobe Illustrator 21.0.0, SVG Export Plug-In . SVG Version: 6.00 Build 0)  -->
<svg version="1.1" id="Layer_1" xmlns="http://www.w3.org/2000/svg" xmlns:xlink="http://www.w3.org/1999/xlink" x="0px" y="0px"
	 viewBox="0 0 204 79.5" style="enable-background:new 0 0 204 79.5;" xml:space="preserve">
<style type="text/css">
	.st0{fill:#F9F1DD;}
</style>
<g>
	<path class="st0" d="M43,29.4c0.4,0,0.8,0.1,1.2,0.1c0.6,0.1,1.3,0.1,2.2,0.1c0.3,0,1,0,2.2-0.1c1.7-0.1,3.3-0.1,4.7-0.1l2.1,0
		c0.5,0,1.2,0.1,2.1,0.2c0.1,0.2,0.2,0.4,0.2,0.6v2.4l0,0.5c0,0,0,0.1,0,0.2l-0.5,0c-0.1,0-0.2,0-0.4,0c-0.1-0.2-0.2-0.4-0.3-0.7
		L56,31.8c-0.2-0.4-0.4-0.7-0.8-1.1c-0.2-0.1-0.4-0.1-0.8-0.1c-0.1,0-0.3,0-0.7-0.1c-0.7-0.1-1.5-0.1-2.3-0.1c-1,0-1.8,0-2.6,0
		c0,0.2,0,1,0,2.3l0,2v1.5c0.2,0,0.4,0,0.5,0c1.4,0,2.4,0,3-0.1c0.6-0.1,1-0.1,1.1-0.2c0.1-0.1,0.3-0.3,0.4-0.5
		c0.1-0.2,0.2-0.7,0.4-1.7l0.2,0l0.7,0c0,0.7,0,1.2,0,1.6c0,0.8,0,1.4,0,1.6s0,0.4,0,0.6c0,0.2,0,0.6,0,1c0,0.5,0,0.8,0,1v0.3h-0.8
		c0-0.1-0.1-0.4-0.2-0.8c-0.2-0.7-0.3-1.2-0.4-1.4c-0.1-0.1-0.3-0.2-0.5-0.3c-0.2-0.1-0.7-0.1-1.7-0.1c-1.2,0-2.1,0-2.7,0.1
		c0,0.2,0,0.3,0,0.4c0,0.9,0,1.7,0,2.3l0,2.5c0,0.3,0.1,0.5,0.3,0.6c0.3,0.2,1.3,0.2,2.9,0.2c1.1,0,2-0.1,2.8-0.2
		c0.5-0.1,1-0.4,1.4-0.8c0.5-0.5,1-1.3,1.3-2.2c0.2,0,0.4,0,0.6,0c0.1,0,0.2,0,0.4,0c0,0.2,0,0.4-0.1,0.5l-0.1,0.4l-0.4,2.2
		l-0.2,1.3c-0.5,0-0.9,0-1.2,0c-0.4,0-1.6,0-3.5-0.1c-1.3-0.1-3-0.1-4.8-0.1c-0.9,0-2.1,0-3.5,0.1h-0.5l-1.4,0v-0.8
		c0.1,0,0.4-0.1,0.9-0.1c0.8-0.1,1.4-0.2,1.7-0.4c0.1-0.2,0.1-0.5,0.1-0.9c0-0.1,0-0.4,0-0.7l0-0.4l0-4.4l0-1.3l-0.1-1.9l0-1.3
		L45.5,31c0,0,0-0.1,0-0.2c-0.1-0.1-0.2-0.1-0.4-0.2c-0.1,0-0.2,0-0.4-0.1c-0.4-0.1-0.9-0.1-1.3-0.2c-0.1,0-0.3,0-0.5,0L43,29.4z"/>
	<path class="st0" d="M60.9,30.3l0-0.8h1l0.3,0c0.5,0,0.8,0,1,0c0.1,0,0.4,0,0.8,0c0.1,0,0.2,0,0.3,0c0.1,0,0.3,0,0.7,0
		c0.4,0,0.7,0,0.7,0c0.1,0,0.2,0,0.4,0c1.2,1.1,2.2,2,2.9,2.8c0.8,0.8,3.5,3.6,8.3,8.3v-0.3l0-1.4c0-0.8-0.1-1.4-0.1-1.9
		c0-0.5-0.1-1-0.1-1.7c0-0.6,0-1.2-0.1-1.8c-0.1-1-0.1-1.6-0.1-1.8c0-0.5-0.1-0.8-0.2-0.9c-0.2-0.2-0.5-0.3-1.1-0.4
		c-0.4-0.1-0.8-0.2-1-0.3l0-0.7l0.3,0l2.3-0.1l2.6-0.1c0.2,0,0.3,0,0.5,0l0,0.8c-0.2,0.1-0.4,0.2-0.6,0.2c-0.5,0.1-0.8,0.2-0.9,0.2
		c-0.4,0.2-0.6,0.4-0.6,0.4c-0.1,0.1-0.1,0.2-0.1,0.4c0,0,0,0.2,0,0.5c0,0.1,0,0.5,0,1c0,1.1,0,2,0.1,2.7c0,0.2,0,0.5,0,0.7l0.1,4.1
		c0,0.3,0,0.5,0,0.6v1.4l0,0.6l0,0.6c0,0.3,0,0.5,0,0.6v0.6l-1.4,0l-1.4-1.4l-2.9-2.8l-2-2l-1.5-1.5c-1-0.9-1.8-1.8-2.6-2.5L64.9,33
		l0.1,4.4c0,0.3,0,0.5,0,0.8l0,0.8l0.1,1.5c0,0.6,0.1,1.3,0.1,2.1c0,0.2,0,0.3,0.1,0.4c0,0.1,0.1,0.2,0.1,0.4c0.3,0.1,1,0.2,2,0.2
		c0.1,0,0.2,0,0.3,0.1l0,1l-0.5,0c-0.3,0-1-0.1-2.4-0.2c-1.2,0-2.1,0-2.5,0.1c-0.4,0-0.6,0-0.7,0c-0.1,0-0.2,0-0.4,0
		c0-0.2,0-0.3,0-0.5c0-0.1,0-0.2,0-0.4c0.2,0,0.4-0.1,0.5-0.1c0,0,0.2,0,0.5,0c0.7,0,1,0,1.2-0.1c0.1-0.1,0.2-0.4,0.2-0.8
		c0.1-1.2,0.1-2,0.1-2.3v-0.6l0-3.8l0-2.4c0-0.9-0.1-1.5-0.2-1.9c0-0.2-0.1-0.3-0.3-0.5c-0.3-0.3-0.6-0.5-0.9-0.6
		C62.3,30.5,61.7,30.4,60.9,30.3z"/>
	<path class="st0" d="M97.5,30.4c0.1,0.2,0.1,0.7,0.2,1.3c0.1,0.7,0.1,1.2,0.1,1.5c0,0.1,0,0.3-0.1,0.4c-0.3,0-0.6,0-0.9-0.1
		c-0.6-0.9-1-1.5-1.3-1.7c-0.5-0.4-1-0.8-1.8-1.1c-0.5-0.2-1.1-0.3-1.8-0.3c-1.3,0-2.5,0.6-3.5,1.8c-1,1.2-1.5,2.9-1.5,5.2
		c0,1.1,0.2,2.1,0.6,3.2c0.4,1,1,1.8,1.7,2.4c0.8,0.6,1.7,0.9,2.7,0.9c0.5,0,1-0.1,1.6-0.2c0.3-0.1,0.5-0.2,0.7-0.4
		c0.1-0.1,0.2-0.3,0.2-0.6c0.1-0.5,0.1-1.1,0.1-1.9c0-0.8,0-1.4,0-1.7c-0.1-0.1-0.1-0.2-0.2-0.2c-0.1,0-0.2-0.1-0.5-0.2l-1-0.3
		c-0.2-0.1-0.4-0.1-0.4-0.2c0-0.1,0-0.2,0-0.2c0-0.1,0-0.3,0.1-0.5c0.1,0,0.2-0.1,0.3-0.1c0.9,0,1.6,0,2.2,0.1c0.2,0,0.5,0,0.7,0
		l1.9,0l0.8,0c0.1,0,0.4,0,0.8,0c0,0.2,0,0.4,0,0.5c0,0.1,0,0.2-0.1,0.3c-0.1,0.1-0.4,0.2-0.7,0.3c-0.3,0.1-0.5,0.2-0.5,0.2
		C98,38.9,98,39,97.9,39.1c0,0.1,0,0.6,0,1.4c0,0.9,0,1.5,0,1.7c0,0.6,0,0.9,0,1c0,0.3,0,0.5-0.1,0.5c-0.2,0.2-0.9,0.5-2,0.7
		c-1.1,0.3-2.5,0.4-4,0.4c-1.1,0-2-0.1-2.8-0.3s-1.4-0.4-2-0.7c-0.7-0.4-1.4-1-1.9-1.6c-0.5-0.6-0.9-1.3-1.2-2
		c-0.4-1-0.5-2.1-0.5-3.1c0-1.2,0.3-2.3,0.8-3.5c0.4-0.9,0.9-1.6,1.7-2.3s1.6-1.2,2.7-1.6c1.1-0.4,2.2-0.6,3.5-0.6
		c0.2,0,0.4,0,0.8,0.1c1,0,1.8,0.1,2.7,0.4C96.2,29.7,96.9,30,97.5,30.4z"/>
	<path class="st0" d="M101.5,43.6c0.2-0.1,0.6-0.1,1-0.2c0.4-0.1,0.7-0.1,0.8-0.1c0.3,0,0.5-0.1,0.6-0.1c0-0.2,0.1-0.3,0.1-0.5
		l0-1.5l0.1-1.5v-1l0-1.2l0-1.2l0-2.6l0-1.2v-0.2c-0.1-0.8-0.1-1.3-0.2-1.4c-0.1-0.1-0.3-0.2-0.7-0.3c0,0-0.2-0.1-0.4-0.2
		c-0.2-0.1-0.4-0.1-0.5-0.2c-0.3-0.1-0.5-0.2-0.6-0.2c0-0.2,0-0.4,0-0.5c0-0.1,0-0.2,0-0.3c0.1,0,0.1-0.1,0.2-0.1c0.2,0,0.9,0,2,0.1
		l1.7,0l1.2,0c0.5,0,1.2,0,2.1-0.1c0.3,0,0.4,0,0.4,0c0.1,0,0.2,0,0.2,0.1c0.1,0.1,0.1,0.2,0.1,0.5c0,0.2,0,0.3-0.1,0.4
		c0,0.1-0.2,0.1-0.5,0.1l-1.5,0.3c0,0-0.1,0-0.2,0.1c0,0.1-0.1,0.1-0.1,0.1l0,0.3l0,0.7v0.2v0.1c0,0,0,0.3,0,0.6c0,0.1,0,0.2,0,0.3
		c0,0.1,0,0.3,0,0.6c0,0.5,0,0.9,0,1.2c0,0.4,0,0.9,0,1.4c0,0.2,0,0.5,0,0.8l0,5.6c0,0.2,0,0.4,0.1,0.5l1.1,0l0.7,0l0.7,0
		c1.3,0,2.3-0.1,3-0.4c0.5-0.2,0.9-0.4,1.1-0.7c0.3-0.2,0.5-0.5,0.7-0.8s0.4-0.7,0.6-1.4h0.4c0.2,0,0.4,0,0.6,0v0.3
		c0,0.6-0.1,1.5-0.2,3c-0.1,0.6-0.1,0.9-0.2,1c-0.2,0-0.3,0-0.3,0h-0.4l-0.6,0c-0.1,0-0.5,0-1.4-0.1c-0.2,0-0.9,0-2.2-0.1
		c-1.3,0-2.7-0.1-3.9-0.1l-2.4,0.1c-0.9,0-1.8,0.1-2.6,0.1h-0.2c0,0-0.1,0-0.2,0c0-0.1,0-0.2,0-0.2C101.5,44,101.5,43.8,101.5,43.6z
		"/>
	<path class="st0" d="M118.4,44.6v-0.8c0.2,0,0.4-0.1,0.8-0.2c0.5-0.1,0.9-0.3,1.1-0.4c0.1-0.2,0.2-0.6,0.2-1l0-1.4l0-2.7l0-0.6
		c0.1-1.6,0.1-2.3,0.1-2.4l0-1.6l0-0.6l-0.1-1.3l0-0.5c0-0.1,0-0.2-0.1-0.4c-0.3-0.1-0.8-0.2-1.6-0.3c-0.2,0-0.3,0-0.4,0l0-1
		l3.4,0.1c0.4,0,0.7,0,0.8,0c0.5,0,1.2,0,2.2-0.1c0.6,0,0.9-0.1,1.1-0.1c0,0.1,0,0.3,0,0.4c0,0.1,0,0.3,0,0.5
		c-0.3,0.1-0.7,0.2-1.1,0.3c-0.4,0.1-0.7,0.2-1,0.3c0,0.2-0.1,0.5-0.1,0.9c0,0.3,0,0.6,0,0.8c0,1.3,0,2.3,0,3.1l0,3.1l-0.1,1.6
		l0,2.3l0,0.4c0,0.1,0,0.2,0.1,0.3c0.5,0.1,0.9,0.2,1.3,0.2c0.1,0,0.3,0,0.7,0.1c0,0.2,0,0.4,0,0.6c0,0.1,0,0.2,0,0.4
		c-0.1,0-0.2,0-0.2,0c-0.2,0-0.4,0-0.4,0c-0.1,0-0.2,0-0.3,0c-0.1,0-0.6-0.1-1.6-0.2l-2.1,0c-0.4,0-1,0-1.8,0.1
		C118.9,44.6,118.6,44.6,118.4,44.6z"/>
	<path class="st0" d="M138.1,29.7c0.1,0.3,0.1,0.7,0.2,1.2c0.1,0.8,0.1,1.4,0.1,1.9c0,0.1,0,0.3,0,0.5l-0.1,0l-0.8-0.1l-0.1,0
		c-0.3-1-0.7-1.7-1-2.1c-0.6-0.6-1.3-0.9-2.1-0.9c-0.8,0-1.4,0.2-1.8,0.6c-0.5,0.4-0.7,0.9-0.7,1.5c0,0.5,0.2,1,0.7,1.4
		c0.4,0.5,1.4,0.9,2.8,1.3c0.5,0.1,1.1,0.4,1.7,0.7c0.7,0.3,1.2,0.7,1.5,1c0.5,0.5,0.8,1,1,1.4s0.3,1,0.3,1.7c0,0.7-0.1,1.5-0.4,2.2
		c-0.1,0.4-0.4,0.7-0.7,1.1c-0.2,0.2-0.6,0.5-1.1,0.8c-0.5,0.3-1,0.5-1.5,0.7c-0.5,0.1-1.2,0.2-2,0.2c-0.5,0-1.2-0.1-2-0.2l-1.4-0.4
		c-0.4-0.1-0.6-0.2-0.7-0.3c0,0-0.1-0.1-0.1-0.2v-0.1c0-0.1,0-0.6-0.1-1.6c0-0.5,0-0.9,0-1.1v-0.4l1.1,0c0.4,0.9,0.6,1.4,0.7,1.6
		c0.2,0.4,0.5,0.7,0.8,1c0.3,0.2,0.6,0.4,1.1,0.6c0.4,0.1,0.8,0.2,1.3,0.2c0.4,0,0.9-0.1,1.4-0.3s0.9-0.5,1.2-0.9
		c0.3-0.4,0.5-0.9,0.5-1.3c0-0.6-0.3-1.1-0.8-1.6c-0.3-0.3-1.2-0.7-2.7-1.2c-1.4-0.5-2.4-1-3-1.4c-0.6-0.4-1-0.9-1.3-1.6
		c-0.3-0.7-0.5-1.3-0.5-1.9c0-1.2,0.4-2.3,1.3-3.2c0.9-0.9,2.2-1.3,3.9-1.3c0.4,0,0.9,0.1,1.7,0.2C136.8,29.3,137.4,29.5,138.1,29.7
		z"/>
	<path class="st0" d="M142.5,44.5c0-0.2,0-0.5,0.1-0.8l1.5-0.3c0.2,0,0.4-0.1,0.7-0.2l0.2-2.9c0-1.1,0-1.8,0-2.4l0-0.3
		c0-0.3,0-1.1,0-2.4l0-0.3l0-1l0-1v-0.5c0-0.5,0-1-0.1-1.6c0-0.1,0-0.1-0.1-0.3c-0.1,0-0.1,0-0.2,0c-0.1,0-0.2,0-0.2,0
		c-0.3-0.1-0.6-0.1-1-0.1l-0.2,0c-0.2,0-0.4-0.1-0.5-0.1c0-0.2,0-0.4,0-0.4c0-0.1,0-0.2,0.1-0.4c0.2,0,0.4,0,0.7,0
		c0.3,0,0.5,0,0.6,0c1,0.1,1.7,0.2,2.1,0.2c0.2,0,0.4,0,0.6,0c0.2,0,0.4,0,0.6,0c0.3,0,0.9,0,1.9-0.1c0.2,0,0.3-0.1,0.5-0.1
		c0.3,0,0.5,0,0.7,0c0,0.2,0,0.3,0,0.4c0,0.1,0,0.3,0,0.5l-2.1,0.3c-0.2,0.1-0.2,0.2-0.2,0.3l0,0.4l0,0.2l0,0.5l0,0.4v0.1
		c0,0.1,0,0.2,0,0.2l0,1.5c0,0.1,0,0.2,0,0.3c0,0,0,0.2,0,0.4c0,0.1,0,0.3,0,0.4c0,0.1,0,0.4,0,0.8c0.2,0,0.4,0.1,0.6,0.1l1.7,0h0.8
		l2.1,0l2.1-0.1c0.3,0,0.5,0,0.8-0.1c0-0.3,0-0.9,0-2l0-0.5l-0.1-2l-0.1-0.8c0-0.1-0.1-0.1-0.2-0.2c-0.3-0.2-0.8-0.3-1.6-0.5
		c-0.1,0-0.3-0.1-0.4-0.1c0-0.3,0-0.5,0.1-0.7c0.2,0,0.3,0,0.3,0l1.1,0c0.7,0.1,1.5,0.1,2.2,0.1c0.2,0,0.3,0,0.4,0l1.5,0
		c0.1,0,0.3,0,0.4,0c0.3-0.1,0.6-0.1,0.9-0.1c0.2,0,0.5,0,0.8,0c0,0.3,0,0.6-0.1,0.8c-0.7,0.1-1.2,0.3-1.4,0.3
		c-0.2,0.1-0.4,0.2-0.7,0.3l-0.1,0.2v0.2l0,0.3l0,0.2c0,0.2,0,0.3,0,0.4v0.3c0,0.4,0,0.5,0,0.6v1.5l0,1.1l0,1.5c0,0.3,0,1,0,2.1v1.7
		l0,1.4c0,0.3,0,0.6,0,0.9c0.2,0,0.3,0.1,0.5,0.1c0.7,0.2,1.3,0.3,1.7,0.5l0,0.8c-0.3,0-0.5,0-0.6,0c-0.4,0-0.8,0-1.3-0.1
		c-0.6-0.1-1.7-0.1-3.1-0.1c-0.6,0-1.5,0.1-2.5,0.2c-0.1,0-0.2,0-0.4-0.1c0-0.4,0-0.6,0.1-0.8l0.9-0.2l1-0.2c0.1,0,0.2-0.1,0.4-0.1
		c0.1-0.6,0.1-1.7,0.1-3.2l0-1c0-0.4-0.1-0.9-0.1-1.5c-0.3,0-0.6,0-0.9,0l-5.4-0.1l-0.1,0l-0.1,0c-0.1,0-0.1,0-0.2,0
		c-0.2,0-0.4,0-0.5,0h-0.3c-0.1,0-0.3,0-0.5,0.1l-0.1,0.9v0.2c0,0.2,0,0.3,0,0.4v3.6c0,0.2,0,0.4,0,0.6l0.1,0.1l1.7,0.3
		c0.1,0,0.2,0.1,0.2,0.1c0.1,0,0.2,0.1,0.3,0.1c0,0.2,0,0.3,0,0.4c0,0.1,0,0.2,0,0.4c-0.3,0-0.5,0-0.7,0c-0.2,0-0.3,0-0.5,0
		c-0.1,0-0.1,0-0.2,0l-1.7-0.1c-0.4,0-0.9-0.1-1.6-0.1l-0.2,0c-0.3,0-0.5,0-0.6,0C144.2,44.5,143.5,44.5,142.5,44.5z"/>
</g>
</svg>
