<?xml version="1.0" encoding="utf-8"?>
<!-- Generator: Adobe Illustrator 21.0.0, SVG Export Plug-In . SVG Version: 6.00 Build 0)  -->
<svg version="1.1" id="Layer_1" xmlns="http://www.w3.org/2000/svg" xmlns:xlink="http://www.w3.org/1999/xlink" x="0px" y="0px"
	 viewBox="0 0 204 79.5" style="enable-background:new 0 0 204 79.5;" xml:space="preserve">
<style type="text/css">
	.st0{fill:#F9F1DD;}
</style>
<path class="st0" d="M0,0v79.5h204V0H0z M58.4,40.6L58.3,41l-0.4,2.2l-0.2,1.3c-0.5,0-0.9,0-1.2,0c-0.4,0-1.6,0-3.5-0.1
	c-1.3-0.1-3-0.1-4.8-0.1c-0.9,0-2.1,0-3.5,0.1h-0.5h-1.4v-0.8c0.1,0,0.4-0.1,0.9-0.1c0.8-0.1,1.4-0.2,1.7-0.4
	c0.1-0.2,0.1-0.5,0.1-0.9c0-0.1,0-0.4,0-0.7v-0.4v-4.4v-1.3l-0.1-1.9v-1.3l0.1-1.2c0,0,0-0.1,0-0.2c-0.1-0.1-0.2-0.1-0.4-0.2
	c-0.1,0-0.2,0-0.4-0.1c-0.4-0.1-0.9-0.1-1.3-0.2c-0.1,0-0.3,0-0.5,0l0.1-0.9c0.4,0,0.8,0.1,1.2,0.1c0.6,0.1,1.3,0.1,2.2,0.1
	c0.3,0,1,0,2.2-0.1c1.7-0.1,3.3-0.1,4.7-0.1h2.1c0.5,0,1.2,0.1,2.1,0.2c0.1,0.2,0.2,0.4,0.2,0.6v2.4v0.5c0,0,0,0.1,0,0.2h-0.5
	c-0.1,0-0.2,0-0.4,0c-0.1-0.2-0.2-0.4-0.3-0.7L56,31.8c-0.2-0.4-0.4-0.7-0.8-1.1c-0.2-0.1-0.4-0.1-0.8-0.1c-0.1,0-0.3,0-0.7-0.1
	c-0.7-0.1-1.5-0.1-2.3-0.1c-1,0-1.8,0-2.6,0c0,0.2,0,1,0,2.3v2v1.5c0.2,0,0.4,0,0.5,0c1.4,0,2.4,0,3-0.1c0.6-0.1,1-0.1,1.1-0.2
	c0.1-0.1,0.3-0.3,0.4-0.5c0.1-0.2,0.2-0.7,0.4-1.7h0.2h0.7c0,0.7,0,1.2,0,1.6c0,0.8,0,1.4,0,1.6c0,0.2,0,0.4,0,0.6s0,0.6,0,1
	c0,0.5,0,0.8,0,1v0.3h-0.8c0-0.1-0.1-0.4-0.2-0.8c-0.2-0.7-0.3-1.2-0.4-1.4c-0.1-0.1-0.3-0.2-0.5-0.3s-0.7-0.1-1.7-0.1
	c-1.2,0-2.1,0-2.7,0.1c0,0.2,0,0.3,0,0.4c0,0.9,0,1.7,0,2.3v2.5c0,0.3,0.1,0.5,0.3,0.6c0.3,0.2,1.3,0.2,2.9,0.2c1.1,0,2-0.1,2.8-0.2
	c0.5-0.1,1-0.4,1.4-0.8c0.5-0.5,1-1.3,1.3-2.2c0.2,0,0.4,0,0.6,0c0.1,0,0.2,0,0.4,0C58.5,40.3,58.5,40.5,58.4,40.6z M80.3,30
	c-0.2,0.1-0.4,0.2-0.6,0.2c-0.5,0.1-0.8,0.2-0.9,0.2c-0.4,0.2-0.6,0.4-0.6,0.4c-0.1,0.1-0.1,0.2-0.1,0.4c0,0,0,0.2,0,0.5
	c0,0.1,0,0.5,0,1c0,1.1,0,2,0.1,2.7c0,0.2,0,0.5,0,0.7l0.1,4.1c0,0.3,0,0.5,0,0.6v1.4v0.6v0.6c0,0.3,0,0.5,0,0.6v0.6h-1.4l-1.4-1.4
	l-2.9-2.8l-2-2l-1.5-1.5c-1-0.9-1.8-1.8-2.6-2.5L64.9,33l0.1,4.4c0,0.3,0,0.5,0,0.8V39l0.1,1.5c0,0.6,0.1,1.3,0.1,2.1
	c0,0.2,0,0.3,0.1,0.4c0,0.1,0.1,0.2,0.1,0.4c0.3,0.1,1,0.2,2,0.2c0.1,0,0.2,0,0.3,0.1v1h-0.5c-0.3,0-1-0.1-2.4-0.2
	c-1.2,0-2.1,0-2.5,0.1c-0.4,0-0.6,0-0.7,0c-0.1,0-0.2,0-0.4,0c0-0.2,0-0.3,0-0.5c0-0.1,0-0.2,0-0.4c0.2,0,0.4-0.1,0.5-0.1
	c0,0,0.2,0,0.5,0c0.7,0,1,0,1.2-0.1c0.1-0.1,0.2-0.4,0.2-0.8c0.1-1.2,0.1-2,0.1-2.3v-0.6V36v-2.4c0-0.9-0.1-1.5-0.2-1.9
	c0-0.2-0.1-0.3-0.3-0.5c-0.3-0.3-0.6-0.5-0.9-0.6c0-0.1-0.6-0.2-1.4-0.3v-0.8h1h0.3c0.5,0,0.8,0,1,0c0.1,0,0.4,0,0.8,0
	c0.1,0,0.2,0,0.3,0c0.1,0,0.3,0,0.7,0c0.4,0,0.7,0,0.7,0c0.1,0,0.2,0,0.4,0c1.2,1.1,2.2,2,2.9,2.8c0.8,0.8,3.5,3.6,8.3,8.3v-0.3
	v-1.4c0-0.8-0.1-1.4-0.1-1.9s-0.1-1-0.1-1.7c0-0.6,0-1.2-0.1-1.8c-0.1-1-0.1-1.6-0.1-1.8c0-0.5-0.1-0.8-0.2-0.9
	c-0.2-0.2-0.5-0.3-1.1-0.4c-0.4-0.1-0.8-0.2-1-0.3v-0.7h0.3l2.3-0.1l2.6-0.1c0.2,0,0.3,0,0.5,0V30z M99.2,38c0,0.1,0,0.2-0.1,0.3
	c-0.1,0.1-0.4,0.2-0.7,0.3c-0.3,0.1-0.5,0.2-0.5,0.2c0.1,0.1,0.1,0.2,0,0.3c0,0.1,0,0.6,0,1.4c0,0.9,0,1.5,0,1.7c0,0.6,0,0.9,0,1
	c0,0.3,0,0.5-0.1,0.5c-0.2,0.2-0.9,0.5-2,0.7c-1.1,0.3-2.5,0.4-4,0.4c-1.1,0-2-0.1-2.8-0.3s-1.4-0.4-2-0.7c-0.7-0.4-1.4-1-1.9-1.6
	c-0.5-0.6-0.9-1.3-1.2-2c-0.4-1-0.5-2.1-0.5-3.1c0-1.2,0.3-2.3,0.8-3.5c0.4-0.9,0.9-1.6,1.7-2.3s1.6-1.2,2.7-1.6
	c1.1-0.4,2.2-0.6,3.5-0.6c0.2,0,0.4,0,0.8,0.1c1,0,1.8,0.1,2.7,0.4c0.6,0.1,1.3,0.4,1.9,0.8c0.1,0.2,0.1,0.7,0.2,1.3
	c0.1,0.7,0.1,1.2,0.1,1.5c0,0.1,0,0.3-0.1,0.4c-0.3,0-0.6,0-0.9-0.1c-0.6-0.9-1-1.5-1.3-1.7c-0.5-0.4-1-0.8-1.8-1.1
	c-0.5-0.2-1.1-0.3-1.8-0.3c-1.3,0-2.5,0.6-3.5,1.8s-1.5,2.9-1.5,5.2c0,1.1,0.2,2.1,0.6,3.2c0.4,1,1,1.8,1.7,2.4
	c0.8,0.6,1.7,0.9,2.7,0.9c0.5,0,1-0.1,1.6-0.2c0.3-0.1,0.5-0.2,0.7-0.4c0.1-0.1,0.2-0.3,0.2-0.6c0.1-0.5,0.1-1.1,0.1-1.9
	s0-1.4,0-1.7c-0.1-0.1-0.1-0.2-0.2-0.2c-0.1,0-0.2-0.1-0.5-0.2l-1-0.3c-0.2-0.1-0.4-0.1-0.4-0.2c0-0.1,0-0.2,0-0.2
	c0-0.1,0-0.3,0.1-0.5c0.1,0,0.2-0.1,0.3-0.1c0.9,0,1.6,0,2.2,0.1c0.2,0,0.5,0,0.7,0h1.9h0.8c0.1,0,0.4,0,0.8,0
	C99.2,37.7,99.2,37.9,99.2,38z M116.2,40c0,0.6-0.1,1.5-0.2,3c-0.1,0.6-0.1,0.9-0.2,1c-0.2,0-0.3,0-0.3,0h-0.4h-0.6
	c-0.1,0-0.5,0-1.4-0.1c-0.2,0-0.9,0-2.2-0.1c-1.3,0-2.7-0.1-3.9-0.1l-2.4,0.1c-0.9,0-1.8,0.1-2.6,0.1h-0.2c0,0-0.1,0-0.2,0
	c0-0.1,0-0.2,0-0.2c-0.1,0.3-0.1,0.1-0.1-0.1c0.2-0.1,0.6-0.1,1-0.2c0.4-0.1,0.7-0.1,0.8-0.1c0.3,0,0.5-0.1,0.6-0.1
	c0-0.2,0.1-0.3,0.1-0.5v-1.5l0.1-1.5v-1v-1.2v-1.2v-2.6v-1.2v-0.2c-0.1-0.8-0.1-1.3-0.2-1.4c-0.1-0.1-0.3-0.2-0.7-0.3
	c0,0-0.2-0.1-0.4-0.2c-0.2-0.1-0.4-0.1-0.5-0.2c-0.3-0.1-0.5-0.2-0.6-0.2c0-0.2,0-0.4,0-0.5s0-0.2,0-0.3c0.1,0,0.1-0.1,0.2-0.1
	c0.2,0,0.9,0,2,0.1h1.7h1.2c0.5,0,1.2,0,2.1-0.1c0.3,0,0.4,0,0.4,0c0.1,0,0.2,0,0.2,0.1c0.1,0.1,0.1,0.2,0.1,0.5
	c0,0.2,0,0.3-0.1,0.4c0,0.1-0.2,0.1-0.5,0.1l-1.5,0.3c0,0-0.1,0-0.2,0.1c0,0.1-0.1,0.1-0.1,0.1V31v0.7v0.2V32c0,0,0,0.3,0,0.6
	c0,0.1,0,0.2,0,0.3c0,0.1,0,0.3,0,0.6c0,0.5,0,0.9,0,1.2c0,0.4,0,0.9,0,1.4c0,0.2,0,0.5,0,0.8v5.6c0,0.2,0,0.4,0.1,0.5h1.1h0.7h0.7
	c1.3,0,2.3-0.1,3-0.4c0.5-0.2,0.9-0.4,1.1-0.7c0.3-0.2,0.5-0.5,0.7-0.8s0.4-0.7,0.6-1.4h0.4c0.2,0,0.4,0,0.6,0V40z M125.9,29.7
	c0,0.1,0,0.3,0,0.5c-0.3,0.1-0.7,0.2-1.1,0.3c-0.4,0.1-0.7,0.2-1,0.3c0,0.2-0.1,0.5-0.1,0.9c0,0.3,0,0.6,0,0.8c0,1.3,0,2.3,0,3.1
	v3.1l-0.1,1.6v2.3V43c0,0.1,0,0.2,0.1,0.3c0.5,0.1,0.9,0.2,1.3,0.2c0.1,0,0.3,0,0.7,0.1c0,0.2,0,0.4,0,0.6c0,0.1,0,0.2,0,0.4
	c-0.1,0-0.2,0-0.2,0c-0.2,0-0.4,0-0.4,0c-0.1,0-0.2,0-0.3,0c-0.1,0-0.6-0.1-1.6-0.2h-2.1c-0.4,0-1,0-1.8,0.1
	c-0.4,0.1-0.7,0.1-0.9,0.1v-0.8c0.2,0,0.4-0.1,0.8-0.2c0.5-0.1,0.9-0.3,1.1-0.4c0.1-0.2,0.2-0.6,0.2-1v-1.4v-2.7v-0.6
	c0.1-1.6,0.1-2.3,0.1-2.4v-1.6v-0.6l-0.1-1.3v-0.5c0-0.1,0-0.2-0.1-0.4c-0.3-0.1-0.8-0.2-1.6-0.3c-0.2,0-0.3,0-0.4,0v-1l3.4,0.1
	c0.4,0,0.7,0,0.8,0c0.5,0,1.2,0,2.2-0.1c0.6,0,0.9-0.1,1.1-0.1C125.9,29.4,125.9,29.6,125.9,29.7z M139.4,42
	c-0.1,0.4-0.4,0.7-0.7,1.1c-0.2,0.2-0.6,0.5-1.1,0.8c-0.5,0.3-1,0.5-1.5,0.7c-0.5,0.1-1.2,0.2-2,0.2c-0.5,0-1.2-0.1-2-0.2l-1.4-0.4
	c-0.4-0.1-0.6-0.2-0.7-0.3c0,0-0.1-0.1-0.1-0.2v-0.1c0-0.1,0-0.6-0.1-1.6c0-0.5,0-0.9,0-1.1v-0.4h1.1c0.4,0.9,0.6,1.4,0.7,1.6
	c0.2,0.4,0.5,0.7,0.8,1c0.3,0.2,0.6,0.4,1.1,0.6c0.4,0.1,0.8,0.2,1.3,0.2c0.4,0,0.9-0.1,1.4-0.3c0.5-0.2,0.9-0.5,1.2-0.9
	c0.3-0.4,0.5-0.9,0.5-1.3c0-0.6-0.3-1.1-0.8-1.6c-0.3-0.3-1.2-0.7-2.7-1.2c-1.4-0.5-2.4-1-3-1.4c-0.6-0.4-1-0.9-1.3-1.6
	c-0.3-0.7-0.5-1.3-0.5-1.9c0-1.2,0.4-2.3,1.3-3.2c0.9-0.9,2.2-1.3,3.9-1.3c0.4,0,0.9,0.1,1.7,0.2c0.3-0.1,0.9,0.1,1.6,0.3
	c0.1,0.3,0.1,0.7,0.2,1.2c0.1,0.8,0.1,1.4,0.1,1.9c0,0.1,0,0.3,0,0.5h-0.1l-0.8-0.1h-0.1c-0.3-1-0.7-1.7-1-2.1
	c-0.6-0.6-1.3-0.9-2.1-0.9s-1.4,0.2-1.8,0.6c-0.5,0.4-0.7,0.9-0.7,1.5c0,0.5,0.2,1,0.7,1.4c0.4,0.5,1.4,0.9,2.8,1.3
	c0.5,0.1,1.1,0.4,1.7,0.7c0.7,0.3,1.2,0.7,1.5,1c0.5,0.5,0.8,1,1,1.4c0.2,0.4,0.3,1,0.3,1.7S139.7,41.3,139.4,42z M161.5,30.1
	c-0.7,0.1-1.2,0.3-1.4,0.3c-0.2,0.1-0.4,0.2-0.7,0.3l-0.1,0.2v0.2v0.3v0.2c0,0.2,0,0.3,0,0.4v0.3c0,0.4,0,0.5,0,0.6v1.5v1.1V37
	c0,0.3,0,1,0,2.1v1.7v1.4c0,0.3,0,0.6,0,0.9c0.2,0,0.3,0.1,0.5,0.1c0.7,0.2,1.3,0.3,1.7,0.5v0.8c-0.3,0-0.5,0-0.6,0
	c-0.4,0-0.8,0-1.3-0.1c-0.6-0.1-1.7-0.1-3.1-0.1c-0.6,0-1.5,0.1-2.5,0.2c-0.1,0-0.2,0-0.4-0.1c0-0.4,0-0.6,0.1-0.8l0.9-0.2l1-0.2
	c0.1,0,0.2-0.1,0.4-0.1c0.1-0.6,0.1-1.7,0.1-3.2v-1c0-0.4-0.1-0.9-0.1-1.5c-0.3,0-0.6,0-0.9,0l-5.4-0.1h-0.1h-0.1
	c-0.1,0-0.1,0-0.2,0c-0.2,0-0.4,0-0.5,0h-0.3c-0.1,0-0.3,0-0.5,0.1l-0.1,0.9v0.2c0,0.2,0,0.3,0,0.4v3.6c0,0.2,0,0.4,0,0.6l0.1,0.1
	l1.7,0.3c0.1,0,0.2,0.1,0.2,0.1c0.1,0,0.2,0.1,0.3,0.1c0,0.2,0,0.3,0,0.4c0,0.1,0,0.2,0,0.4c-0.3,0-0.5,0-0.7,0s-0.3,0-0.5,0
	c-0.1,0-0.1,0-0.2,0l-1.7-0.1c-0.4,0-0.9-0.1-1.6-0.1h-0.2c-0.3,0-0.5,0-0.6,0c-0.5,0.2-1.2,0.2-2.2,0.2c0-0.2,0-0.5,0.1-0.8
	l1.5-0.3c0.2,0,0.4-0.1,0.7-0.2l0.2-2.9c0-1.1,0-1.8,0-2.4v-0.3c0-0.3,0-1.1,0-2.4v-0.3v-1v-1v-0.5c0-0.5,0-1-0.1-1.6
	c0-0.1,0-0.1-0.1-0.3c-0.1,0-0.1,0-0.2,0c-0.1,0-0.2,0-0.2,0c-0.3-0.1-0.6-0.1-1-0.1h-0.2c-0.2,0-0.4-0.1-0.5-0.1c0-0.2,0-0.4,0-0.4
	c0-0.1,0-0.2,0.1-0.4c0.2,0,0.4,0,0.7,0s0.5,0,0.6,0c1,0.1,1.7,0.2,2.1,0.2c0.2,0,0.4,0,0.6,0c0.2,0,0.4,0,0.6,0
	c0.3,0,0.9,0,1.9-0.1c0.2,0,0.3-0.1,0.5-0.1c0.3,0,0.5,0,0.7,0c0,0.2,0,0.3,0,0.4c0,0.1,0,0.3,0,0.5l-2.1,0.3
	c-0.2,0.1-0.2,0.2-0.2,0.3v0.4v0.2v0.5v0.4v0.1c0,0.1,0,0.2,0,0.2v1.5c0,0.1,0,0.2,0,0.3c0,0,0,0.2,0,0.4c0,0.1,0,0.3,0,0.4
	c0,0.1,0,0.4,0,0.8c0.2,0,0.4,0.1,0.6,0.1h1.7h0.8h2.1l2.1-0.1c0.3,0,0.5,0,0.8-0.1c0-0.3,0-0.9,0-2v-0.5l-0.1-2l-0.1-0.8
	c0-0.1-0.1-0.1-0.2-0.2c-0.3-0.2-0.8-0.3-1.6-0.5c-0.1,0-0.3-0.1-0.4-0.1c0-0.3,0-0.5,0.1-0.7c0.2,0,0.3,0,0.3,0h1.1
	c0.7,0.1,1.5,0.1,2.2,0.1c0.2,0,0.3,0,0.4,0h1.5c0.1,0,0.3,0,0.4,0c0.3-0.1,0.6-0.1,0.9-0.1c0.2,0,0.5,0,0.8,0
	C161.6,29.6,161.6,29.9,161.5,30.1z"/>
</svg>
