<?xml version="1.0" encoding="utf-8"?>
<!-- Generator: Adobe Illustrator 21.0.0, SVG Export Plug-In . SVG Version: 6.00 Build 0)  -->
<svg version="1.1" id="Layer_1" xmlns="http://www.w3.org/2000/svg" xmlns:xlink="http://www.w3.org/1999/xlink" x="0px" y="0px"
	 viewBox="0 0 204 79.5" style="enable-background:new 0 0 204 79.5;" xml:space="preserve">
<style type="text/css">
	.st0{fill:#F9F1DD;}
</style>
<g>
	<path class="st0" d="M42.6,31.2c0.4,0,0.8,0.1,1.2,0.1c0.6,0.1,1.3,0.1,2.1,0.1c0.3,0,1,0,2.2-0.1c1.7-0.1,3.3-0.1,4.7-0.1l2.1,0
		c0.5,0,1.2,0.1,2.1,0.2c0.1,0.2,0.2,0.4,0.2,0.6v2.4l0,0.5c0,0,0,0.1,0,0.2l-0.5,0c-0.1,0-0.2,0-0.4,0c-0.1-0.2-0.2-0.4-0.3-0.7
		l-0.5-0.8c-0.2-0.4-0.4-0.7-0.8-1.1c-0.2-0.1-0.4-0.1-0.8-0.1c-0.1,0-0.3,0-0.7-0.1c-0.7-0.1-1.5-0.1-2.3-0.1c-1,0-1.8,0-2.6,0
		c0,0.2,0,1,0,2.3l0,2v1.5c0.2,0,0.4,0,0.5,0c1.4,0,2.4,0,3-0.1c0.6-0.1,1-0.1,1.1-0.2s0.3-0.3,0.4-0.5c0.1-0.2,0.2-0.7,0.4-1.7
		l0.2,0l0.7,0c0,0.7,0,1.2,0,1.6c0,0.8,0,1.4,0,1.6c0,0.2,0,0.4,0,0.6c0,0.2,0,0.6,0,1c0,0.5,0,0.8,0,1v0.3H54
		c0-0.1-0.1-0.4-0.2-0.8c-0.2-0.7-0.3-1.2-0.4-1.4c-0.1-0.1-0.3-0.2-0.5-0.3c-0.2-0.1-0.7-0.1-1.7-0.1c-1.2,0-2.1,0-2.7,0.1
		c0,0.2,0,0.3,0,0.4c0,0.9,0,1.7,0,2.3l0,2.5c0,0.3,0.1,0.5,0.3,0.6c0.3,0.2,1.3,0.2,2.9,0.2c1.1,0,2-0.1,2.8-0.2
		c0.5-0.1,1-0.4,1.4-0.8c0.5-0.5,1-1.3,1.3-2.2c0.2,0,0.4,0,0.6,0c0.1,0,0.2,0,0.4,0c0,0.2,0,0.4-0.1,0.5l-0.1,0.4l-0.4,2.2
		l-0.2,1.3c-0.5,0-0.9,0-1.2,0c-0.4,0-1.6,0-3.5-0.1c-1.3-0.1-3-0.1-4.8-0.1c-0.9,0-2.1,0-3.5,0.1H44l-1.4,0v-0.8
		c0.1,0,0.4-0.1,0.9-0.1c0.8-0.1,1.4-0.2,1.7-0.4c0.1-0.2,0.1-0.5,0.1-0.9c0-0.1,0-0.4,0-0.7l0-0.4l0-4.4l0-1.3l-0.1-1.9l0-1.3
		l-0.1-1.5c0,0,0-0.1,0-0.2c-0.1-0.1-0.2-0.1-0.4-0.2c-0.1,0-0.2,0-0.4-0.1c-0.4-0.1-0.9-0.1-1.3-0.2c-0.1,0-0.3,0-0.5,0L42.6,31.2z
		"/>
	<path class="st0" d="M70.3,31.5c0.1,0.3,0.1,0.7,0.2,1.2c0.1,0.8,0.1,1.4,0.1,1.9c0,0.1,0,0.3,0,0.5l-0.1,0l-0.8-0.1l-0.1,0
		c-0.3-1-0.7-1.7-1-2.1c-0.6-0.6-1.3-0.9-2.1-0.9c-0.8,0-1.4,0.2-1.8,0.6c-0.5,0.4-0.7,0.9-0.7,1.5c0,0.5,0.2,1,0.7,1.4
		c0.4,0.5,1.4,0.9,2.8,1.3c0.5,0.1,1.1,0.4,1.7,0.7c0.7,0.3,1.2,0.7,1.5,1c0.5,0.5,0.8,1,1,1.4c0.2,0.5,0.3,1,0.3,1.7
		c0,0.7-0.1,1.5-0.4,2.2c-0.1,0.4-0.4,0.7-0.7,1.1c-0.2,0.2-0.6,0.5-1.1,0.8s-1,0.5-1.5,0.7c-0.5,0.1-1.2,0.2-2,0.2
		c-0.5,0-1.2-0.1-2-0.2L62.7,46c-0.4-0.1-0.6-0.2-0.7-0.3c0,0-0.1-0.1-0.1-0.2v-0.1c0-0.1,0-0.6-0.1-1.6c0-0.5,0-0.9,0-1.1v-0.4
		l1.1,0c0.4,0.9,0.6,1.4,0.7,1.6c0.2,0.4,0.5,0.7,0.8,1c0.3,0.2,0.6,0.4,1.1,0.6c0.4,0.1,0.8,0.2,1.3,0.2c0.4,0,0.9-0.1,1.4-0.3
		s0.9-0.5,1.2-0.9c0.3-0.4,0.5-0.9,0.5-1.3c0-0.6-0.3-1.1-0.8-1.6c-0.3-0.3-1.2-0.7-2.7-1.2c-1.4-0.5-2.4-1-3-1.4
		c-0.6-0.4-1-0.9-1.3-1.6c-0.3-0.7-0.5-1.3-0.5-1.9c0-1.2,0.4-2.3,1.3-3.2c0.9-0.9,2.2-1.3,3.9-1.3c0.4,0,0.9,0.1,1.7,0.2
		C69,31.1,69.6,31.3,70.3,31.5z"/>
	<path class="st0" d="M74.4,32l0-0.9l2.8,0.2l1.3,0h0.5c0.5,0,1.2,0,2.2-0.1c0.6,0,0.9-0.1,1.1-0.1c1,0,1.7,0.1,2.2,0.2
		c0.8,0.2,1.4,0.4,1.8,0.8c0.5,0.3,0.8,0.8,1.2,1.5c0.3,0.6,0.5,1.2,0.5,1.8c0,1.4-0.4,2.5-1.3,3.3c-0.9,0.8-1.9,1.3-3.2,1.3
		c-0.5,0-0.9-0.1-1.3-0.2c-0.4-0.1-0.8-0.3-1.2-0.5c0-0.2-0.1-0.5-0.1-0.9c0.2,0,0.4,0,0.5,0c0.2,0,0.3,0,0.4,0
		c0.7,0,1.2-0.2,1.7-0.6c0.6-0.5,0.9-1.3,0.9-2.3c0-0.8-0.1-1.4-0.4-1.9c-0.3-0.5-0.6-0.8-0.9-1c-0.5-0.2-1.1-0.4-1.7-0.4
		c-0.6,0-1,0.1-1.3,0.3c-0.1,0.1-0.1,0.2-0.1,0.3l0.1,5.5l0,0.5l0,0.5c0,0.1,0,0.3,0,0.5v1l0,1.5l0,1.8c0,0.3,0,0.6,0.1,1l2.3,0.3
		c0,0.2,0,0.3,0,0.4c0,0.1,0,0.3-0.1,0.5c-0.2,0-0.3,0-0.4,0c-0.2,0-0.7,0-1.4-0.1c-0.7-0.1-1.4-0.1-2.3-0.1c-1,0-1.9,0.1-2.8,0.2
		c-0.1,0-0.4,0-0.7,0.1c0-0.2,0-0.4,0-0.5c0-0.1,0-0.2,0-0.3l0.7-0.2c0.5-0.1,0.9-0.3,1.3-0.5c0.1-0.2,0.1-0.4,0.1-0.6
		c0-0.1,0-0.2,0-0.3c0-0.2,0-0.6,0-1l0-3.3l-0.1-3.7c-0.1-1.8-0.1-2.7-0.1-2.9c-0.1-0.2-0.1-0.4-0.3-0.5c-0.1-0.1-0.4-0.2-0.7-0.3
		C75.1,32.1,74.6,32.1,74.4,32z"/>
	<path class="st0" d="M87.8,46.4l0-0.8c0.1,0,0.4-0.1,0.8-0.2c0.6-0.1,1-0.2,1.1-0.3c0.1-0.1,0.3-0.3,0.5-0.7l2.4-6.2l2.8-7.3
		c0.3,0,0.5,0,0.7,0h0.5l0.1,0.2l2,4.8c0.5,1,0.9,2,1.2,3c0.4,1,0.7,1.8,1,2.4c0.2,0.4,0.4,0.9,0.6,1.7c0.1,0.4,0.4,0.9,0.6,1.5
		c0.2,0.3,0.3,0.5,0.4,0.6c0.1,0.1,0.4,0.2,0.7,0.2c0.3,0,0.7,0.1,1,0.3c0,0.3,0.1,0.5,0.1,0.6c0,0.1,0,0.1,0,0.3
		c-0.6,0-1.2,0-1.9-0.1c-0.7-0.1-1.3-0.1-1.9-0.1c-0.6,0-1.1,0-1.3,0l-2,0.1l-0.6,0c0-0.3,0-0.5,0-0.8l1.3-0.3
		c0.4-0.1,0.6-0.2,0.7-0.2c0.1-0.1,0.1-0.2,0.1-0.3s0-0.2-0.1-0.3l-0.5-1.2L97.3,41l-4.5,0c-0.2,0.4-0.5,1.3-1,2.8
		c-0.1,0.4-0.2,0.7-0.2,0.8c0,0.2,0.1,0.3,0.2,0.4c0.2,0.1,0.5,0.3,1,0.3c0.1,0,0.3,0.1,0.8,0.1c0,0.3,0,0.5,0,0.6
		c0,0.1,0,0.2,0,0.3c-0.5,0-1.6-0.1-3.5-0.2l-0.5,0.1c-0.6,0.1-1.1,0.1-1.7,0.1H87.8z M93.3,39.8c1.8,0,2.9,0,3.2,0l0.3,0
		c-0.2-0.7-0.5-1.5-0.9-2.4c-0.4-0.9-0.7-1.6-0.9-2.1L93.3,39.8z"/>
	<path class="st0" d="M105.2,32.1l0-0.8h1l0.3,0c0.5,0,0.8,0,1,0c0.1,0,0.4,0,0.8,0c0.1,0,0.2,0,0.3,0c0.1,0,0.3,0,0.7,0
		c0.4,0,0.7,0,0.7,0c0.1,0,0.2,0,0.4,0c1.2,1.1,2.2,2,2.9,2.8c0.8,0.8,3.5,3.6,8.3,8.3v-0.3l0-1.4c0-0.8-0.1-1.4-0.1-1.9
		c0-0.5-0.1-1-0.1-1.7c0-0.6,0-1.2-0.1-1.8c-0.1-1-0.1-1.6-0.1-1.8c0-0.5-0.1-0.8-0.2-0.9c-0.2-0.2-0.5-0.3-1.1-0.4
		c-0.4-0.1-0.8-0.2-1-0.3l0-0.7l0.3,0l2.3-0.1l2.6-0.1c0.2,0,0.3,0,0.5,0l0,0.8c-0.2,0.1-0.4,0.2-0.6,0.2c-0.5,0.1-0.8,0.2-0.9,0.2
		c-0.4,0.2-0.6,0.4-0.6,0.4c-0.1,0.1-0.1,0.2-0.1,0.4c0,0,0,0.2,0,0.5c0,0.1,0,0.5,0,1c0,1.1,0,2,0.1,2.7c0,0.2,0,0.5,0,0.7l0.1,4.1
		c0,0.3,0,0.5,0,0.6v1.4l0,0.6l0,0.6c0,0.3,0,0.5,0,0.6v0.6l-1.4,0l-1.4-1.4l-2.9-2.8l-2-2l-1.5-1.5c-1-0.9-1.8-1.8-2.6-2.5
		l-1.9-1.7l0.1,4.4c0,0.3,0,0.5,0,0.8l0,0.8l0.1,1.5c0,0.6,0.1,1.3,0.1,2.1c0,0.2,0,0.3,0.1,0.4s0.1,0.2,0.1,0.4
		c0.3,0.1,1,0.2,2,0.2c0.1,0,0.2,0,0.3,0.1l0,1l-0.5,0c-0.3,0-1-0.1-2.4-0.2c-1.2,0-2.1,0-2.5,0.1s-0.6,0-0.7,0c-0.1,0-0.2,0-0.4,0
		c0-0.2,0-0.3,0-0.5c0-0.1,0-0.2,0-0.4c0.2,0,0.4-0.1,0.5-0.1c0,0,0.2,0,0.5,0c0.7,0,1,0,1.2-0.1c0.1-0.1,0.2-0.4,0.2-0.8
		c0.1-1.2,0.1-2,0.1-2.3v-0.6l0-3.8l0-2.4c0-0.9-0.1-1.5-0.2-1.9c0-0.2-0.1-0.3-0.3-0.5c-0.3-0.3-0.6-0.5-0.9-0.6
		C106.6,32.4,106,32.3,105.2,32.1z M118.6,26.5h0.4c0.1,0,0.2,0,0.3,0c0,1-0.3,1.8-0.7,2.3c-0.5,0.5-1.1,0.8-1.7,0.8
		c-0.3,0-0.6,0-0.9-0.1c-0.2-0.1-0.6-0.2-1.2-0.4s-0.9-0.4-1-0.4c-0.1,0-0.3-0.1-0.5-0.1c-0.3,0-0.5,0.1-0.6,0.2
		c-0.2,0.1-0.3,0.4-0.4,0.8l-0.7,0c0-0.1,0-0.2,0-0.4c0-0.7,0.3-1.4,0.8-1.9c0.5-0.5,1-0.8,1.6-0.8c0.3,0,0.6,0,0.9,0.1
		s0.7,0.2,1.2,0.4c0.5,0.2,0.9,0.4,1,0.4c0.2,0,0.4,0.1,0.6,0.1c0.2,0,0.4-0.1,0.6-0.2C118.3,27.3,118.5,27,118.6,26.5z"/>
	<path class="st0" d="M127.6,38.6c0-1,0.2-1.9,0.6-2.9c0.3-0.7,0.7-1.4,1.2-1.9c0.5-0.6,1.1-1.1,1.9-1.6c0.7-0.5,1.5-0.8,2.3-1
		c0.8-0.2,1.6-0.3,2.6-0.3c1.6,0,3,0.3,4.2,0.9c1.2,0.6,2.1,1.4,2.8,2.5c0.9,1.4,1.3,2.8,1.3,4.3c0,2.2-0.8,4.1-2.3,5.7
		c-1.5,1.6-3.6,2.4-6.3,2.4c-0.7,0-1.3,0-1.9-0.1c-0.4-0.1-0.8-0.1-1.2-0.3c-0.6-0.2-0.9-0.3-1-0.3c-0.9-0.5-1.5-1-2.1-1.5
		c-0.5-0.5-1-1.1-1.3-1.7c-0.2-0.4-0.4-1-0.7-1.9C127.7,40.1,127.6,39.4,127.6,38.6z M135.6,32.1c-0.7,0-1.3,0.2-1.8,0.5
		c-0.5,0.3-0.9,0.7-1.2,1.1c-0.4,0.6-0.8,1.4-0.9,2.1c-0.2,0.8-0.3,1.7-0.3,2.8c0,0.7,0,1.2,0.1,1.4c0,0.1,0,0.3,0.1,0.5
		c0.1,0.6,0.2,1,0.2,1.3c0.3,1,0.6,1.6,0.7,1.8c0.2,0.4,0.6,0.8,1,1.2c0.2,0.2,0.6,0.4,1,0.6c0.4,0.2,0.9,0.3,1.3,0.3
		c0.8,0,1.6-0.2,2.4-0.6c0.7-0.4,1.3-1.1,1.7-2c0.4-0.9,0.7-2.2,0.7-3.7c0-0.6,0-1.5-0.1-2.5l-0.1-0.2c0-0.1-0.1-0.2-0.1-0.5
		c-0.3-1.3-0.8-2.3-1.7-2.9C137.9,32.4,136.8,32.1,135.6,32.1z"/>
	<path class="st0" d="M147.3,45.4c0.2-0.1,0.6-0.1,1-0.2c0.4-0.1,0.7-0.1,0.8-0.1c0.3,0,0.5-0.1,0.6-0.1c0-0.2,0.1-0.3,0.1-0.5
		l0-1.5l0.1-1.5v-1l0-1.2l0-1.2l0-2.6l0-1.2v-0.2c-0.1-0.8-0.1-1.3-0.2-1.4c-0.1-0.1-0.3-0.2-0.7-0.3c0,0-0.2-0.1-0.4-0.2
		c-0.2-0.1-0.4-0.1-0.5-0.2c-0.3-0.1-0.5-0.2-0.6-0.2c0-0.2,0-0.4,0-0.5c0-0.1,0-0.2,0-0.3c0.1,0,0.1-0.1,0.2-0.1c0.2,0,0.9,0,2,0.1
		l1.7,0l1.2,0c0.5,0,1.2,0,2.1-0.1c0.3,0,0.4,0,0.4,0c0.1,0,0.2,0,0.2,0.1c0.1,0.1,0.1,0.2,0.1,0.5c0,0.2,0,0.3-0.1,0.4
		c0,0.1-0.2,0.1-0.5,0.1l-1.5,0.3c0,0-0.1,0-0.2,0.1c0,0.1-0.1,0.1-0.1,0.1l0,0.3l0,0.7V34v0.1c0,0,0,0.3,0,0.6c0,0.1,0,0.2,0,0.3
		c0,0.1,0,0.3,0,0.6c0,0.5,0,0.9,0,1.2c0,0.4,0,0.9,0,1.4c0,0.2,0,0.5,0,0.8l0,5.6c0,0.2,0,0.4,0.1,0.5l1.1,0l0.7,0l0.7,0
		c1.3,0,2.3-0.1,3-0.4c0.5-0.2,0.9-0.4,1.1-0.7c0.3-0.2,0.5-0.5,0.7-0.8c0.2-0.3,0.4-0.7,0.6-1.4h0.4c0.2,0,0.4,0,0.6,0v0.3
		c0,0.6-0.1,1.5-0.2,3c-0.1,0.6-0.1,0.9-0.2,1c-0.2,0-0.3,0-0.3,0h-0.4l-0.6,0c-0.1,0-0.5,0-1.4-0.1c-0.2,0-0.9,0-2.2-0.1
		c-1.3,0-2.7-0.1-3.9-0.1l-2.4,0.1c-0.9,0-1.8,0.1-2.6,0.1h-0.2c0,0-0.1,0-0.2,0c0-0.1,0-0.2,0-0.2
		C147.3,45.8,147.3,45.6,147.3,45.4z"/>
</g>
</svg>
