<?xml version="1.0" encoding="utf-8"?>
<!-- Generator: Adobe Illustrator 21.0.0, SVG Export Plug-In . SVG Version: 6.00 Build 0)  -->
<svg version="1.1" id="Layer_1" xmlns="http://www.w3.org/2000/svg" xmlns:xlink="http://www.w3.org/1999/xlink" x="0px" y="0px"
	 viewBox="0 0 204 79.5" style="enable-background:new 0 0 204 79.5;" xml:space="preserve">
<style type="text/css">
	.st0{fill:#F9F1DD;}
</style>
<g>
	<path class="st0" d="M140.4,36.7c0-0.1-0.1-0.2-0.1-0.5c-0.3-1.3-0.8-2.3-1.7-2.9c-0.7-0.9-1.8-1.2-3-1.2c-0.7,0-1.3,0.2-1.8,0.5
		c-0.5,0.3-0.9,0.7-1.2,1.1c-0.4,0.6-0.8,1.4-0.9,2.1c-0.2,0.8-0.3,1.7-0.3,2.8c0,0.7,0,1.2,0.1,1.4c0,0.1,0,0.3,0.1,0.5
		c0.1,0.6,0.2,1,0.2,1.3c0.3,1,0.6,1.6,0.7,1.8c0.2,0.4,0.6,0.8,1,1.2c0.2,0.2,0.6,0.4,1,0.6c0.4,0.2,0.9,0.3,1.3,0.3
		c0.8,0,1.6-0.2,2.4-0.6c0.7-0.4,1.3-1.1,1.7-2c0.4-0.9,0.7-2.2,0.7-3.7c0-0.6,0-1.5-0.1-2.5L140.4,36.7z"/>
	<path class="st0" d="M95,35.3l-1.7,4.5c1.8,0,2.9,0,3.2,0h0.3c-0.2-0.7-0.5-1.5-0.9-2.4C95.5,36.5,95.2,35.8,95,35.3z"/>
	<path class="st0" d="M0,0v79.5h204V0H0z M111.6,29.2c0-0.7,0.3-1.4,0.8-1.9s1-0.8,1.6-0.8c0.3,0,0.6,0,0.9,0.1
		c0.3,0.1,0.7,0.2,1.2,0.4s0.9,0.4,1,0.4c0.2,0,0.4,0.1,0.6,0.1s0.4-0.1,0.6-0.2c0,0,0.2-0.3,0.3-0.8h0.4c0.1,0,0.2,0,0.3,0
		c0,1-0.3,1.8-0.7,2.3c-0.5,0.5-1.1,0.8-1.7,0.8c-0.3,0-0.6,0-0.9-0.1c-0.2-0.1-0.6-0.2-1.2-0.4c-0.6-0.2-0.9-0.4-1-0.4
		c-0.1,0-0.3-0.1-0.5-0.1c-0.3,0-0.5,0.1-0.6,0.2c-0.2,0.1-0.3,0.4-0.4,0.8h-0.7C111.6,29.5,111.6,29.4,111.6,29.2z M58.1,42.4
		L58,42.8L57.6,45l-0.2,1.3c-0.5,0-0.9,0-1.2,0c-0.4,0-1.6,0-3.5-0.1c-1.3-0.1-3-0.1-4.8-0.1c-0.9,0-2.1,0-3.5,0.1H44h-1.4v-0.8
		c0.1,0,0.4-0.1,0.9-0.1c0.8-0.1,1.4-0.2,1.7-0.4c0.1-0.2,0.1-0.5,0.1-0.9c0-0.1,0-0.4,0-0.7v-0.4v-4.4v-1.3l-0.1-1.9V34l-0.1-1.5
		c0,0,0-0.1,0-0.2c-0.1-0.1-0.2-0.1-0.4-0.2c-0.1,0-0.2,0-0.4-0.1c-0.4-0.1-0.9-0.1-1.3-0.2c-0.1,0-0.3,0-0.5,0l0.1-0.6
		c0.4,0,0.8,0.1,1.2,0.1c0.6,0.1,1.3,0.1,2.1,0.1c0.3,0,1,0,2.2-0.1c1.7-0.1,3.3-0.1,4.7-0.1h2.1c0.5,0,1.2,0.1,2.1,0.2
		c0.1,0.2,0.2,0.4,0.2,0.6v2.4v0.5c0,0,0,0.1,0,0.2h-0.5c-0.1,0-0.2,0-0.4,0c-0.1-0.2-0.2-0.4-0.3-0.7l-0.5-0.8
		c-0.2-0.4-0.4-0.7-0.8-1.1c-0.2-0.1-0.4-0.1-0.8-0.1c-0.1,0-0.3,0-0.7-0.1c-0.7-0.1-1.5-0.1-2.3-0.1c-1,0-1.8,0-2.6,0
		c0,0.2,0,1,0,2.3v2V38c0.2,0,0.4,0,0.5,0c1.4,0,2.4,0,3-0.1c0.6-0.1,1-0.1,1.1-0.2c0.1-0.1,0.3-0.3,0.4-0.5
		c0.1-0.2,0.2-0.7,0.4-1.7h0.2h0.7c0,0.7,0,1.2,0,1.6c0,0.8,0,1.4,0,1.6s0,0.4,0,0.6s0,0.6,0,1c0,0.5,0,0.8,0,1v0.3H54
		c0-0.1-0.1-0.4-0.2-0.8c-0.2-0.7-0.3-1.2-0.4-1.4c-0.1-0.1-0.3-0.2-0.5-0.3C52.7,39,52.2,39,51.2,39c-1.2,0-2.1,0-2.7,0.1
		c0,0.2,0,0.3,0,0.4c0,0.9,0,1.7,0,2.3v2.5c0,0.3,0.1,0.5,0.3,0.6c0.3,0.2,1.3,0.2,2.9,0.2c1.1,0,2-0.1,2.8-0.2
		c0.5-0.1,1-0.4,1.4-0.8c0.5-0.5,1-1.3,1.3-2.2c0.2,0,0.4,0,0.6,0c0.1,0,0.2,0,0.4,0C58.2,42.1,58.2,42.3,58.1,42.4z M71.6,43.8
		c-0.1,0.4-0.4,0.7-0.7,1.1c-0.2,0.2-0.6,0.5-1.1,0.8s-1,0.5-1.5,0.7c-0.5,0.1-1.2,0.2-2,0.2c-0.5,0-1.2-0.1-2-0.2L62.7,46
		c-0.4-0.1-0.6-0.2-0.7-0.3c0,0-0.1-0.1-0.1-0.2v-0.1c0-0.1,0-0.6-0.1-1.6c0-0.5,0-0.9,0-1.1v-0.4h1.1c0.4,0.9,0.6,1.4,0.7,1.6
		c0.2,0.4,0.5,0.7,0.8,1c0.3,0.2,0.6,0.4,1.1,0.6c0.4,0.1,0.8,0.2,1.3,0.2c0.4,0,0.9-0.1,1.4-0.3c0.5-0.2,0.9-0.5,1.2-0.9
		s0.5-0.9,0.5-1.3c0-0.6-0.3-1.1-0.8-1.6c-0.3-0.3-1.2-0.7-2.7-1.2c-1.4-0.5-2.4-1-3-1.4c-0.6-0.4-1-0.9-1.3-1.6
		c-0.3-0.7-0.5-1.3-0.5-1.9c0-1.2,0.4-2.3,1.3-3.2c0.9-0.9,2.2-1.3,3.9-1.3c0.4,0,0.9,0.1,1.7,0.2c0.5-0.1,1.1,0.1,1.8,0.3
		c0.1,0.3,0.1,0.7,0.2,1.2c0.1,0.8,0.1,1.4,0.1,1.9c0,0.1,0,0.3,0,0.5h-0.1L69.7,35h-0.1c-0.3-1-0.7-1.7-1-2.1
		C68,32.3,67.3,32,66.5,32s-1.4,0.2-1.8,0.6C64.2,33,64,33.5,64,34.1c0,0.5,0.2,1,0.7,1.4c0.4,0.5,1.4,0.9,2.8,1.3
		c0.5,0.1,1.1,0.4,1.7,0.7c0.7,0.3,1.2,0.7,1.5,1c0.5,0.5,0.8,1,1,1.4c0.2,0.5,0.3,1,0.3,1.7C72,42.3,71.9,43.1,71.6,43.8z M83.5,40
		c-0.5,0-0.9-0.1-1.3-0.2c-0.4-0.1-0.8-0.3-1.2-0.5c0-0.2-0.1-0.5-0.1-0.9c0.2,0,0.4,0,0.5,0c0.2,0,0.3,0,0.4,0
		c0.7,0,1.2-0.2,1.7-0.6c0.6-0.5,0.9-1.3,0.9-2.3c0-0.8-0.1-1.4-0.4-1.9s-0.6-0.8-0.9-1c-0.5-0.2-1.1-0.4-1.7-0.4
		c-0.6,0-1,0.1-1.3,0.3C80,32.6,80,32.7,80,32.8l0.1,5.5v0.5v0.5c0,0.1,0,0.3,0,0.5v1v1.5v1.8c0,0.3,0,0.6,0.1,1l2.3,0.3
		c0,0.2,0,0.3,0,0.4s0,0.3-0.1,0.5c-0.2,0-0.3,0-0.4,0c-0.2,0-0.7,0-1.4-0.1c-0.7-0.1-1.4-0.1-2.3-0.1c-1,0-1.9,0.1-2.8,0.2
		c-0.1,0-0.4,0-0.7,0.1c0-0.2,0-0.4,0-0.5c0-0.1,0-0.2,0-0.3l0.7-0.2c0.5-0.1,0.9-0.3,1.3-0.5c0.1-0.2,0.1-0.4,0.1-0.6
		c0-0.1,0-0.2,0-0.3c0-0.2,0-0.6,0-1v-3.3L76.8,36c-0.1-1.8-0.1-2.7-0.1-2.9c-0.1-0.2-0.1-0.4-0.3-0.5c-0.1-0.1-0.4-0.2-0.7-0.3
		c-0.6-0.2-1.1-0.2-1.3-0.3v-0.9l2.8,0.2h1.3H79c0.5,0,1.2,0,2.2-0.1c0.6,0,0.9-0.1,1.1-0.1c1,0,1.7,0.1,2.2,0.2
		c0.8,0.2,1.4,0.4,1.8,0.8c0.5,0.3,0.8,0.8,1.2,1.5c0.3,0.6,0.5,1.2,0.5,1.8c0,1.4-0.4,2.5-1.3,3.3C85.8,39.5,84.8,40,83.5,40z
		 M104.3,46.5c-0.6,0-1.2,0-1.9-0.1c-0.7-0.1-1.3-0.1-1.9-0.1s-1.1,0-1.3,0l-2,0.1h-0.6c0-0.3,0-0.5,0-0.8l1.3-0.3
		c0.4-0.1,0.6-0.2,0.7-0.2c0.1-0.1,0.1-0.2,0.1-0.3c0-0.1,0-0.2-0.1-0.3l-0.5-1.2L97.3,41h-4.5c-0.2,0.4-0.5,1.3-1,2.8
		c-0.1,0.4-0.2,0.7-0.2,0.8c0,0.2,0.1,0.3,0.2,0.4c0.2,0.1,0.5,0.3,1,0.3c0.1,0,0.3,0.1,0.8,0.1c0,0.3,0,0.5,0,0.6s0,0.2,0,0.3
		c-0.5,0-1.6-0.1-3.5-0.2l-0.5,0.1c-0.6,0.1-1.1,0.1-1.7,0.1h-0.1v-0.7c0.1,0,0.4-0.1,0.8-0.2c0.6-0.1,1-0.2,1.1-0.3
		c0.1-0.1,0.3-0.3,0.5-0.7l2.4-6.2l2.8-7.3c0.3,0,0.5,0,0.7,0h0.5l0.1,0.2l2,4.8c0.5,1,0.9,2,1.2,3c0.4,1,0.7,1.8,1,2.4
		c0.2,0.4,0.4,0.9,0.6,1.7c0.1,0.4,0.4,0.9,0.6,1.5c0.2,0.3,0.3,0.5,0.4,0.6c0.1,0.1,0.4,0.2,0.7,0.2s0.7,0.1,1,0.3
		c0,0.3,0.1,0.5,0.1,0.6C104.3,46.3,104.3,46.3,104.3,46.5z M124.6,31.8c-0.2,0.1-0.4,0.2-0.6,0.2c-0.5,0.1-0.8,0.2-0.9,0.2
		c-0.4,0.2-0.6,0.4-0.6,0.4c-0.1,0.1-0.1,0.2-0.1,0.4c0,0,0,0.2,0,0.5c0,0.1,0,0.5,0,1c0,1.1,0,2,0.1,2.7c0,0.2,0,0.5,0,0.7l0.1,4.1
		c0,0.3,0,0.5,0,0.6V44v0.6v0.6c0,0.3,0,0.5,0,0.6v0.6h-1.4l-1.4-1.4l-2.9-2.8l-2-2l-1.5-1.5c-1-0.9-1.8-1.8-2.6-2.5l-1.9-1.7
		l0.1,4.4c0,0.3,0,0.5,0,0.8v0.8l0.1,1.5c0,0.6,0.1,1.3,0.1,2.1c0,0.2,0,0.3,0.1,0.4c0.1,0.1,0.1,0.2,0.1,0.4c0.3,0.1,1,0.2,2,0.2
		c0.1,0,0.2,0,0.3,0.1v1h-0.5c-0.3,0-1-0.1-2.4-0.2c-1.2,0-2.1,0-2.5,0.1c-0.4,0.1-0.6,0-0.7,0c-0.1,0-0.2,0-0.4,0
		c0-0.2,0-0.3,0-0.5c0-0.1,0-0.2,0-0.4c0.2,0,0.4-0.1,0.5-0.1c0,0,0.2,0,0.5,0c0.7,0,1,0,1.2-0.1c0.1-0.1,0.2-0.4,0.2-0.8
		c0.1-1.2,0.1-2,0.1-2.3v-0.6v-3.8v-2.4c0-0.9-0.1-1.5-0.2-1.9c0-0.2-0.1-0.3-0.3-0.5c-0.3-0.3-0.6-0.5-0.9-0.6
		c0.3,0.3-0.3,0.2-1.1,0v-0.8h1h0.3c0.5,0,0.8,0,1,0c0.1,0,0.4,0,0.8,0c0.1,0,0.2,0,0.3,0c0.1,0,0.3,0,0.7,0c0.4,0,0.7,0,0.7,0
		c0.1,0,0.2,0,0.4,0c1.2,1.1,2.2,2,2.9,2.8c0.8,0.8,3.5,3.6,8.3,8.3v-0.3v-1.4c0-0.8-0.1-1.4-0.1-1.9s-0.1-1-0.1-1.7
		c0-0.6,0-1.2-0.1-1.8c-0.1-1-0.1-1.6-0.1-1.8c0-0.5-0.1-0.8-0.2-0.9c-0.2-0.2-0.5-0.3-1.1-0.4c-0.4-0.1-0.8-0.2-1-0.3v-0.7h0.3
		l2.3-0.1l2.6-0.1c0.2,0,0.3,0,0.5,0V31.8z M142.2,44.3c-1.5,1.6-3.6,2.4-6.3,2.4c-0.7,0-1.3,0-1.9-0.1c-0.4-0.1-0.8-0.1-1.2-0.3
		c-0.6-0.2-0.9-0.3-1-0.3c-0.9-0.5-1.5-1-2.1-1.5c-0.5-0.5-1-1.1-1.3-1.7c-0.2-0.4-0.4-1-0.7-1.9c0-0.8-0.1-1.5-0.1-2.3
		c0-1,0.2-1.9,0.6-2.9c0.3-0.7,0.7-1.4,1.2-1.9c0.5-0.6,1.1-1.1,1.9-1.6c0.7-0.5,1.5-0.8,2.3-1c0.8-0.2,1.6-0.3,2.6-0.3
		c1.6,0,3,0.3,4.2,0.9c1.2,0.6,2.1,1.4,2.8,2.5c0.9,1.4,1.3,2.8,1.3,4.3C144.5,40.8,143.7,42.7,142.2,44.3z M162,42.1
		c0,0.6-0.1,1.5-0.2,3c-0.1,0.6-0.1,0.9-0.2,1c-0.2,0-0.3,0-0.3,0h-0.4h-0.6c-0.1,0-0.5,0-1.4-0.1c-0.2,0-0.9,0-2.2-0.1
		c-1.3,0-2.7-0.1-3.9-0.1l-2.4,0.1c-0.9,0-1.8,0.1-2.6,0.1h-0.2c0,0-0.1,0-0.2,0c0-0.1,0-0.2,0-0.2c-0.1,0-0.1-0.2-0.1-0.4
		c0.2-0.1,0.6-0.1,1-0.2c0.4-0.1,0.7-0.1,0.8-0.1c0.3,0,0.5-0.1,0.6-0.1c0-0.2,0.1-0.3,0.1-0.5V43l0.1-1.5v-1v-1.2v-1.2v-2.6v-1.2
		v-0.2c-0.1-0.8-0.1-1.3-0.2-1.4c-0.1-0.1-0.3-0.2-0.7-0.3c0,0-0.2-0.1-0.4-0.2c-0.2-0.1-0.4-0.1-0.5-0.2c-0.3-0.1-0.5-0.2-0.6-0.2
		c0-0.2,0-0.4,0-0.5c0-0.1,0-0.2,0-0.3c0.1,0,0.1-0.1,0.2-0.1c0.2,0,0.9,0,2,0.1h1.7h1.2c0.5,0,1.2,0,2.1-0.1c0.3,0,0.4,0,0.4,0
		c0.1,0,0.2,0,0.2,0.1c0.1,0.1,0.1,0.2,0.1,0.5c0,0.2,0,0.3-0.1,0.4c0,0.1-0.2,0.1-0.5,0.1l-1.5,0.3c0,0-0.1,0-0.2,0.1
		c0,0.1-0.1,0.1-0.1,0.1v0.3v0.7V34v0.1c0,0,0,0.3,0,0.6c0,0.1,0,0.2,0,0.3s0,0.3,0,0.6c0,0.5,0,0.9,0,1.2c0,0.4,0,0.9,0,1.4
		c0,0.2,0,0.5,0,0.8v5.6c0,0.2,0,0.4,0.1,0.5h1.1h0.7h0.7c1.3,0,2.3-0.1,3-0.4c0.5-0.2,0.9-0.4,1.1-0.7c0.3-0.2,0.5-0.5,0.7-0.8
		c0.2-0.3,0.4-0.7,0.6-1.4h0.4c0.2,0,0.4,0,0.6,0V42.1z"/>
</g>
</svg>
