<?xml version="1.0" encoding="utf-8"?>
<!-- Generator: Adobe Illustrator 21.0.0, SVG Export Plug-In . SVG Version: 6.00 Build 0)  -->
<svg version="1.1" id="Layer_1" xmlns="http://www.w3.org/2000/svg" xmlns:xlink="http://www.w3.org/1999/xlink" x="0px" y="0px"
	 viewBox="0 0 119.4 78.6" style="enable-background:new 0 0 119.4 78.6;" xml:space="preserve">
<style type="text/css">
	.st0{fill:#F9F1DD;}
</style>
<path class="st0" d="M19.5,3.1v36.2h80.3V3.1H19.5z M56.3,23.3v0.2l-0.2,1.1L56,25.3c-0.3,0-0.5,0-0.6,0c-0.2,0-0.8,0-1.8-0.1
	c-0.7,0-1.5,0-2.4,0c-0.5,0-1,0-1.7,0.1h-0.2h-0.7v-0.4c0.1,0,0.2,0,0.4-0.1c0.4,0,0.7-0.1,0.8-0.2c0-0.1,0.1-0.3,0.1-0.4
	s0-0.2,0-0.3v-0.2v-2.2v-0.7v-0.9v-0.7l-0.1-0.7v-0.1c0,0-0.1-0.1-0.2-0.1c0,0-0.1,0-0.2,0c-0.2,0-0.4-0.1-0.6-0.1
	c-0.1,0-0.2,0-0.3,0v-0.5c0.2,0,0.4,0,0.6,0.1c0.3,0,0.7,0.1,1.1,0.1c0.1,0,0.5,0,1.1,0c0.9,0,1.7-0.1,2.4-0.1h1.1
	c0.2,0,0.6,0,1.1,0.1C56,18,56,18.1,56,18.2v1.2v0.2v0.1h-0.2c0,0-0.1,0-0.2,0c0-0.1-0.1-0.2-0.1-0.3L55.3,19
	c-0.1-0.2-0.2-0.4-0.4-0.5c-0.1,0-0.2,0-0.4,0c0,0-0.2,0-0.4,0c-0.4,0-0.8,0-1.2,0c-0.5,0-0.9,0-1.3,0c0,0.1,0,0.5,0,1.2v1v0.7
	c0.1,0,0.2,0,0.3,0c0.7,0,1.2,0,1.5,0s0.5-0.1,0.6-0.1s0.1-0.1,0.2-0.3c0-0.1,0.1-0.4,0.2-0.9h0.1h0.3c0,0.3,0,0.6,0,0.8
	c0,0.4,0,0.7,0,0.8s0,0.2,0,0.3c0,0.1,0,0.3,0,0.5s0,0.4,0,0.5v0.1h-0.4c0-0.1,0-0.2-0.1-0.4c-0.1-0.4-0.1-0.6-0.2-0.7
	c0-0.1-0.1-0.1-0.2-0.2c-0.1,0-0.4,0-0.9,0c-0.6,0-1,0-1.3,0c0,0.1,0,0.2,0,0.2c0,0.5,0,0.9,0,1.2v1.3c0,0.1,0.1,0.2,0.2,0.3
	c0.2,0.1,0.7,0.1,1.5,0.1c0.5,0,1,0,1.4-0.1c0.3-0.1,0.5-0.2,0.7-0.4C55.8,24.1,56,23.8,56.3,23.3c0,0,0.1,0,0.2,0c0,0,0.1,0,0.2,0
	C56.3,23.1,56.3,23.2,56.3,23.3z M62.9,23.9c-0.1,0.2-0.2,0.4-0.4,0.5c-0.1,0.1-0.3,0.3-0.5,0.4s-0.5,0.3-0.8,0.3s-0.6,0.1-1,0.1
	c-0.3,0-0.6,0-1-0.1L58.5,25c-0.2-0.1-0.3-0.1-0.4-0.1c0,0,0-0.1-0.1-0.1v-0.1c0,0,0-0.3,0-0.8c0-0.3,0-0.4,0-0.5v-0.2h0.5
	c0.2,0.4,0.3,0.7,0.4,0.8c0.1,0.2,0.3,0.4,0.4,0.5s0.3,0.2,0.5,0.3c0.2,0.1,0.4,0.1,0.7,0.1c0.2,0,0.4,0,0.7-0.1s0.5-0.2,0.6-0.4
	c0.2-0.2,0.2-0.4,0.2-0.7c0-0.3-0.1-0.6-0.4-0.8c-0.2-0.2-0.6-0.4-1.3-0.6c-0.7-0.3-1.2-0.5-1.5-0.7s-0.5-0.5-0.7-0.8
	s-0.2-0.7-0.2-1c0-0.6,0.2-1.1,0.7-1.6c0.4-0.4,1.1-0.7,2-0.7c0.2,0,0.5,0,0.8,0.1c0.2,0,0.5,0.1,0.9,0.2c0,0.1,0.1,0.3,0.1,0.6
	c0,0.4,0.1,0.7,0.1,0.9c0,0.1,0,0.1,0,0.2h-0.1h-0.4h-0.1c-0.2-0.5-0.3-0.9-0.5-1c-0.3-0.3-0.6-0.5-1-0.5s-0.7,0.1-0.9,0.3
	c-0.2,0.2-0.3,0.5-0.3,0.7s0.1,0.5,0.3,0.7c0.2,0.2,0.7,0.5,1.4,0.7c0.2,0.1,0.5,0.2,0.9,0.3c0.3,0.2,0.6,0.3,0.8,0.5
	c0.2,0.2,0.4,0.5,0.5,0.7s0.1,0.5,0.1,0.8C63,23.2,63,23.6,62.9,23.9z M70.4,21.3c-0.4,0.4-1,0.6-1.6,0.6c-0.2,0-0.4,0-0.6-0.1
	s-0.4-0.1-0.6-0.2c0-0.1,0-0.3,0-0.5c0.1,0,0.2,0,0.3,0s0.1,0,0.2,0c0.3,0,0.6-0.1,0.8-0.3c0.3-0.2,0.5-0.6,0.5-1.2
	c0-0.4-0.1-0.7-0.2-0.9c-0.1-0.2-0.3-0.4-0.5-0.5S68.3,18,68,18s-0.5,0-0.6,0.1c0,0.1-0.1,0.1-0.1,0.1V21v0.2v0.2c0,0.1,0,0.1,0,0.2
	v0.5v0.8v0.9c0,0.1,0,0.3,0,0.5l1.2,0.1c0,0.1,0,0.2,0,0.2c0,0.1,0,0.1,0,0.2c-0.1,0-0.2,0-0.2,0c-0.1,0-0.3,0-0.7,0s-0.7,0-1.1,0
	c-0.5,0-0.9,0-1.4,0.1c-0.1,0-0.2,0-0.4,0c0-0.1,0-0.2,0-0.3c0,0,0-0.1,0-0.2l0.4-0.1c0.2-0.1,0.5-0.2,0.6-0.3
	c0-0.1,0.1-0.2,0.1-0.3v-0.1c0-0.1,0-0.3,0-0.5v-1.6L65.4,20c0-0.9,0-1.4-0.1-1.4c0-0.1-0.1-0.2-0.1-0.3s-0.2-0.1-0.3-0.1
	c-0.3-0.1-0.5-0.1-0.6-0.1v-0.4l1.4,0.1h0.6h0.2c0.2,0,0.6,0,1.1,0c0.3,0,0.5,0,0.5,0c0.5,0,0.9,0,1.1,0.1c0.4,0.1,0.7,0.2,0.9,0.4
	c0.2,0.2,0.4,0.4,0.6,0.7s0.2,0.6,0.2,0.9C71.1,20.3,70.9,20.9,70.4,21.3z"/>
</svg>
