<?xml version="1.0" encoding="utf-8"?>
<!-- Generator: Adobe Illustrator 21.0.0, SVG Export Plug-In . SVG Version: 6.00 Build 0)  -->
<svg version="1.1" id="Layer_1" xmlns="http://www.w3.org/2000/svg" xmlns:xlink="http://www.w3.org/1999/xlink" x="0px" y="0px"
	 viewBox="0 0 119.4 78.6" style="enable-background:new 0 0 119.4 78.6;" xml:space="preserve">
<style type="text/css">
	.st0{fill:#F9F1DD;}
</style>
<g>
	<path class="st0" d="M48.5,17.6c0.2,0,0.4,0,0.6,0.1c0.3,0,0.7,0.1,1.1,0.1c0.1,0,0.5,0,1.1,0c0.9,0,1.7-0.1,2.4-0.1h1.1
		c0.2,0,0.6,0,1.1,0.1c0.1,0.1,0.1,0.2,0.1,0.3v1.2v0.2v0.1h-0.2c0,0-0.1,0-0.2,0c0-0.1-0.1-0.2-0.1-0.3l-0.2-0.4
		c-0.1-0.2-0.2-0.4-0.4-0.5c-0.1,0-0.2,0-0.4,0c0,0-0.2,0-0.4,0c-0.4,0-0.8,0-1.2,0c-0.5,0-0.9,0-1.3,0c0,0.1,0,0.5,0,1.2v1v0.7
		c0.1,0,0.2,0,0.3,0c0.7,0,1.2,0,1.5,0s0.5-0.1,0.6-0.1s0.1-0.1,0.2-0.3c0-0.1,0.1-0.4,0.2-0.9h0.1h0.3c0,0.3,0,0.6,0,0.8
		c0,0.4,0,0.7,0,0.8s0,0.2,0,0.3c0,0.1,0,0.3,0,0.5s0,0.4,0,0.5V23h-0.4c0-0.1,0-0.2-0.1-0.4c-0.1-0.4-0.1-0.6-0.2-0.7
		c0-0.1-0.1-0.1-0.2-0.2c-0.1,0-0.4,0-0.9,0c-0.6,0-1,0-1.3,0c0,0.1,0,0.2,0,0.2c0,0.5,0,0.9,0,1.2v1.3c0,0.1,0.1,0.2,0.2,0.3
		c0.2,0.1,0.7,0.1,1.5,0.1c0.5,0,1,0,1.4-0.1c0.3-0.1,0.5-0.2,0.7-0.4c0.3-0.3,0.5-0.6,0.7-1.1c0.1,0,0.2,0,0.3,0c0,0,0.1,0,0.2,0
		c0,0.1,0,0.2,0,0.2v0.2l-0.2,1.1l-0.1,0.7c-0.3,0-0.5,0-0.6,0c-0.2,0-0.8,0-1.8-0.1c-0.7,0-1.5,0-2.4,0c-0.5,0-1,0-1.7,0.1h-0.2H49
		V25c0.1,0,0.2,0,0.4-0.1c0.4,0,0.7-0.1,0.8-0.2c0-0.1,0.1-0.3,0.1-0.4s0-0.2,0-0.3v-0.2v-2.2v-0.7V20v-0.7l-0.1-0.7v-0.1
		c0,0-0.1-0.1-0.2-0.1c0,0-0.1,0-0.2,0c-0.2,0-0.4-0.1-0.6-0.1c-0.1,0-0.2,0-0.3,0L48.5,17.6z"/>
	<path class="st0" d="M62.3,17.8c0,0.1,0.1,0.3,0.1,0.6c0,0.4,0.1,0.7,0.1,0.9c0,0.1,0,0.1,0,0.2h-0.1H62h-0.1
		c-0.2-0.5-0.3-0.9-0.5-1c-0.3-0.3-0.6-0.5-1-0.5s-0.7,0.1-0.9,0.3c-0.2,0.2-0.3,0.5-0.3,0.7s0.1,0.5,0.3,0.7
		c0.2,0.2,0.7,0.5,1.4,0.7c0.2,0.1,0.5,0.2,0.9,0.3c0.3,0.2,0.6,0.3,0.8,0.5c0.2,0.2,0.4,0.5,0.5,0.7s0.1,0.5,0.1,0.8
		c0,0.4-0.1,0.7-0.2,1.1c-0.1,0.2-0.2,0.4-0.4,0.5c-0.1,0.1-0.3,0.3-0.5,0.4S61.6,25,61.3,25s-0.6,0.1-1,0.1c-0.3,0-0.6,0-1-0.1
		h-0.8c-0.2-0.1-0.3-0.1-0.4-0.1c0,0,0-0.1-0.1-0.1v-0.1c0,0,0-0.3,0-0.8c0-0.3,0-0.4,0-0.5v-0.2h0.5c0.2,0.4,0.3,0.7,0.4,0.8
		c0.1,0.2,0.3,0.4,0.4,0.5s0.3,0.2,0.5,0.3c0.2,0.1,0.4,0.1,0.7,0.1c0.2,0,0.4,0,0.7-0.1s0.5-0.2,0.6-0.4c0.2-0.2,0.2-0.4,0.2-0.7
		c0-0.3-0.1-0.6-0.4-0.8c-0.2-0.2-0.6-0.4-1.3-0.6c-0.7-0.3-1.2-0.5-1.5-0.7s-0.5-0.5-0.7-0.8s-0.2-0.7-0.2-1c0-0.6,0.2-1.1,0.7-1.6
		c0.4-0.4,1.1-0.7,2-0.7c0.2,0,0.5,0,0.8,0.1C61.6,17.6,61.9,17.7,62.3,17.8z"/>
	<path class="st0" d="M64.4,18v-0.4l1.4,0.1h0.6h0.2c0.2,0,0.6,0,1.1,0c0.3,0,0.5,0,0.5,0c0.5,0,0.9,0,1.1,0.1
		c0.4,0.1,0.7,0.2,0.9,0.4s0.4,0.4,0.6,0.7s0.2,0.6,0.2,0.9c0,0.7-0.2,1.2-0.6,1.7S69.5,22,68.9,22c-0.2,0-0.4,0-0.6-0.1
		s-0.4-0.1-0.6-0.2c0-0.1,0-0.3,0-0.5c0.1,0,0.2,0,0.3,0s0.1,0,0.2,0c0.3,0,0.6-0.1,0.8-0.3c0.3-0.2,0.5-0.6,0.5-1.2
		c0-0.4-0.1-0.7-0.2-0.9s-0.3-0.4-0.5-0.5s-0.5-0.2-0.8-0.2s-0.5,0-0.6,0.1c0,0.1-0.1,0.1-0.1,0.1v2.8v0.2v0.2c0,0.1,0,0.1,0,0.2
		v0.5V23v0.9c0,0.1,0,0.3,0,0.5l1.2,0.1c0,0.1,0,0.2,0,0.2c0,0.1,0,0.1,0,0.2c-0.1,0-0.2,0-0.2,0c-0.1,0-0.3,0-0.7,0s-0.7,0-1.1,0
		c-0.5,0-0.9,0-1.4,0.1c-0.1,0-0.2,0-0.4,0c0-0.1,0-0.2,0-0.3c0,0,0-0.1,0-0.2l0.4-0.1c0.2-0.1,0.5-0.2,0.6-0.3
		c0-0.1,0.1-0.2,0.1-0.3v-0.1c0-0.1,0-0.3,0-0.5v-1.6L65.5,20c0-0.9,0-1.4-0.1-1.4c0-0.1-0.1-0.2-0.1-0.3s-0.2-0.1-0.3-0.1
		C64.7,18.1,64.5,18.1,64.4,18z"/>
</g>
</svg>
