<?xml version="1.0" encoding="utf-8"?>
<!-- Generator: Adobe Illustrator 21.0.0, SVG Export Plug-In . SVG Version: 6.00 Build 0)  -->
<svg version="1.1" id="Layer_1" xmlns="http://www.w3.org/2000/svg" xmlns:xlink="http://www.w3.org/1999/xlink" x="0px" y="0px"
	 viewBox="0 0 204 79.5" style="enable-background:new 0 0 204 79.5;" xml:space="preserve">
<style type="text/css">
	.st0{fill:#0E2635;}
</style>
<g>
	<path class="st0" d="M23.9,41.8c-1,2.3-1.4,3.8-1.9,4.8c-0.1,0.1-0.4,0.1-0.7,0.1c-0.2,0-0.4-0.1-0.5-0.1c-0.2-0.5-0.5-1.5-0.8-2.1
		l-3-7.7c-0.7-1.8-0.8-1.8-1.4-2l-0.8-0.2c-0.1-0.2-0.1-0.5,0.1-0.6c1,0,1.6,0.1,2.6,0.1c0.9,0,1.7,0,2.8-0.1c0.1,0.1,0.1,0.5,0,0.6
		l-0.6,0.1c-0.3,0.1-0.5,0.2-0.5,0.4s0.3,0.9,0.8,2.1l1.7,4.2l0.6,1.6c0.2-0.3,0.5-1,0.7-1.5l0.7-1.8c0.5-1.2,1.3-3.3,1.5-3.9
		c0.1-0.4,0.2-0.6,0.2-0.7c0-0.1-0.2-0.2-0.6-0.3l-0.6-0.1c-0.2-0.1-0.2-0.5,0.1-0.6c0.9,0,1.6,0.1,2.3,0.1c0.6,0,1.2,0,1.7-0.1
		c0.2,0.1,0.2,0.5,0,0.6l-0.5,0.1c-0.5,0.1-0.8,0.2-1.1,0.6c-0.4,0.6-0.9,1.7-1.5,3.2L23.9,41.8z"/>
	<path class="st0" d="M34.2,43.7c0,1.8,0.1,1.9,1,2l0.5,0.1c0.2,0.1,0.1,0.5,0,0.7c-1,0-1.9-0.1-2.8-0.1c-0.9,0-1.8,0-2.9,0.1
		c-0.2-0.1-0.2-0.5,0-0.7l0.5-0.1c0.9-0.1,1-0.3,1-2v-6.9c0-1.8-0.1-1.9-1-2L30,34.7c-0.2-0.1-0.2-0.5,0-0.7c1,0,2,0.1,2.9,0.1
		s1.8,0,2.8-0.1c0.2,0.1,0.2,0.5,0,0.7l-0.5,0.1c-0.9,0.2-1,0.3-1,2V43.7z"/>
	<path class="st0" d="M43.1,39c0,0.5,0,0.6,0.5,0.6h1.3c1,0,1.2-0.1,1.4-1l0.1-0.5c0.1-0.1,0.6-0.1,0.7,0c0,0.6-0.1,1.3-0.1,2
		s0,1.4,0.1,2c-0.1,0.2-0.6,0.2-0.7,0l-0.1-0.5c-0.2-0.9-0.4-1.1-1.4-1.1h-1.3c-0.5,0-0.5,0-0.5,0.6v2.2c0,0.9,0.1,1.5,0.3,1.8
		s0.6,0.5,2,0.5c1.6,0,2.3-0.1,3.3-2.2c0.2-0.2,0.6-0.1,0.7,0.1c-0.1,1-0.5,2.5-0.8,3c-1,0-2.8-0.1-4.3-0.1h-2.4
		c-0.9,0-1.8,0-3.2,0.1c-0.1-0.1-0.1-0.6,0-0.7l0.9-0.1c0.8-0.1,1-0.2,1-2v-7c0-1.7-0.1-1.8-1-2l-0.5-0.1c-0.2-0.1-0.2-0.5,0-0.7
		c0.9,0,1.8,0.1,2.7,0.1h4c1.2,0,2.3,0,2.5-0.1c0,0.3,0.1,1.7,0.2,2.9C48.4,37,48,37,47.8,36.9c-0.2-0.7-0.5-1.2-0.7-1.5
		c-0.4-0.4-0.9-0.6-1.8-0.6h-1.5c-0.6,0-0.6,0-0.6,0.7V39H43.1z"/>
	<path class="st0" d="M69.5,34.8c-0.4,0.1-0.7,0.2-0.8,0.4c-0.2,0.3-0.5,0.9-1,2.1c-0.9,2.2-3,6.9-3.9,9.3c-0.1,0.1-0.4,0.1-0.6,0.1
		c-0.2,0-0.4-0.1-0.5-0.1c-0.2-0.5-0.5-1.1-0.7-1.7l-0.8-1.8c-0.3-0.6-0.5-1.2-0.7-1.4c-0.2,0.3-0.4,0.8-0.6,1.3L59,44.8
		c-0.3,0.6-0.5,1.1-0.8,1.8c-0.1,0.1-0.4,0.1-0.6,0.1c-0.2,0-0.3-0.1-0.5-0.1c-0.3-0.8-1.1-2.5-1.7-3.9l-3.1-6.6
		c-0.5-1.1-0.6-1.2-1.2-1.3l-0.5-0.1c-0.2-0.2-0.1-0.6,0.1-0.7c0.7,0,1.5,0.1,2.4,0.1c0.8,0,1.6,0,2.3-0.1c0.1,0.1,0.2,0.5,0,0.7
		l-0.4,0c-0.3,0.1-0.5,0.1-0.5,0.3c0,0.1,0.4,1,1,2.3l1.9,4.2c0.5,1.2,0.8,1.7,1,2.1c0.2-0.4,0.7-1.3,1-1.9l0.2-0.5
		c0.1-0.3,0.2-0.5,0.2-0.7c0-0.1-0.1-0.5-0.2-0.7l-1.8-4c-0.4-0.9-0.6-1.1-1.3-1.1h-0.2c-0.2-0.2-0.1-0.6,0.1-0.7
		c0.8,0,1.5,0.1,2.4,0.1c1,0,1.7,0,2.2-0.1c0.2,0.1,0.2,0.6,0.1,0.7l-0.3,0.1c-0.2,0.1-0.5,0.1-0.5,0.3s0.1,0.4,0.2,0.6l0.6,1.3
		c0.2,0.4,0.4,0.9,0.6,1.2l0.6-1.3l0.2-0.4c0.3-0.7,0.5-1.3,0.5-1.4c0-0.1-0.1-0.2-0.4-0.3l-0.7-0.1c-0.1-0.1-0.1-0.6,0.1-0.7
		c0.5,0,1.2,0.1,1.8,0.1c0.7,0,1.4,0,1.9-0.1c0.1,0.1,0.2,0.5,0,0.7L65,34.8c-0.6,0.1-0.8,0.1-1.4,1.3c-0.5,0.8-0.9,1.7-1.2,2.2
		c-0.2,0.3-0.4,0.9-0.4,1s0,0.2,0.2,0.5l0.9,1.9c0.5,1,0.8,1.6,0.9,1.9c0.9-2.2,1.9-4.6,2.8-6.9c0.1-0.3,0.5-1.3,0.5-1.5
		s-0.3-0.3-0.5-0.3l-0.4-0.1c-0.1-0.2-0.1-0.6,0.1-0.7c0.6,0,1.4,0.1,1.9,0.1c0.7,0,1.2,0,1.7-0.1c0.2,0.1,0.2,0.5,0.1,0.7
		L69.5,34.8z"/>
	<path class="st0" d="M82.2,39c0,0.5,0,0.6,0.5,0.6H84c1,0,1.2-0.1,1.4-1l0.1-0.5c0.1-0.1,0.6-0.1,0.7,0c0,0.6-0.1,1.3-0.1,2
		s0,1.4,0.1,2c-0.1,0.2-0.6,0.2-0.7,0l-0.1-0.5c-0.2-0.9-0.4-1.1-1.4-1.1h-1.3c-0.5,0-0.5,0-0.5,0.6v2.2c0,0.9,0.1,1.5,0.3,1.8
		c0.2,0.3,0.6,0.5,2,0.5c1.6,0,2.3-0.1,3.3-2.2c0.2-0.2,0.6-0.1,0.7,0.1c-0.1,1-0.5,2.5-0.8,3c-1,0-2.8-0.1-4.3-0.1H81
		c-0.9,0-1.8,0-3.2,0.1c-0.1-0.1-0.1-0.6,0-0.7l0.9-0.1c0.8-0.1,1-0.2,1-2v-7c0-1.7-0.1-1.8-1-2l-0.5-0.1c-0.2-0.1-0.2-0.5,0-0.7
		c0.9,0,1.8,0.1,2.7,0.1h4c1.2,0,2.3,0,2.5-0.1c0,0.3,0.1,1.7,0.2,2.9c-0.1,0.2-0.5,0.2-0.7,0.1c-0.2-0.7-0.5-1.2-0.7-1.5
		c-0.4-0.4-0.9-0.6-1.8-0.6h-1.5c-0.6,0-0.6,0-0.6,0.7L82.2,39L82.2,39z"/>
	<path class="st0" d="M90.6,45.9c1.1-0.2,1.6-0.6,2.2-1.4c0.5-0.7,1.6-2.2,2.4-3.4c0.2-0.2,0.3-0.5,0.3-0.6s-0.1-0.3-0.3-0.7
		c-0.6-0.9-1.8-2.8-2.7-4c-0.4-0.6-0.8-0.9-1.7-1l-0.3-0.1c-0.2-0.2-0.2-0.5,0-0.7c0.6,0,1.8,0.1,2.9,0.1c1.5,0,2.3,0,2.9-0.1
		c0.2,0.1,0.2,0.5,0.1,0.7L96,34.8c-0.3,0.1-0.6,0.1-0.6,0.3s0.1,0.3,0.3,0.7c0.5,0.9,1.2,1.9,1.8,2.8c0.7-1.1,1.3-2,1.9-3
		c0.2-0.3,0.2-0.5,0.2-0.6s-0.1-0.1-0.4-0.2l-0.8-0.1c-0.2-0.1-0.2-0.6,0.1-0.7c0.6,0,1.2,0.1,2.1,0.1s1.7,0,2.3-0.1
		c0.2,0.1,0.2,0.5,0.1,0.7l-0.8,0.1c-0.4,0.1-0.7,0.1-1.1,0.5c-0.9,0.9-1.7,2.2-2.6,3.4c-0.2,0.3-0.4,0.5-0.4,0.6s0.1,0.3,0.3,0.6
		c1.4,2.2,2.3,3.6,3,4.6s1.1,1.3,1.8,1.4l0.6,0.1c0.1,0.1,0.1,0.5-0.1,0.7c-0.8,0-1.4-0.1-2.9-0.1c-1.3,0-2.1,0-3.2,0.1
		c-0.2-0.1-0.2-0.6-0.1-0.7l0.5-0.1c0.5-0.1,0.7-0.1,0.7-0.3s-0.1-0.3-0.5-1.1c-0.3-0.5-1.7-2.7-2-3.1c-0.7,1.1-1.6,2.5-2.2,3.7
		c-0.1,0.3-0.2,0.4-0.2,0.5s0.2,0.2,0.6,0.2l0.5,0.1c0.2,0.1,0.2,0.6-0.1,0.7c-0.8,0-1.7-0.1-2.5-0.1c-0.6,0-1.4,0-2,0.1
		C90,46.5,90,46,90.2,45.9H90.6z"/>
	<path class="st0" d="M109.6,39c0,0.5,0,0.6,0.5,0.6h1.3c1,0,1.2-0.1,1.4-1l0.1-0.5c0.1-0.1,0.6-0.1,0.7,0c0,0.6-0.1,1.3-0.1,2
		s0,1.4,0.1,2c-0.1,0.2-0.6,0.2-0.7,0l-0.1-0.5c-0.2-0.9-0.4-1.1-1.4-1.1h-1.3c-0.5,0-0.5,0-0.5,0.6v2.2c0,0.9,0.1,1.5,0.3,1.8
		c0.2,0.3,0.6,0.5,2,0.5c1.6,0,2.3-0.1,3.3-2.2c0.2-0.2,0.6-0.1,0.7,0.1c-0.1,1-0.5,2.5-0.8,3c-1,0-2.8-0.1-4.3-0.1h-2.4
		c-0.9,0-1.8,0-3.2,0.1c-0.2-0.1-0.2-0.6,0-0.7l0.9-0.1c0.8-0.1,1-0.2,1-2v-7c0-1.7-0.1-1.8-1-2l-0.5-0.1c-0.2-0.1-0.2-0.5,0-0.7
		c0.9,0,1.8,0.1,2.7,0.1h4c1.2,0,2.3,0,2.5-0.1c0,0.3,0.1,1.7,0.2,2.9c-0.1,0.2-0.5,0.2-0.7,0.1c-0.2-0.7-0.5-1.2-0.7-1.5
		c-0.4-0.4-0.9-0.6-1.8-0.6h-1.5c-0.6,0-0.6,0-0.6,0.7L109.6,39L109.6,39z"/>
	<path class="st0" d="M119.9,37.1c0-1.9,0-2.1-0.8-2.2l-0.5-0.1c-0.2-0.1-0.2-0.6,0-0.7c1.4-0.1,2.9-0.2,4.7-0.2
		c1.6,0,3,0.2,3.7,0.7c1.1,0.6,1.7,1.6,1.7,2.8c0,1.7-1.1,2.4-2,2.8c-0.2,0.1-0.2,0.2-0.1,0.4c1.2,2.5,2,3.9,2.9,4.7
		c0.5,0.4,1,0.5,1.3,0.5c0.2,0.1,0.2,0.4,0.1,0.5c-0.3,0.1-0.9,0.2-1.5,0.2c-1.7,0-2.8-0.6-3.6-2c-0.6-1-1-1.9-1.5-2.9
		c-0.2-0.5-0.5-0.7-1-0.7c-0.7,0-0.7,0-0.7,0.4v2.3c0,1.7,0.1,1.9,1,2l0.5,0.1c0.1,0.1,0.1,0.5,0,0.7c-1,0-1.9-0.1-2.8-0.1
		s-1.8,0-2.7,0.1c-0.1-0.1-0.1-0.6,0-0.7l0.5-0.1c0.8-0.1,1-0.3,1-2v-6.5H119.9z M122.5,39.5c0,0.7,0.1,0.7,1.2,0.7
		c0.7,0,1.1-0.2,1.4-0.5s0.7-0.9,0.7-2c0-1.7-1-2.8-2.5-2.8c-0.8,0-0.8,0.1-0.8,1C122.5,35.9,122.5,39.5,122.5,39.5z"/>
	<path class="st0" d="M143.7,34.3c0,0.3,0.1,1.8,0.2,2.9c-0.1,0.2-0.6,0.3-0.7,0.1c-0.5-1.7-1.7-2.7-3.5-2.7c-2.1,0-4.3,1.8-4.3,5.5
		s2.2,5.8,4.4,5.8c2.3,0,3.3-1.6,3.8-2.9c0.1-0.1,0.6-0.1,0.7,0.1c-0.1,1.4-0.5,2.5-0.7,3c-1,0.3-2.4,0.7-3.8,0.7
		c-1.8,0-3.7-0.4-5.1-1.4c-1.4-1-2.4-2.6-2.4-4.9c0-2.3,1-3.9,2.3-5s3.3-1.7,5.2-1.7C141.8,33.8,143.1,34.2,143.7,34.3z"/>
	<path class="st0" d="M151.3,43.7c0,1.8,0.1,1.9,1,2l0.5,0.1c0.2,0.1,0.1,0.5,0,0.7c-1,0-1.9-0.1-2.8-0.1c-0.9,0-1.8,0-2.9,0.1
		c-0.2-0.1-0.2-0.5,0-0.7l0.5-0.1c0.9-0.1,1-0.3,1-2v-6.9c0-1.8-0.1-1.9-1-2l-0.5-0.1c-0.2-0.1-0.2-0.5,0-0.7c1,0,2,0.1,2.9,0.1
		s1.8,0,2.8-0.1c0.2,0.1,0.2,0.5,0,0.7l-0.5,0.1c-0.9,0.2-1,0.3-1,2V43.7z"/>
	<path class="st0" d="M159.5,46.8c-1.7,0-2.8-0.5-3.2-0.7c-0.4-0.4-0.6-1.8-0.6-3c0.1-0.2,0.6-0.3,0.7-0.1c0.4,1.2,1.6,3,3.2,3
		c1.4,0,2-1,2-1.9c0-1.5-1.4-2.4-2.6-3c-1.4-0.7-2.8-1.8-2.8-3.7c0-2.1,1.6-3.6,4.4-3.6c0.6,0,1.4,0.1,2.1,0.3
		c0.2,0.1,0.4,0.1,0.6,0.1c0.1,0.4,0.3,1.4,0.3,2.7c-0.1,0.2-0.6,0.2-0.7,0.1c-0.3-1-1.1-2.3-2.5-2.3c-1.2,0-1.9,0.8-1.9,1.7
		s0.8,1.7,1.7,2.1l1.2,0.7c1.2,0.6,2.7,1.7,2.7,3.8C164.3,45.3,162.4,46.8,159.5,46.8z"/>
	<path class="st0" d="M171.5,39c0,0.5,0,0.6,0.5,0.6h1.3c1,0,1.2-0.1,1.4-1l0.1-0.5c0.1-0.1,0.6-0.1,0.7,0c0,0.6-0.1,1.3-0.1,2
		s0,1.4,0.1,2c-0.1,0.2-0.6,0.2-0.7,0l-0.1-0.5c-0.2-0.9-0.4-1.1-1.4-1.1H172c-0.5,0-0.5,0-0.5,0.6v2.2c0,0.9,0.1,1.5,0.3,1.8
		s0.6,0.5,2,0.5c1.6,0,2.3-0.1,3.3-2.2c0.2-0.2,0.6-0.1,0.7,0.1c-0.1,1-0.5,2.5-0.8,3c-1,0-2.8-0.1-4.3-0.1h-2.4
		c-0.9,0-1.8,0-3.2,0.1c-0.2-0.1-0.2-0.6,0-0.7l0.9-0.1c0.8-0.1,1-0.2,1-2v-7c0-1.7-0.1-1.8-1-2l-0.5-0.1c-0.2-0.1-0.2-0.5,0-0.7
		c0.9,0,1.8,0.1,2.7,0.1h4c1.2,0,2.3,0,2.5-0.1c0,0.3,0.1,1.7,0.2,2.9c-0.1,0.2-0.5,0.2-0.7,0.1c-0.2-0.7-0.5-1.2-0.7-1.5
		c-0.4-0.4-0.9-0.6-1.8-0.6h-1.5c-0.6,0-0.6,0-0.6,0.7L171.5,39L171.5,39z"/>
	<path class="st0" d="M183.9,46.8c-1.7,0-2.8-0.5-3.2-0.7c-0.4-0.4-0.6-1.8-0.6-3c0.1-0.2,0.6-0.3,0.7-0.1c0.4,1.2,1.6,3,3.2,3
		c1.4,0,2-1,2-1.9c0-1.5-1.4-2.4-2.6-3c-1.4-0.7-2.8-1.8-2.8-3.7c0-2.1,1.6-3.6,4.4-3.6c0.6,0,1.4,0.1,2.1,0.3
		c0.2,0.1,0.4,0.1,0.6,0.1c0.1,0.4,0.3,1.4,0.3,2.7c-0.1,0.2-0.6,0.2-0.7,0.1c-0.3-1-1.1-2.3-2.5-2.3c-1.2,0-1.9,0.8-1.9,1.7
		s0.8,1.7,1.7,2.1l1.2,0.7c1.2,0.6,2.7,1.7,2.7,3.8C188.7,45.3,186.8,46.8,183.9,46.8z"/>
</g>
</svg>
