<?xml version="1.0" encoding="utf-8"?>
<!-- Generator: Adobe Illustrator 21.0.0, SVG Export Plug-In . SVG Version: 6.00 Build 0)  -->
<svg version="1.1" id="Layer_1" xmlns="http://www.w3.org/2000/svg" xmlns:xlink="http://www.w3.org/1999/xlink" x="0px" y="0px"
	 viewBox="0 0 204 79.5" style="enable-background:new 0 0 204 79.5;" xml:space="preserve">
<style type="text/css">
	.st0{fill:#0E2635;}
</style>
<g>
	<path class="st0" d="M0,0v79.5h204V0H0z M28.3,34.7l-0.5,0.1c-0.5,0.1-0.8,0.2-1.1,0.6c-0.4,0.6-0.9,1.7-1.5,3.2l-1.3,3.2
		c-1,2.3-1.4,3.8-1.9,4.8c-0.1,0.1-0.4,0.1-0.7,0.1c-0.2,0-0.4-0.1-0.5-0.1c-0.2-0.5-0.5-1.5-0.8-2.1l-3-7.7c-0.7-1.8-0.8-1.8-1.4-2
		l-0.8-0.2c-0.1-0.2-0.1-0.5,0.1-0.6c1,0,1.6,0.1,2.6,0.1c0.9,0,1.7,0,2.8-0.1c0.1,0.1,0.1,0.5,0,0.6l-0.6,0.1
		c-0.3,0.1-0.5,0.2-0.5,0.4c0,0.2,0.3,0.9,0.8,2.1l1.7,4.2l0.6,1.6c0.2-0.3,0.5-1,0.7-1.5l0.7-1.8c0.5-1.2,1.3-3.3,1.5-3.9
		c0.1-0.4,0.2-0.6,0.2-0.7c0-0.1-0.2-0.2-0.6-0.3l-0.6-0.1c-0.2-0.1-0.2-0.5,0.1-0.6c0.9,0,1.6,0.1,2.3,0.1c0.6,0,1.2,0,1.7-0.1
		C28.5,34.2,28.5,34.6,28.3,34.7z M35.2,45.7l0.5,0.1c0.2,0.1,0.1,0.5,0,0.7c-1,0-1.9-0.1-2.8-0.1c-0.9,0-1.8,0-2.9,0.1
		c-0.2-0.1-0.2-0.5,0-0.7l0.5-0.1c0.9-0.1,1-0.3,1-2v-6.9c0-1.8-0.1-1.9-1-2L30,34.7c-0.2-0.1-0.2-0.5,0-0.7c1,0,2,0.1,2.9,0.1
		c0.9,0,1.8,0,2.8-0.1c0.2,0.1,0.2,0.5,0,0.7l-0.5,0.1c-0.9,0.2-1,0.3-1,2v6.9C34.2,45.5,34.3,45.6,35.2,45.7z M48.6,46.5
		c-1,0-2.8-0.1-4.3-0.1h-2.4c-0.9,0-1.8,0-3.2,0.1c-0.1-0.1-0.1-0.6,0-0.7l0.9-0.1c0.8-0.1,1-0.2,1-2v-7c0-1.7-0.1-1.8-1-2l-0.5-0.1
		c-0.2-0.1-0.2-0.5,0-0.7c0.9,0,1.8,0.1,2.7,0.1h4c1.2,0,2.3,0,2.5-0.1c0,0.3,0.1,1.7,0.2,2.9C48.4,37,48,37,47.8,36.9
		c-0.2-0.7-0.5-1.2-0.7-1.5c-0.4-0.4-0.9-0.6-1.8-0.6h-1.5c-0.6,0-0.6,0-0.6,0.7V39h-0.1c0,0.5,0,0.6,0.5,0.6h1.3c1,0,1.2-0.1,1.4-1
		l0.1-0.5c0.1-0.1,0.6-0.1,0.7,0c0,0.6-0.1,1.3-0.1,2c0,0.7,0,1.4,0.1,2c-0.1,0.2-0.6,0.2-0.7,0l-0.1-0.5c-0.2-0.9-0.4-1.1-1.4-1.1
		h-1.3c-0.5,0-0.5,0-0.5,0.6v2.2c0,0.9,0.1,1.5,0.3,1.8c0.2,0.3,0.6,0.5,2,0.5c1.6,0,2.3-0.1,3.3-2.2c0.2-0.2,0.6-0.1,0.7,0.1
		C49.3,44.5,48.9,46,48.6,46.5z M70.2,34.8h-0.7c-0.4,0.1-0.7,0.2-0.8,0.4c-0.2,0.3-0.5,0.9-1,2.1c-0.9,2.2-3,6.9-3.9,9.3
		c-0.1,0.1-0.4,0.1-0.6,0.1s-0.4-0.1-0.5-0.1c-0.2-0.5-0.5-1.1-0.7-1.7l-0.8-1.8c-0.3-0.6-0.5-1.2-0.7-1.4c-0.2,0.3-0.4,0.8-0.6,1.3
		L59,44.8c-0.3,0.6-0.5,1.1-0.8,1.8c-0.1,0.1-0.4,0.1-0.6,0.1c-0.2,0-0.3-0.1-0.5-0.1c-0.3-0.8-1.1-2.5-1.7-3.9l-3.1-6.6
		c-0.5-1.1-0.6-1.2-1.2-1.3l-0.5-0.1c-0.2-0.2-0.1-0.6,0.1-0.7c0.7,0,1.5,0.1,2.4,0.1c0.8,0,1.6,0,2.3-0.1c0.1,0.1,0.2,0.5,0,0.7H55
		c-0.3,0.1-0.5,0.1-0.5,0.3c0,0.1,0.4,1,1,2.3l1.9,4.2c0.5,1.2,0.8,1.7,1,2.1c0.2-0.4,0.7-1.3,1-1.9l0.2-0.5
		c0.1-0.3,0.2-0.5,0.2-0.7c0-0.1-0.1-0.5-0.2-0.7l-1.8-4c-0.4-0.9-0.6-1.1-1.3-1.1h-0.2c-0.2-0.2-0.1-0.6,0.1-0.7
		c0.8,0,1.5,0.1,2.4,0.1c1,0,1.7,0,2.2-0.1c0.2,0.1,0.2,0.6,0.1,0.7l-0.3,0.1c-0.2,0.1-0.5,0.1-0.5,0.3s0.1,0.4,0.2,0.6l0.6,1.3
		c0.2,0.4,0.4,0.9,0.6,1.2l0.6-1.3l0.2-0.4c0.3-0.7,0.5-1.3,0.5-1.4c0-0.1-0.1-0.2-0.4-0.3l-0.7-0.1c-0.1-0.1-0.1-0.6,0.1-0.7
		c0.5,0,1.2,0.1,1.8,0.1c0.7,0,1.4,0,1.9-0.1c0.1,0.1,0.2,0.5,0,0.7L65,34.8c-0.6,0.1-0.8,0.1-1.4,1.3c-0.5,0.8-0.9,1.7-1.2,2.2
		c-0.2,0.3-0.4,0.9-0.4,1c0,0.1,0,0.2,0.2,0.5l0.9,1.9c0.5,1,0.8,1.6,0.9,1.9c0.9-2.2,1.9-4.6,2.8-6.9c0.1-0.3,0.5-1.3,0.5-1.5
		s-0.3-0.3-0.5-0.3l-0.4-0.1c-0.1-0.2-0.1-0.6,0.1-0.7c0.6,0,1.4,0.1,1.9,0.1c0.7,0,1.2,0,1.7-0.1C70.3,34.2,70.3,34.6,70.2,34.8z
		 M87.7,46.5c-1,0-2.8-0.1-4.3-0.1H81c-0.9,0-1.8,0-3.2,0.1c-0.1-0.1-0.1-0.6,0-0.7l0.9-0.1c0.8-0.1,1-0.2,1-2v-7c0-1.7-0.1-1.8-1-2
		l-0.5-0.1c-0.2-0.1-0.2-0.5,0-0.7c0.9,0,1.8,0.1,2.7,0.1h4c1.2,0,2.3,0,2.5-0.1c0,0.3,0.1,1.7,0.2,2.9c-0.1,0.2-0.5,0.2-0.7,0.1
		c-0.2-0.7-0.5-1.2-0.7-1.5c-0.4-0.4-0.9-0.6-1.8-0.6h-1.5c-0.6,0-0.6,0-0.6,0.7L82.2,39c0,0.5,0,0.6,0.5,0.6H84c1,0,1.2-0.1,1.4-1
		l0.1-0.5c0.1-0.1,0.6-0.1,0.7,0c0,0.6-0.1,1.3-0.1,2c0,0.7,0,1.4,0.1,2c-0.1,0.2-0.6,0.2-0.7,0l-0.1-0.5c-0.2-0.9-0.4-1.1-1.4-1.1
		h-1.3c-0.5,0-0.5,0-0.5,0.6v2.2c0,0.9,0.1,1.5,0.3,1.8c0.2,0.3,0.6,0.5,2,0.5c1.6,0,2.3-0.1,3.3-2.2c0.2-0.2,0.6-0.1,0.7,0.1
		C88.4,44.5,88,46,87.7,46.5z M103.7,46.7c-0.8,0-1.4-0.1-2.9-0.1c-1.3,0-2.1,0-3.2,0.1c-0.2-0.1-0.2-0.6-0.1-0.7l0.5-0.1
		c0.5-0.1,0.7-0.1,0.7-0.3c0-0.2-0.1-0.3-0.5-1.1c-0.3-0.5-1.7-2.7-2-3.1c-0.7,1.1-1.6,2.5-2.2,3.7c-0.1,0.3-0.2,0.4-0.2,0.5
		c0,0.1,0.2,0.2,0.6,0.2l0.5,0.1c0.2,0.1,0.2,0.6-0.1,0.7c-0.8,0-1.7-0.1-2.5-0.1c-0.6,0-1.4,0-2,0.1C90,46.5,90,46,90.2,45.9h0.4
		c1.1-0.2,1.6-0.6,2.2-1.4c0.5-0.7,1.6-2.2,2.4-3.4c0.2-0.2,0.3-0.5,0.3-0.6s-0.1-0.3-0.3-0.7c-0.6-0.9-1.8-2.8-2.7-4
		c-0.4-0.6-0.8-0.9-1.7-1l-0.3-0.1c-0.2-0.2-0.2-0.5,0-0.7c0.6,0,1.8,0.1,2.9,0.1c1.5,0,2.3,0,2.9-0.1c0.2,0.1,0.2,0.5,0.1,0.7
		L96,34.8c-0.3,0.1-0.6,0.1-0.6,0.3c0,0.2,0.1,0.3,0.3,0.7c0.5,0.9,1.2,1.9,1.8,2.8c0.7-1.1,1.3-2,1.9-3c0.2-0.3,0.2-0.5,0.2-0.6
		s-0.1-0.1-0.4-0.2l-0.8-0.1c-0.2-0.1-0.2-0.6,0.1-0.7c0.6,0,1.2,0.1,2.1,0.1c0.9,0,1.7,0,2.3-0.1c0.2,0.1,0.2,0.5,0.1,0.7l-0.8,0.1
		c-0.4,0.1-0.7,0.1-1.1,0.5c-0.9,0.9-1.7,2.2-2.6,3.4c-0.2,0.3-0.4,0.5-0.4,0.6c0,0.1,0.1,0.3,0.3,0.6c1.4,2.2,2.3,3.6,3,4.6
		c0.7,1,1.1,1.3,1.8,1.4l0.6,0.1C103.9,46.1,103.9,46.5,103.7,46.7z M115.1,46.5c-1,0-2.8-0.1-4.3-0.1h-2.4c-0.9,0-1.8,0-3.2,0.1
		c-0.2-0.1-0.2-0.6,0-0.7l0.9-0.1c0.8-0.1,1-0.2,1-2v-7c0-1.7-0.1-1.8-1-2l-0.5-0.1c-0.2-0.1-0.2-0.5,0-0.7c0.9,0,1.8,0.1,2.7,0.1h4
		c1.2,0,2.3,0,2.5-0.1c0,0.3,0.1,1.7,0.2,2.9c-0.1,0.2-0.5,0.2-0.7,0.1c-0.2-0.7-0.5-1.2-0.7-1.5c-0.4-0.4-0.9-0.6-1.8-0.6h-1.5
		c-0.6,0-0.6,0-0.6,0.7l-0.1,3.5c0,0.5,0,0.6,0.5,0.6h1.3c1,0,1.2-0.1,1.4-1l0.1-0.5c0.1-0.1,0.6-0.1,0.7,0c0,0.6-0.1,1.3-0.1,2
		c0,0.7,0,1.4,0.1,2c-0.1,0.2-0.6,0.2-0.7,0l-0.1-0.5c-0.2-0.9-0.4-1.1-1.4-1.1h-1.3c-0.5,0-0.5,0-0.5,0.6v2.2
		c0,0.9,0.1,1.5,0.3,1.8c0.2,0.3,0.6,0.5,2,0.5c1.6,0,2.3-0.1,3.3-2.2c0.2-0.2,0.6-0.1,0.7,0.1C115.8,44.5,115.4,46,115.1,46.5z
		 M130.9,46.3c-0.3,0.1-0.9,0.2-1.5,0.2c-1.7,0-2.8-0.6-3.6-2c-0.6-1-1-1.9-1.5-2.9c-0.2-0.5-0.5-0.7-1-0.7c-0.7,0-0.7,0-0.7,0.4
		v2.3c0,1.7,0.1,1.9,1,2l0.5,0.1c0.1,0.1,0.1,0.5,0,0.7c-1,0-1.9-0.1-2.8-0.1c-0.9,0-1.8,0-2.7,0.1c-0.1-0.1-0.1-0.6,0-0.7l0.5-0.1
		c0.8-0.1,1-0.3,1-2v-6.5h-0.2c0-1.9,0-2.1-0.8-2.2l-0.5-0.1c-0.2-0.1-0.2-0.6,0-0.7c1.4-0.1,2.9-0.2,4.7-0.2c1.6,0,3,0.2,3.7,0.7
		c1.1,0.6,1.7,1.6,1.7,2.8c0,1.7-1.1,2.4-2,2.8c-0.2,0.1-0.2,0.2-0.1,0.4c1.2,2.5,2,3.9,2.9,4.7c0.5,0.4,1,0.5,1.3,0.5
		C131,45.9,131,46.2,130.9,46.3z M143.6,46.1c-1,0.3-2.4,0.7-3.8,0.7c-1.8,0-3.7-0.4-5.1-1.4c-1.4-1-2.4-2.6-2.4-4.9s1-3.9,2.3-5
		c1.3-1.1,3.3-1.7,5.2-1.7c2,0,3.3,0.4,3.9,0.5c0,0.3,0.1,1.8,0.2,2.9c-0.1,0.2-0.6,0.3-0.7,0.1c-0.5-1.7-1.7-2.7-3.5-2.7
		c-2.1,0-4.3,1.8-4.3,5.5c0,3.7,2.2,5.8,4.4,5.8c2.3,0,3.3-1.6,3.8-2.9c0.1-0.1,0.6-0.1,0.7,0.1C144.2,44.5,143.8,45.6,143.6,46.1z
		 M152.3,45.7l0.5,0.1c0.2,0.1,0.1,0.5,0,0.7c-1,0-1.9-0.1-2.8-0.1c-0.9,0-1.8,0-2.9,0.1c-0.2-0.1-0.2-0.5,0-0.7l0.5-0.1
		c0.9-0.1,1-0.3,1-2v-6.9c0-1.8-0.1-1.9-1-2l-0.5-0.1c-0.2-0.1-0.2-0.5,0-0.7c1,0,2,0.1,2.9,0.1c0.9,0,1.8,0,2.8-0.1
		c0.2,0.1,0.2,0.5,0,0.7l-0.5,0.1c-0.9,0.2-1,0.3-1,2v6.9C151.3,45.5,151.4,45.6,152.3,45.7z M159.5,46.8c-1.7,0-2.8-0.5-3.2-0.7
		c-0.4-0.4-0.6-1.8-0.6-3c0.1-0.2,0.6-0.3,0.7-0.1c0.4,1.2,1.6,3,3.2,3c1.4,0,2-1,2-1.9c0-1.5-1.4-2.4-2.6-3
		c-1.4-0.7-2.8-1.8-2.8-3.7c0-2.1,1.6-3.6,4.4-3.6c0.6,0,1.4,0.1,2.1,0.3c0.2,0.1,0.4,0.1,0.6,0.1c0.1,0.4,0.3,1.4,0.3,2.7
		c-0.1,0.2-0.6,0.2-0.7,0.1c-0.3-1-1.1-2.3-2.5-2.3c-1.2,0-1.9,0.8-1.9,1.7c0,0.9,0.8,1.7,1.7,2.1l1.2,0.7c1.2,0.6,2.7,1.7,2.7,3.8
		C164.3,45.3,162.4,46.8,159.5,46.8z M177,46.5c-1,0-2.8-0.1-4.3-0.1h-2.4c-0.9,0-1.8,0-3.2,0.1c-0.2-0.1-0.2-0.6,0-0.7l0.9-0.1
		c0.8-0.1,1-0.2,1-2v-7c0-1.7-0.1-1.8-1-2l-0.5-0.1c-0.2-0.1-0.2-0.5,0-0.7c0.9,0,1.8,0.1,2.7,0.1h4c1.2,0,2.3,0,2.5-0.1
		c0,0.3,0.1,1.7,0.2,2.9c-0.1,0.2-0.5,0.2-0.7,0.1c-0.2-0.7-0.5-1.2-0.7-1.5c-0.4-0.4-0.9-0.6-1.8-0.6h-1.5c-0.6,0-0.6,0-0.6,0.7
		l-0.1,3.5c0,0.5,0,0.6,0.5,0.6h1.3c1,0,1.2-0.1,1.4-1l0.1-0.5c0.1-0.1,0.6-0.1,0.7,0c0,0.6-0.1,1.3-0.1,2c0,0.7,0,1.4,0.1,2
		c-0.1,0.2-0.6,0.2-0.7,0l-0.1-0.5c-0.2-0.9-0.4-1.1-1.4-1.1H172c-0.5,0-0.5,0-0.5,0.6v2.2c0,0.9,0.1,1.5,0.3,1.8
		c0.2,0.3,0.6,0.5,2,0.5c1.6,0,2.3-0.1,3.3-2.2c0.2-0.2,0.6-0.1,0.7,0.1C177.7,44.5,177.3,46,177,46.5z M183.9,46.8
		c-1.7,0-2.8-0.5-3.2-0.7c-0.4-0.4-0.6-1.8-0.6-3c0.1-0.2,0.6-0.3,0.7-0.1c0.4,1.2,1.6,3,3.2,3c1.4,0,2-1,2-1.9c0-1.5-1.4-2.4-2.6-3
		c-1.4-0.7-2.8-1.8-2.8-3.7c0-2.1,1.6-3.6,4.4-3.6c0.6,0,1.4,0.1,2.1,0.3c0.2,0.1,0.4,0.1,0.6,0.1c0.1,0.4,0.3,1.4,0.3,2.7
		c-0.1,0.2-0.6,0.2-0.7,0.1c-0.3-1-1.1-2.3-2.5-2.3c-1.2,0-1.9,0.8-1.9,1.7c0,0.9,0.8,1.7,1.7,2.1l1.2,0.7c1.2,0.6,2.7,1.7,2.7,3.8
		C188.7,45.3,186.8,46.8,183.9,46.8z"/>
	<path class="st0" d="M123.3,34.9c-0.8,0-0.8,0.1-0.8,1v3.6c0,0.7,0.1,0.7,1.2,0.7c0.7,0,1.1-0.2,1.4-0.5c0.3-0.3,0.7-0.9,0.7-2
		C125.8,36,124.8,34.9,123.3,34.9z"/>
</g>
</svg>
