<?xml version="1.0" encoding="utf-8"?>
<!-- Generator: Adobe Illustrator 21.0.0, SVG Export Plug-In . SVG Version: 6.00 Build 0)  -->
<svg version="1.1" id="Layer_1" xmlns="http://www.w3.org/2000/svg" xmlns:xlink="http://www.w3.org/1999/xlink" x="0px" y="0px"
	 viewBox="0 0 136.2 47.2" style="enable-background:new 0 0 136.2 47.2;" xml:space="preserve">
<style type="text/css">
	.st0{fill:#0E2635;}
</style>
<path class="st0" d="M64.1,15.6c0.1,0,0.3,0.4,0.3,0.5c0,0.4,0.2,1.9,0.2,2c0,0.4,0,0.6-0.2,0.6s-0.5-0.2-0.6-0.5
	c-0.3-0.8-0.9-1.5-1.1-1.7c-0.5-0.4-1-0.6-1.7-0.6c-1.5,0-2.7,1.1-2.7,2.7s1.2,2.3,3.3,3.7c2.1,1.3,3.3,2.6,3.3,4.6
	c0,1.2-0.7,2.5-2,3.4c-0.8,0.5-2.1,0.9-3.2,0.9c-0.9,0-2.4-0.2-3.2-0.6c-0.2-0.1-0.6-0.7-0.6-0.7c-0.1-0.8-0.4-1.9-0.4-2.3
	c0-0.1,0.2-0.5,0.3-0.5c0.2,0,0.6,0.6,0.9,1.3c0.6,1.3,2.2,2,3.1,2c1.5,0,2.8-1.1,2.8-2.7c0-1-0.5-2.1-2.9-3.6
	c-2.1-1.4-3.5-2.7-3.5-4.8c0-1.2,0.5-2.3,1.3-2.9c0.8-0.7,1.9-1.1,3.6-1.1C62.3,15.2,63.6,15.5,64.1,15.6z M77.8,22.3
	c0.5,0.6,0.7,1.5,0.7,2.6l0.1,4.4c0,0.6,0.3,0.8,0.9,0.9c0.5,0.1,0.7,0.3,0.7,0.4c0,0.2-0.2,0.3-0.7,0.3c-0.8,0-1.1-0.1-1.9-0.1
	c-0.6,0-1.1,0-1.8,0c-0.4,0-0.5-0.1-0.5-0.3c0-0.1,0.2-0.3,0.5-0.4c0.6-0.2,0.7-0.3,0.8-1.2c0-0.5,0-3.1,0-3.5c0-1.3-0.2-2-0.4-2.3
	c-0.4-0.4-0.9-0.7-1.8-0.7s-1.7,0.5-1.8,0.5c-0.1,0.1-0.3,0.4-0.4,1.1c0,1-0.1,4.2,0,5c0,0.8,0.3,1,0.9,1.1c0.3,0.1,0.5,0.2,0.5,0.4
	s-0.3,0.3-0.6,0.3c-0.2,0-1.3,0-2,0s-1.5,0.1-1.9,0.1c-0.2,0-0.5-0.1-0.5-0.3c0-0.1,0.2-0.3,0.7-0.4c0.6-0.2,0.9-0.5,0.9-1.3
	c0.1-0.9,0.2-4.1,0.2-6.6c0-1.1,0-4.9-0.1-5.6c-0.1-0.6-0.2-0.6-0.8-1.1c-0.1,0-0.2-0.3-0.2-0.5c0,0,0-0.1,0.1-0.1
	c0.7-0.2,1.9-0.5,2.5-0.8c0.1-0.1,0.3-0.2,0.4-0.2s0.2,0.2,0.2,0.3c-0.2,1.7-0.3,7.6-0.3,8.2c0,0.1,0.1,0.2,0.2,0.1
	c0.9-0.9,2-1.4,2.9-1.4C76.5,21.2,77.3,21.6,77.8,22.3z M89.8,22.3c0.3,0.5,0.5,1,0.5,2c0,0.9-0.1,3.9-0.1,4.1c0,1,0.7,1.1,0.9,1.1
	c0.1,0,0.6-0.2,0.9-0.4c0.1,0,0.1,0,0.1,0.1s0,0.2,0,0.3c0,0.5-1.1,1.5-2.2,1.5c-0.6,0-1.3-0.3-1.5-1.2c0,0-0.1-0.1-0.2-0.1
	c-0.8,0.6-1.8,1-2.1,1.1s-0.8,0.1-1,0.1c-0.9,0-1.7-1-1.7-2.2c0-0.4,0.2-0.9,0.5-1.2c0.2-0.3,0.6-0.4,0.9-0.6
	c0.4-0.2,2.3-0.7,2.8-0.9s0.6-0.3,0.6-0.4c0-0.2,0.1-1.6,0-1.9c0-0.6-0.6-1.6-1.8-1.6c-0.5,0-0.8,0.1-0.9,0.2s-0.2,0.5-0.2,1
	c0,0.1-0.1,0.2-0.1,0.2c-0.2,0.2-1.5,0.8-1.7,0.8c-0.1,0-0.3-0.2-0.3-0.3c0-0.7,0.6-1.3,1.8-2.1c0.7-0.5,1.8-0.9,2.2-0.9
	C88.9,21.2,89.5,21.8,89.8,22.3z M88.1,29.3c0.1-0.1,0.3-0.5,0.3-0.6c0-0.5,0-1.4,0-1.9c0-0.1-0.1-0.2-0.2-0.2
	c-0.6,0-1.8,0.4-2.3,0.7c-0.3,0.1-0.5,0.3-0.5,0.9c0,1,0.9,1.4,1.4,1.4C87.2,29.7,87.7,29.6,88.1,29.3z M96,22
	c0.8-0.3,1.6-0.6,1.9-0.8s0.4-0.3,0.5-0.3s0.2,0.2,0.2,0.3c0,0.4,0,0.9,0,1.3c0,0.1,0.1,0.1,0.1,0.1c0.9-0.9,1.9-1.5,2.7-1.5
	c1,0,1.2,0.6,1.2,0.8c0,0.1-0.1,0.2-0.1,0.4c-0.3,0.4-0.9,1.1-1,1.2c0,0-0.3,0-0.4-0.1c-0.3-0.2-0.9-0.5-1.4-0.5
	c-0.4,0-0.7,0-0.9,0.3c-0.2,0.2-0.2,0.4-0.2,0.5c0,0.5,0.1,4.7,0.1,5.1c0,0.7,0.2,1.1,0.6,1.2c0.3,0,0.7,0.2,1.1,0.3
	s0.5,0.3,0.5,0.4s-0.2,0.2-0.6,0.2c-0.6,0-1.5-0.1-2.9-0.1c-0.7,0-1,0.1-1.6,0.1c-0.3,0-0.5-0.1-0.5-0.3c0-0.1,0.3-0.2,0.5-0.3
	c0.9-0.3,1-0.5,1-2v-4.4c0-0.3,0-0.6-0.2-0.8c-0.5-0.4-0.8-0.6-0.8-0.7C95.7,22.4,95.8,22.1,96,22z M112.8,22.1
	c0.5,0.5,0.8,1.2,0.8,2c0,0.1-0.2,0.5-0.5,0.5s-4.3,0-5.4,0c-0.1,0-0.2,0.1-0.2,0.2c-0.1,0.2-0.1,0.6-0.1,0.8c0,0.8,0.4,1.9,0.9,2.6
	s1.5,1.3,2.7,1.3c1,0,1.7-0.3,2.1-0.9c0.1-0.1,0.2-0.3,0.3-0.3c0.1,0,0.2,0.2,0.2,0.3c0,0.2-0.1,0.5-0.2,0.6c-0.8,1.2-2,1.8-3.5,1.8
	c-2.6,0-4.3-2-4.3-4.7c0-1.9,1-3.8,2.9-4.7c0.6-0.3,1.4-0.4,1.8-0.4C111.2,21.2,112.1,21.5,112.8,22.1z M107.8,23.6
	c0,0.1,0,0.3,0.1,0.3c0.6,0,1.8,0,2.9,0c0.5,0,0.8-0.1,0.8-0.6c0-0.7-0.7-1.4-1.5-1.4C109.1,21.8,108.2,22.5,107.8,23.6z M25.7,32.2
	v-8.4h2.8l0.4-3.3h-3.3v-2.1c0-1,0.3-1.6,1.6-1.6h1.7v-2.9c-0.3,0-1.3-0.1-2.5-0.1c-2.5,0-4.2,1.5-4.2,4.3v2.4h-2.8v3.3h2.8v8.4
	H25.7L25.7,32.2z M42.6,12.6h-1v23h1V12.6z M135.1,46.2H1V1h134.1V46.2z M2,45.2h132.1V2H2V45.2z"/>
</svg>
