<?xml version="1.0" encoding="utf-8"?>
<!-- Generator: Adobe Illustrator 21.0.0, SVG Export Plug-In . SVG Version: 6.00 Build 0)  -->
<svg version="1.1" id="Layer_1" xmlns="http://www.w3.org/2000/svg" xmlns:xlink="http://www.w3.org/1999/xlink" x="0px" y="0px"
	 viewBox="0 0 136.2 47.2" style="enable-background:new 0 0 136.2 47.2;" xml:space="preserve">
<style type="text/css">
	.st0{fill:#0E2635;}
</style>
<g>
	<path class="st0" d="M1,1v45.2h134.1V1H1z M28.9,16.8h-1.7c-1.3,0-1.6,0.6-1.6,1.6v2.1h3.3l-0.4,3.3h-2.8v8.4h-3.5v-8.4h-2.8v-3.3
		h2.8v-2.4c0-2.8,1.7-4.3,4.2-4.3c1.2,0,2.2,0.1,2.5,0.1C28.9,13.9,28.9,16.8,28.9,16.8z M42.6,35.6h-1v-23h1V35.6z M62.9,30.3
		c-0.8,0.5-2.1,0.9-3.2,0.9c-0.9,0-2.4-0.2-3.2-0.6c-0.2-0.1-0.6-0.7-0.6-0.7c-0.1-0.8-0.4-1.9-0.4-2.3c0-0.1,0.2-0.5,0.3-0.5
		c0.2,0,0.6,0.6,0.9,1.3c0.6,1.3,2.2,2,3.1,2c1.5,0,2.8-1.1,2.8-2.7c0-1-0.5-2.1-2.9-3.6c-2.1-1.4-3.5-2.7-3.5-4.8
		c0-1.2,0.5-2.3,1.3-2.9c0.8-0.7,1.9-1.1,3.6-1.1c1.2-0.1,2.5,0.2,3,0.3c0.1,0,0.3,0.4,0.3,0.5c0,0.4,0.2,1.9,0.2,2
		c0,0.4,0,0.6-0.2,0.6s-0.5-0.2-0.6-0.5c-0.3-0.8-0.9-1.5-1.1-1.7c-0.5-0.4-1-0.6-1.7-0.6c-1.5,0-2.7,1.1-2.7,2.7s1.2,2.3,3.3,3.7
		c2.1,1.3,3.3,2.6,3.3,4.6C64.9,28.1,64.2,29.4,62.9,30.3z M79.5,30.9c-0.8,0-1.1-0.1-1.9-0.1c-0.6,0-1.1,0-1.8,0
		c-0.4,0-0.5-0.1-0.5-0.3c0-0.1,0.2-0.3,0.5-0.4c0.6-0.2,0.7-0.3,0.8-1.2c0-0.5,0-3.1,0-3.5c0-1.3-0.2-2-0.4-2.3
		c-0.4-0.4-0.9-0.7-1.8-0.7s-1.7,0.5-1.8,0.5c-0.1,0.1-0.3,0.4-0.4,1.1c0,1-0.1,4.2,0,5c0,0.8,0.3,1,0.9,1.1
		c0.3,0.1,0.5,0.2,0.5,0.4s-0.3,0.3-0.6,0.3c-0.2,0-1.3,0-2,0s-1.5,0.1-1.9,0.1c-0.2,0-0.5-0.1-0.5-0.3c0-0.1,0.2-0.3,0.7-0.4
		c0.6-0.2,0.9-0.5,0.9-1.3c0.1-0.9,0.2-4.1,0.2-6.6c0-1.1,0-4.9-0.1-5.6c-0.1-0.6-0.2-0.6-0.8-1.1c-0.1,0-0.2-0.3-0.2-0.5
		c0,0,0-0.1,0.1-0.1c0.7-0.2,1.9-0.5,2.5-0.8c0.1-0.1,0.3-0.2,0.4-0.2s0.2,0.2,0.2,0.3c-0.2,1.7-0.3,7.6-0.3,8.2
		c0,0.1,0.1,0.2,0.2,0.1c0.9-0.9,2-1.4,2.9-1.4c1.2,0,2,0.4,2.5,1.1c0.5,0.6,0.7,1.5,0.7,2.6l0.1,4.4c0,0.6,0.3,0.8,0.9,0.9
		c0.5,0.1,0.7,0.3,0.7,0.4C80.2,30.8,80,30.9,79.5,30.9z M92.1,29.5c0,0.5-1.1,1.5-2.2,1.5c-0.6,0-1.3-0.3-1.5-1.2
		c0,0-0.1-0.1-0.2-0.1c-0.8,0.6-1.8,1-2.1,1.1c-0.3,0.1-0.8,0.1-1,0.1c-0.9,0-1.7-1-1.7-2.2c0-0.4,0.2-0.9,0.5-1.2
		c0.2-0.3,0.6-0.4,0.9-0.6c0.4-0.2,2.3-0.7,2.8-0.9s0.6-0.3,0.6-0.4c0-0.2,0.1-1.6,0-1.9c0-0.6-0.6-1.6-1.8-1.6
		c-0.5,0-0.8,0.1-0.9,0.2s-0.2,0.5-0.2,1c0,0.1-0.1,0.2-0.1,0.2c-0.2,0.2-1.5,0.8-1.7,0.8c-0.1,0-0.3-0.2-0.3-0.3
		c0-0.7,0.6-1.3,1.8-2.1c0.7-0.5,1.8-0.9,2.2-0.9c1.7,0.2,2.3,0.8,2.6,1.3c0.3,0.5,0.5,1,0.5,2c0,0.9-0.1,3.9-0.1,4.1
		c0,1,0.7,1.1,0.9,1.1c0.1,0,0.6-0.2,0.9-0.4c0.1,0,0.1,0,0.1,0.1S92.1,29.4,92.1,29.5z M102.5,22.3c-0.3,0.4-0.9,1.1-1,1.2
		c0,0-0.3,0-0.4-0.1c-0.3-0.2-0.9-0.5-1.4-0.5c-0.4,0-0.7,0-0.9,0.3c-0.2,0.2-0.2,0.4-0.2,0.5c0,0.5,0.1,4.7,0.1,5.1
		c0,0.7,0.2,1.1,0.6,1.2c0.3,0,0.7,0.2,1.1,0.3c0.4,0.1,0.5,0.3,0.5,0.4s-0.2,0.2-0.6,0.2c-0.6,0-1.5-0.1-2.9-0.1
		c-0.7,0-1,0.1-1.6,0.1c-0.3,0-0.5-0.1-0.5-0.3c0-0.1,0.3-0.2,0.5-0.3c0.9-0.3,1-0.5,1-2v-4.4c0-0.3,0-0.6-0.2-0.8
		c-0.5-0.4-0.8-0.6-0.8-0.7c-0.1,0,0-0.3,0.2-0.4c0.8-0.3,1.6-0.6,1.9-0.8c0.3-0.2,0.4-0.3,0.5-0.3s0.2,0.2,0.2,0.3
		c0,0.4,0,0.9,0,1.3c0,0.1,0.1,0.1,0.1,0.1c0.9-0.9,1.9-1.5,2.7-1.5c1,0,1.2,0.6,1.2,0.8C102.6,22,102.5,22.1,102.5,22.3z
		 M108.3,28.2c0.5,0.7,1.5,1.3,2.7,1.3c1,0,1.7-0.3,2.1-0.9c0.1-0.1,0.2-0.3,0.3-0.3c0.1,0,0.2,0.2,0.2,0.3c0,0.2-0.1,0.5-0.2,0.6
		c-0.8,1.2-2,1.8-3.5,1.8c-2.6,0-4.3-2-4.3-4.7c0-1.9,1-3.8,2.9-4.7c0.6-0.3,1.4-0.4,1.8-0.4c0.9,0,1.8,0.3,2.5,0.9
		c0.5,0.5,0.8,1.2,0.8,2c0,0.1-0.2,0.5-0.5,0.5s-4.3,0-5.4,0c-0.1,0-0.2,0.1-0.2,0.2c-0.1,0.2-0.1,0.6-0.1,0.8
		C107.4,26.4,107.8,27.5,108.3,28.2z"/>
	<path class="st0" d="M107.9,23.9c0.6,0,1.8,0,2.9,0c0.5,0,0.8-0.1,0.8-0.6c0-0.7-0.7-1.4-1.5-1.4c-1-0.1-1.9,0.6-2.3,1.7
		C107.8,23.7,107.8,23.9,107.9,23.9z"/>
	<path class="st0" d="M88.2,26.6c-0.6,0-1.8,0.4-2.3,0.7c-0.3,0.1-0.5,0.3-0.5,0.9c0,1,0.9,1.4,1.4,1.4c0.4,0.1,0.9,0,1.3-0.3
		c0.1-0.1,0.3-0.5,0.3-0.6c0-0.5,0-1.4,0-1.9C88.4,26.7,88.3,26.6,88.2,26.6z"/>
</g>
</svg>
