<?xml version="1.0" encoding="utf-8"?>
<!-- Generator: Adobe Illustrator 16.0.0, SVG Export Plug-In . SVG Version: 6.00 Build 0)  -->
<!DOCTYPE svg PUBLIC "-//W3C//DTD SVG 1.1//EN" "http://www.w3.org/Graphics/SVG/1.1/DTD/svg11.dtd">
<svg version="1.1" id="Layer_1" xmlns="http://www.w3.org/2000/svg" xmlns:xlink="http://www.w3.org/1999/xlink" x="0px" y="0px"
	 width="34.439px" height="34.438px" viewBox="0 0 34.439 34.438" enable-background="new 0 0 34.439 34.438" xml:space="preserve">
<path fill="#FAF1DC" d="M17.314,0C7.758,0,0,7.758,0,17.219c0,9.462,7.758,17.22,17.221,17.22c9.556,0,17.219-7.758,17.219-17.22
	C34.439,7.758,26.776,0,17.314,0z M22.14,11.637c0,0-1.23-0.188-1.609-0.188c-1.229-0.095-1.513,0.379-1.513,1.229l-0.096,2.081
	h2.934l-0.475,3.123h-2.459v8.325H15.8v-8.325h-2.648v-3.123H15.8v-1.986c0-2.648,1.609-4.353,3.976-4.353
	c0,0,2.081,0.379,2.365,0.379V11.637z"/>
</svg>
