<?xml version="1.0" encoding="utf-8"?>
<!-- Generator: Adobe Illustrator 21.0.0, SVG Export Plug-In . SVG Version: 6.00 Build 0)  -->
<svg version="1.1" id="Layer_1" xmlns="http://www.w3.org/2000/svg" xmlns:xlink="http://www.w3.org/1999/xlink" x="0px" y="0px"
	 viewBox="0 0 32.1 32.1" style="enable-background:new 0 0 32.1 32.1;" xml:space="preserve">
<style type="text/css">
	.st0{fill:#F5F0E1;}
</style>
<path class="st0" d="M16,0C7.2,0,0,7.2,0,16c0,8.9,7.2,16.1,16,16.1c8.9,0,16.1-7.2,16-16.1C32,7.2,24.8,0,16,0z M17.5,19.6
	c-0.8,1-2.4,2.2-3.2,2.2c-0.3,0-0.6-0.3-0.6-0.5c0-0.1,0-0.2,0.1-0.3c0.7-1.6,1.4-3.4,2.3-5.5c0.1-0.2-0.1-0.3-0.1-0.3
	c-0.4,0.1-0.9,0.4-1.4,0.8c-0.1,0.1-0.2,0.1-0.2-0.1c0-0.1,0.1-0.3,0.2-0.5c0.4-0.4,2-1.6,2.6-1.6c0.2,0.2,0.5,0.5,0.5,0.7
	c0,0.2-0.1,0.4-0.2,0.6c-0.9,2.1-1.5,3.6-2.1,5c0,0.1,0,0.3,0.2,0.3c0.3,0,1.3-0.7,1.7-1.2c0.2-0.2,0.3-0.4,0.4-0.4
	c0,0,0.1,0,0.1,0.1C17.8,19.1,17.7,19.3,17.5,19.6z M17.5,12c-0.1,0-0.2,0-0.3-0.1c-0.2-0.1-0.4-0.4-0.4-0.7c0-0.3,0.2-0.6,0.4-0.8
	c0.2-0.1,0.4-0.2,0.5-0.2c0.4,0.1,0.7,0.5,0.7,0.8C18.4,11.5,18,12,17.5,12z"/>
</svg>
