<?xml version="1.0" encoding="utf-8"?>
<!-- Generator: Adobe Illustrator 21.0.0, SVG Export Plug-In . SVG Version: 6.00 Build 0)  -->
<svg version="1.1" id="Layer_1" xmlns="http://www.w3.org/2000/svg" xmlns:xlink="http://www.w3.org/1999/xlink" x="0px" y="0px"
	 viewBox="0 0 32.1 32.1" style="enable-background:new 0 0 32.1 32.1;" xml:space="preserve">
<style type="text/css">
	.st0{fill:#F5F0E1;}
</style>
<g>
	<g>
		<g>
			<path class="st0" d="M16,32.1C7.2,32.1,0,24.9,0,16C0,7.2,7.2,0,16,0s16,7.2,16,16C32.1,24.9,24.9,32.1,16,32.1z M16,1.2
				C7.9,1.2,1.2,7.9,1.2,16S7.9,30.9,16,30.9S30.9,24.2,30.9,16S24.2,1.2,16,1.2z"/>
		</g>
	</g>
	<g>
		<g>
			<path class="st0" d="M17.7,14.5c0,0.2-0.1,0.4-0.2,0.6c-0.9,2.1-1.5,3.6-2.1,5c0,0.1,0,0.3,0.2,0.3c0.3,0,1.3-0.7,1.7-1.2
				c0.2-0.2,0.3-0.4,0.4-0.4c0,0,0.1,0,0.1,0.1c0,0.2-0.1,0.4-0.3,0.7c-0.8,1-2.4,2.2-3.2,2.2c-0.3,0-0.6-0.3-0.6-0.5
				c0-0.1,0-0.2,0.1-0.3c0.7-1.6,1.4-3.4,2.3-5.5c0.1-0.2-0.1-0.3-0.1-0.3c-0.4,0.1-0.9,0.4-1.4,0.8c-0.1,0.1-0.2,0.1-0.2-0.1
				c0-0.1,0.1-0.3,0.2-0.5c0.4-0.4,2-1.6,2.6-1.6C17.4,14,17.7,14.3,17.7,14.5z M18.4,11c0,0.5-0.4,1-0.9,1c-0.1,0-0.2,0-0.3-0.1
				c-0.2-0.1-0.4-0.4-0.4-0.7c0-0.3,0.2-0.6,0.4-0.8c0.2-0.1,0.4-0.2,0.5-0.2C18.1,10.3,18.4,10.7,18.4,11z"/>
		</g>
	</g>
</g>
</svg>
