<?xml version="1.0" encoding="utf-8"?>
<!-- Generator: Adobe Illustrator 16.0.0, SVG Export Plug-In . SVG Version: 6.00 Build 0)  -->
<!DOCTYPE svg PUBLIC "-//W3C//DTD SVG 1.1//EN" "http://www.w3.org/Graphics/SVG/1.1/DTD/svg11.dtd">
<svg version="1.1" id="Layer_1" xmlns="http://www.w3.org/2000/svg" xmlns:xlink="http://www.w3.org/1999/xlink" x="0px" y="0px"
	 width="34.439px" height="34.438px" viewBox="0 0 34.439 34.438" enable-background="new 0 0 34.439 34.438" xml:space="preserve">
<g>
	<path fill="#FAF1DC" d="M17.409,12.678h-0.378c-2.461,0-4.447,2.271-4.447,4.73s2.176,4.729,4.637,4.729l0,0
		c2.46,0,4.636-2.271,4.636-4.729S19.774,12.678,17.409,12.678z M17.125,20.531L17.125,20.531c-1.703,0-3.026-1.515-3.026-3.218
		c0-1.702,1.419-3.122,3.122-3.122l0,0c1.702,0,3.027,1.515,3.027,3.218C20.248,19.017,18.923,20.531,17.125,20.531z"/>
	<path fill="#FAF1DC" d="M22.045,11.731c-0.566,0-0.944,0.189-0.944,0.757c0,0.568,0.378,0.853,0.944,0.853
		c0.568,0,0.946-0.188,0.946-0.757C22.991,11.921,22.518,11.731,22.045,11.731z"/>
	<path fill="#FAF1DC" d="M17.22,0C7.664,0,0,7.758,0,17.22c0,9.461,7.759,17.219,17.221,17.219c9.556,0,17.22-7.758,17.22-17.219
		C34.439,7.758,26.775,0,17.22,0z M24.505,21.95c-0.095,1.323-1.323,2.46-2.554,2.647c-1.609,0.189-3.123,0.284-4.73,0.284
		c-1.608,0-3.122-0.095-4.73-0.284c-1.325-0.094-2.46-1.324-2.555-2.647c-0.378-3.122-0.378-6.34,0-9.463
		c0.095-1.323,1.324-2.46,2.555-2.555c1.608-0.188,3.217-0.283,4.73-0.283c1.607,0,3.121,0.096,4.73,0.283
		c1.229,0.095,2.459,1.325,2.554,2.555c0.189,1.608,0.189,3.123,0.284,4.731C24.694,18.828,24.694,20.437,24.505,21.95z"/>
</g>
</svg>
