<?xml version="1.0" encoding="utf-8"?>
<!-- Generator: Adobe Illustrator 21.0.0, SVG Export Plug-In . SVG Version: 6.00 Build 0)  -->
<svg version="1.1" id="Layer_1" xmlns="http://www.w3.org/2000/svg" xmlns:xlink="http://www.w3.org/1999/xlink" x="0px" y="0px"
	 viewBox="0 0 119.4 78.6" style="enable-background:new 0 0 119.4 78.6;" xml:space="preserve">
<style type="text/css">
	.st0{fill:#F9F1DD;}
</style>
<g>
	<path class="st0" d="M43.1,24.5l0-0.4c0.5-0.1,0.8-0.2,0.9-0.3c0.1-0.1,0.2-0.3,0.2-0.7l0.1-2.1l0.1-2.1c0-0.1,0-0.2,0-0.2
		c0-0.6,0-0.9-0.1-1s-0.3-0.2-0.8-0.3c-0.1,0-0.2,0-0.3-0.1c0-0.1,0-0.2,0-0.2v-0.2c0.1,0,0.3,0,0.5,0l1.7,0.1c0,0,0.1,0,0.2,0
		l0.3,0c0.1,0.1,0.1,0.2,0.2,0.3c0.1,0.3,0.3,0.7,0.6,1.3l0.1,0.2l0.9,2c0,0,0.1,0.1,0.1,0.2c0.1,0.1,0.1,0.3,0.2,0.4
		c0.1,0.1,0.1,0.3,0.2,0.4c0.1,0.2,0.1,0.3,0.2,0.4c0.1-0.1,0.1-0.2,0.2-0.3c0.2-0.4,0.3-0.7,0.5-1c0.3-0.5,0.6-1.3,1-2.4
		c0.1-0.2,0.2-0.4,0.3-0.8s0.3-0.5,0.3-0.6c0,0,0.1,0,0.2,0c0,0,0.1,0,0.2,0c0.2,0,0.4,0,0.7,0c0.4,0,0.7,0,1,0s0.4,0,0.4,0
		c0,0,0.1,0,0.1,0c0,0.1,0,0.1,0,0.1l0,0.2c0,0,0,0.1,0,0.2c-0.4,0.1-0.7,0.1-0.9,0.2c-0.2,0.1-0.2,0.2-0.2,0.3V18l0.1,1.8
		c0,0.2,0,1,0.1,2.4c0,0.3,0,0.7,0.1,1.2c0,0.1,0,0.1,0,0.1c0,0.1,0,0.2,0.1,0.2s0.4,0.1,1.1,0.3c0,0.1,0,0.1,0,0.1
		c0,0.1,0,0.2,0,0.2c-0.1,0-0.4,0-0.8-0.1s-0.8-0.1-1.2-0.1c-0.6,0-1.1,0-1.7,0.1c-0.1,0-0.1,0-0.2,0l0-0.4c0.2-0.1,0.4-0.1,0.6-0.2
		c0.2,0,0.3-0.1,0.4-0.2s0.1-0.3,0.1-0.6c0-0.1,0-0.2,0-0.3c0-0.4,0-1,0-1.7L50.6,19c0-0.3,0-0.5,0-0.6l-1.5,3.4
		c0,0.1-0.1,0.2-0.2,0.3c-0.1,0.2-0.2,0.3-0.2,0.4c-0.3,0.7-0.5,1.3-0.6,1.7c0,0.1-0.1,0.2-0.1,0.4l-0.5,0l-0.3-0.9
		c-0.1-0.2-0.3-0.6-0.5-1.1c-0.1-0.3-0.2-0.5-0.3-0.7c0-0.1-0.1-0.1-0.1-0.2l-0.1-0.1c0,0,0,0,0-0.1l-0.9-1.9l-0.5-1.1l0,2.8l0,1.8
		c0,0.3,0.1,0.5,0.2,0.6s0.4,0.2,0.7,0.3l0.3,0.1v0.4c-0.2,0-0.5,0-0.7,0s-0.6,0-1,0C44.1,24.4,43.7,24.4,43.1,24.5z"/>
	<path class="st0" d="M54.3,20.6c0-0.5,0.1-1,0.3-1.5c0.1-0.4,0.3-0.7,0.6-1c0.2-0.3,0.6-0.6,0.9-0.8c0.4-0.2,0.7-0.4,1.1-0.5
		s0.8-0.1,1.3-0.1c0.8,0,1.5,0.2,2.1,0.5c0.6,0.3,1.1,0.7,1.4,1.2c0.4,0.7,0.7,1.4,0.7,2.1c0,1.1-0.4,2.1-1.1,2.8
		c-0.8,0.8-1.8,1.2-3.1,1.2c-0.3,0-0.6,0-0.9-0.1c-0.2,0-0.4-0.1-0.6-0.1c-0.3-0.1-0.5-0.2-0.5-0.2c-0.4-0.2-0.8-0.5-1-0.7
		s-0.5-0.5-0.7-0.9c-0.1-0.2-0.2-0.5-0.3-1C54.4,21.3,54.3,21,54.3,20.6z M58.3,17.3c-0.3,0-0.6,0.1-0.9,0.2
		c-0.3,0.2-0.5,0.3-0.6,0.5c-0.2,0.3-0.4,0.7-0.5,1.1s-0.1,0.9-0.1,1.4c0,0.3,0,0.6,0,0.7c0,0,0,0.1,0,0.2c0,0.3,0.1,0.5,0.1,0.6
		c0.2,0.5,0.3,0.8,0.4,0.9c0.1,0.2,0.3,0.4,0.5,0.6c0.1,0.1,0.3,0.2,0.5,0.3s0.4,0.1,0.7,0.1c0.4,0,0.8-0.1,1.2-0.3
		c0.4-0.2,0.7-0.5,0.9-1c0.2-0.5,0.3-1.1,0.3-1.8c0-0.3,0-0.7-0.1-1.3l0-0.1c0,0,0-0.1-0.1-0.2c-0.1-0.6-0.4-1.1-0.8-1.5
		C59.5,17.5,58.9,17.3,58.3,17.3z"/>
	<path class="st0" d="M63.8,24.1c0.1-0.1,0.3-0.1,0.5-0.1s0.4-0.1,0.5-0.1c0-0.1,0-0.1,0-0.2c0-0.1,0-0.2,0-0.6l0-1.3l0-0.7l0-0.5
		l0-0.3c0-0.4,0-0.8,0-1.2c0-0.8,0-1.3,0-1.6l-0.3-0.1c-0.3,0-0.5,0-0.6-0.1l0-0.4l0-0.1c0.2,0,0.4,0,0.5,0c0.1,0,0.3,0,0.5,0
		c0.3,0,0.4,0,0.5,0l0.3,0l0.7,0c0.5,0,0.9-0.1,1.4-0.1c0.8,0,1.4,0.2,1.9,0.6s0.7,0.9,0.7,1.4c0,0.4-0.1,0.8-0.4,1.1
		s-0.6,0.6-1.2,0.7c0,0.1,0.1,0.2,0.2,0.3c0.2,0.2,0.3,0.4,0.4,0.6l0.9,1.5c0.2,0.4,0.4,0.6,0.5,0.7s0.2,0.1,0.4,0.2
		c0.2,0.1,0.3,0.1,0.4,0.2c0,0.1,0,0.1,0,0.2c0,0,0,0.1,0,0.1h-0.2l-0.1,0l-0.3,0H71c-0.1,0-0.3,0-0.5,0l-0.6,0c0,0-0.2,0-0.4,0
		c-0.1,0-0.2,0-0.3,0l-0.2-0.4c-0.2-0.3-0.3-0.5-0.3-0.7c-0.2-0.4-0.5-1-0.9-1.8c-0.2-0.4-0.3-0.6-0.4-0.7c-0.1-0.1-0.3-0.1-0.6-0.1
		c-0.1,0-0.2,0-0.4,0c0,0.1,0,0.2,0,0.4l0,1.3l0,1.1c0.1,0.1,0.3,0.1,0.4,0.2c0.3,0.1,0.6,0.1,0.8,0.2c0,0.2,0,0.3,0,0.4
		c-0.1,0-0.1,0-0.1,0l-0.2,0c-0.8-0.1-1.3-0.1-1.5-0.1c-0.1,0-0.2,0-0.2,0l-0.8,0.1c-0.2,0-0.5,0-0.7,0h-0.3c0-0.1,0-0.2,0-0.2
		C63.8,24.2,63.8,24.2,63.8,24.1z M66.5,20.3c0.2,0,0.3,0,0.4,0c0.7,0,1.1-0.1,1.4-0.4s0.4-0.6,0.4-1c0-0.2,0-0.5-0.1-0.7
		s-0.2-0.4-0.3-0.5c-0.1-0.2-0.3-0.3-0.6-0.3c-0.2-0.1-0.4-0.1-0.8-0.1c-0.2,0-0.3,0-0.5,0l0,0.1l0,0.8l0,0.5l0,0.6
		c0,0.2,0,0.4,0,0.7V20.3z"/>
	<path class="st0" d="M71.9,16.9c0.2,0,0.4,0,0.6,0.1c0.3,0,0.7,0.1,1.1,0.1c0.1,0,0.5,0,1.1,0c0.9,0,1.7-0.1,2.4-0.1l1.1,0
		c0.2,0,0.6,0,1.1,0.1c0.1,0.1,0.1,0.2,0.1,0.3v1.2l0,0.2c0,0,0,0.1,0,0.1l-0.2,0c0,0-0.1,0-0.2,0c0-0.1-0.1-0.2-0.1-0.3l-0.2-0.4
		c-0.1-0.2-0.2-0.4-0.4-0.5c-0.1,0-0.2,0-0.4,0c0,0-0.2,0-0.4,0c-0.4,0-0.8,0-1.2,0c-0.5,0-0.9,0-1.3,0c0,0.1,0,0.5,0,1.2l0,1v0.7
		c0.1,0,0.2,0,0.3,0c0.7,0,1.2,0,1.5,0s0.5-0.1,0.6-0.1s0.1-0.1,0.2-0.3c0-0.1,0.1-0.4,0.2-0.9l0.1,0l0.3,0c0,0.3,0,0.6,0,0.8
		c0,0.4,0,0.7,0,0.8s0,0.2,0,0.3c0,0.1,0,0.3,0,0.5s0,0.4,0,0.5v0.1h-0.4c0-0.1,0-0.2-0.1-0.4c-0.1-0.4-0.1-0.6-0.2-0.7
		c0-0.1-0.1-0.1-0.2-0.2c-0.1,0-0.4,0-0.9,0c-0.6,0-1,0-1.3,0c0,0.1,0,0.2,0,0.2c0,0.5,0,0.9,0,1.2l0,1.3c0,0.1,0.1,0.2,0.2,0.3
		c0.2,0.1,0.7,0.1,1.5,0.1c0.5,0,1,0,1.4-0.1c0.3-0.1,0.5-0.2,0.7-0.4c0.3-0.3,0.5-0.6,0.7-1.1c0.1,0,0.2,0,0.3,0c0,0,0.1,0,0.2,0
		c0,0.1,0,0.2,0,0.2l0,0.2l-0.2,1.1l-0.1,0.7c-0.3,0-0.5,0-0.6,0c-0.2,0-0.8,0-1.8-0.1c-0.7,0-1.5,0-2.4,0c-0.5,0-1,0-1.7,0.1h-0.2
		l-0.7,0v-0.4c0.1,0,0.2,0,0.4-0.1c0.4,0,0.7-0.1,0.8-0.2c0-0.1,0.1-0.3,0.1-0.4c0-0.1,0-0.2,0-0.3l0-0.2l0-2.2l0-0.7l0-0.9l0-0.7
		l-0.1-0.7c0,0,0-0.1,0-0.1c0,0-0.1-0.1-0.2-0.1c0,0-0.1,0-0.2,0c-0.2,0-0.4-0.1-0.6-0.1c-0.1,0-0.2,0-0.3,0L71.9,16.9z"/>
</g>
</svg>
