<?xml version="1.0" encoding="utf-8"?>
<!-- Generator: Adobe Illustrator 21.0.0, SVG Export Plug-In . SVG Version: 6.00 Build 0)  -->
<svg version="1.1" id="Layer_1" xmlns="http://www.w3.org/2000/svg" xmlns:xlink="http://www.w3.org/1999/xlink" x="0px" y="0px"
	 viewBox="0 0 27.7 28.7" style="enable-background:new 0 0 27.7 28.7;" xml:space="preserve">
<style type="text/css">
	.st0{fill:#0E2635;}
</style>
<path class="st0" d="M12.7,12.7c0.1,0,0.3,0,0.4,0c1.2,0,2.5,0,3.7,0c1,0,1.9,0.9,1.9,1.9c0,1.3,0,2.6,0,3.9c0,1-0.9,1.8-1.9,1.9
	c-0.3,0-0.6,0-0.9,0c-1.5,0-2.9,0-4.4,0c-1.1,0-2-0.7-2.2-1.7c0-0.1,0-0.3,0-0.5c0-1.1,0-2.3,0-3.4s0.7-1.9,1.8-2.1
	c0.2,0,0.2-0.1,0.2-0.2c0-0.7,0-1.3,0.1-2c0.3-1.9,2.4-2.8,4.1-1.8c0.8,0.5,1.1,1.3,1.2,2.2c0,0.1,0,0.3,0,0.4
	c0,0.3-0.3,0.6-0.6,0.6c-0.3,0-0.6-0.2-0.7-0.5c0-0.2,0-0.4-0.1-0.6C15.2,10,14.8,9.6,14,9.7c-0.7,0-1.2,0.5-1.3,1.3
	c0,0.1,0,0.2,0,0.3C12.7,11.7,12.7,12.2,12.7,12.7z M14.1,14c-0.9,0-1.7,0-2.6,0c-0.5,0-0.8,0.3-0.8,0.8c0,1.1,0,2.3,0,3.4
	c0,0.5,0.3,0.8,0.8,0.8c1.7,0,3.4,0,5.1,0c0.5,0,0.8-0.3,0.8-0.8c0-1.1,0-2.2,0-3.4c0-0.5-0.3-0.8-0.8-0.8C15.8,14,14.9,14,14.1,14z
	"/>
</svg>
