<?xml version="1.0" encoding="utf-8"?>
<!-- Generator: Adobe Illustrator 21.0.0, SVG Export Plug-In . SVG Version: 6.00 Build 0)  -->
<svg version="1.1" id="Layer_1" xmlns="http://www.w3.org/2000/svg" xmlns:xlink="http://www.w3.org/1999/xlink" x="0px" y="0px"
	 viewBox="0 0 27.7 28.7" style="enable-background:new 0 0 27.7 28.7;" xml:space="preserve">
<style type="text/css">
	.st0{fill:#0E2635;}
</style>
<path class="st0" d="M26.2,7.5c0-0.1,0-0.2,0-0.3c0-1.9,0-3.9,0-5.8c0-0.1,0-0.3,0-0.4c0.1-0.3,0.4-0.5,0.7-0.4
	c0.3,0,0.5,0.3,0.6,0.6c0,0.1,0,0.2,0,0.3c0,2.7,0,5.3,0,8c0,0.6-0.2,0.9-0.8,0.9c-2.5,0-4.9,0-7.4,0c-0.1,0-0.2,0-0.3,0
	c-0.3-0.1-0.5-0.3-0.5-0.6s0.2-0.5,0.5-0.6c0.1,0,0.2,0,0.4,0c1.9,0,3.8,0,5.7,0c0.1,0,0.2,0,0.3,0c0-0.1,0-0.1,0-0.1
	c-1.8-3.7-4.7-6-8.7-6.9c-3.5-1-6.7-0.4-9.6,1.5c-2.8,1.9-4.6,4.5-5.4,7.8S1.3,17.9,3,20.9c1.4,2.3,3.3,3.9,5.8,4.9
	c4.3,1.7,8.4,1.4,12.3-1.2c2.8-1.9,4.5-4.7,5.2-8c0-0.1,0-0.2,0-0.2c0.1-0.4,0.4-0.7,0.8-0.6c0.4,0.1,0.6,0.4,0.5,0.8
	c-0.1,0.6-0.3,1.3-0.4,1.9c-1.3,4-3.9,6.9-7.7,8.6c-2.2,1-4.4,1.3-6.8,1.1c-3-0.2-5.6-1.3-7.9-3.2c-2.6-2.2-4.3-5-4.7-8.4
	C-0.5,11.6,1,7.4,4.6,4c2.1-2,4.7-3.2,7.6-3.6c5.6-0.7,11,2.1,13.8,6.8C26,7.3,26.1,7.4,26.2,7.5C26.1,7.5,26.1,7.5,26.2,7.5z"/>
</svg>
