<?xml version="1.0" encoding="utf-8"?>
<!-- Generator: Adobe Illustrator 21.0.0, SVG Export Plug-In . SVG Version: 6.00 Build 0)  -->
<svg version="1.1" id="Layer_1" xmlns="http://www.w3.org/2000/svg" xmlns:xlink="http://www.w3.org/1999/xlink" x="0px" y="0px"
	 viewBox="0 0 27.7 28.7" style="enable-background:new 0 0 27.7 28.7;" xml:space="preserve">
<style type="text/css">
	.st0{fill:#0E2635;}
</style>
<g>
	<path class="st0" d="M26.2,7.5c0-0.1,0-0.2,0-0.3c0-1.9,0-3.9,0-5.8c0-0.1,0-0.3,0-0.4c0.1-0.3,0.4-0.5,0.7-0.4
		c0.3,0,0.5,0.3,0.6,0.6c0,0.1,0,0.2,0,0.3c0,2.7,0,5.3,0,8c0,0.6-0.2,0.9-0.8,0.9c-2.5,0-4.9,0-7.4,0c-0.1,0-0.2,0-0.3,0
		c-0.3-0.1-0.5-0.3-0.5-0.6c0-0.3,0.2-0.5,0.5-0.6c0.1,0,0.2,0,0.4,0c1.9,0,3.8,0,5.7,0c0.1,0,0.2,0,0.3,0c0-0.1,0-0.1,0-0.1
		c-1.8-3.7-4.7-6-8.7-6.9C13.2,1.2,10,1.8,7.1,3.7c-2.8,1.9-4.6,4.5-5.4,7.8c-0.8,3.3-0.4,6.4,1.3,9.4c1.4,2.3,3.3,3.9,5.8,4.9
		c4.3,1.7,8.4,1.4,12.3-1.2c2.8-1.9,4.5-4.7,5.2-8c0-0.1,0-0.2,0-0.2c0.1-0.4,0.4-0.7,0.8-0.6c0.4,0.1,0.6,0.4,0.5,0.8
		c-0.1,0.6-0.3,1.3-0.4,1.9c-1.3,4-3.9,6.9-7.7,8.6c-2.2,1-4.4,1.3-6.8,1.1c-3-0.2-5.6-1.3-7.9-3.2c-2.6-2.2-4.3-5-4.7-8.4
		C-0.5,11.6,1,7.4,4.6,4c2.1-2,4.7-3.2,7.6-3.6C17.8-0.3,23.2,2.5,26,7.2C26,7.3,26.1,7.4,26.2,7.5C26.1,7.5,26.1,7.5,26.2,7.5z"/>
	<path class="st0" d="M12.7,12.7c0.1,0,0.3,0,0.4,0c1.2,0,2.5,0,3.7,0c1,0,1.9,0.9,1.9,1.9c0,1.3,0,2.6,0,3.9c0,1-0.9,1.8-1.9,1.9
		c-0.3,0-0.6,0-0.9,0c-1.5,0-2.9,0-4.4,0c-1.1,0-2-0.7-2.2-1.7c0-0.1,0-0.3,0-0.5c0-1.1,0-2.3,0-3.4c0-1.1,0.7-1.9,1.8-2.1
		c0.2,0,0.2-0.1,0.2-0.2c0-0.7,0-1.3,0.1-2c0.3-1.9,2.4-2.8,4.1-1.8c0.8,0.5,1.1,1.3,1.2,2.2c0,0.1,0,0.3,0,0.4
		c0,0.3-0.3,0.6-0.6,0.6c-0.3,0-0.6-0.2-0.7-0.5c0-0.2,0-0.4-0.1-0.6C15.2,10,14.8,9.6,14,9.7c-0.7,0-1.2,0.5-1.3,1.3
		c0,0.1,0,0.2,0,0.3C12.7,11.7,12.7,12.2,12.7,12.7z M14.1,14c-0.9,0-1.7,0-2.6,0c-0.5,0-0.8,0.3-0.8,0.8c0,1.1,0,2.3,0,3.4
		c0,0.5,0.3,0.8,0.8,0.8c1.7,0,3.4,0,5.1,0c0.5,0,0.8-0.3,0.8-0.8c0-1.1,0-2.2,0-3.4c0-0.5-0.3-0.8-0.8-0.8C15.8,14,14.9,14,14.1,14
		z"/>
</g>
</svg>
