<?xml version="1.0" encoding="utf-8"?>
<!-- Generator: Adobe Illustrator 21.1.0, SVG Export Plug-In . SVG Version: 6.00 Build 0)  -->
<svg version="1.1" id="Layer_1" xmlns="http://www.w3.org/2000/svg" xmlns:xlink="http://www.w3.org/1999/xlink" x="0px" y="0px"
	 viewBox="0 0 50 50" style="enable-background:new 0 0 50 50;" xml:space="preserve">
<style type="text/css">
	.st0{fill:#0E2635;}
</style>
<g>
	<path class="st0" d="M47.1,2H2.9c-0.6,0-1,0.4-1,1V47c0,0.6,0.4,1,1,1h44.1c0.6,0,1-0.4,1-1V3C48.1,2.4,47.6,2,47.1,2z M46.1,4
		v22.2l-6.3-6.3c-0.2-0.2-0.4-0.3-0.7-0.3s-0.5,0.1-0.7,0.3L37,21.2c-1.1-1.9-3.2-3.1-5.5-3.1c-2.6,0-4.9,1.6-5.9,3.9
		c-0.5-0.2-1-0.3-1.6-0.3c-2.5,0-4.6,2.1-4.6,4.6c0,2.5,2.1,4.6,4.6,4.6h3.3l-4.5,4.5l-9.5-9.5c-0.4-0.4-1-0.4-1.4,0l-8,8V18.8h9.8
		c2.5,0,4.6-2.1,4.6-4.6s-2.1-4.6-4.6-4.6c-0.6,0-1.1,0.1-1.6,0.3C11.2,7.6,8.9,6,6.3,6C5.5,6,4.7,6.2,3.9,6.4V4H46.1z M29.4,28.9
		H24c-1.4,0-2.6-1.2-2.6-2.6s1.2-2.6,2.6-2.6c0.6,0,1.1,0.2,1.6,0.6c0.3,0.2,0.6,0.3,1,0.2c0.3-0.1,0.6-0.4,0.6-0.8
		c0.4-2.1,2.2-3.6,4.3-3.6c1.7,0,3.2,1,3.9,2.5c0,0,0,0.1,0.1,0.1L29.4,28.9z M3.9,8.7C4.6,8.2,5.4,8,6.3,8c2.1,0,3.9,1.5,4.3,3.6
		c0.1,0.3,0.3,0.6,0.6,0.8c0.3,0.1,0.7,0.1,1-0.1c0.3-0.3,0.9-0.6,1.6-0.6c1.4,0,2.6,1.2,2.6,2.6s-1.2,2.6-2.6,2.6H3.9V8.7z M3.9,46
		v-9.4l8.7-8.7l9.5,9.5c0.2,0.2,0.4,0.3,0.7,0.3s0.5-0.1,0.7-0.3l6.9-6.9c0,0,0,0,0,0l8.6-8.6l7,7V46H3.9z"/>
</g>
</svg>
