<?xml version="1.0" encoding="utf-8"?>
<!-- Generator: Adobe Illustrator 21.1.0, SVG Export Plug-In . SVG Version: 6.00 Build 0)  -->
<svg version="1.1" id="Layer_1" xmlns="http://www.w3.org/2000/svg" xmlns:xlink="http://www.w3.org/1999/xlink" x="0px" y="0px"
	 viewBox="0 0 50 50" style="enable-background:new 0 0 50 50;" xml:space="preserve">
<style type="text/css">
	.st0{fill:#0E2635;}
</style>
<path class="st0" d="M47,2H3C2.4,2,2,2.4,2,3V47c0,0.6,0.4,1,1,1H47c0.6,0,1-0.4,1-1V3C48,2.4,47.6,2,47,2z M46,4v31.2l-9.3-9.3
	c-0.4-0.4-1-0.4-1.4,0l-9.5,9.5L10.3,19.8c-0.4-0.4-1-0.4-1.4,0L4,24.7V4H46z M4,46V27.6c0,0,0,0,0.1,0L9.6,22l15.5,15.5
	c0.4,0.4,1,0.4,1.4,0L36,28l10,10v8H4z M25.4,24.3c3.6,0,6.6-3,6.6-6.6c0-3.6-3-6.6-6.6-6.6s-6.6,3-6.6,6.6
	C18.8,21.4,21.7,24.3,25.4,24.3z M25.4,13.1c2.5,0,4.6,2.1,4.6,4.6c0,2.5-2.1,4.6-4.6,4.6s-4.6-2.1-4.6-4.6
	C20.8,15.2,22.8,13.1,25.4,13.1z"/>
</svg>
