<?xml version="1.0" encoding="utf-8"?>
<!-- Generator: Adobe Illustrator 21.0.0, SVG Export Plug-In . SVG Version: 6.00 Build 0)  -->
<svg version="1.1" id="Layer_1" xmlns="http://www.w3.org/2000/svg" xmlns:xlink="http://www.w3.org/1999/xlink" x="0px" y="0px"
	 viewBox="0 0 32.1 32.1" style="enable-background:new 0 0 32.1 32.1;" xml:space="preserve">
<style type="text/css">
	.st0{fill:#F5F0E1;}
</style>
<g>
	<path class="st0" d="M21.4,16l-7.6-5.5c0,0-0.1,0-0.1,0c0,0-0.1,0.1-0.1,0.1v10.9c0,0,0,0.1,0.1,0.1c0,0,0,0,0.1,0c0,0,0,0,0.1,0
		l7.6-5.5C21.5,16.1,21.5,16.1,21.4,16C21.5,16,21.5,16,21.4,16z"/>
	<g>
		<g>
			<path class="st0" d="M16,1c8.3,0,15,6.8,15,15s-6.8,15-15,15S1,24.3,1,16S7.8,1,16,1 M16,0C7.2,0,0,7.2,0,16s7.2,16,16,16
				s16-7.2,16-16S24.9,0,16,0L16,0z"/>
		</g>
	</g>
</g>
</svg>
