<?xml version="1.0" encoding="utf-8"?>
<!-- Generator: Adobe Illustrator 21.0.0, SVG Export Plug-In . SVG Version: 6.00 Build 0)  -->
<svg version="1.1" id="Layer_1" xmlns="http://www.w3.org/2000/svg" xmlns:xlink="http://www.w3.org/1999/xlink" x="0px" y="0px"
	 viewBox="0 0 32.1 32.1" style="enable-background:new 0 0 32.1 32.1;" xml:space="preserve">
<style type="text/css">
	.st0{fill:#F5F0E1;}
</style>
<path class="st0" d="M16,0C7.2,0,0,7.2,0,16s7.2,16,16,16s16-7.2,16-16S24.9,0,16,0z M21.4,16.1l-7.6,5.5c0,0,0,0-0.1,0
	c0,0,0,0-0.1,0c0,0-0.1-0.1-0.1-0.1V10.6c0,0,0-0.1,0.1-0.1c0,0,0.1,0,0.1,0l7.6,5.5C21.5,16,21.5,16,21.4,16.1
	C21.5,16.1,21.5,16.1,21.4,16.1z"/>
</svg>
