<?xml version="1.0" encoding="utf-8"?>
<!-- Generator: Adobe Illustrator 21.0.0, SVG Export Plug-In . SVG Version: 6.00 Build 0)  -->
<svg version="1.1" id="Layer_1" xmlns="http://www.w3.org/2000/svg" xmlns:xlink="http://www.w3.org/1999/xlink" x="0px" y="0px"
	 viewBox="0 0 19.1 48.2" style="enable-background:new 0 0 19.1 48.2;" xml:space="preserve">
<style type="text/css">
	.st0{fill:#0E2635;}
</style>
<path class="st0" d="M18.4,9.5c-0.4,0.5-0.9,0.9-1.4,1.4c-2.1-2.1-4.2-4.2-6.4-6.4c0,13.1,0,26.1,0,39.1c2.2-2.1,4.3-4.3,6.4-6.4
	c0.5,0.5,0.9,1,1.4,1.4c-2.9,2.9-5.9,5.9-8.9,8.8c-2.9-2.9-5.9-5.9-8.9-8.8c0.4-0.5,0.9-0.9,1.4-1.4c2.1,2.1,4.3,4.2,6.4,6.3
	c0-13,0-26.1,0-39c-2.1,2.1-4.2,4.2-6.3,6.3c-0.5-0.5-1-1-1.4-1.5c2.9-2.9,5.9-5.9,8.8-8.8C12.5,3.6,15.5,6.6,18.4,9.5z"/>
</svg>
