<?xml version="1.0" encoding="utf-8"?>
<!-- Generator: Adobe Illustrator 21.0.0, SVG Export Plug-In . SVG Version: 6.00 Build 0)  -->
<svg version="1.1" id="Layer_1" xmlns="http://www.w3.org/2000/svg" xmlns:xlink="http://www.w3.org/1999/xlink" x="0px" y="0px"
	 viewBox="0 0 119.4 78.6" style="enable-background:new 0 0 119.4 78.6;" xml:space="preserve">
<style type="text/css">
	.st0{fill:#F9F1DD;}
</style>
<g>
	<path class="st0" d="M79.8,20.2c0,0.1,0,0.2,0,0.4c0.2,0,0.3,0,0.6,0c0.6,0,1-0.1,1.3-0.3s0.5-0.6,0.5-1.1c0-0.4-0.1-0.7-0.4-0.9
		s-0.7-0.4-1.3-0.4c-0.2,0-0.4,0-0.7,0.1c0,0.1,0,0.2,0,0.4c0,0.3,0,0.8,0,1.4L79.8,20.2z"/>
	<path class="st0" d="M44.3,20.2c0,0.1,0,0.2,0,0.4c0.2,0,0.3,0,0.6,0c0.6,0,1-0.1,1.3-0.3s0.5-0.6,0.5-1.1c0-0.4-0.1-0.7-0.4-0.9
		s-0.7-0.4-1.3-0.4c-0.2,0-0.4,0-0.7,0.1c0,0.1,0,0.2,0,0.4c0,0.3,0,0.8,0,1.4L44.3,20.2z"/>
	<path class="st0" d="M46.1,21.3c-0.3-0.1-0.7-0.2-1.2-0.2c-0.2,0-0.4,0-0.5,0.1v0.7l0,0.9l0,1.3c0,0.1,0,0.1,0.1,0.2
		c0.3,0.1,0.5,0.2,0.7,0.2c0.4,0,0.8-0.1,1.1-0.2s0.5-0.3,0.6-0.6s0.2-0.5,0.2-0.9c0-0.4-0.1-0.7-0.2-0.9
		C46.6,21.6,46.3,21.4,46.1,21.3z"/>
	<path class="st0" d="M81.6,21.3c-0.3-0.1-0.7-0.2-1.2-0.2c-0.2,0-0.4,0-0.5,0.1v0.7l0,0.9l0,1.3c0,0.1,0,0.1,0.1,0.2
		c0.3,0.1,0.5,0.2,0.7,0.2c0.4,0,0.8-0.1,1.1-0.2s0.5-0.3,0.6-0.6s0.2-0.5,0.2-0.9c0-0.4-0.1-0.7-0.2-0.9
		C82.1,21.6,81.8,21.4,81.6,21.3z"/>
	<path class="st0" d="M68.5,18.4c-0.1-0.2-0.3-0.3-0.6-0.3c-0.2-0.1-0.4-0.1-0.8-0.1c-0.2,0-0.3,0-0.5,0l0,0.1l0,0.8l0,0.5l0,0.6
		c0,0.2,0,0.4,0,0.7v0.2c0.2,0,0.3,0,0.4,0c0.7,0,1.1-0.1,1.4-0.4s0.4-0.6,0.4-1c0-0.2,0-0.5-0.1-0.7S68.6,18.5,68.5,18.4z"/>
	<path class="st0" d="M19.5,3.1v36.2h80.3V3.1H19.5z M31.4,23.7c-0.1,0.2-0.2,0.4-0.4,0.5c-0.1,0.1-0.3,0.3-0.5,0.4S30,24.9,29.7,25
		s-0.6,0.1-1,0.1c-0.3,0-0.6,0-1-0.1L27,24.8c-0.2-0.1-0.3-0.1-0.4-0.1c0,0,0-0.1-0.1-0.1v-0.1c0,0,0-0.3,0-0.8c0-0.3,0-0.4,0-0.5
		v-0.2l0.5,0c0.2,0.4,0.3,0.7,0.4,0.8c0.1,0.2,0.3,0.4,0.4,0.5c0.1,0.1,0.3,0.2,0.5,0.3c0.2,0.1,0.4,0.1,0.7,0.1
		c0.2,0,0.4,0,0.7-0.1c0.3-0.1,0.5-0.2,0.6-0.4c0.2-0.2,0.2-0.4,0.2-0.7c0-0.3-0.1-0.6-0.4-0.8c-0.2-0.2-0.6-0.4-1.3-0.6
		c-0.7-0.3-1.2-0.5-1.5-0.7s-0.5-0.5-0.7-0.8c-0.2-0.3-0.2-0.7-0.2-1c0-0.6,0.2-1.1,0.7-1.6c0.4-0.4,1.1-0.7,2-0.7
		c0.2,0,0.5,0,0.8,0.1c0.2,0,0.5,0.1,0.9,0.2c0,0.1,0.1,0.3,0.1,0.6c0,0.4,0.1,0.7,0.1,0.9c0,0.1,0,0.1,0,0.2l-0.1,0l-0.4,0l-0.1,0
		c-0.2-0.5-0.3-0.9-0.5-1c-0.3-0.3-0.6-0.5-1-0.5c-0.4,0-0.7,0.1-0.9,0.3c-0.2,0.2-0.3,0.5-0.3,0.7c0,0.2,0.1,0.5,0.3,0.7
		c0.2,0.2,0.7,0.5,1.4,0.7c0.2,0.1,0.5,0.2,0.9,0.3c0.3,0.2,0.6,0.3,0.8,0.5c0.2,0.2,0.4,0.5,0.5,0.7s0.1,0.5,0.1,0.8
		C31.6,23,31.6,23.3,31.4,23.7z M40.6,17.8c-0.1,0-0.3,0.1-0.5,0.1c-0.3,0-0.4,0.1-0.4,0.1c-0.1,0-0.1,0.1-0.1,0.2
		c0,0.1,0,0.2,0,0.3c0,0.1,0,0.3,0,0.5c0,0.1,0,0.2,0,0.3s0,0.2,0,0.2c0,0.3,0,0.6,0,0.9l0.1,1.2c0,0.8,0,1.3-0.1,1.6
		c-0.1,0.3-0.1,0.5-0.2,0.6c-0.1,0.2-0.3,0.5-0.6,0.6c-0.3,0.2-0.6,0.4-1,0.5s-0.9,0.2-1.4,0.2c-0.6,0-1.1-0.1-1.6-0.2
		s-0.8-0.4-1-0.6s-0.4-0.6-0.5-1c-0.1-0.3-0.1-0.7-0.1-1.2v-2.8c0-0.7,0-1-0.1-1.1c-0.1-0.1-0.4-0.2-0.8-0.2c-0.1,0-0.2,0-0.2,0
		l0-0.5c0.1,0,0.1,0,0.2,0c0.2,0,0.4,0,0.6,0c0.5,0,0.8,0,0.9,0c0.3,0,0.6,0,0.9,0c0.3,0,0.6,0,0.8,0c0.2,0,0.4,0,0.5,0l0,0.1l0,0.3
		v0c-0.2,0-0.4,0-0.7,0c-0.2,0-0.4,0-0.4,0.1c0,0.1-0.1,0.3-0.1,0.7c0,0.1,0,0.2,0,0.3l0,0.2l0,0.6l0,0.5l0,1l0.1,1.5
		c0,0.4,0.1,0.8,0.3,1.1c0.1,0.2,0.3,0.4,0.5,0.5c0.3,0.2,0.7,0.2,1,0.2c0.4,0,0.7,0,1-0.1c0.2-0.1,0.4-0.1,0.5-0.3s0.3-0.2,0.4-0.3
		c0.1-0.2,0.2-0.4,0.3-0.6c0.1-0.3,0.1-0.7,0.1-1.2c0-0.9-0.1-2-0.2-3.2l0-0.3c0-0.2-0.1-0.4-0.1-0.5c-0.1-0.1-0.3-0.2-0.4-0.2
		l-0.6,0l-0.1,0l0-0.5h0.5l1.1,0.1c0.4,0,0.7,0,1.1-0.1l0.1,0c0,0.1,0,0.2,0,0.3C40.6,17.7,40.6,17.8,40.6,17.8z M48.5,23.5
		c-0.1,0.2-0.2,0.4-0.4,0.6c-0.2,0.2-0.5,0.4-0.7,0.5s-0.6,0.2-1,0.3c-0.2,0-0.6,0.1-1,0.1l-1,0c-0.4,0-0.9,0-1.5,0.1
		c-0.2,0-0.6,0-1.4,0.1l0-0.5c0.1,0,0.2,0,0.3-0.1c0.3,0,0.5-0.1,0.6-0.2c0.1-0.1,0.1-0.2,0.1-0.3c0-0.2,0-0.5,0-1l0-2.5
		c0-0.3,0-0.9,0-2c0-0.3,0-0.5-0.1-0.5c0,0,0,0-0.1-0.1c-0.1,0-0.2-0.1-0.4-0.1c-0.1,0-0.3,0-0.6-0.1l0-0.4l1.3,0l1.9-0.1l0.2,0
		c0,0,0.1,0,0.1,0c0,0,0.1,0,0.3,0h0.4c0.3,0,0.6,0,1,0.1c0.1,0,0.3,0.1,0.5,0.2s0.4,0.2,0.5,0.4s0.3,0.3,0.3,0.5s0.1,0.4,0.1,0.6
		c0,0.2-0.1,0.5-0.2,0.6s-0.3,0.4-0.5,0.5c-0.1,0.1-0.4,0.2-0.8,0.4c0.6,0.1,1,0.4,1.3,0.7s0.5,0.7,0.5,1.2
		C48.7,22.9,48.6,23.2,48.5,23.5z M54.8,23.7c-0.1,0.2-0.2,0.4-0.4,0.5c-0.1,0.1-0.3,0.3-0.5,0.4s-0.5,0.3-0.8,0.3s-0.6,0.1-1,0.1
		c-0.3,0-0.6,0-1-0.1l-0.7-0.2c-0.2-0.1-0.3-0.1-0.4-0.1c0,0,0-0.1-0.1-0.1v-0.1c0,0,0-0.3,0-0.8c0-0.3,0-0.4,0-0.5v-0.2l0.5,0
		c0.2,0.4,0.3,0.7,0.4,0.8c0.1,0.2,0.3,0.4,0.4,0.5c0.1,0.1,0.3,0.2,0.5,0.3c0.2,0.1,0.4,0.1,0.7,0.1c0.2,0,0.4,0,0.7-0.1
		c0.3-0.1,0.5-0.2,0.6-0.4c0.2-0.2,0.2-0.4,0.2-0.7c0-0.3-0.1-0.6-0.4-0.8c-0.2-0.2-0.6-0.4-1.3-0.6c-0.7-0.3-1.2-0.5-1.5-0.7
		s-0.5-0.5-0.7-0.8c-0.2-0.3-0.2-0.7-0.2-1c0-0.6,0.2-1.1,0.7-1.6c0.4-0.4,1.1-0.7,2-0.7c0.2,0,0.5,0,0.8,0.1c0.2,0,0.5,0.1,0.9,0.2
		c0,0.1,0.1,0.3,0.1,0.6c0,0.4,0.1,0.7,0.1,0.9c0,0.1,0,0.1,0,0.2l-0.1,0l-0.4,0l-0.1,0c-0.2-0.5-0.3-0.9-0.5-1
		c-0.3-0.3-0.6-0.5-1-0.5c-0.4,0-0.7,0.1-0.9,0.3c-0.2,0.2-0.3,0.5-0.3,0.7c0,0.2,0.1,0.5,0.3,0.7c0.2,0.2,0.7,0.5,1.4,0.7
		c0.2,0.1,0.5,0.2,0.9,0.3c0.3,0.2,0.6,0.3,0.8,0.5c0.2,0.2,0.4,0.5,0.5,0.7s0.1,0.5,0.1,0.8C55,23,54.9,23.3,54.8,23.7z M63.1,23.4
		c0,0.1-0.1,0.3-0.1,0.7l-0.1,0.2l-0.1,0.3c-0.2,0.2-0.6,0.3-1,0.4s-1,0.1-1.6,0.1c-0.5,0-0.9,0-1.4-0.1s-0.8-0.2-1.1-0.4
		c-0.4-0.3-0.8-0.6-1-0.9s-0.4-0.7-0.6-1.1s-0.2-0.8-0.2-1.3c0-1.2,0.4-2.1,1.2-2.9s1.7-1.1,2.9-1.1c0.5,0,0.9,0,1.4,0.1
		s0.8,0.1,1.2,0.2c0.1,0.1,0.2,0.5,0.3,1C63,18.8,63,19,63,19.3h-0.5c-0.4-0.5-0.8-0.9-1.2-1.1s-0.8-0.3-1.3-0.3
		c-0.6,0-1.1,0.2-1.5,0.7c-0.5,0.6-0.8,1.5-0.8,2.7c0,0.7,0,1.1,0.1,1.4c0.1,0.5,0.3,0.8,0.5,1.1c0.2,0.2,0.4,0.4,0.6,0.5
		c0.3,0.2,0.7,0.3,1.1,0.3c0.4,0,0.8-0.1,1.2-0.4c0.4-0.3,0.8-0.7,1.2-1.2c0.1,0,0.3,0,0.6,0C63.1,23,63.1,23.2,63.1,23.4z M72,25
		h-0.2l-0.1,0l-0.3,0h-0.2c-0.1,0-0.3,0-0.5,0l-0.6,0c0,0-0.2,0-0.4,0c-0.1,0-0.2,0-0.3,0l-0.2-0.4C69.2,24.3,69,24.1,69,24
		c-0.2-0.4-0.5-1-0.9-1.8c-0.2-0.4-0.3-0.6-0.4-0.7c-0.1-0.1-0.3-0.1-0.6-0.1c-0.1,0-0.2,0-0.4,0c0,0.1,0,0.2,0,0.4l0,1.3l0,1.1
		c0.1,0.1,0.3,0.1,0.4,0.2c0.3,0.1,0.6,0.1,0.8,0.2c0,0.2,0,0.3,0,0.4c-0.1,0-0.1,0-0.1,0l-0.2,0c-0.8-0.1-1.3-0.1-1.5-0.1
		c-0.1,0-0.2,0-0.2,0l-0.8,0.1c-0.2,0-0.5,0-0.7,0H64c0-0.1,0-0.2,0-0.2c0,0,0-0.1,0-0.2c0.1-0.1,0.3-0.1,0.5-0.1s0.4-0.1,0.5-0.1
		c0-0.1,0-0.1,0-0.2c0-0.1,0-0.2,0-0.6l0-1.3l0-0.7l0-0.5l0-0.3c0-0.4,0-0.8,0-1.2c0-0.8,0-1.3,0-1.6l-0.3-0.1c-0.3,0-0.5,0-0.6-0.1
		l0-0.4l0-0.1c0.2,0,0.4,0,0.5,0c0.1,0,0.3,0,0.5,0c0.3,0,0.4,0,0.5,0l0.3,0l0.7,0c0.5,0,0.9-0.1,1.4-0.1c0.8,0,1.4,0.2,1.9,0.6
		s0.7,0.9,0.7,1.4c0,0.4-0.1,0.8-0.4,1.1s-0.6,0.6-1.2,0.7c0,0.1,0.1,0.2,0.2,0.3c0.2,0.2,0.3,0.4,0.4,0.6l0.9,1.5
		c0.2,0.4,0.4,0.6,0.5,0.7s0.2,0.1,0.4,0.2c0.2,0.1,0.3,0.1,0.4,0.2c0,0.1,0,0.1,0,0.2C72.1,24.9,72.1,24.9,72,25z M76.1,17.8
		c-0.2,0.1-0.3,0.1-0.5,0.2c-0.2,0-0.4,0.1-0.5,0.1c0,0.1,0,0.2,0,0.4c0,0.2,0,0.3,0,0.4c0,0.7,0,1.2,0,1.5l0,1.5l0,0.8l0,1.2l0,0.2
		c0,0,0,0.1,0,0.1c0.2,0.1,0.5,0.1,0.6,0.1c0,0,0.2,0,0.4,0c0,0.1,0,0.2,0,0.3c0,0,0,0.1,0,0.2C76,25,76,25,76,25
		c-0.1,0-0.2,0-0.2,0c0,0-0.1,0-0.2,0c-0.1,0-0.3,0-0.8-0.1l-1,0c-0.2,0-0.5,0-0.9,0.1c-0.3,0-0.4,0-0.5,0v-0.4
		c0.1,0,0.2-0.1,0.4-0.1c0.3-0.1,0.4-0.1,0.6-0.2c0.1-0.1,0.1-0.3,0.1-0.5l0-0.7l0-1.3l0-0.3c0-0.8,0-1.2,0-1.2l0-0.8l0-0.3l0-0.7
		l0-0.3c0,0,0-0.1,0-0.2c-0.2-0.1-0.4-0.1-0.8-0.1c-0.1,0-0.2,0-0.2,0l0-0.5l1.7,0.1c0.2,0,0.3,0,0.4,0c0.2,0,0.6,0,1.1,0
		c0.3,0,0.5,0,0.5,0c0,0.1,0,0.1,0,0.2C76.1,17.6,76.1,17.7,76.1,17.8z M84,23.5c-0.1,0.2-0.2,0.4-0.4,0.6c-0.2,0.2-0.5,0.4-0.7,0.5
		s-0.6,0.2-1,0.3c-0.2,0-0.6,0.1-1,0.1l-1,0c-0.4,0-0.9,0-1.5,0.1c-0.2,0-0.6,0-1.4,0.1l0-0.5c0.1,0,0.2,0,0.3-0.1
		c0.3,0,0.5-0.1,0.6-0.2c0.1-0.1,0.1-0.2,0.1-0.3c0-0.2,0-0.5,0-1l0-2.5c0-0.3,0-0.9,0-2c0-0.3,0-0.5-0.1-0.5c0,0,0,0-0.1-0.1
		c-0.1,0-0.2-0.1-0.4-0.1c-0.1,0-0.3,0-0.6-0.1l0-0.4l1.3,0l1.9-0.1l0.2,0c0,0,0.1,0,0.1,0c0,0,0.1,0,0.3,0h0.4c0.3,0,0.6,0,1,0.1
		c0.1,0,0.3,0.1,0.5,0.2s0.4,0.2,0.5,0.4s0.3,0.3,0.3,0.5s0.1,0.4,0.1,0.6c0,0.2-0.1,0.5-0.2,0.6s-0.3,0.4-0.5,0.5
		c-0.1,0.1-0.4,0.2-0.8,0.4c0.6,0.1,1,0.4,1.3,0.7s0.5,0.7,0.5,1.2C84.2,22.9,84.1,23.2,84,23.5z M92.8,23.1l0,0.2l-0.2,1.1L92.4,25
		c-0.3,0-0.5,0-0.6,0c-0.2,0-0.8,0-1.8-0.1c-0.7,0-1.5,0-2.4,0c-0.5,0-1,0-1.7,0.1h-0.2L85,25v-0.4c0.1,0,0.2,0,0.4-0.1
		c0.4,0,0.7-0.1,0.8-0.2c0-0.1,0.1-0.3,0.1-0.4c0-0.1,0-0.2,0-0.3l0-0.2l0-2.2l0-0.7l0-0.9l0-0.7l-0.1-0.7c0,0,0-0.1,0-0.1
		c0,0-0.1-0.1-0.2-0.1c0,0-0.1,0-0.2,0c-0.2,0-0.4-0.1-0.6-0.1c-0.1,0-0.2,0-0.3,0l0-0.5c0.2,0,0.4,0,0.6,0.1c0.3,0,0.7,0.1,1.1,0.1
		c0.1,0,0.5,0,1.1,0c0.9,0,1.7-0.1,2.4-0.1l1.1,0c0.2,0,0.6,0,1.1,0.1c0.1,0.1,0.1,0.2,0.1,0.3V19l0,0.2c0,0,0,0.1,0,0.1l-0.2,0
		c0,0-0.1,0-0.2,0c0-0.1-0.1-0.2-0.1-0.3l-0.2-0.4c-0.1-0.2-0.2-0.4-0.4-0.5c-0.1,0-0.2,0-0.4,0c0,0-0.2,0-0.4,0c-0.4,0-0.8,0-1.2,0
		c-0.5,0-0.9,0-1.3,0c0,0.1,0,0.5,0,1.2l0,1v0.7c0.1,0,0.2,0,0.3,0c0.7,0,1.2,0,1.5,0s0.5-0.1,0.6-0.1s0.1-0.1,0.2-0.3
		c0-0.1,0.1-0.4,0.2-0.9l0.1,0l0.3,0c0,0.3,0,0.6,0,0.8c0,0.4,0,0.7,0,0.8s0,0.2,0,0.3c0,0.1,0,0.3,0,0.5s0,0.4,0,0.5v0.1h-0.4
		c0-0.1,0-0.2-0.1-0.4c-0.1-0.4-0.1-0.6-0.2-0.7c0-0.1-0.1-0.1-0.2-0.2c-0.1,0-0.4,0-0.9,0c-0.6,0-1,0-1.3,0c0,0.1,0,0.2,0,0.2
		c0,0.5,0,0.9,0,1.2l0,1.3c0,0.1,0.1,0.2,0.2,0.3c0.2,0.1,0.7,0.1,1.5,0.1c0.5,0,1,0,1.4-0.1c0.3-0.1,0.5-0.2,0.7-0.4
		c0.3-0.3,0.5-0.6,0.7-1.1c0.1,0,0.2,0,0.3,0c0,0,0.1,0,0.2,0C92.8,22.9,92.8,23,92.8,23.1z"/>
</g>
</svg>
