<?xml version="1.0" encoding="utf-8"?>
<!-- Generator: Adobe Illustrator 21.0.0, SVG Export Plug-In . SVG Version: 6.00 Build 0)  -->
<svg version="1.1" id="Layer_1" xmlns="http://www.w3.org/2000/svg" xmlns:xlink="http://www.w3.org/1999/xlink" x="0px" y="0px"
	 viewBox="0 0 119.4 78.6" style="enable-background:new 0 0 119.4 78.6;" xml:space="preserve">
<style type="text/css">
	.st0{fill:#F9F1DD;}
</style>
<g>
	<path class="st0" d="M30.5,17.3c0,0.1,0.1,0.3,0.1,0.6c0,0.4,0.1,0.7,0.1,0.9c0,0.1,0,0.1,0,0.2l-0.1,0l-0.4,0l-0.1,0
		c-0.2-0.5-0.3-0.9-0.5-1c-0.3-0.3-0.6-0.5-1-0.5c-0.4,0-0.7,0.1-0.9,0.3c-0.2,0.2-0.3,0.5-0.3,0.7c0,0.2,0.1,0.5,0.3,0.7
		c0.2,0.2,0.7,0.5,1.4,0.7c0.2,0.1,0.5,0.2,0.9,0.3c0.3,0.2,0.6,0.3,0.8,0.5c0.2,0.2,0.4,0.5,0.5,0.7s0.1,0.5,0.1,0.8
		c0,0.4-0.1,0.7-0.2,1.1c-0.1,0.2-0.2,0.4-0.4,0.5c-0.1,0.1-0.3,0.3-0.5,0.4s-0.5,0.3-0.8,0.3s-0.6,0.1-1,0.1c-0.3,0-0.6,0-1-0.1
		l-0.7-0.2c-0.2-0.1-0.3-0.1-0.4-0.1c0,0,0-0.1-0.1-0.1v-0.1c0,0,0-0.3,0-0.8c0-0.3,0-0.4,0-0.5v-0.2l0.5,0c0.2,0.4,0.3,0.7,0.4,0.8
		c0.1,0.2,0.3,0.4,0.4,0.5c0.1,0.1,0.3,0.2,0.5,0.3c0.2,0.1,0.4,0.1,0.7,0.1c0.2,0,0.4,0,0.7-0.1c0.3-0.1,0.5-0.2,0.6-0.4
		c0.2-0.2,0.2-0.4,0.2-0.7c0-0.3-0.1-0.6-0.4-0.8c-0.2-0.2-0.6-0.4-1.3-0.6c-0.7-0.3-1.2-0.5-1.5-0.7s-0.5-0.5-0.7-0.8
		c-0.2-0.3-0.2-0.7-0.2-1c0-0.6,0.2-1.1,0.7-1.6c0.4-0.4,1.1-0.7,2-0.7c0.2,0,0.5,0,0.8,0.1C29.8,17.1,30.1,17.2,30.5,17.3z"/>
	<path class="st0" d="M31.9,17.6l0-0.5c0.1,0,0.1,0,0.2,0c0.2,0,0.4,0,0.6,0c0.5,0,0.8,0,0.9,0c0.3,0,0.6,0,0.9,0c0.3,0,0.6,0,0.8,0
		c0.2,0,0.4,0,0.5,0l0,0.1l0,0.3v0c-0.2,0-0.4,0-0.7,0c-0.2,0-0.4,0-0.4,0.1c0,0.1-0.1,0.3-0.1,0.7c0,0.1,0,0.2,0,0.3l0,0.2l0,0.6
		l0,0.5l0,1l0.1,1.5c0,0.4,0.1,0.8,0.3,1.1c0.1,0.2,0.3,0.4,0.5,0.5c0.3,0.2,0.7,0.2,1,0.2c0.4,0,0.7,0,1-0.1
		c0.2-0.1,0.4-0.1,0.5-0.3s0.3-0.2,0.4-0.3c0.1-0.2,0.2-0.4,0.3-0.6c0.1-0.3,0.1-0.7,0.1-1.2c0-0.9-0.1-2-0.2-3.2l0-0.3
		c0-0.2-0.1-0.4-0.1-0.5c-0.1-0.1-0.3-0.2-0.4-0.2l-0.6,0l-0.1,0l0-0.5H38l1.1,0.1c0.4,0,0.7,0,1.1-0.1l0.1,0c0,0.1,0,0.2,0,0.3
		c0,0,0,0.1,0,0.2c-0.1,0-0.3,0.1-0.5,0.1c-0.3,0-0.4,0.1-0.4,0.1c-0.1,0-0.1,0.1-0.1,0.2c0,0.1,0,0.2,0,0.3c0,0.1,0,0.3,0,0.5
		c0,0.1,0,0.2,0,0.3s0,0.2,0,0.2c0,0.3,0,0.6,0,0.9l0.1,1.2c0,0.8,0,1.3-0.1,1.6c-0.1,0.3-0.1,0.5-0.2,0.6c-0.1,0.2-0.3,0.5-0.6,0.6
		c-0.3,0.2-0.6,0.4-1,0.5s-0.9,0.2-1.4,0.2c-0.6,0-1.1-0.1-1.6-0.2s-0.8-0.4-1-0.6s-0.4-0.6-0.5-1c-0.1-0.3-0.1-0.7-0.1-1.2V19
		c0-0.7,0-1-0.1-1.1c-0.1-0.1-0.4-0.2-0.8-0.2C32,17.6,32,17.6,31.9,17.6z"/>
	<path class="st0" d="M41.2,24.8l0-0.5c0.1,0,0.2,0,0.3-0.1c0.3,0,0.5-0.1,0.6-0.2c0.1-0.1,0.1-0.2,0.1-0.3c0-0.2,0-0.5,0-1l0-2.5
		c0-0.3,0-0.9,0-2c0-0.3,0-0.5-0.1-0.5c0,0,0,0-0.1-0.1c-0.1,0-0.2-0.1-0.4-0.1c-0.1,0-0.3,0-0.6-0.1l0-0.4l1.3,0l1.9-0.1l0.2,0
		c0,0,0.1,0,0.1,0c0,0,0.1,0,0.3,0h0.4c0.3,0,0.6,0,1,0.1c0.1,0,0.3,0.1,0.5,0.2s0.4,0.2,0.5,0.4s0.3,0.3,0.3,0.5s0.1,0.4,0.1,0.6
		c0,0.2-0.1,0.5-0.2,0.6s-0.3,0.4-0.5,0.5c-0.1,0.1-0.4,0.2-0.8,0.4c0.6,0.1,1,0.4,1.3,0.7s0.5,0.7,0.5,1.2c0,0.3,0,0.5-0.1,0.8
		c-0.1,0.2-0.2,0.4-0.4,0.6c-0.2,0.2-0.5,0.4-0.7,0.5s-0.6,0.2-1,0.3c-0.2,0-0.6,0.1-1,0.1l-1,0c-0.4,0-0.9,0-1.5,0.1
		C42.4,24.7,42,24.7,41.2,24.8z M43.9,20.3c0.2,0,0.3,0,0.6,0c0.6,0,1-0.1,1.3-0.3s0.5-0.6,0.5-1.1c0-0.4-0.1-0.7-0.4-0.9
		s-0.7-0.4-1.3-0.4c-0.2,0-0.4,0-0.7,0.1c0,0.1,0,0.2,0,0.4c0,0.3,0,0.8,0,1.4l0,0.5C43.9,20,43.9,20.1,43.9,20.3z M44,24
		c0.3,0.1,0.5,0.2,0.7,0.2c0.4,0,0.8-0.1,1.1-0.2s0.5-0.3,0.6-0.6s0.2-0.5,0.2-0.9c0-0.4-0.1-0.7-0.2-0.9c-0.2-0.3-0.4-0.5-0.7-0.6
		s-0.7-0.2-1.2-0.2c-0.2,0-0.4,0-0.5,0.1v0.7l0,0.9l0,1.3C44,23.9,44,24,44,24z"/>
	<path class="st0" d="M53.9,17.3c0,0.1,0.1,0.3,0.1,0.6c0,0.4,0.1,0.7,0.1,0.9c0,0.1,0,0.1,0,0.2l-0.1,0l-0.4,0l-0.1,0
		c-0.2-0.5-0.3-0.9-0.5-1c-0.3-0.3-0.6-0.5-1-0.5c-0.4,0-0.7,0.1-0.9,0.3c-0.2,0.2-0.3,0.5-0.3,0.7c0,0.2,0.1,0.5,0.3,0.7
		c0.2,0.2,0.7,0.5,1.4,0.7c0.2,0.1,0.5,0.2,0.9,0.3c0.3,0.2,0.6,0.3,0.8,0.5c0.2,0.2,0.4,0.5,0.5,0.7s0.1,0.5,0.1,0.8
		c0,0.4-0.1,0.7-0.2,1.1c-0.1,0.2-0.2,0.4-0.4,0.5c-0.1,0.1-0.3,0.3-0.5,0.4s-0.5,0.3-0.8,0.3s-0.6,0.1-1,0.1c-0.3,0-0.6,0-1-0.1
		l-0.7-0.2c-0.2-0.1-0.3-0.1-0.4-0.1c0,0,0-0.1-0.1-0.1v-0.1c0,0,0-0.3,0-0.8c0-0.3,0-0.4,0-0.5v-0.2l0.5,0c0.2,0.4,0.3,0.7,0.4,0.8
		c0.1,0.2,0.3,0.4,0.4,0.5c0.1,0.1,0.3,0.2,0.5,0.3c0.2,0.1,0.4,0.1,0.7,0.1c0.2,0,0.4,0,0.7-0.1c0.3-0.1,0.5-0.2,0.6-0.4
		c0.2-0.2,0.2-0.4,0.2-0.7c0-0.3-0.1-0.6-0.4-0.8c-0.2-0.2-0.6-0.4-1.3-0.6c-0.7-0.3-1.2-0.5-1.5-0.7s-0.5-0.5-0.7-0.8
		c-0.2-0.3-0.2-0.7-0.2-1c0-0.6,0.2-1.1,0.7-1.6c0.4-0.4,1.1-0.7,2-0.7c0.2,0,0.5,0,0.8,0.1C53.2,17.1,53.5,17.2,53.9,17.3z"/>
	<path class="st0" d="M62.2,17.2c0.1,0.1,0.2,0.5,0.3,1c0.1,0.2,0.1,0.5,0.1,0.8h-0.5c-0.4-0.5-0.8-0.9-1.2-1.1s-0.8-0.3-1.3-0.3
		c-0.6,0-1.1,0.2-1.5,0.7c-0.5,0.6-0.8,1.5-0.8,2.7c0,0.7,0,1.1,0.1,1.4c0.1,0.5,0.3,0.8,0.5,1.1c0.2,0.2,0.4,0.4,0.6,0.5
		c0.3,0.2,0.7,0.3,1.1,0.3c0.4,0,0.8-0.1,1.2-0.4c0.4-0.3,0.8-0.7,1.2-1.2c0.1,0,0.3,0,0.6,0c0,0.1,0,0.3-0.1,0.5
		c0,0.1-0.1,0.3-0.1,0.7L62.5,24l-0.1,0.3c-0.2,0.2-0.6,0.3-1,0.4s-1,0.1-1.6,0.1c-0.5,0-0.9,0-1.4-0.1s-0.8-0.2-1.1-0.4
		c-0.4-0.3-0.8-0.6-1-0.9s-0.4-0.7-0.6-1.1s-0.2-0.8-0.2-1.3c0-1.2,0.4-2.1,1.2-2.9s1.7-1.1,2.9-1.1c0.5,0,0.9,0,1.4,0.1
		S61.9,17.1,62.2,17.2z"/>
	<path class="st0" d="M63.7,24.3c0.1-0.1,0.3-0.1,0.5-0.1c0.2,0,0.4-0.1,0.5-0.1c0-0.1,0-0.1,0-0.2c0-0.1,0-0.2,0-0.6l0-1.3l0-0.7
		l0-0.5l0-0.3c0-0.4,0-0.8,0-1.2c0-0.8,0-1.3,0-1.6l-0.3-0.1c-0.3,0-0.5,0-0.6-0.1l0-0.4l0-0.1c0.2,0,0.4,0,0.5,0c0.1,0,0.3,0,0.5,0
		c0.3,0,0.4,0,0.5,0l0.3,0l0.7,0c0.5,0,0.9-0.1,1.4-0.1c0.8,0,1.4,0.2,1.9,0.6s0.7,0.9,0.7,1.4c0,0.4-0.1,0.8-0.4,1.1
		s-0.6,0.6-1.2,0.7c0,0.1,0.1,0.2,0.2,0.3c0.2,0.2,0.3,0.4,0.4,0.6l0.9,1.5c0.2,0.4,0.4,0.6,0.5,0.7s0.2,0.1,0.4,0.2
		c0.2,0.1,0.3,0.1,0.4,0.2c0,0.1,0,0.1,0,0.2c0,0,0,0.1,0,0.1h-0.2l-0.1,0l-0.3,0h-0.2c-0.1,0-0.3,0-0.5,0l-0.6,0c0,0-0.2,0-0.4,0
		c-0.1,0-0.2,0-0.3,0L69,24.3c-0.2-0.3-0.3-0.5-0.3-0.7c-0.2-0.4-0.5-1-0.9-1.8c-0.2-0.4-0.3-0.6-0.4-0.7c-0.1-0.1-0.3-0.1-0.6-0.1
		c-0.1,0-0.2,0-0.4,0c0,0.1,0,0.2,0,0.4l0,1.3l0,1.1c0.1,0.1,0.3,0.1,0.4,0.2c0.3,0.1,0.6,0.1,0.8,0.2c0,0.2,0,0.3,0,0.4
		c-0.1,0-0.1,0-0.1,0l-0.2,0c-0.8-0.1-1.3-0.1-1.5-0.1c-0.1,0-0.2,0-0.2,0l-0.8,0.1c-0.2,0-0.5,0-0.7,0h-0.3c0-0.1,0-0.2,0-0.2
		C63.6,24.5,63.6,24.4,63.7,24.3z M66.3,20.6c0.2,0,0.3,0,0.4,0c0.7,0,1.1-0.1,1.4-0.4s0.4-0.6,0.4-1c0-0.2,0-0.5-0.1-0.7
		s-0.2-0.4-0.3-0.5c-0.1-0.2-0.3-0.3-0.6-0.3c-0.2-0.1-0.4-0.1-0.8-0.1c-0.2,0-0.3,0-0.5,0l0,0.1l0,0.8l0,0.5l0,0.6
		c0,0.2,0,0.4,0,0.7V20.6z"/>
	<path class="st0" d="M72,24.7v-0.4c0.1,0,0.2-0.1,0.4-0.1c0.3-0.1,0.4-0.1,0.6-0.2c0.1-0.1,0.1-0.3,0.1-0.5l0-0.7l0-1.3l0-0.3
		c0-0.8,0-1.2,0-1.2l0-0.8l0-0.3l0-0.7l0-0.3c0,0,0-0.1,0-0.2c-0.2-0.1-0.4-0.1-0.8-0.1c-0.1,0-0.2,0-0.2,0l0-0.5l1.7,0.1
		c0.2,0,0.3,0,0.4,0c0.2,0,0.6,0,1.1,0c0.3,0,0.5,0,0.5,0c0,0.1,0,0.1,0,0.2c0,0.1,0,0.2,0,0.3c-0.2,0.1-0.3,0.1-0.5,0.2
		c-0.2,0-0.4,0.1-0.5,0.1c0,0.1,0,0.2,0,0.4c0,0.2,0,0.3,0,0.4c0,0.7,0,1.2,0,1.5l0,1.5l0,0.8l0,1.2l0,0.2c0,0,0,0.1,0,0.1
		c0.2,0.1,0.5,0.1,0.6,0.1c0,0,0.2,0,0.4,0c0,0.1,0,0.2,0,0.3c0,0,0,0.1,0,0.2c-0.1,0-0.1,0-0.1,0c-0.1,0-0.2,0-0.2,0
		c0,0-0.1,0-0.2,0c-0.1,0-0.3,0-0.8-0.1l-1,0c-0.2,0-0.5,0-0.9,0.1C72.3,24.7,72.1,24.7,72,24.7z"/>
	<path class="st0" d="M76.7,24.8l0-0.5c0.1,0,0.2,0,0.3-0.1c0.3,0,0.5-0.1,0.6-0.2c0.1-0.1,0.1-0.2,0.1-0.3c0-0.2,0-0.5,0-1l0-2.5
		c0-0.3,0-0.9,0-2c0-0.3,0-0.5-0.1-0.5c0,0,0,0-0.1-0.1c-0.1,0-0.2-0.1-0.4-0.1c-0.1,0-0.3,0-0.6-0.1l0-0.4l1.3,0l1.9-0.1l0.2,0
		c0,0,0.1,0,0.1,0c0,0,0.1,0,0.3,0H81c0.3,0,0.6,0,1,0.1c0.1,0,0.3,0.1,0.5,0.2s0.4,0.2,0.5,0.4s0.3,0.3,0.3,0.5s0.1,0.4,0.1,0.6
		c0,0.2-0.1,0.5-0.2,0.6s-0.3,0.4-0.5,0.5c-0.1,0.1-0.4,0.2-0.8,0.4c0.6,0.1,1,0.4,1.3,0.7s0.5,0.7,0.5,1.2c0,0.3,0,0.5-0.1,0.8
		c-0.1,0.2-0.2,0.4-0.4,0.6c-0.2,0.2-0.5,0.4-0.7,0.5s-0.6,0.2-1,0.3c-0.2,0-0.6,0.1-1,0.1l-1,0c-0.4,0-0.9,0-1.5,0.1
		C77.9,24.7,77.5,24.7,76.7,24.8z M79.4,20.3c0.2,0,0.3,0,0.6,0c0.6,0,1-0.1,1.3-0.3s0.5-0.6,0.5-1.1c0-0.4-0.1-0.7-0.4-0.9
		s-0.7-0.4-1.3-0.4c-0.2,0-0.4,0-0.7,0.1c0,0.1,0,0.2,0,0.4c0,0.3,0,0.8,0,1.4l0,0.5C79.4,20,79.4,20.1,79.4,20.3z M79.5,24
		c0.3,0.1,0.5,0.2,0.7,0.2c0.4,0,0.8-0.1,1.1-0.2s0.5-0.3,0.6-0.6s0.2-0.5,0.2-0.9c0-0.4-0.1-0.7-0.2-0.9c-0.2-0.3-0.4-0.5-0.7-0.6
		s-0.7-0.2-1.2-0.2c-0.2,0-0.4,0-0.5,0.1v0.7l0,0.9l0,1.3C79.5,23.9,79.5,24,79.5,24z"/>
	<path class="st0" d="M84.7,17.1c0.2,0,0.4,0,0.6,0.1c0.3,0,0.7,0.1,1.1,0.1c0.1,0,0.5,0,1.1,0c0.9,0,1.7-0.1,2.4-0.1l1.1,0
		c0.2,0,0.6,0,1.1,0.1c0.1,0.1,0.1,0.2,0.1,0.3v1.2l0,0.2c0,0,0,0.1,0,0.1l-0.2,0c0,0-0.1,0-0.2,0c0-0.1-0.1-0.2-0.1-0.3l-0.2-0.4
		c-0.1-0.2-0.2-0.4-0.4-0.5c-0.1,0-0.2,0-0.4,0c0,0-0.2,0-0.4,0c-0.4,0-0.8,0-1.2,0c-0.5,0-0.9,0-1.3,0c0,0.1,0,0.5,0,1.2l0,1v0.7
		c0.1,0,0.2,0,0.3,0c0.7,0,1.2,0,1.5,0s0.5-0.1,0.6-0.1s0.1-0.1,0.2-0.3c0-0.1,0.1-0.4,0.2-0.9l0.1,0l0.3,0c0,0.3,0,0.6,0,0.8
		c0,0.4,0,0.7,0,0.8s0,0.2,0,0.3c0,0.1,0,0.3,0,0.5s0,0.4,0,0.5v0.1h-0.4c0-0.1,0-0.2-0.1-0.4c-0.1-0.4-0.1-0.6-0.2-0.7
		c0-0.1-0.1-0.1-0.2-0.2c-0.1,0-0.4,0-0.9,0c-0.6,0-1,0-1.3,0c0,0.1,0,0.2,0,0.2c0,0.5,0,0.9,0,1.2l0,1.3c0,0.1,0.1,0.2,0.2,0.3
		c0.2,0.1,0.7,0.1,1.5,0.1c0.5,0,1,0,1.4-0.1c0.3-0.1,0.5-0.2,0.7-0.4c0.3-0.3,0.5-0.6,0.7-1.1c0.1,0,0.2,0,0.3,0c0,0,0.1,0,0.2,0
		c0,0.1,0,0.2,0,0.2l0,0.2l-0.2,1.1l-0.1,0.7c-0.3,0-0.5,0-0.6,0c-0.2,0-0.8,0-1.8-0.1c-0.7,0-1.5,0-2.4,0c-0.5,0-1,0-1.7,0.1h-0.2
		l-0.7,0v-0.4c0.1,0,0.2,0,0.4-0.1c0.4,0,0.7-0.1,0.8-0.2c0-0.1,0.1-0.3,0.1-0.4c0-0.1,0-0.2,0-0.3l0-0.2l0-2.2l0-0.7l0-0.9l0-0.7
		l-0.1-0.7c0,0,0-0.1,0-0.1c0,0-0.1-0.1-0.2-0.1c0,0-0.1,0-0.2,0c-0.2,0-0.4-0.1-0.6-0.1c-0.1,0-0.2,0-0.3,0L84.7,17.1z"/>
</g>
</svg>
