<?xml version="1.0" encoding="utf-8"?>
<!-- Generator: Adobe Illustrator 21.0.0, SVG Export Plug-In . SVG Version: 6.00 Build 0)  -->
<svg version="1.1" id="Layer_1" xmlns="http://www.w3.org/2000/svg" xmlns:xlink="http://www.w3.org/1999/xlink" x="0px" y="0px"
	 viewBox="0 0 204 79.5" style="enable-background:new 0 0 204 79.5;" xml:space="preserve">
<style type="text/css">
	.st0{fill:#F9F1DD;}
</style>
<g>
	<path class="st0" d="M112.2,33.7c-0.3-0.3-0.7-0.5-1.2-0.7c-0.3-0.2-1-0.2-1.7-0.2c-0.3,0-0.7,0-1,0V33v1.7v1V37c0,0.3,0,0.8,0,1.5
		v0.3h0v0.1c0.3,0,0.7,0,0.8,0c1.4,0,2.4-0.2,3-0.7c0.6-0.5,0.8-1.2,0.8-2c0-0.5,0-1-0.2-1.5S112.4,33.9,112.2,33.7z"/>
	<path class="st0" d="M140.1,37.7c0.7-0.5,1-1.2,1-2.4c0-0.8-0.3-1.5-0.8-2s-1.5-0.8-2.7-0.8c-0.3,0-0.8,0-1.4,0.2
		c0,0.2,0,0.5,0,0.8c0,0.7,0,1.7,0,2.9v1c-0.2,0.3-0.2,0.7-0.2,1c0.3,0,0.7,0,1.2,0C138.4,38.4,139.4,38.2,140.1,37.7z"/>
	<path class="st0" d="M139.8,39.6c-0.5-0.2-1.5-0.3-2.7-0.3c-0.5,0-0.8,0-1,0.2V41v2v2.9c-0.1-0.1-0.1,0.1,0.1,0.3
		c0.5,0.2,1,0.3,1.5,0.3c1,0,1.7-0.2,2.4-0.5c0.7-0.3,1-0.7,1.4-1.2c0.3-0.5,0.3-1.2,0.3-1.9c0-0.8-0.2-1.4-0.5-1.9
		C141,40.3,140.5,39.8,139.8,39.6z"/>
	<path class="st0" d="M0,0v79.5h204V0H0z M51.3,45.3c-0.2,0.3-0.3,0.8-0.7,1.2c-0.2,0.2-0.7,0.5-1.2,0.8s-1,0.5-1.7,0.7
		c-0.5,0-1.3,0-2.2,0c-0.5,0-1.2,0-2-0.2L42,47.3c-0.3-0.2-0.7-0.2-0.8-0.3c0,0,0-0.2-0.2-0.2v-0.2c0-0.2,0-0.7,0-1.7
		c0-0.5,0-0.8,0-1.2v-0.5h1.2c0.3,0.8,0.7,1.5,0.8,1.7c0.3,0.3,0.5,0.8,0.8,1c0.3,0.3,0.7,0.5,1.2,0.7c0.5,0.2,0.8,0.2,1.4,0.2
		c0.5,0,1-0.2,1.5-0.3c0.5-0.2,1-0.5,1.4-1c0.3-0.5,0.5-0.8,0.5-1.4c0-0.7-0.3-1.2-0.8-1.7c-0.3-0.3-1.4-0.7-2.9-1.4
		c-1.5-0.5-2.5-1-3.2-1.5c-0.7-0.5-1-1-1.4-1.7c-0.3-0.7-0.5-1.4-0.5-2c0-1.4,0.5-2.4,1.4-3.4c1-0.8,2.4-1.4,4.2-1.4
		c0.3,0,1,0,1.7,0.2c0.1,0.3,0.8,0.4,1.6,0.8c0,0.3,0.2,0.7,0.2,1.4c0.2,0.8,0.2,1.5,0.2,2c0,0.2,0,0.3,0,0.5h-0.2h-0.8h-0.2
		c-0.3-1-0.7-1.9-1-2.2c-0.7-0.7-1.4-1-2.2-1c-0.8,0-1.5,0.2-1.9,0.7c-0.5,0.5-0.7,1-0.7,1.5s0.2,1,0.7,1.5s1.5,1,2.9,1.4
		c0.5,0.2,1.2,0.3,1.9,0.7s1.2,0.7,1.7,1c0.5,0.5,0.8,1,1,1.5s0.3,1,0.3,1.9C51.8,43.8,51.6,44.4,51.3,45.3z M70.5,32.5
		c0,0.2,0,0.2,0,0.3c-0.3,0-0.7,0.2-1,0.2c-0.5,0-0.8,0.2-0.8,0.2c-0.2,0.2-0.2,0.2-0.2,0.5c0,0.2,0,0.3,0,0.7c0,0.2,0,0.5,0,1
		c0,0.3,0,0.5,0,0.7c0,0.2,0,0.3,0,0.5c0,0.7,0,1.2,0,1.9l0.2,2.5c0,1.7,0,2.9-0.2,3.4s-0.3,1-0.5,1.4c-0.3,0.5-0.7,1-1.4,1.4
		c-0.7,0.4-1.2,0.7-2,1c-0.8,0.2-1.9,0.3-2.9,0.3c-1.4,0-2.4-0.2-3.2-0.5s-1.7-0.8-2-1.4c-0.5-0.5-0.8-1.4-1-2.2
		c-0.2-0.7-0.2-1.5-0.2-2.7v-5.9c0-1.4,0-2.2-0.2-2.4C55,33,54.5,33,53.4,32.8c-0.3-0.1-0.5-0.1-0.6-0.1v-1c0.2,0,0.3,0,0.5,0
		c0.3,0,0.8,0,1.4,0c1,0,1.7,0.2,1.9,0.2c0.7,0,1.4,0,1.9,0c0.7,0,1.2,0,1.7,0s0.8,0,1,0V32v0.7v0.2c-0.5,0-1,0.2-1.4,0.2
		c-0.5,0-0.8,0.2-0.8,0.3c-0.2,0.2-0.2,0.7-0.2,1.5c0,0.3,0,0.5,0,0.7V36v1.2v1v2.2l0.2,3c0,0.8,0.2,1.7,0.7,2.2
		c0.3,0.5,0.7,0.8,1.2,1c0.7,0.3,1.4,0.5,2,0.5c0.8,0,1.5-0.2,2.2-0.3c0.3-0.2,0.8-0.3,1.2-0.5c0.3-0.3,0.7-0.5,0.7-0.7
		c0.3-0.5,0.5-0.8,0.7-1.4c0.2-0.6,0.2-1.4,0.2-2.5c0-2-0.2-4.2-0.3-6.8v-0.7c0-0.5-0.2-0.8-0.3-1C66.6,33,66.5,33,66.1,33h-1.2
		h-0.2v-1h1l2.4,0.2c0.8,0,1.5,0,2.2-0.2h0.2C70.5,32.3,70.5,32.5,70.5,32.5z M83.4,45.3c-0.2,0.3-0.3,0.8-0.7,1.2
		c-0.2,0.2-0.7,0.5-1.2,0.8s-1,0.5-1.7,0.7c-0.5,0-1.4,0-2.2,0c-0.5,0-1.2,0-2-0.2l-1.5-0.5c-0.3-0.2-0.7-0.2-0.8-0.3
		c0,0,0-0.2-0.2-0.2v-0.2c0-0.2,0-0.7,0-1.7c0-0.5,0-0.8,0-1.2v-0.5h1.2c0.3,0.8,0.7,1.5,0.8,1.7c0.3,0.3,0.5,0.8,0.8,1
		c0.3,0.3,0.7,0.5,1.2,0.7c0.5,0.2,0.8,0.2,1.4,0.2c0.5,0,1-0.2,1.5-0.3c0.5-0.2,1-0.5,1.4-1c0.4-0.5,0.5-0.8,0.5-1.4
		c0-0.7-0.3-1.2-0.8-1.7c-0.3-0.3-1.4-0.7-2.9-1.4c-1.5-0.5-2.5-1-3.2-1.5s-1-1-1.4-1.7c-0.3-0.7-0.5-1.4-0.5-2
		c0-1.4,0.5-2.4,1.4-3.4c1-0.8,2.4-1.4,4.2-1.4c0.3,0,1,0,1.7,0.2c0.2,0.3,0.9,0.4,1.6,0.8c0,0.3,0.2,0.7,0.2,1.4
		c0.2,0.8,0.2,1.5,0.2,2c0,0.2,0,0.3,0,0.5h-0.2h-0.8h-0.2c-0.3-1-0.7-1.9-1-2.2c-0.7-0.7-1.4-1-2.2-1s-1.5,0.2-1.9,0.7
		c-0.5,0.5-0.7,1-0.7,1.5s0.2,1,0.7,1.5s1.5,1,2.9,1.4c0.5,0.2,1.2,0.3,1.9,0.7s1.2,0.7,1.7,1c0.5,0.5,0.8,1,1,1.5
		c0.2,0.5,0.3,1,0.3,1.9C83.9,43.8,83.7,44.4,83.4,45.3z M101.1,44.2c0,0.2-0.2,0.7-0.3,1.5l-0.2,0.3l-0.2,0.5
		c-0.5,0.3-1.2,0.7-2.2,0.8c-0.8,0.2-2,0.3-3.4,0.3c-1,0-2-0.2-2.9-0.3c-0.8-0.2-1.7-0.5-2.4-0.8c-1-0.7-1.7-1.2-2.2-1.9
		c-0.5-0.7-1-1.5-1.2-2.2c-0.3-0.8-0.3-1.7-0.3-2.7c0-2.5,0.8-4.6,2.4-6.1c1.7-1.5,3.7-2.4,6.2-2.4c1,0,2,0,2.9,0.2
		c0.7,0.1,1.6,0.2,2.4,0.4c0.2,0.2,0.3,1,0.7,2.2c0.2,0.5,0.2,1,0.2,1.7h-1.2c-0.8-1.2-1.7-1.9-2.5-2.4c-0.7-0.5-1.7-0.8-2.7-0.8
		c-1.4,0-2.4,0.5-3,1.5c-1,1.4-1.5,3.2-1.5,5.6c0,1.4,0.2,2.4,0.3,3c0.3,1,0.7,1.7,1.2,2.4c0.3,0.5,0.8,0.8,1.4,1.2
		c0.7,0.3,1.5,0.5,2.4,0.5s1.9-0.3,2.7-0.8s1.7-1.4,2.4-2.5c0.3,0,0.7-0.2,1.2-0.2C101.3,43.5,101.1,43.9,101.1,44.2z M119.7,47
		c0,0,0,0.2,0,0.3h-0.3h-0.2l-0.7-0.2H118c-0.3,0-0.5,0-1,0h-1.2c-0.2,0-0.3,0-0.8,0.2c-0.2,0-0.3,0-0.5,0l-0.3-0.8
		c-0.3-0.7-0.5-1-0.7-1.4c-0.3-0.8-1-2-1.9-3.9c-0.3-0.8-0.7-1.2-0.8-1.4c-0.1-0.2-0.7-0.3-1.4-0.3c-0.2,0-0.5,0-0.8,0
		c0,0.2,0,0.5,0,0.8V43v2.4c0.2,0.2,0.5,0.2,0.8,0.3c0.7,0.2,1.2,0.3,1.7,0.5c0,0.3,0,0.7,0,0.8c-0.2,0-0.3,0-0.3,0h-0.5
		c-1.7-0.2-2.9-0.2-3.2-0.2c-0.2,0-0.3,0-0.5,0l-1.7,0.2c-0.5,0-1,0.2-1.4,0.2H103c0-0.2,0-0.3,0-0.3c-0.4,0.3-0.4,0.1-0.2-0.1
		s0.5-0.2,1-0.3c0.3,0,0.8-0.2,1.2-0.3c0-0.2,0-0.3,0-0.3c0-0.2,0-0.5,0-1.2V42v-1.5v-1.2v-0.7c0-0.8,0-1.7,0-2.5c0-1.7,0-2.9,0-3.2
		l-0.7-0.2c-0.7,0-1.2,0-1.4-0.2v-0.7v-0.2c0.3,0,0.8-0.2,1.2-0.2c0.2,0,0.5,0,1.2,0s0.8,0,1,0h0.7h1.5c1-0.2,2-0.2,3-0.2
		c1.7,0,3,0.5,4.1,1.4c1,0.8,1.5,1.9,1.5,3c0,0.8-0.3,1.5-0.8,2.2s-1.4,1.2-2.5,1.5c0.2,0.2,0.2,0.3,0.3,0.7
		c0.3,0.5,0.7,0.8,0.8,1.2l2,3.2c0.5,0.8,0.8,1.4,1,1.5c0.2,0.2,0.5,0.3,1,0.5c0.3,0.2,0.7,0.3,0.8,0.3
		C119.7,46.9,119.7,47,119.7,47z M128.2,32.2c0,0.2,0,0.3,0,0.5c-0.3,0.2-0.7,0.2-1.2,0.3c-0.5,0.2-0.8,0.2-1,0.3c0,0.2,0,0.5,0,0.8
		c0,0.3,0,0.7,0,0.8c0,1.4,0,2.5,0,3.2v3.2V43v2.5V46c0,0,0,0.2,0,0.3c0.5,0.2,1,0.2,1.4,0.2c0,0,0.3,0,0.7,0.2c0,0.2,0,0.5,0,0.7
		c0,0.2,0,0.2,0,0.3c-0.2,0-0.2,0-0.2,0c-0.3,0-0.3,0-0.5,0c0,0-0.2,0-0.3,0c-0.1,0-0.7,0-1.7-0.2h-2.2c-0.5,0-1,0-1.9,0.2
		c-0.5,0-0.8,0-1,0v-0.8c0.2,0,0.5-0.2,0.8-0.2c0.5-0.2,1-0.3,1.2-0.3c0.2-0.3,0.2-0.7,0.2-1v-1.5V41v-0.7c0-1.7,0.2-2.5,0.2-2.5V36
		v-0.7V34v-0.5c0,0,0-0.2-0.2-0.3c-0.3-0.2-0.8-0.3-1.7-0.3c-0.2,0-0.3,0-0.5,0v-1l3.5,0.2c0.5,0,0.7,0,0.8,0c0.5,0,1.2,0,2.4-0.2
		c0.7,0,1,0,1.2,0C128.2,32.1,128.2,32.2,128.2,32.2z M145.1,44.4c-0.2,0.5-0.3,0.8-0.7,1.2c-0.5,0.5-1,0.8-1.5,1.2
		c-0.5,0.3-1.2,0.5-2.2,0.7c-0.5,0-1.2,0.2-2,0.2h-2c-0.8,0-2,0-3.2,0.2c-0.7-0.2-1.7-0.2-3.2-0.2v-1c0.2,0,0.5-0.2,0.7-0.2
		c0.5,0,1-0.2,1.4-0.3c0.2-0.2,0.2-0.3,0.2-0.5c0-0.5,0.2-1.2,0.2-2v-5.2c0-0.5,0-2-0.2-4.2c0-0.7,0-1-0.2-1.2c0,0,0-0.2-0.2-0.2
		c-0.2-0.2-0.3-0.2-0.7-0.2c-0.2,0-0.5,0-1.2-0.2v-0.8h2.7l4.1-0.2h0.5c0.2,0,0.2,0,0.3,0c0,0,0.3,0,0.7,0h0.8c0.7,0,1.4,0.2,2,0.3
		c0.3,0,0.7,0.2,1,0.3c0.3,0.2,0.8,0.5,1,0.8c0.3,0.3,0.5,0.7,0.7,1c0.2,0.3,0.2,0.8,0.2,1.4c0,0.6-0.2,1-0.3,1.4
		c-0.2,0.3-0.5,0.8-1,1.2c-0.2,0.2-0.8,0.5-1.5,0.8c1.2,0.3,2.2,0.8,2.9,1.5c0.7,0.7,1,1.5,1,2.5C145.4,43.2,145.2,43.9,145.1,44.4z
		 M163.3,43.5V44l-0.5,2.4l0.2,1.4c-0.5,0-1,0-1.4,0c-0.5,0-1.7,0-3.7-0.2c-1.4,0-3-0.2-5.1-0.2c-1,0-2.2,0-3.7,0.2h-0.5h-1.5v-0.8
		c0.2,0,0.5-0.2,1-0.2c0.8-0.2,1.5-0.2,1.9-0.3c0.2-0.2,0.2-0.5,0.2-0.8c0-0.2,0-0.3,0-0.7v-0.3v-4.7v-1.4v-2V35l-0.2-1.5v-0.2
		c0-0.2-0.2-0.2-0.3-0.2c-0.2,0-0.2,0-0.3,0c-0.5-0.2-0.8-0.2-1.4-0.2c-0.2,0-0.3,0-0.5,0l-0.5-1.3c0.5,0,0.8,0,1.2,0.2
		c0.7,0.2,1.4,0.2,2.2,0.2c0.3,0,1,0,2.4,0c1.9,0,3.5-0.2,5.1-0.2h2.2c0.5,0,1.2,0,2.2,0.2c0.2,0.2,0.2,0.3,0.2,0.7v2.5v0.5v0.2H162
		c0,0-0.2,0-0.3,0c0-0.2-0.2-0.3-0.3-0.7l-0.5-0.8c-0.2-0.3-0.5-0.7-0.8-1.2c-0.2,0-0.5-0.2-0.8-0.2c0,0-0.3,0-0.7,0
		c-0.8,0-1.5-0.2-2.5-0.2s-1.9,0-2.7,0c0,0.2,0,1,0,2.4v2v1.5c0.2,0,0.3,0,0.5,0c1.5,0,2.5,0,3.2-0.2s1-0.2,1.2-0.2s0.3-0.3,0.3-0.5
		s0.2-0.8,0.5-1.9h0.2h0.7c0,0.7,0,1.4,0,1.7c0,0.8,0,1.4,0,1.7c0,0.2,0,0.5,0,0.5c0,0.2,0,0.5,0,1s0,0.8,0,1v0.7h-0.8
		c0-0.2-0.2-0.3-0.2-0.8c-0.2-0.8-0.3-1.2-0.5-1.4c-0.2-0.2-0.3-0.3-0.5-0.3c-0.2,0-0.8-0.2-1.9-0.2c-1.2,0-2.2,0-2.9,0.2
		c0,0.2,0,0.3,0,0.3c0,1,0,1.9,0,2.5v2.7c0,0.3,0.2,0.5,0.3,0.7c0.3,0.2,1.4,0.3,3,0.3c1.2,0,2.2-0.2,2.9-0.3c0.5-0.2,1-0.3,1.5-0.8
		s1-1.4,1.4-2.4c0.3,0,0.5,0,0.7,0c0.2,0,0.2,0,0.3,0C163.3,43.2,163.3,43.3,163.3,43.5z"/>
</g>
</svg>
