<?xml version="1.0" encoding="utf-8"?>
<!-- Generator: Adobe Illustrator 21.0.0, SVG Export Plug-In . SVG Version: 6.00 Build 0)  -->
<svg version="1.1" id="Layer_1" xmlns="http://www.w3.org/2000/svg" xmlns:xlink="http://www.w3.org/1999/xlink" x="0px" y="0px"
	 viewBox="0 0 204 79.5" style="enable-background:new 0 0 204 79.5;" xml:space="preserve">
<style type="text/css">
	.st0{fill:#F9F1DD;}
</style>
<g>
	<path class="st0" d="M44.5,33.3c0.1,0.3,0.1,0.7,0.2,1.2c0.1,0.8,0.1,1.4,0.1,1.9c0,0.1,0,0.3,0,0.5l-0.1,0l-0.8-0.1l-0.1,0
		c-0.3-1-0.7-1.7-1-2.1c-0.6-0.6-1.3-0.9-2.1-0.9c-0.8,0-1.4,0.2-1.8,0.6c-0.4,0.4-0.7,0.9-0.7,1.5c0,0.5,0.2,1,0.7,1.4
		c0.4,0.5,1.4,0.9,2.8,1.3c0.5,0.1,1,0.4,1.7,0.7c0.7,0.3,1.2,0.6,1.5,1c0.5,0.5,0.8,0.9,1,1.4s0.3,1,0.3,1.7c0,0.7-0.1,1.5-0.4,2.2
		c-0.1,0.4-0.4,0.7-0.7,1.1c-0.2,0.2-0.6,0.5-1.1,0.8c-0.5,0.3-1,0.5-1.5,0.7c-0.5,0.1-1.2,0.2-2,0.2c-0.5,0-1.2-0.1-1.9-0.2
		L37,47.6c-0.4-0.1-0.6-0.2-0.7-0.3c0,0-0.1-0.1-0.1-0.2V47c0-0.1,0-0.6-0.1-1.6c0-0.5,0-0.9,0-1.1v-0.4l1.1,0
		c0.4,0.9,0.6,1.4,0.7,1.6c0.2,0.4,0.5,0.7,0.8,1s0.6,0.4,1,0.6c0.4,0.1,0.8,0.2,1.3,0.2c0.4,0,0.9-0.1,1.4-0.3
		c0.5-0.2,0.9-0.5,1.2-0.9s0.5-0.8,0.5-1.3c0-0.6-0.3-1.1-0.8-1.6c-0.3-0.3-1.2-0.7-2.6-1.2c-1.4-0.5-2.4-1-3-1.4
		c-0.6-0.4-1-0.9-1.3-1.6s-0.5-1.3-0.5-1.9c0-1.2,0.4-2.3,1.3-3.2c0.9-0.9,2.2-1.3,3.9-1.3c0.4,0,0.9,0.1,1.7,0.2
		C43.2,32.9,43.8,33,44.5,33.3z"/>
	<path class="st0" d="M47.3,33.9l0-0.9c0.1,0,0.3,0,0.4,0c0.4,0,0.8,0,1.2,0c1,0.1,1.6,0.1,1.8,0.1c0.6,0,1.2,0,1.8,0s1.1,0,1.6,0
		s0.8,0,0.9,0l0,0.1l0,0.7v0.1C54.7,34,54.2,34,53.8,34c-0.4,0-0.7,0.1-0.9,0.3c-0.1,0.1-0.1,0.6-0.1,1.4c0,0.2,0,0.5,0,0.6l0,0.4
		l0,1.1l0.1,0.9l0,2l0.2,2.9c0,0.8,0.2,1.6,0.6,2.1c0.2,0.4,0.6,0.7,1,1c0.7,0.3,1.3,0.5,1.9,0.5c0.7,0,1.4-0.1,2.1-0.3
		c0.4-0.1,0.7-0.3,1.1-0.5s0.6-0.5,0.7-0.7c0.3-0.4,0.5-0.8,0.6-1.2c0.1-0.5,0.2-1.3,0.2-2.4c0-1.9-0.1-4-0.3-6.4l0-0.6
		c0-0.5-0.1-0.8-0.3-0.9c-0.2-0.2-0.5-0.4-0.8-0.4l-1.1,0l-0.2,0l0-0.9h0.9l2.2,0.1c0.7,0,1.5,0,2.1-0.1l0.2,0
		c0,0.3,0.1,0.4,0.1,0.5c0,0.1,0,0.2,0,0.3c-0.3,0.1-0.6,0.1-0.9,0.1c-0.5,0.1-0.8,0.1-0.9,0.2c-0.1,0.1-0.2,0.2-0.2,0.4
		c0,0.1,0,0.3,0,0.6c0,0.2,0,0.5,0,1c0,0.3,0,0.5,0,0.6c0,0.2,0,0.3,0,0.5c0,0.6,0,1.1,0.1,1.7l0.1,2.4c0,1.6-0.1,2.7-0.2,3.2
		s-0.3,1-0.4,1.3c-0.3,0.5-0.7,0.9-1.2,1.3c-0.5,0.4-1.2,0.7-2,0.9s-1.7,0.3-2.8,0.3c-1.2,0-2.2-0.2-3.1-0.5c-0.9-0.3-1.5-0.7-2-1.3
		c-0.4-0.5-0.7-1.2-0.9-2c-0.1-0.6-0.2-1.4-0.2-2.5v-5.6c0-1.3-0.1-2.1-0.2-2.2c-0.2-0.2-0.7-0.4-1.6-0.4
		C47.6,33.9,47.4,33.9,47.3,33.9z"/>
	<path class="st0" d="M65.9,48.1l0-0.9c0.2,0,0.4-0.1,0.7-0.1c0.5-0.1,0.9-0.2,1.2-0.3c0.1-0.2,0.2-0.3,0.2-0.5
		c0.1-0.4,0.1-1.1,0.1-1.9l0-5c0-0.5,0-1.9-0.1-4c0-0.6-0.1-0.9-0.1-1.1c0,0-0.1-0.1-0.1-0.1c-0.1-0.1-0.4-0.1-0.7-0.2
		c-0.1,0-0.5-0.1-1.1-0.1l0-0.8l2.6-0.1l3.8-0.1l0.5,0c0.1,0,0.2,0,0.3,0c0.1,0,0.3,0,0.6,0h0.7c0.6,0,1.2,0.1,1.9,0.3
		c0.2,0.1,0.6,0.2,1,0.4s0.7,0.5,1,0.8c0.3,0.3,0.5,0.7,0.6,1c0.1,0.4,0.2,0.8,0.2,1.2c0,0.5-0.1,0.9-0.3,1.3s-0.5,0.7-1,1
		c-0.2,0.2-0.7,0.4-1.5,0.8c1.2,0.3,2.1,0.7,2.7,1.5c0.6,0.7,0.9,1.5,0.9,2.4c0,0.5-0.1,1-0.3,1.6c-0.1,0.4-0.4,0.8-0.7,1.2
		c-0.4,0.5-0.9,0.8-1.4,1.1s-1.2,0.4-2,0.6c-0.4,0.1-1.1,0.1-2,0.1l-2,0c-0.8,0-1.8,0-3,0.1C68.3,48,67.4,48.1,65.9,48.1z
		 M71.3,39.3c0.3,0,0.7,0.1,1.1,0.1c1.2,0,2-0.2,2.6-0.6s0.9-1.2,0.9-2.2c0-0.7-0.3-1.4-0.9-1.9c-0.6-0.5-1.4-0.7-2.6-0.7
		c-0.3,0-0.8,0-1.3,0.1c0,0.2,0,0.4,0,0.8c0,0.7,0.1,1.6,0.1,2.8l0,1C71.3,38.7,71.3,38.9,71.3,39.3z M71.5,46.7
		c0.5,0.2,1,0.3,1.4,0.3c0.9,0,1.6-0.1,2.2-0.4c0.6-0.3,1-0.6,1.2-1.1c0.3-0.5,0.4-1.1,0.4-1.8c0-0.7-0.1-1.3-0.4-1.8
		c-0.4-0.6-0.9-1-1.4-1.3s-1.4-0.3-2.5-0.3c-0.5,0-0.8,0-1,0.1v1.4l0,1.7l0,2.7C71.3,46.4,71.4,46.5,71.5,46.7z"/>
	<path class="st0" d="M91.1,33.3c0.1,0.3,0.1,0.7,0.2,1.2c0.1,0.8,0.1,1.4,0.1,1.9c0,0.1,0,0.3,0,0.5l-0.1,0l-0.8-0.1l-0.1,0
		c-0.3-1-0.7-1.7-1-2.1c-0.6-0.6-1.3-0.9-2.1-0.9c-0.8,0-1.4,0.2-1.8,0.6c-0.4,0.4-0.7,0.9-0.7,1.5c0,0.5,0.2,1,0.7,1.4
		c0.4,0.5,1.4,0.9,2.8,1.3c0.5,0.1,1,0.4,1.7,0.7c0.7,0.3,1.2,0.6,1.5,1c0.5,0.5,0.8,0.9,1,1.4s0.3,1,0.3,1.7c0,0.7-0.1,1.5-0.4,2.2
		c-0.1,0.4-0.4,0.7-0.7,1.1c-0.2,0.2-0.6,0.5-1.1,0.8c-0.5,0.3-1,0.5-1.5,0.7c-0.5,0.1-1.2,0.2-2,0.2c-0.5,0-1.2-0.1-1.9-0.2
		l-1.4-0.4c-0.4-0.1-0.6-0.2-0.7-0.3c0,0-0.1-0.1-0.1-0.2V47c0-0.1,0-0.6-0.1-1.6c0-0.5,0-0.9,0-1.1v-0.4l1.1,0
		c0.4,0.9,0.6,1.4,0.7,1.6c0.2,0.4,0.5,0.7,0.8,1s0.6,0.4,1,0.6c0.4,0.1,0.8,0.2,1.3,0.2c0.4,0,0.9-0.1,1.4-0.3
		c0.5-0.2,0.9-0.5,1.2-0.9s0.5-0.8,0.5-1.3c0-0.6-0.3-1.1-0.8-1.6c-0.3-0.3-1.2-0.7-2.6-1.2c-1.4-0.5-2.4-1-3-1.4
		c-0.6-0.4-1-0.9-1.3-1.6s-0.5-1.3-0.5-1.9c0-1.2,0.4-2.3,1.3-3.2c0.9-0.9,2.2-1.3,3.9-1.3c0.4,0,0.9,0.1,1.7,0.2
		C89.8,32.9,90.3,33,91.1,33.3z"/>
	<path class="st0" d="M107.7,33.2c0.1,0.2,0.3,0.9,0.6,2c0.1,0.5,0.2,1,0.2,1.6h-1.1c-0.7-1.1-1.5-1.8-2.3-2.3
		c-0.8-0.5-1.7-0.7-2.7-0.7c-1.2,0-2.2,0.5-2.9,1.4c-1,1.3-1.5,3.1-1.5,5.3c0,1.3,0.1,2.3,0.3,2.8c0.3,0.9,0.6,1.7,1.1,2.2
		c0.3,0.4,0.8,0.8,1.3,1c0.7,0.3,1.4,0.5,2.2,0.5c0.9,0,1.7-0.3,2.5-0.8c0.8-0.5,1.6-1.3,2.3-2.4c0.3-0.1,0.7-0.1,1.1-0.1
		c0,0.3-0.1,0.6-0.2,0.9c0,0.1-0.1,0.6-0.3,1.5l-0.1,0.3l-0.2,0.5c-0.5,0.4-1.1,0.6-2,0.8c-0.9,0.2-1.9,0.3-3.2,0.3
		c-1,0-1.9-0.1-2.7-0.3c-0.9-0.2-1.6-0.5-2.2-0.9c-0.9-0.6-1.6-1.2-2.1-1.8c-0.5-0.7-0.9-1.4-1.1-2.1s-0.4-1.6-0.4-2.6
		c0-2.3,0.8-4.2,2.3-5.7c1.5-1.5,3.5-2.3,5.9-2.3c1,0,1.9,0,2.7,0.1C106.2,32.8,107,33,107.7,33.2z"/>
	<path class="st0" d="M110.6,47.3c0.2-0.1,0.5-0.2,0.9-0.2c0.4-0.1,0.8-0.1,1.1-0.3c0-0.2,0.1-0.3,0.1-0.3c0-0.1,0-0.5,0-1.1l0-2.6
		l0-1.4l0-1.1l0-0.6c0-0.8,0-1.6,0-2.4c0-1.6,0-2.7-0.1-3.1L112,34c-0.6,0-1-0.1-1.3-0.1l0-0.7l0-0.1c0.4-0.1,0.7-0.1,1.1-0.1
		c0.2,0,0.5,0,1.1,0c0.6,0,0.9,0.1,0.9,0.1l0.6,0l1.5-0.1c0.9-0.1,1.9-0.1,2.9-0.1c1.6,0,2.9,0.4,3.8,1.2s1.4,1.7,1.4,2.8
		c0,0.8-0.3,1.5-0.8,2.1s-1.3,1.1-2.3,1.5c0.1,0.2,0.2,0.4,0.4,0.6c0.3,0.5,0.6,0.9,0.8,1.2l1.9,3c0.5,0.8,0.8,1.3,0.9,1.4
		c0.1,0.1,0.4,0.3,0.9,0.4c0.3,0.1,0.6,0.3,0.8,0.4c0,0.1,0.1,0.2,0.1,0.3c0,0.1,0,0.2,0,0.3h-0.3l-0.2,0l-0.6-0.1h-0.5
		c-0.2,0-0.6-0.1-0.9-0.1l-1.2,0c-0.1,0-0.4,0-0.8,0.1c-0.2,0-0.4,0-0.5,0.1l-0.4-0.8c-0.3-0.6-0.6-1-0.7-1.3
		c-0.3-0.8-0.9-2-1.8-3.6c-0.4-0.8-0.7-1.2-0.8-1.3c-0.2-0.2-0.6-0.2-1.2-0.2c-0.2,0-0.4,0-0.8,0c0,0.2,0,0.5,0,0.8l0.1,2.6
		l-0.1,2.2c0.2,0.1,0.5,0.2,0.9,0.3c0.6,0.1,1.1,0.3,1.6,0.4c0,0.4,0,0.7,0,0.9c-0.1,0-0.2,0-0.3,0l-0.5,0c-1.7-0.1-2.7-0.2-3-0.2
		c-0.2,0-0.3,0-0.4,0l-1.6,0.1c-0.5,0.1-0.9,0.1-1.3,0.1h-0.5c0-0.2,0-0.3,0-0.4C110.5,47.6,110.6,47.5,110.6,47.3z M115.8,39.8
		c0.4,0,0.6,0,0.8,0c1.3,0,2.3-0.2,2.8-0.7c0.6-0.5,0.8-1.1,0.8-1.9c0-0.5-0.1-1-0.2-1.4c-0.1-0.4-0.3-0.8-0.5-1
		c-0.3-0.3-0.7-0.5-1.1-0.7c-0.3-0.1-0.9-0.2-1.6-0.2c-0.4,0-0.7,0-0.9,0.1l0,0.2l0,1.6l0,1l0,1.3c0,0.4,0,0.8,0,1.4V39.8z"/>
	<path class="st0" d="M127.2,48v-0.8c0.2,0,0.4-0.1,0.8-0.2c0.5-0.1,0.9-0.3,1.1-0.4c0.1-0.2,0.2-0.6,0.2-1l0-1.4l0-2.7l0-0.6
		c0.1-1.5,0.1-2.3,0.1-2.4l0-1.6l0-0.6l-0.1-1.3l0-0.5c0-0.1,0-0.2-0.1-0.4c-0.3-0.1-0.8-0.2-1.6-0.3c-0.2,0-0.3,0-0.4,0l0-1
		l3.3,0.1c0.4,0,0.7,0,0.8,0c0.5,0,1.2,0,2.2-0.1c0.6,0,0.9-0.1,1.1-0.1c0,0.1,0,0.3,0,0.4c0,0.1,0,0.3,0,0.5
		c-0.3,0.1-0.7,0.2-1.1,0.3c-0.4,0.1-0.7,0.2-1,0.3c0,0.2-0.1,0.5-0.1,0.9c0,0.3,0,0.6,0,0.8c0,1.3,0,2.3,0,3l0,3.1l-0.1,1.6l0,2.3
		l0,0.4c0,0.1,0,0.2,0.1,0.3c0.5,0.1,0.9,0.2,1.3,0.2c0.1,0,0.3,0,0.7,0.1c0,0.2,0,0.4,0,0.6c0,0.1,0,0.2,0,0.4c-0.1,0-0.2,0-0.2,0
		c-0.2,0-0.4,0-0.4,0c-0.1,0-0.2,0-0.3,0c-0.1,0-0.6-0.1-1.5-0.2l-2.1,0c-0.4,0-1,0-1.8,0.1C127.7,48,127.4,48,127.2,48z"/>
	<path class="st0" d="M136.6,48.1l0-0.9c0.2,0,0.4-0.1,0.7-0.1c0.5-0.1,0.9-0.2,1.2-0.3c0.1-0.2,0.2-0.3,0.2-0.5
		c0.1-0.4,0.1-1.1,0.1-1.9l0-5c0-0.5,0-1.9-0.1-4c0-0.6-0.1-0.9-0.1-1.1c0,0-0.1-0.1-0.1-0.1c-0.1-0.1-0.4-0.1-0.7-0.2
		c-0.1,0-0.5-0.1-1.1-0.1l0-0.8l2.6-0.1l3.8-0.1l0.5,0c0.1,0,0.2,0,0.3,0c0.1,0,0.3,0,0.6,0h0.7c0.6,0,1.2,0.1,1.9,0.3
		c0.2,0.1,0.6,0.2,1,0.4s0.7,0.5,1,0.8c0.3,0.3,0.5,0.7,0.6,1c0.1,0.4,0.2,0.8,0.2,1.2c0,0.5-0.1,0.9-0.3,1.3s-0.5,0.7-1,1
		c-0.2,0.2-0.7,0.4-1.5,0.8c1.2,0.3,2.1,0.7,2.7,1.5c0.6,0.7,0.9,1.5,0.9,2.4c0,0.5-0.1,1-0.3,1.6c-0.1,0.4-0.4,0.8-0.7,1.2
		c-0.4,0.5-0.9,0.8-1.4,1.1c-0.5,0.2-1.2,0.4-2,0.6c-0.4,0.1-1.1,0.1-2,0.1l-2,0c-0.8,0-1.8,0-3,0.1C139,48,138.1,48.1,136.6,48.1z
		 M142,39.3c0.3,0,0.7,0.1,1.1,0.1c1.2,0,2-0.2,2.6-0.6s0.9-1.2,0.9-2.2c0-0.7-0.3-1.4-0.9-1.9c-0.6-0.5-1.4-0.7-2.6-0.7
		c-0.3,0-0.8,0-1.3,0.1c0,0.2,0,0.4,0,0.8c0,0.7,0.1,1.6,0.1,2.8l0,1C142,38.7,142,38.9,142,39.3z M142.2,46.7
		c0.5,0.2,1,0.3,1.4,0.3c0.9,0,1.6-0.1,2.2-0.4c0.6-0.3,1-0.6,1.2-1.1s0.4-1.1,0.4-1.8c0-0.7-0.1-1.3-0.4-1.8
		c-0.4-0.6-0.9-1-1.4-1.3c-0.6-0.2-1.4-0.3-2.5-0.3c-0.5,0-0.8,0-1,0.1v1.4l0,1.7l0,2.7C142,46.4,142.1,46.5,142.2,46.7z"/>
	<path class="st0" d="M152.4,32.9c0.4,0,0.8,0.1,1.2,0.1c0.6,0.1,1.3,0.1,2.1,0.1c0.3,0,1,0,2.2-0.1c1.7-0.1,3.3-0.1,4.7-0.1l2.1,0
		c0.5,0,1.2,0.1,2.1,0.2c0.1,0.2,0.2,0.4,0.2,0.6v2.4l0,0.5c0,0,0,0.1,0,0.2l-0.5,0c-0.1,0-0.2,0-0.4,0c-0.1-0.2-0.2-0.4-0.3-0.7
		l-0.5-0.8c-0.2-0.4-0.4-0.7-0.7-1.1c-0.2-0.1-0.4-0.1-0.7-0.1c-0.1,0-0.3,0-0.7-0.1c-0.7-0.1-1.5-0.1-2.3-0.1c-0.9,0-1.8,0-2.5,0
		c0,0.2,0,1,0,2.3l0,2v1.5c0.2,0,0.4,0,0.5,0c1.4,0,2.4,0,3-0.1c0.6-0.1,1-0.1,1.1-0.2c0.1-0.1,0.3-0.3,0.4-0.5
		c0.1-0.2,0.2-0.7,0.4-1.7l0.2,0l0.7,0c0,0.7,0,1.2,0,1.6c0,0.8,0,1.3,0,1.6s0,0.4,0,0.5c0,0.2,0,0.5,0,1s0,0.8,0,1v0.3h-0.8
		c0-0.1-0.1-0.4-0.2-0.8c-0.2-0.7-0.3-1.2-0.4-1.4c-0.1-0.1-0.2-0.2-0.5-0.3c-0.2-0.1-0.7-0.1-1.7-0.1c-1.2,0-2.1,0-2.7,0.1
		c0,0.2,0,0.3,0,0.4c0,0.9,0,1.7,0,2.3l0,2.5c0,0.3,0.1,0.5,0.3,0.6c0.3,0.2,1.3,0.2,2.9,0.2c1.1,0,2-0.1,2.8-0.2
		c0.5-0.1,1-0.4,1.4-0.8c0.5-0.5,1-1.3,1.3-2.2c0.2,0,0.4,0,0.6,0c0.1,0,0.2,0,0.4,0c0,0.2,0,0.4-0.1,0.5l-0.1,0.3l-0.4,2.2
		l-0.2,1.3c-0.5,0-0.9,0-1.2,0c-0.4,0-1.6,0-3.5-0.1c-1.3-0.1-2.9-0.1-4.8-0.1c-0.9,0-2.1,0-3.4,0.1h-0.5l-1.4,0v-0.8
		c0.1,0,0.4-0.1,0.9-0.1c0.8-0.1,1.4-0.2,1.7-0.4c0.1-0.2,0.1-0.5,0.1-0.9c0-0.1,0-0.4,0-0.7l0-0.4l0-4.4l0-1.3l-0.1-1.9l0-1.3
		l-0.1-1.4c0,0,0-0.1,0-0.2c-0.1-0.1-0.2-0.1-0.3-0.2c-0.1,0-0.2,0-0.4-0.1c-0.4-0.1-0.9-0.1-1.3-0.2c-0.1,0-0.3,0-0.5,0L152.4,32.9
		z"/>
</g>
</svg>
