<?xml version="1.0" encoding="utf-8"?>
<!-- Generator: Adobe Illustrator 21.0.0, SVG Export Plug-In . SVG Version: 6.00 Build 0)  -->
<svg version="1.1" id="Layer_1" xmlns="http://www.w3.org/2000/svg" xmlns:xlink="http://www.w3.org/1999/xlink" x="0px" y="0px"
	 viewBox="0 0 204 79.5" style="enable-background:new 0 0 204 79.5;" xml:space="preserve">
<style type="text/css">
	.st0{fill:#F9F1DD;}
</style>
<g>
	<path class="st0" d="M49.9,32c0,0.3,0.2,0.7,0.2,1.4c0.2,0.8,0.2,1.5,0.2,2c0,0.2,0,0.3,0,0.5h-0.2h-0.8h-0.2c-0.3-1-0.7-1.9-1-2.2
		c-0.7-0.7-1.4-1-2.2-1c-0.8,0-1.5,0.2-1.9,0.7c-0.5,0.5-0.7,1-0.7,1.5c0,0.5,0.2,1,0.7,1.5c0.5,0.5,1.5,1,2.9,1.4
		c0.5,0.2,1.2,0.3,1.9,0.7s1.2,0.7,1.7,1c0.5,0.5,0.8,1,1,1.5c0.2,0.5,0.3,1,0.3,1.9s-0.2,1.5-0.5,2.4c-0.2,0.3-0.3,0.8-0.7,1.2
		c-0.2,0.2-0.7,0.5-1.2,0.8c-0.5,0.3-1,0.5-1.7,0.7C47.2,48,46.4,48,45.5,48c-0.5,0-1.2,0-2-0.2L42,47.3c-0.3-0.2-0.7-0.2-0.8-0.3
		c0,0,0-0.2-0.2-0.2v-0.2c0-0.2,0-0.7,0-1.7c0-0.5,0-0.8,0-1.2v-0.5h1.2c0.3,0.8,0.7,1.5,0.8,1.7c0.3,0.3,0.5,0.8,0.8,1
		c0.3,0.3,0.7,0.5,1.2,0.7c0.5,0.2,0.8,0.2,1.4,0.2c0.5,0,1-0.2,1.5-0.3c0.5-0.2,1-0.5,1.4-1c0.3-0.5,0.5-0.8,0.5-1.4
		c0-0.7-0.3-1.2-0.8-1.7c-0.3-0.3-1.4-0.7-2.9-1.4c-1.5-0.5-2.5-1-3.2-1.5s-1-1-1.4-1.7c-0.3-0.7-0.5-1.4-0.5-2
		c0-1.4,0.5-2.4,1.4-3.4c1-0.8,2.4-1.4,4.2-1.4c0.3,0,1,0,1.7,0.2C48.4,31.5,49.1,31.6,49.9,32z"/>
	<path class="st0" d="M52.8,32.7v-1c0.2,0,0.3,0,0.5,0c0.3,0,0.8,0,1.4,0c1,0,1.7,0.2,1.9,0.2c0.7,0,1.4,0,1.9,0c0.7,0,1.2,0,1.7,0
		c0.5,0,0.8,0,1,0V32v0.7v0.2c-0.5,0-1,0.2-1.4,0.2c-0.5,0-0.8,0.2-0.8,0.3c-0.2,0.2-0.2,0.7-0.2,1.5c0,0.3,0,0.5,0,0.7V36v1.2v1
		v2.2l0.2,3c0,0.8,0.2,1.7,0.7,2.2c0.3,0.5,0.7,0.8,1.2,1c0.7,0.3,1.4,0.5,2,0.5c0.8,0,1.5-0.2,2.2-0.3c0.3-0.2,0.8-0.3,1.2-0.5
		c0.3-0.3,0.7-0.5,0.7-0.7c0.3-0.5,0.5-0.8,0.7-1.4s0.2-1.4,0.2-2.5c0-2-0.2-4.2-0.3-6.8v-0.7c0-0.5-0.2-0.8-0.3-1
		C66.6,33,66.5,33,66.1,33h-1.2h-0.2v-1h1l2.4,0.2c0.8,0,1.5,0,2.2-0.2h0.2c0,0.3,0,0.5,0,0.5c0,0.2,0,0.2,0,0.3
		c-0.3,0-0.7,0.2-1,0.2c-0.5,0-0.8,0.2-0.8,0.2c-0.2,0.2-0.2,0.2-0.2,0.5c0,0.2,0,0.3,0,0.7c0,0.2,0,0.5,0,1c0,0.3,0,0.5,0,0.7
		c0,0.2,0,0.3,0,0.5c0,0.7,0,1.2,0,1.9l0.2,2.5c0,1.7,0,2.9-0.2,3.4s-0.3,1-0.5,1.4c-0.3,0.5-0.7,1-1.4,1.4s-1.2,0.7-2,1
		c-0.8,0.2-1.9,0.3-2.9,0.3c-1.4,0-2.4-0.2-3.2-0.5s-1.7-0.8-2-1.4c-0.5-0.5-0.8-1.4-1-2.2c-0.2-0.7-0.2-1.5-0.2-2.7v-5.9
		c0-1.4,0-2.2-0.2-2.4C55,33,54.5,33,53.4,32.8C53.1,32.7,52.9,32.7,52.8,32.7z"/>
	<path class="st0" d="M82,32c0,0.3,0.2,0.7,0.2,1.4c0.2,0.8,0.2,1.5,0.2,2c0,0.2,0,0.3,0,0.5h-0.2h-0.8h-0.2c-0.3-1-0.7-1.9-1-2.2
		c-0.7-0.7-1.4-1-2.2-1s-1.5,0.2-1.9,0.7c-0.5,0.5-0.7,1-0.7,1.5c0,0.5,0.2,1,0.7,1.5c0.5,0.5,1.5,1,2.9,1.4
		c0.5,0.2,1.2,0.3,1.9,0.7s1.2,0.7,1.7,1c0.5,0.5,0.8,1,1,1.5c0.2,0.5,0.3,1,0.3,1.9s-0.2,1.5-0.5,2.4c-0.2,0.3-0.3,0.8-0.7,1.2
		c-0.2,0.2-0.7,0.5-1.2,0.8c-0.5,0.3-1,0.5-1.7,0.7C79.3,48,78.4,48,77.6,48c-0.5,0-1.2,0-2-0.2l-1.5-0.5c-0.3-0.2-0.7-0.2-0.8-0.3
		c0,0,0-0.2-0.2-0.2v-0.2c0-0.2,0-0.7,0-1.7c0-0.5,0-0.8,0-1.2v-0.5h1.2c0.3,0.8,0.7,1.5,0.8,1.7c0.3,0.3,0.5,0.8,0.8,1
		c0.3,0.3,0.7,0.5,1.2,0.7c0.5,0.2,0.8,0.2,1.4,0.2c0.5,0,1-0.2,1.5-0.3c0.5-0.2,1-0.5,1.4-1s0.5-0.8,0.5-1.4c0-0.7-0.3-1.2-0.8-1.7
		c-0.3-0.3-1.4-0.7-2.9-1.4c-1.5-0.5-2.5-1-3.2-1.5s-1-1-1.4-1.7c-0.3-0.7-0.5-1.4-0.5-2c0-1.4,0.5-2.4,1.4-3.4
		c1-0.8,2.4-1.4,4.2-1.4c0.3,0,1,0,1.7,0.2C80.6,31.5,81.3,31.6,82,32z"/>
	<path class="st0" d="M99.7,31.8c0.2,0.2,0.3,1,0.7,2.2c0.2,0.5,0.2,1,0.2,1.7h-1.2c-0.8-1.2-1.7-1.9-2.5-2.4
		c-0.7-0.5-1.7-0.8-2.7-0.8c-1.4,0-2.4,0.5-3,1.5c-1,1.4-1.5,3.2-1.5,5.6c0,1.4,0.2,2.4,0.3,3c0.3,1,0.7,1.7,1.2,2.4
		c0.3,0.5,0.8,0.8,1.4,1.2c0.7,0.3,1.5,0.5,2.4,0.5s1.9-0.3,2.7-0.8s1.7-1.4,2.4-2.5c0.3,0,0.7-0.2,1.2-0.2c0,0.3-0.2,0.7-0.2,1
		c0,0.2-0.2,0.7-0.3,1.5l-0.2,0.3l-0.2,0.5c-0.5,0.3-1.2,0.7-2.2,0.8c-0.8,0.2-2,0.3-3.4,0.3c-1,0-2-0.2-2.9-0.3
		c-0.8-0.2-1.7-0.5-2.4-0.8c-1-0.7-1.7-1.2-2.2-1.9s-1-1.5-1.2-2.2c-0.3-0.8-0.3-1.7-0.3-2.7c0-2.5,0.8-4.6,2.4-6.1
		c1.7-1.5,3.7-2.4,6.2-2.4c1,0,2,0,2.9,0.2C98,31.5,98.9,31.6,99.7,31.8z"/>
	<path class="st0" d="M102.8,46.8c0.2-0.2,0.5-0.2,1-0.3c0.3,0,0.8-0.2,1.2-0.3c0-0.2,0-0.3,0-0.3c0-0.2,0-0.5,0-1.2v-2.7v-1.5v-1.2
		v-0.7c0-0.8,0-1.7,0-2.5c0-1.7,0-2.9,0-3.2l-0.7-0.2c-0.7,0-1.2,0-1.4-0.2v-0.7v-0.2c0.3,0,0.8-0.2,1.2-0.2c0.2,0,0.5,0,1.2,0
		c0.7,0,0.8,0,1,0h0.7h1.5c1-0.2,2-0.2,3-0.2c1.7,0,3,0.5,4.1,1.4c1,0.8,1.5,1.9,1.5,3c0,0.8-0.3,1.5-0.8,2.2
		c-0.5,0.7-1.4,1.2-2.5,1.5c0.2,0.2,0.2,0.3,0.3,0.7c0.3,0.5,0.7,0.8,0.8,1.2l2,3.2c0.5,0.8,0.8,1.4,1,1.5c0.2,0.2,0.5,0.3,1,0.5
		c0.3,0.2,0.7,0.3,0.8,0.3c0,0.2,0,0.3,0,0.3s0,0.2,0,0.3h-0.3h-0.2l-0.7-0.2h-0.5c-0.3,0-0.5,0-1,0h-1.2c-0.2,0-0.3,0-0.8,0.2
		c-0.2,0-0.3,0-0.5,0l-0.3-0.8c-0.3-0.7-0.5-1-0.7-1.4c-0.3-0.8-1-2-1.9-3.9c-0.3-0.8-0.7-1.2-0.8-1.4s-0.7-0.3-1.4-0.3
		c-0.2,0-0.5,0-0.8,0c0,0.2,0,0.5,0,0.8v2.7v2.4c0.2,0.2,0.5,0.2,0.8,0.3c0.7,0.2,1.2,0.3,1.7,0.5c0,0.3,0,0.7,0,0.8
		c-0.2,0-0.3,0-0.3,0h-0.5c-1.7-0.2-2.9-0.2-3.2-0.2c-0.2,0-0.3,0-0.5,0l-1.7,0.2c-0.5,0-1,0.2-1.4,0.2h-0.5c0-0.2,0-0.3,0-0.3
		C102.6,47.2,102.6,47,102.8,46.8z M108.3,38.9c0.3,0,0.7,0,0.8,0c1.4,0,2.4-0.2,3-0.7s0.8-1.2,0.8-2c0-0.5,0-1-0.2-1.5
		c-0.2-0.5-0.3-0.8-0.5-1c-0.3-0.3-0.7-0.5-1.2-0.7c-0.3-0.2-1-0.2-1.7-0.2c-0.3,0-0.7,0-1,0V33v1.7v1V37c0,0.3,0,0.8,0,1.5v0.3
		H108.3z"/>
	<path class="st0" d="M120.3,47.7v-0.8c0.2,0,0.5-0.2,0.8-0.2c0.5-0.2,1-0.3,1.2-0.3c0.2-0.3,0.2-0.7,0.2-1v-1.5v-2.9v-0.7
		c0-1.7,0.2-2.5,0.2-2.5V36v-0.7V34v-0.5c0,0,0-0.2-0.2-0.3c-0.3-0.2-0.8-0.3-1.7-0.3c-0.2,0-0.3,0-0.5,0v-1l3.5,0.2
		c0.5,0,0.7,0,0.8,0c0.5,0,1.2,0,2.4-0.2c0.7,0,1,0,1.2,0c0,0.2,0,0.3,0,0.3c0,0.2,0,0.3,0,0.5c-0.3,0.2-0.7,0.2-1.2,0.3
		c-0.5,0.2-0.8,0.2-1,0.3c0,0.2,0,0.5,0,0.8s0,0.7,0,0.8c0,1.4,0,2.5,0,3.2v3.2v1.7v2.5v0.5c0,0,0,0.2,0,0.3c0.5,0.2,1,0.2,1.4,0.2
		c0,0,0.3,0,0.7,0.2c0,0.2,0,0.5,0,0.7c0,0.2,0,0.2,0,0.3c-0.2,0-0.2,0-0.2,0c-0.3,0-0.3,0-0.5,0c0,0-0.2,0-0.3,0s-0.7,0-1.7-0.2
		h-2.2c-0.5,0-1,0-1.9,0.2C120.8,47.7,120.5,47.7,120.3,47.7z"/>
	<path class="st0" d="M130.3,47.7v-1c0.2,0,0.5-0.2,0.7-0.2c0.5,0,1-0.2,1.4-0.3c0.2-0.2,0.2-0.3,0.2-0.5c0-0.5,0.2-1.2,0.2-2v-5.2
		c0-0.5,0-2-0.2-4.2c0-0.7,0-1-0.2-1.2c0,0,0-0.2-0.2-0.2c-0.2-0.2-0.3-0.2-0.7-0.2c-0.2,0-0.5,0-1.2-0.2v-0.8h2.7l4.1-0.2h0.5
		c0.2,0,0.2,0,0.3,0c0,0,0.3,0,0.7,0h0.8c0.7,0,1.4,0.2,2,0.3c0.3,0,0.7,0.2,1,0.3c0.3,0.2,0.8,0.5,1,0.8c0.3,0.3,0.5,0.7,0.7,1
		c0.2,0.3,0.2,0.8,0.2,1.4s-0.2,1-0.3,1.4c-0.2,0.3-0.5,0.8-1,1.2c-0.2,0.2-0.8,0.5-1.5,0.8c1.2,0.3,2.2,0.8,2.9,1.5s1,1.5,1,2.5
		c0,0.5-0.2,1.2-0.3,1.7c-0.2,0.5-0.3,0.8-0.7,1.2c-0.5,0.5-1,0.8-1.5,1.2c-0.5,0.3-1.2,0.5-2.2,0.7c-0.5,0-1.2,0.2-2,0.2h-2
		c-0.8,0-2,0-3.2,0.2C132.8,47.7,131.8,47.7,130.3,47.7z M136,38.4c0.3,0,0.7,0,1.2,0c1.2,0,2.2-0.2,2.9-0.7c0.7-0.5,1-1.2,1-2.4
		c0-0.8-0.3-1.5-0.8-2s-1.5-0.8-2.7-0.8c-0.3,0-0.8,0-1.4,0.2c0,0.2,0,0.5,0,0.8c0,0.7,0,1.7,0,2.9v1C136,37.7,136,38.1,136,38.4z
		 M136.2,46.2c0.5,0.2,1,0.3,1.5,0.3c1,0,1.7-0.2,2.4-0.5s1-0.7,1.4-1.2c0.3-0.5,0.3-1.2,0.3-1.9c0-0.8-0.2-1.4-0.5-1.9
		c-0.3-0.7-0.8-1.2-1.5-1.4c-0.5-0.2-1.5-0.3-2.7-0.3c-0.5,0-0.8,0-1,0.2v1.5V43v2.9C136,45.8,136,46,136.2,46.2z"/>
	<path class="st0" d="M147,31.6c0.5,0,0.8,0,1.2,0.2c0.7,0.2,1.4,0.2,2.2,0.2c0.3,0,1,0,2.4,0c1.9,0,3.5-0.2,5.1-0.2h2.2
		c0.5,0,1.2,0,2.2,0.2c0.2,0.2,0.2,0.3,0.2,0.7v2.5v0.5v0.2h-0.5c0,0-0.2,0-0.3,0c0-0.2-0.2-0.3-0.3-0.7l-0.5-0.8
		c-0.2-0.3-0.5-0.7-0.8-1.2c-0.2,0-0.5-0.2-0.8-0.2c0,0-0.3,0-0.7,0c-0.8,0-1.5-0.2-2.5-0.2s-1.9,0-2.7,0c0,0.2,0,1,0,2.4v2v1.5
		c0.2,0,0.3,0,0.5,0c1.5,0,2.5,0,3.2-0.2s1-0.2,1.2-0.2c0.2,0,0.3-0.3,0.3-0.5c0-0.2,0.2-0.8,0.5-1.9h0.2h0.7c0,0.7,0,1.4,0,1.7
		c0,0.8,0,1.4,0,1.7c0,0.2,0,0.5,0,0.5c0,0.2,0,0.5,0,1s0,0.8,0,1v0.7h-0.8c0-0.2-0.2-0.3-0.2-0.8c-0.2-0.8-0.3-1.2-0.5-1.4
		c-0.2-0.2-0.3-0.3-0.5-0.3c-0.2,0-0.8-0.2-1.9-0.2c-1.2,0-2.2,0-2.9,0.2c0,0.2,0,0.3,0,0.3c0,1,0,1.9,0,2.5v2.7
		c0,0.3,0.2,0.5,0.3,0.7c0.3,0.2,1.4,0.3,3,0.3c1.2,0,2.2-0.2,2.9-0.3c0.5-0.2,1-0.3,1.5-0.8c0.5-0.5,1-1.4,1.4-2.4
		c0.3,0,0.5,0,0.7,0c0.2,0,0.2,0,0.3,0c0,0.2,0,0.3,0,0.5V44l-0.5,2.4l0.2,1.4c-0.5,0-1,0-1.4,0c-0.5,0-1.7,0-3.7-0.2
		c-1.4,0-3-0.2-5.1-0.2c-1,0-2.2,0-3.7,0.2h-0.5h-1.5v-0.8c0.2,0,0.5-0.2,1-0.2c0.8-0.2,1.5-0.2,1.9-0.3c0.2-0.2,0.2-0.5,0.2-0.8
		c0-0.2,0-0.3,0-0.7v-0.3v-4.7v-1.4v-2v-1.4l-0.2-1.5v-0.2c0-0.2-0.2-0.2-0.3-0.2c-0.2,0-0.2,0-0.3,0c-0.5-0.2-0.8-0.2-1.4-0.2
		c-0.2,0-0.3,0-0.5,0L147,31.6z"/>
</g>
</svg>
