<?xml version="1.0" encoding="utf-8"?>
<!-- Generator: Adobe Illustrator 21.0.0, SVG Export Plug-In . SVG Version: 6.00 Build 0)  -->
<svg version="1.1" id="Layer_1" xmlns="http://www.w3.org/2000/svg" xmlns:xlink="http://www.w3.org/1999/xlink" x="0px" y="0px"
	 viewBox="0 0 85 112" style="enable-background:new 0 0 85 112;" xml:space="preserve">
<style type="text/css">
	.st0{fill:#0E2635;}
</style>
<path class="st0" d="M17.7,61.9c-3.6,0.5-4.9,1.6-5.4,4.8c-1.6,10.5,0.8,19.9,8,28c2.2,2.4,4.7,4.5,7,6.7c1,0.9,1.7,2,1.4,3.4
	s-1.2,2.4-2.6,2.6c-1,0.1-2.3-0.1-3.1-0.7c-11.7-9-18.4-20.5-18.2-35.3c0-2.6,0.4-5.1,1-7.6c1-4.4,4.9-7.8,9.5-8.5
	c0.8-0.1,1.6-0.2,2.5-0.4c0-0.6,0-1.1,0-1.7c0-13.2,0-26.4,0-39.5c0-5.2,4-9.7,9.1-10.2c5.4-0.6,10.4,2.6,11.7,7.7
	c0.2,0.8,0.2,1.6,0.2,2.4c0,4.5,0,9,0,13.4c0,0.6,0,1.1,0,1.9c5.3-1.2,9.5,0.2,12.7,4.6c3.4-1.3,6.8-1.6,10,0.3
	c3.2,1.8,4.9,4.6,5.3,8c1.6-0.1,3.1-0.4,4.7-0.2c4.8,0.6,8.9,4.6,9.2,9.3c1,15.9-0.1,31.7-5.1,47c-0.8,2.5-1.9,4.9-2.9,7.3
	c-0.9,2-2.7,2.8-4.6,2c-2-0.8-2.7-2.6-1.8-4.7c6.7-15.2,8-31.1,7.6-47.3c0-1-0.1-2-0.1-2.9c-0.1-2.2-1.7-4-3.4-4s-3.3,1.6-3.5,3.8
	c-0.1,1.5,0,3.1-0.1,4.6c0,2.3-1.4,3.8-3.5,3.8c-2.1,0-3.5-1.5-3.5-3.8c0-4.6,0-9.2,0-13.7c0-2.3-1.4-3.7-3.5-3.7s-3.5,1.5-3.5,3.8
	c0,3.3,0,6.6,0,9.9c0,2.9-1.3,4.5-3.6,4.5c-2.2,0-3.5-1.6-3.5-4.4c0-4.7,0-9.4,0-14.1c0-2.2-1.3-3.6-3.4-3.7c-2.1,0-3.5,1.4-3.6,3.7
	c0,4.2,0,8.4,0,12.7c0,2.4-1.4,3.9-3.5,3.9s-3.5-1.6-3.5-3.9c0-12.6,0-25.2,0-37.8c0-1.9-1.1-3.2-2.9-3.5c-1.7-0.3-3.4,0.6-3.9,2.2
	c-0.2,0.6-0.2,1.3-0.2,2c0,17.6,0,35.2,0,52.8c0,2-0.7,3.2-2.2,3.7c-2.5,0.9-4.8-0.7-4.9-3.2C17.7,65.9,17.7,63.9,17.7,61.9z"/>
</svg>
