<?xml version="1.0" encoding="utf-8"?>
<!-- Generator: Adobe Illustrator 21.0.0, SVG Export Plug-In . SVG Version: 6.00 Build 0)  -->
<svg version="1.1" id="Layer_1" xmlns="http://www.w3.org/2000/svg" xmlns:xlink="http://www.w3.org/1999/xlink" x="0px" y="0px"
	 viewBox="0 0 216 142" style="enable-background:new 0 0 216 142;" xml:space="preserve">
<style type="text/css">
	.st0{fill:#0E2635;}
</style>
<g>
	<path class="st0" d="M132.3,24.9c-17.9,0-35.7,0-53.7,0c0.3,0.3,0.5,0.6,0.7,0.8c2.2,2.4,4.5,4.7,6.7,7.1c0.9,1,1.4,2.1,0.9,3.4
		c-0.8,2.1-3.1,2.6-4.8,1c-3-3.1-5.9-6.2-8.9-9.4c-1.2-1.2-2.3-2.4-3.5-3.7c-1.4-1.5-1.4-3.2,0-4.7c4.1-4.4,8.2-8.7,12.4-13
		c1.2-1.3,3.1-1.3,4.1-0.2c1.1,1.2,1.1,3-0.1,4.3c-2.2,2.4-4.5,4.8-6.8,7.2c-0.3,0.3-0.5,0.6-0.8,1c18.1,0,35.9,0,54,0
		c-0.3-0.4-0.6-0.7-0.8-0.9c-2.2-2.3-4.4-4.7-6.7-7c-0.8-0.8-1.4-1.8-1-3.1c0.6-2.3,3-3,4.7-1.5c0.6,0.5,1.1,1.1,1.6,1.7
		c3.6,3.8,7.2,7.6,10.8,11.4c1.7,1.8,1.7,3.3,0,5c-4,4.3-8.1,8.5-12.1,12.8c-1.8,1.9-4.3,1.2-5-1.2c-0.3-1.3,0.3-2.3,1.1-3.2
		c2.1-2.3,4.3-4.5,6.4-6.8c0.3-0.3,0.6-0.5,1-0.8C132.4,25.1,132.4,25,132.3,24.9z"/>
	<path class="st0" d="M95.9,90.8c-3.6,0.5-4.9,1.6-5.4,4.8c-1.6,10.5,0.8,19.9,8,28c2.2,2.4,4.7,4.5,7,6.7c1,0.9,1.7,2,1.4,3.4
		s-1.2,2.4-2.6,2.6c-1,0.1-2.3-0.1-3.1-0.7c-11.7-9-18.4-20.5-18.2-35.3c0-2.6,0.4-5.1,1-7.6c1-4.4,4.9-7.8,9.5-8.5
		c0.8-0.1,1.6-0.2,2.5-0.4c0-0.6,0-1.1,0-1.7c0-13.2,0-26.4,0-39.5c0-5.2,4-9.7,9.1-10.2c5.4-0.6,10.4,2.6,11.7,7.7
		c0.2,0.8,0.2,1.6,0.2,2.4c0,4.5,0,9,0,13.4c0,0.6,0,1.1,0,1.9c5.3-1.2,9.5,0.2,12.7,4.6c3.4-1.3,6.8-1.6,10,0.3
		c3.2,1.8,4.9,4.6,5.3,8c1.6-0.1,3.1-0.4,4.7-0.2c4.8,0.6,8.9,4.6,9.2,9.3c1,15.9-0.1,31.7-5.1,47c-0.8,2.5-1.9,4.9-2.9,7.3
		c-0.9,2-2.7,2.8-4.6,2c-2-0.8-2.7-2.6-1.8-4.7c6.7-15.2,8-31.1,7.6-47.3c0-1-0.1-2-0.1-2.9c-0.1-2.2-1.7-4-3.4-4
		c-1.7,0-3.3,1.6-3.5,3.8c-0.1,1.5,0,3.1-0.1,4.6c0,2.3-1.4,3.8-3.5,3.8s-3.5-1.5-3.5-3.8c0-4.6,0-9.2,0-13.7c0-2.3-1.4-3.7-3.5-3.7
		S131,69.7,131,72c0,3.3,0,6.6,0,9.9c0,2.9-1.3,4.5-3.6,4.5c-2.2,0-3.5-1.6-3.5-4.4c0-4.7,0-9.4,0-14.1c0-2.2-1.3-3.6-3.4-3.7
		c-2.1,0-3.5,1.4-3.6,3.7c0,4.2,0,8.4,0,12.7c0,2.4-1.4,3.9-3.5,3.9s-3.5-1.6-3.5-3.9c0-12.6,0-25.2,0-37.8c0-1.9-1.1-3.2-2.9-3.5
		c-1.7-0.3-3.4,0.6-3.9,2.2c-0.2,0.6-0.2,1.3-0.2,2c0,17.6,0,35.2,0,52.8c0,2-0.7,3.2-2.2,3.7c-2.5,0.9-4.8-0.7-4.9-3.2
		C95.9,94.8,95.9,92.8,95.9,90.8z"/>
	<circle class="st0" cx="159.2" cy="21.8" r="9.6"/>
	<circle class="st0" cx="182.5" cy="21.8" r="6.4"/>
	<circle class="st0" cx="202.4" cy="21.8" r="6.4"/>
	<circle class="st0" cx="53" cy="21.8" r="6.4"/>
	<circle class="st0" cx="33.2" cy="21.8" r="6.4"/>
	<circle class="st0" cx="13.3" cy="21.8" r="6.4"/>
</g>
</svg>
