<?xml version="1.0" encoding="utf-8"?>
<!-- Generator: Adobe Illustrator 21.0.0, SVG Export Plug-In . SVG Version: 6.00 Build 0)  -->
<svg version="1.1" id="Layer_1" xmlns="http://www.w3.org/2000/svg" xmlns:xlink="http://www.w3.org/1999/xlink" x="0px" y="0px"
	 viewBox="0 0 78.5 43" style="enable-background:new 0 0 78.5 43;" xml:space="preserve">
<style type="text/css">
	.st0{fill:#0E2635;}
</style>
<path class="st0" d="M66.5,24.9c-17.9,0-35.7,0-53.7,0c0.3,0.3,0.5,0.6,0.7,0.8c2.2,2.4,4.5,4.7,6.7,7.1c0.9,1,1.4,2.1,0.9,3.4
	c-0.8,2.1-3.1,2.6-4.8,1c-3-3.1-5.9-6.2-8.9-9.4c-1.2-1.2-2.3-2.4-3.5-3.7c-1.4-1.5-1.4-3.2,0-4.7c4.1-4.4,8.2-8.7,12.4-13
	c1.2-1.3,3.1-1.3,4.1-0.2c1.1,1.2,1.1,3-0.1,4.3c-2.2,2.4-4.5,4.8-6.8,7.2c-0.3,0.3-0.5,0.6-0.8,1c18.1,0,35.9,0,54,0
	c-0.3-0.4-0.6-0.7-0.8-0.9c-2.2-2.3-4.4-4.7-6.7-7c-0.8-0.8-1.4-1.8-1-3.1c0.6-2.3,3-3,4.7-1.5c0.6,0.5,1.1,1.1,1.6,1.7
	c3.6,3.8,7.2,7.6,10.8,11.4c1.7,1.8,1.7,3.3,0,5c-4,4.3-8.1,8.5-12.1,12.8c-1.8,1.9-4.3,1.2-5-1.2c-0.3-1.3,0.3-2.3,1.1-3.2
	c2.1-2.3,4.3-4.5,6.4-6.8c0.3-0.3,0.6-0.5,1-0.8C66.6,25.1,66.6,25,66.5,24.9z"/>
</svg>
