<?xml version="1.0" encoding="utf-8"?>
<!-- Generator: Adobe Illustrator 21.1.0, SVG Export Plug-In . SVG Version: 6.00 Build 0)  -->
<svg version="1.1" id="Layer_1" xmlns="http://www.w3.org/2000/svg" xmlns:xlink="http://www.w3.org/1999/xlink" x="0px" y="0px"
	 viewBox="0 0 96 142" style="enable-background:new 0 0 96 142;" xml:space="preserve">
<style type="text/css">
	.st0{fill:#0E2635;}
</style>
<path class="st0" d="M28.3,88.3c-3.5,0.5-4.8,1.6-5.3,4.8c-1.6,10.5,0.7,19.9,7.8,28c2.1,2.4,4.5,4.5,6.8,6.7c0.9,0.9,1.7,2,1.3,3.4
	c-0.3,1.4-1.2,2.4-2.6,2.6c-1,0.1-2.3-0.1-3-0.7c-11.4-9-17.9-20.5-17.7-35.3c0-2.6,0.4-5.1,1-7.6c1-4.4,4.8-7.8,9.2-8.5
	c0.8-0.1,1.5-0.2,2.4-0.4c0-0.6,0-1.1,0-1.7c0-13.2,0-26.4,0-39.5c0-5.2,3.9-9.7,8.9-10.2c5.3-0.6,10.1,2.6,11.3,7.7
	c0.2,0.8,0.2,1.6,0.2,2.4c0,4.5,0,9,0,13.4c0,0.6,0,1.1,0,1.9c5.2-1.2,9.3,0.2,12.3,4.6c3.3-1.3,6.6-1.6,9.7,0.3
	c3.1,1.8,4.7,4.6,5.2,8c1.5-0.1,3.1-0.4,4.5-0.2c4.6,0.6,8.6,4.6,8.9,9.3c1,15.9-0.1,31.7-4.9,47c-0.8,2.5-1.8,4.9-2.8,7.3
	c-0.8,2-2.7,2.8-4.5,2c-1.9-0.8-2.7-2.6-1.8-4.7c6.5-15.2,7.7-31.1,7.4-47.3c0-1-0.1-2-0.1-2.9c-0.1-2.2-1.6-4-3.3-4
	c-1.7,0-3.2,1.6-3.4,3.8c-0.1,1.5,0,3.1,0,4.6c0,2.3-1.4,3.8-3.4,3.8c-2,0-3.4-1.5-3.4-3.8c0-4.6,0-9.2,0-13.7
	c0-2.3-1.3-3.7-3.4-3.7c-2,0-3.4,1.5-3.4,3.8c0,3.3,0,6.6,0,9.9c0,2.9-1.2,4.5-3.4,4.5c-2.2,0-3.4-1.6-3.4-4.4c0-4.7,0-9.4,0-14.1
	c0-2.2-1.3-3.6-3.3-3.7c-2,0-3.4,1.4-3.5,3.7c0,4.2,0,8.4,0,12.7c0,2.4-1.3,3.9-3.4,3.9c-2,0-3.4-1.6-3.4-3.9c0-12.6,0-25.2,0-37.8
	c0-1.9-1-3.2-2.8-3.5c-1.6-0.3-3.3,0.6-3.8,2.2c-0.2,0.6-0.2,1.3-0.2,2c0,17.6,0,35.2,0,52.8c0,2-0.7,3.2-2.1,3.7
	c-2.4,0.9-4.7-0.7-4.7-3.2C28.3,92.3,28.3,90.3,28.3,88.3z"/>
<path class="st0" d="M74.1,38.2c-0.4,2.6-0.6,5.1-1.1,7.6c-0.4,2.5-2.1,3.8-4.1,3.4c-2.2-0.4-3.1-2.2-2.6-4.8
	c2.5-11.8-2-23-11.8-29.8c-17.1-11.9-41.5-1-44.2,19.6c-0.9,6.8,0.4,13,3.9,18.8c0.8,1.3,1.2,2.6,0.3,4.1c-1.4,2.2-4.5,2.2-5.9,0
	c-2.9-4.8-4.9-9.9-5.3-15.5C2.1,26.1,10.1,12.1,24.2,5.9C45-3.3,68.3,9,73,30.6C73.6,33.1,73.8,35.7,74.1,38.2z"/>
<path class="st0" d="M61.3,38.3c-0.3,2-0.6,4-1,5.9c-0.5,2.3-2.3,3.4-4.3,2.9c-2-0.5-2.9-2.4-2.3-4.7c1.4-5.7,0.3-10.8-3.7-15
	c-4.4-4.7-10-6.1-16.1-4.3c-6,1.8-9.6,6.1-10.9,12.3c-0.7,3.4-0.1,6.6,1.4,9.7c1.1,2.3,0.6,4.2-1.4,5.1c-1.9,0.9-3.7,0.1-4.8-2.2
	C14.1,39.5,15.6,30,22,22.8c5.9-6.6,15.6-8.9,24.2-5.9C55.1,20,61.2,28.7,61.3,38.3z"/>
</svg>
