<?xml version="1.0" encoding="utf-8"?>
<!-- Generator: Adobe Illustrator 21.0.0, SVG Export Plug-In . SVG Version: 6.00 Build 0)  -->
<svg version="1.1" id="Layer_1" xmlns="http://www.w3.org/2000/svg" xmlns:xlink="http://www.w3.org/1999/xlink" x="0px" y="0px"
	 viewBox="0 0 136.2 47.2" style="enable-background:new 0 0 136.2 47.2;" xml:space="preserve">
<style type="text/css">
	.st0{fill:#0E2635;}
</style>
<path class="st0" d="M68.8,15.6c0.1,0,0.3,0.4,0.3,0.5c0,0.4,0.2,1.9,0.2,2c0,0.4,0,0.6-0.2,0.6s-0.5-0.2-0.6-0.5
	c-0.3-0.8-0.9-1.5-1.1-1.7c-0.5-0.4-1-0.6-1.7-0.6c-1.5,0-2.7,1.1-2.7,2.7s1.2,2.3,3.3,3.7c2.1,1.3,3.3,2.6,3.3,4.6
	c0,1.2-0.7,2.5-2,3.4c-0.8,0.5-2.1,0.9-3.2,0.9c-0.9,0-2.4-0.2-3.2-0.6c-0.2-0.1-0.6-0.7-0.6-0.7c-0.1-0.8-0.4-1.9-0.4-2.3
	c0-0.1,0.2-0.5,0.3-0.5c0.2,0,0.6,0.6,0.9,1.3c0.6,1.3,2.2,2,3.1,2c1.5,0,2.8-1.1,2.8-2.7c0-1-0.5-2.1-2.9-3.6
	c-2.1-1.4-3.5-2.7-3.5-4.8c0-1.2,0.5-2.3,1.3-2.9c0.8-0.7,1.9-1.1,3.6-1.1C67.1,15.2,68.3,15.5,68.8,15.6z M82.5,22.3
	c0.5,0.6,0.7,1.5,0.7,2.6l0.1,4.4c0,0.6,0.3,0.8,0.9,0.9c0.5,0.1,0.7,0.3,0.7,0.4c0,0.2-0.2,0.3-0.7,0.3c-0.8,0-1.1-0.1-1.9-0.1
	c-0.6,0-1.1,0-1.8,0c-0.4,0-0.5-0.1-0.5-0.3c0-0.1,0.2-0.3,0.5-0.4c0.6-0.2,0.7-0.3,0.8-1.2c0-0.5,0-3.1,0-3.5c0-1.3-0.2-2-0.4-2.3
	c-0.4-0.4-0.9-0.7-1.8-0.7s-1.7,0.5-1.8,0.5C77.2,23,77,23.3,76.9,24c0,1-0.1,4.2,0,5c0,0.8,0.3,1,0.9,1.1c0.3,0.1,0.5,0.2,0.5,0.4
	s-0.3,0.3-0.6,0.3c-0.2,0-1.3,0-2,0s-1.5,0.1-1.9,0.1c-0.2,0-0.5-0.1-0.5-0.3c0-0.1,0.2-0.3,0.7-0.4c0.6-0.2,0.9-0.5,0.9-1.3
	c0.1-0.9,0.2-4.1,0.2-6.6c0-1.1,0-4.9-0.1-5.6c-0.1-0.6-0.2-0.6-0.8-1.1c-0.1,0-0.2-0.3-0.2-0.5c0,0,0-0.1,0.1-0.1
	c0.7-0.2,1.9-0.5,2.5-0.8c0.1-0.1,0.3-0.2,0.4-0.2s0.2,0.2,0.2,0.3c-0.2,1.7-0.3,7.6-0.3,8.2c0,0.1,0.1,0.2,0.2,0.1
	c0.9-0.9,2-1.4,2.9-1.4C81.2,21.2,82,21.6,82.5,22.3z M94.5,22.3c0.3,0.5,0.5,1,0.5,2c0,0.9-0.1,3.9-0.1,4.1c0,1,0.7,1.1,0.9,1.1
	c0.1,0,0.6-0.2,0.9-0.4c0.1,0,0.1,0,0.1,0.1s0,0.2,0,0.3c0,0.5-1.1,1.5-2.2,1.5c-0.6,0-1.3-0.3-1.5-1.2c0,0-0.1-0.1-0.2-0.1
	c-0.8,0.6-1.8,1-2.1,1.1s-0.8,0.1-1,0.1c-0.9,0-1.7-1-1.7-2.2c0-0.4,0.2-0.9,0.5-1.2c0.2-0.3,0.6-0.4,0.9-0.6
	c0.4-0.2,2.3-0.7,2.8-0.9s0.6-0.3,0.6-0.4c0-0.2,0.1-1.6,0-1.9c0-0.6-0.6-1.6-1.8-1.6c-0.5,0-0.8,0.1-0.9,0.2s-0.2,0.5-0.2,1
	c0,0.1-0.1,0.2-0.1,0.2c-0.2,0.2-1.5,0.8-1.7,0.8c-0.1,0-0.3-0.2-0.3-0.3c0-0.7,0.6-1.3,1.8-2.1c0.7-0.5,1.8-0.9,2.2-0.9
	C93.6,21.2,94.2,21.8,94.5,22.3z M92.8,29.3c0.1-0.1,0.3-0.5,0.3-0.6c0-0.5,0-1.4,0-1.9c0-0.1-0.1-0.2-0.2-0.2
	c-0.6,0-1.8,0.4-2.3,0.7c-0.3,0.1-0.5,0.3-0.5,0.9c0,1,0.9,1.4,1.4,1.4C92,29.7,92.4,29.6,92.8,29.3z M100.7,22
	c0.8-0.3,1.6-0.6,1.9-0.8c0.3-0.2,0.4-0.3,0.5-0.3s0.2,0.2,0.2,0.3c0,0.4,0,0.9,0,1.3c0,0.1,0.1,0.1,0.1,0.1
	c0.9-0.9,1.9-1.5,2.7-1.5c1,0,1.2,0.6,1.2,0.8c0,0.1-0.1,0.2-0.1,0.4c-0.3,0.4-0.9,1.1-1,1.2c0,0-0.3,0-0.4-0.1
	c-0.3-0.2-0.9-0.5-1.4-0.5c-0.4,0-0.7,0-0.9,0.3c-0.2,0.2-0.2,0.4-0.2,0.5c0,0.5,0.1,4.7,0.1,5.1c0,0.7,0.2,1.1,0.6,1.2
	c0.3,0,0.7,0.2,1.1,0.3c0.4,0.1,0.5,0.3,0.5,0.4s-0.2,0.2-0.6,0.2c-0.6,0-1.5-0.1-2.9-0.1c-0.7,0-1,0.1-1.6,0.1
	c-0.3,0-0.5-0.1-0.5-0.3c0-0.1,0.3-0.2,0.5-0.3c0.9-0.3,1-0.5,1-2v-4.4c0-0.3,0-0.6-0.2-0.8c-0.5-0.4-0.8-0.6-0.8-0.7
	C100.4,22.4,100.5,22.1,100.7,22z M117.5,22.1c0.5,0.5,0.8,1.2,0.8,2c0,0.1-0.2,0.5-0.5,0.5s-4.3,0-5.4,0c-0.1,0-0.2,0.1-0.2,0.2
	c-0.1,0.2-0.1,0.6-0.1,0.8c0,0.8,0.4,1.9,0.9,2.6s1.5,1.3,2.7,1.3c1,0,1.7-0.3,2.1-0.9c0.1-0.1,0.2-0.3,0.3-0.3s0.2,0.2,0.2,0.3
	c0,0.2-0.1,0.5-0.2,0.6c-0.8,1.2-2,1.8-3.5,1.8c-2.6,0-4.3-2-4.3-4.7c0-1.9,1-3.8,2.9-4.7c0.6-0.3,1.4-0.4,1.8-0.4
	C115.9,21.2,116.9,21.5,117.5,22.1z M112.5,23.6c0,0.1,0,0.3,0.1,0.3c0.6,0,1.8,0,2.9,0c0.5,0,0.8-0.1,0.8-0.6
	c0-0.7-0.7-1.4-1.5-1.4C113.8,21.8,112.9,22.5,112.5,23.6z M33.2,17.4c-0.8,0.5-1.6,0.8-2.5,1c-0.7-0.8-1.7-1.3-2.9-1.3
	c-2.2,0-3.9,1.8-3.9,4c0,0.3,0,0.6,0.1,0.9c-3.2-0.2-6.1-1.8-8.1-4.2c-0.3,0.6-0.5,1.3-0.5,2c0,1.4,0.7,2.6,1.7,3.3
	c-0.6,0-1.2-0.2-1.8-0.5l0,0c0,1.9,1.3,3.6,3.1,3.9c-0.3,0.1-0.7,0.1-1,0.1s-0.5,0-0.7-0.1c0.5,1.6,1.9,2.8,3.7,2.8
	c-1.3,1.1-3,1.7-4.9,1.7c-0.3,0-0.6,0-0.9-0.1c1.7,1.1,3.8,1.8,6,1.8c7.2,0,11.1-6.1,11.1-11.4c0-0.2,0-0.3,0-0.5
	c0.8-0.6,1.4-1.3,1.9-2.1c-0.7,0.3-1.5,0.5-2.2,0.6C32.3,19.1,32.9,18.3,33.2,17.4z M47.2,12.6h-1v23h1V12.6z M135.1,46.2H1V1h134.1
	V46.2z M2,45.2h132.1V2H2V45.2z"/>
</svg>
