<?xml version="1.0" encoding="utf-8"?>
<!-- Generator: Adobe Illustrator 16.0.0, SVG Export Plug-In . SVG Version: 6.00 Build 0)  -->
<!DOCTYPE svg PUBLIC "-//W3C//DTD SVG 1.1//EN" "http://www.w3.org/Graphics/SVG/1.1/DTD/svg11.dtd">
<svg version="1.1" id="Layer_1" xmlns="http://www.w3.org/2000/svg" xmlns:xlink="http://www.w3.org/1999/xlink" x="0px" y="0px"
	 width="34.439px" height="34.438px" viewBox="0 0 34.439 34.438" enable-background="new 0 0 34.439 34.438" xml:space="preserve">
<path fill="#FAF1DC" d="M17.268-0.047c-9.557,0-17.314,7.758-17.314,17.219c0,9.462,7.758,17.313,17.314,17.313
	c9.556,0,17.219-7.758,17.219-17.22C34.486,7.805,26.823-0.047,17.268-0.047z M24.269,13.86c0,0.189,0,0.284,0,0.475
	c-0.096,4.446-3.501,9.556-9.557,9.556h-0.188c-1.893,0-3.595-0.662-5.109-1.607c0.284,0,0.567,0.095,0.757,0.095h0.096
	c1.514,0,2.933-0.474,4.067-1.419c-1.514-0.096-2.648-0.946-3.123-2.365c0.189,0,0.379,0.188,0.663,0.188h0.096
	c0.283,0,0.188-0.188,0.473-0.188c-1.514-0.379-3.027-1.893-3.027-3.501l0,0c1.041,0.284,1.325,0.473,1.893,0.473
	c-0.853-0.662-1.23-1.703-1.23-2.933c0-0.662,0.284-1.23,0.568-1.703c1.607,2.081,4.067,3.501,6.907,3.69
	c-0.096-0.284-0.096-0.475,0-0.759c0-1.892,1.513-3.311,3.405-3.311l0,0c0.946,0,1.798,0.378,2.46,1.135
	c0.757-0.095,1.516-0.473,2.178-0.852c-0.284,0.757-0.853,1.419-1.515,1.893c0.662-0.095,1.324-0.284,1.893-0.474
	C25.498,12.82,24.932,13.387,24.269,13.86z"/>
</svg>
