<?xml version="1.0" encoding="utf-8"?>
<!-- Generator: Adobe Illustrator 21.0.0, SVG Export Plug-In . SVG Version: 6.00 Build 0)  -->
<svg version="1.1" id="Layer_1" xmlns="http://www.w3.org/2000/svg" xmlns:xlink="http://www.w3.org/1999/xlink" x="0px" y="0px"
	 viewBox="0 0 136.2 47.2" style="enable-background:new 0 0 136.2 47.2;" xml:space="preserve">
<style type="text/css">
	.st0{fill:none;stroke:#0E2635;stroke-miterlimit:10;}
	.st1{fill:#0E2635;}
</style>
<rect x="1" y="1" class="st0" width="134.1" height="45.2"/>
<path class="st1" d="M107.6,18c0.2-0.2,0.5-0.3,0.8-0.3c0.4,0,0.6,0.1,0.9,0.3s0.3,0.5,0.3,0.7c0,0.2,0,0.4-0.1,0.6
	c-0.1,0.2-0.2,0.4-0.4,0.5s-0.4,0.2-0.6,0.2c-0.3,0-0.5-0.1-0.8-0.4s-0.4-0.5-0.4-0.9C107.3,18.5,107.4,18.2,107.6,18z"/>
<polygon class="st1" points="33.5,17.3 23.5,25.7 13.6,17.3 "/>
<polygon class="st1" points="12.8,17.8 20.2,24.1 12.8,30 "/>
<polygon class="st1" points="13.6,30.5 21,24.8 23.5,27 26,24.8 33.2,30.5 "/>
<polygon class="st1" points="34.2,30 26.8,24.2 34.2,17.9 "/>
<rect x="46.2" y="12.6" class="st1" width="1" height="23"/>
<path class="st1" d="M62.2,27.5c-0.1,0.3-0.3,0.6-0.5,0.8c-0.2,0.2-0.5,0.4-0.8,0.6s-0.8,0.4-1.2,0.5c-0.4,0.1-0.9,0.2-1.5,0.2
	c-0.4,0-0.9-0.1-1.5-0.2l-1.1-0.3C55.3,29,55.1,29,55,28.9c0,0-0.1-0.1-0.1-0.2v-0.1c0-0.1,0-0.5,0-1.2c0-0.4,0-0.7,0-0.8v-0.3
	l0.8,0c0.3,0.7,0.5,1.1,0.6,1.2c0.2,0.3,0.4,0.6,0.6,0.7c0.2,0.2,0.5,0.3,0.8,0.4c0.3,0.1,0.6,0.2,1,0.2c0.3,0,0.7-0.1,1.1-0.2
	s0.7-0.4,0.9-0.7c0.2-0.3,0.4-0.6,0.4-1c0-0.4-0.2-0.8-0.6-1.2c-0.2-0.2-0.9-0.5-2-0.9c-1.1-0.4-1.9-0.7-2.3-1
	c-0.4-0.3-0.8-0.7-1-1.2c-0.2-0.5-0.4-1-0.4-1.5c0-0.9,0.3-1.8,1-2.4c0.7-0.7,1.7-1,3-1c0.3,0,0.7,0.1,1.3,0.2
	c0.3,0.1,0.8,0.2,1.3,0.4c0.1,0.2,0.1,0.5,0.2,0.9c0.1,0.6,0.1,1.1,0.1,1.4c0,0.1,0,0.2,0,0.3l-0.1,0l-0.6,0l-0.1,0
	c-0.3-0.8-0.5-1.3-0.8-1.6c-0.5-0.5-1-0.7-1.6-0.7c-0.6,0-1,0.2-1.4,0.5s-0.5,0.7-0.5,1.1c0,0.4,0.2,0.7,0.5,1.1
	c0.3,0.4,1,0.7,2.1,1c0.4,0.1,0.8,0.3,1.3,0.5s0.9,0.5,1.2,0.8c0.4,0.4,0.6,0.7,0.7,1.1s0.2,0.8,0.2,1.3
	C62.5,26.4,62.4,26.9,62.2,27.5z"/>
<path class="st1" d="M72.9,29c-0.3,0-0.5,0-0.7,0.1c-0.6,0.1-1.3,0.4-2.1,0.6l-0.4,0l0-1.5c-0.1,0.1-0.2,0.2-0.3,0.3
	c-0.5,0.5-1,0.8-1.3,0.9c-0.4,0.2-0.8,0.2-1.2,0.2c-0.5,0-0.9-0.1-1.3-0.3c-0.4-0.2-0.6-0.5-0.8-0.7c-0.1-0.2-0.2-0.6-0.2-1
	c0-0.1,0-0.7,0-1.7l0-0.3c0-0.6,0-1,0-1.3c0-0.5,0-0.8,0-1c0-0.1,0-0.2-0.1-0.3c-0.1,0-0.2-0.1-0.3-0.1c-0.4-0.1-0.6-0.1-0.7-0.2
	c0,0,0-0.1,0-0.1c0,0,0-0.1,0-0.1c0-0.1,0-0.2,0-0.3c0.1,0,0.1,0,0.2-0.1h2.7l0.2,0l0,0.6l0,0.9l0,0.5l0,1.3v0.9
	c0,0.6,0,1.1,0.1,1.4c0.1,0.3,0.2,0.5,0.4,0.6c0.2,0.1,0.4,0.2,0.7,0.2c0.3,0,0.5,0,0.7-0.1c0.2-0.1,0.4-0.2,0.6-0.3
	c0.2-0.1,0.4-0.3,0.4-0.3c0.2-0.2,0.3-0.4,0.4-0.5l0.1-2.2c0-0.2,0-0.4,0-0.6c0-0.2,0-0.3,0-0.6s0-0.4,0-0.4l0-0.3l0-0.2
	c-0.1-0.1-0.3-0.1-0.6-0.2l-0.6,0c0,0-0.1,0-0.1-0.1c0-0.1,0-0.2,0-0.3c0-0.1,0-0.2,0-0.3c0.2,0,0.4,0,0.5,0l1.4,0
	c0.4,0,0.8,0,1.4,0l0,0.7l0,0.9l0,1.1l0,1.5l0,0.7l0,0.5c0,0.3,0,0.5,0,0.5c0,0.1,0,0.3,0.1,0.3c0.1,0.1,0.1,0.1,0.2,0.1l0.8,0
	l0.1,0c0,0.2,0,0.3,0,0.4C72.9,28.8,72.9,28.9,72.9,29z"/>
<path class="st1" d="M82.5,24.1c-0.2-0.6-0.5-1-0.8-1.3s-0.7-0.6-1.1-0.7s-0.9-0.2-1.4-0.2c-0.2,0-0.5,0-0.8,0.1
	c-0.2,0-0.4,0.1-0.6,0.2c-0.3,0.1-0.4,0.2-0.5,0.3c-0.3,0.2-0.5,0.4-0.7,0.6l0-1.3l-0.1-3.4l0-0.4c0-0.1,0-0.2,0-0.4
	c-0.1,0-0.2,0-0.3,0h-0.4c-0.8,0.4-1.3,0.7-1.5,0.7l-0.8,0.3v0.4c0.6,0.2,0.9,0.3,0.9,0.4s0.1,0.1,0.1,0.1c0,0.2,0.1,0.6,0.1,1.3
	v6.5c0,0.2,0,0.4,0,0.5l0,0.2l0,0.7c0,0.1,0,0.3,0,0.4c0,0.1,0,0.3,0,0.4l0.4,0c0.1-0.1,0.2-0.2,0.3-0.5c0.1-0.2,0.3-0.5,0.4-0.6
	c0.1,0,0.2,0.1,0.5,0.3c0.8,0.5,1.6,0.7,2.2,0.7c0.7,0,1.2-0.1,1.5-0.2c0.5-0.2,0.9-0.4,1.2-0.7c0.3-0.3,0.6-0.6,0.8-0.9
	c0.3-0.4,0.5-0.8,0.6-1.2s0.2-0.8,0.2-1.1C82.7,24.9,82.6,24.5,82.5,24.1z M80.4,26.8c0,0.3-0.1,0.6-0.3,0.9
	c-0.1,0.2-0.3,0.4-0.5,0.6c-0.1,0.1-0.3,0.2-0.6,0.4c-0.3,0.1-0.5,0.2-0.8,0.2c-0.4,0-0.7-0.1-1-0.3c-0.3-0.2-0.5-0.5-0.6-0.8
	c-0.1-0.3-0.1-1.2-0.1-2.8l0-1.4c0.1-0.1,0.3-0.2,0.7-0.4c0.4-0.1,0.7-0.2,0.9-0.2c0.4,0,0.8,0.1,1.2,0.4c0.4,0.2,0.6,0.6,0.8,1.1
	c0.2,0.5,0.3,1,0.3,1.5C80.5,26.1,80.5,26.4,80.4,26.8z"/>
<path class="st1" d="M89.4,29c-0.5,0.5-1.3,0.7-2.3,0.7c-0.1,0-0.5,0-1-0.1c-0.2,0-0.5-0.1-0.9-0.2c-0.1,0-0.3-0.1-0.7-0.3
	c-0.1,0-0.1-0.1-0.1-0.1c0,0-0.1-0.3-0.1-0.7c-0.1-0.7-0.1-1.2-0.2-1.3c0.2,0,0.3-0.1,0.4-0.1c0,0,0.1,0,0.2,0l0.1,0.1
	c0.3,0.6,0.5,0.9,0.6,1c0.2,0.2,0.4,0.4,0.6,0.6c0.1,0.1,0.4,0.2,0.6,0.3c0.2,0.1,0.4,0.1,0.6,0.1c0.4,0,0.7-0.1,1-0.4
	s0.4-0.5,0.4-0.8c0-0.2-0.1-0.4-0.2-0.5c-0.1-0.1-0.3-0.3-0.6-0.4c-0.1-0.1-0.5-0.2-1.1-0.3c-0.6-0.1-1-0.2-1.1-0.3
	c-0.3-0.1-0.5-0.3-0.7-0.4c-0.2-0.2-0.4-0.4-0.5-0.6c-0.2-0.3-0.2-0.6-0.2-0.9c0-0.5,0.1-0.8,0.2-1.1c0.1-0.3,0.3-0.5,0.6-0.8
	c0.2-0.2,0.4-0.3,0.8-0.5c0.3-0.1,0.7-0.2,1.1-0.2c0.6,0,1.1,0,1.5,0.1c0.4,0.1,0.8,0.2,1.1,0.3c0,0.1,0.1,0.5,0.2,0.9
	s0.1,0.8,0.1,0.9c0,0,0,0.1,0,0.1c-0.2,0-0.3,0.1-0.4,0.1c-0.1,0-0.1,0-0.3,0c-0.1-0.1-0.1-0.2-0.2-0.4c-0.3-0.5-0.6-0.9-0.9-1.1
	c-0.3-0.2-0.6-0.3-1-0.3c-0.4,0-0.8,0.1-1,0.4c-0.2,0.2-0.3,0.4-0.3,0.7c0,0.2,0.1,0.4,0.3,0.6c0.2,0.2,0.6,0.4,1.1,0.5
	c0.8,0.2,1.4,0.3,1.7,0.5c0.5,0.2,0.9,0.5,1.1,0.9c0.2,0.3,0.3,0.7,0.3,1.2C90.2,27.9,89.9,28.5,89.4,29z"/>
<path class="st1" d="M98,29c-0.6,0.4-1.4,0.7-2.3,0.7c-0.6,0-1.2-0.1-1.8-0.4s-1-0.6-1.4-1c-0.3-0.3-0.5-0.7-0.6-1.2
	s-0.2-0.8-0.2-1.2c0-0.4,0.1-0.8,0.2-1.3c0.2-0.5,0.4-1,0.8-1.4c0.4-0.4,0.9-0.8,1.5-1c0.6-0.3,1.3-0.4,2-0.4c1,0,1.7,0.2,2.2,0.5
	c0.4,0.3,0.6,0.6,0.6,1c0,0.3-0.1,0.6-0.2,0.7c-0.2,0.2-0.4,0.3-0.7,0.3c-0.2,0-0.5-0.1-0.7-0.2c-0.2-0.2-0.4-0.4-0.5-0.8
	c-0.1-0.3-0.2-0.5-0.4-0.6c-0.2-0.1-0.4-0.2-0.6-0.2c-0.6,0-1.1,0.2-1.5,0.7c-0.4,0.5-0.7,1.1-0.7,2c0,1,0.3,1.8,0.8,2.4
	c0.5,0.6,1.1,0.9,1.8,0.9c0.3,0,0.6,0,0.9-0.1c0.1-0.1,0.4-0.2,0.6-0.3c0.1,0,0.2-0.2,0.4-0.4c0.2-0.2,0.3-0.3,0.4-0.4
	c0.1,0.1,0.2,0.1,0.2,0.1c0.1,0.1,0.2,0.1,0.3,0.2C99,28,98.6,28.6,98,29z"/>
<path class="st1" d="M105.5,23.7c-0.2,0.2-0.4,0.3-0.7,0.3c-0.3,0-0.5-0.1-0.8-0.3c-0.2-0.1-0.3-0.2-0.4-0.2l-0.1,0
	c-0.1,0-0.2,0.2-0.3,0.3c-0.2,0.3-0.2,0.6-0.2,0.9l0,0.2c0,0.4,0,1.5,0.1,3.1c0,0.1,0.1,0.3,0.2,0.4c0.1,0.1,0.2,0.1,0.3,0.2
	c0.1,0,0.3,0.1,0.6,0.1c0.3,0,0.4,0.1,0.5,0.1s0.1,0.1,0.1,0.2c0,0.1,0,0.2-0.1,0.3h-0.8l-1.7-0.1c-0.4,0-0.8,0-1.2,0.1h-0.2
	c0,0-0.4,0-0.9,0c0-0.1,0-0.2,0-0.2c0,0,0-0.1,0-0.2c0.1-0.1,0.2-0.1,0.3-0.1c0.3-0.1,0.6-0.2,0.9-0.4c0.1-0.1,0.1-0.6,0.1-1.4
	c0-1.5,0-2.5-0.1-3c0-0.1-0.1-0.2-0.1-0.2c-0.1-0.1-0.4-0.1-0.6-0.2c-0.1,0-0.2-0.1-0.2-0.2l0-0.3c0.4-0.1,0.8-0.2,1.2-0.5
	c0.4-0.2,0.6-0.5,0.8-0.7c0.1-0.1,0.2-0.2,0.2-0.3l0.6,0c0,0.1,0,0.2,0,0.3c0,0.1,0,0.1,0,0.2c0,0.2,0,0.4,0,0.5c0,0.1,0,0.3,0,0.7
	c0.2-0.4,0.4-0.7,0.5-0.8c0.1-0.1,0.2-0.2,0.5-0.4c0.2-0.1,0.4-0.2,0.7-0.2c0.3,0,0.6,0.1,0.8,0.3c0.2,0.2,0.3,0.5,0.3,0.7
	S105.7,23.4,105.5,23.7z"/>
<path class="st1" d="M110.7,29.4c-0.2,0-0.3,0-0.4,0c-0.1,0-0.2,0-0.4,0c-0.6,0-1.4,0-2.4,0c-0.3,0-0.6,0-0.8,0c-0.3,0-0.5,0-0.6,0
	l0-0.6l1-0.1c0.1,0,0.3-0.1,0.3-0.2c0.1-0.1,0.1-0.3,0.1-0.5v-0.1c0-0.1,0-0.2,0-0.4s0-0.4,0-0.5c0-0.1,0-0.3,0-0.7l0-0.4l0-0.4
	l0-1.5c0-0.2,0-0.4-0.1-0.6c-0.1-0.1-0.2-0.2-0.4-0.2s-0.5-0.1-0.9-0.1v-0.5c0.6,0,1.2-0.2,1.6-0.4c0.3-0.1,0.7-0.4,1-0.8h0.6
	c0,0.7,0,1.7,0,2.9l-0.1,3.6c0,0.2,0,0.5,0,0.7c0.2,0.1,0.5,0.1,0.9,0.2c0.2,0,0.3,0.1,0.4,0.1L110.7,29.4z"/>
<path class="st1" d="M120.2,24.1c-0.2-0.6-0.5-1-0.8-1.3s-0.7-0.6-1.1-0.7s-0.9-0.2-1.4-0.2c-0.2,0-0.5,0-0.8,0.1
	c-0.2,0-0.4,0.1-0.6,0.2c-0.3,0.1-0.4,0.2-0.5,0.3c-0.3,0.2-0.5,0.4-0.7,0.6l0-1.3l-0.1-3.4l0-0.4c0-0.1,0-0.2,0-0.4
	c-0.1,0-0.2,0-0.3,0h-0.4c-0.8,0.4-1.3,0.7-1.5,0.7l-0.8,0.3v0.4c0.6,0.2,0.9,0.3,0.9,0.4s0.1,0.1,0.1,0.1c0,0.2,0.1,0.6,0.1,1.3
	v6.5c0,0.2,0,0.4,0,0.5l0,0.2l0,0.7c0,0.1,0,0.3,0,0.4c0,0.1,0,0.3,0,0.4l0.4,0c0.1-0.1,0.2-0.2,0.3-0.5c0.1-0.2,0.3-0.5,0.4-0.6
	c0.1,0,0.2,0.1,0.5,0.3c0.8,0.5,1.6,0.7,2.2,0.7c0.7,0,1.2-0.1,1.5-0.2c0.5-0.2,0.9-0.4,1.2-0.7c0.3-0.3,0.6-0.6,0.8-0.9
	c0.3-0.4,0.5-0.8,0.6-1.2s0.2-0.8,0.2-1.1C120.4,24.9,120.3,24.5,120.2,24.1z M118.2,26.8c0,0.3-0.1,0.6-0.3,0.9
	c-0.1,0.2-0.3,0.4-0.5,0.6c-0.1,0.1-0.3,0.2-0.6,0.4c-0.3,0.1-0.5,0.2-0.8,0.2c-0.4,0-0.7-0.1-1-0.3c-0.3-0.2-0.5-0.5-0.6-0.8
	c-0.1-0.3-0.1-1.2-0.1-2.8l0-1.4c0.1-0.1,0.3-0.2,0.7-0.4c0.4-0.1,0.7-0.2,0.9-0.2c0.4,0,0.8,0.1,1.2,0.4c0.4,0.2,0.6,0.6,0.8,1.1
	c0.2,0.5,0.3,1,0.3,1.5C118.2,26.1,118.2,26.4,118.2,26.8z"/>
<path class="st1" d="M128.5,27.6c-0.3,0.2-0.6,0.4-0.8,0.5c-0.2,0.1-0.5,0.2-0.8,0.2c-0.2,0-0.5,0-0.9,0l-0.5-0.2
	c-0.2-0.1-0.5-0.2-0.7-0.4c-0.2-0.2-0.4-0.4-0.6-0.7c-0.2-0.3-0.3-0.6-0.3-0.9c-0.1-0.3-0.1-0.7-0.1-1c0-0.1,0-0.1,0-0.2h0.8
	c0.6,0,0.9,0,1,0c0.1,0,0.4,0,0.7,0c0.9,0.1,1.5,0.1,1.8,0.1l1,0c0-0.5-0.1-0.8-0.2-1.2c-0.1-0.3-0.3-0.6-0.5-0.8
	c-0.2-0.2-0.5-0.5-0.8-0.7c-0.2-0.2-0.5-0.3-0.9-0.4c-0.3-0.1-0.8-0.1-1.4-0.1c-0.2,0-0.6,0.1-1,0.2c-0.3,0.1-0.6,0.3-1,0.5
	c-0.4,0.3-0.7,0.7-1.1,1.1c-0.1,0.2-0.3,0.5-0.4,1c-0.1,0.4-0.1,0.9-0.1,1.4c0,0.3,0.1,0.6,0.2,1.1c0.1,0.3,0.3,0.7,0.5,1
	s0.5,0.6,0.8,0.8s0.7,0.4,1.1,0.5c0.3,0.1,0.7,0.1,1.2,0.1c0.7,0,1.3-0.1,1.9-0.4s1.1-0.7,1.6-1.3C128.9,27.9,128.7,27.7,128.5,27.6
	z M124.3,22.9c0.3-0.4,0.7-0.5,1.1-0.5c0.3,0,0.5,0.1,0.8,0.3c0.3,0.2,0.5,0.4,0.6,0.7c0.1,0.3,0.2,0.6,0.2,1c-0.1,0-0.2,0-0.2,0
	c-0.1,0-0.2,0-0.4,0c-0.2,0-0.4,0-0.6,0l-2,0C123.8,23.8,124,23.3,124.3,22.9z"/>
</svg>
