<?xml version="1.0" encoding="utf-8"?>
<!-- Generator: Adobe Illustrator 21.0.0, SVG Export Plug-In . SVG Version: 6.00 Build 0)  -->
<svg version="1.1" id="Layer_1" xmlns="http://www.w3.org/2000/svg" xmlns:xlink="http://www.w3.org/1999/xlink" x="0px" y="0px"
	 viewBox="0 0 136.2 47.2" style="enable-background:new 0 0 136.2 47.2;" xml:space="preserve">
<style type="text/css">
	.st0{fill:#0E2635;}
</style>
<g>
	<path class="st0" d="M117,23.3c-0.4-0.2-0.8-0.4-1.2-0.4c-0.3,0-0.6,0.1-0.9,0.2c-0.4,0.1-0.6,0.3-0.7,0.4l0,1.4
		c0,1.5,0,2.5,0.1,2.8c0.1,0.3,0.3,0.6,0.6,0.8c0.3,0.2,0.7,0.3,1,0.3c0.3,0,0.5-0.1,0.8-0.2c0.3-0.1,0.5-0.2,0.6-0.4
		c0.2-0.2,0.4-0.4,0.5-0.6c0.2-0.3,0.3-0.7,0.3-0.9c0.1-0.4,0.1-0.7,0.1-0.9c0-0.5-0.1-1-0.3-1.5C117.7,23.9,117.4,23.6,117,23.3z"
		/>
	<path class="st0" d="M79.3,23.3C79,23.1,78.6,23,78.2,23c-0.3,0-0.6,0.1-0.9,0.2c-0.4,0.1-0.6,0.3-0.7,0.4l0,1.4
		c0,1.5,0,2.5,0.1,2.8c0.1,0.3,0.3,0.6,0.6,0.8c0.3,0.2,0.7,0.3,1,0.3c0.3,0,0.5-0.1,0.8-0.2c0.3-0.1,0.5-0.2,0.6-0.4
		c0.2-0.2,0.4-0.4,0.5-0.6c0.2-0.3,0.3-0.7,0.3-0.9c0.1-0.4,0.1-0.7,0.1-0.9c0-0.5-0.1-1-0.3-1.5C80,23.9,79.7,23.6,79.3,23.3z"/>
	<path class="st0" d="M126.3,24.3c0.2,0,0.3,0,0.4,0c0.1,0,0.1,0,0.2,0c0-0.3-0.1-0.7-0.2-1c-0.1-0.3-0.3-0.5-0.6-0.7
		c-0.3-0.2-0.5-0.3-0.8-0.3c-0.4,0-0.8,0.2-1.1,0.5c-0.3,0.4-0.5,0.8-0.5,1.4l2,0C125.9,24.4,126.1,24.4,126.3,24.3z"/>
	<path class="st0" d="M1,1v45.2h134.1V1H1z M107.6,18c0.2-0.2,0.5-0.3,0.8-0.3c0.4,0,0.6,0.1,0.9,0.3s0.3,0.5,0.3,0.7
		c0,0.2,0,0.4-0.1,0.6c-0.1,0.2-0.2,0.4-0.4,0.5s-0.4,0.2-0.6,0.2c-0.3,0-0.5-0.1-0.8-0.4s-0.4-0.5-0.4-0.9
		C107.3,18.5,107.4,18.2,107.6,18z M33.4,17.3l-9.9,8.4l-9.9-8.4H33.4z M12.8,17.8l7.4,6.3L12.8,30V17.8z M13.6,30.5l7.3-5.7
		l2.5,2.2l2.5-2.2l7.3,5.7H13.6z M34.2,30l-7.4-5.8l7.4-6.3V30z M47.2,35.6h-1v-23h1V35.6z M62.2,27.5c-0.1,0.3-0.3,0.6-0.5,0.8
		c-0.2,0.2-0.5,0.4-0.8,0.6s-0.8,0.4-1.2,0.5c-0.4,0.1-0.9,0.2-1.5,0.2c-0.4,0-0.9-0.1-1.5-0.2l-1.1-0.3C55.2,29,55,29,54.9,28.9
		c0,0-0.1-0.1-0.1-0.2v-0.1c0-0.1,0-0.5,0-1.2c0-0.4,0-0.7,0-0.8v-0.3l0.8,0c0.3,0.7,0.5,1.1,0.6,1.2c0.2,0.3,0.4,0.6,0.6,0.7
		c0.2,0.2,0.5,0.3,0.8,0.4c0.3,0.1,0.6,0.2,1,0.2c0.3,0,0.7-0.1,1.1-0.2s0.7-0.4,0.9-0.7c0.2-0.3,0.4-0.6,0.4-1
		c0-0.4-0.2-0.8-0.6-1.2c-0.2-0.2-0.9-0.5-2-0.9c-1.1-0.4-1.9-0.7-2.3-1c-0.4-0.3-0.8-0.7-1-1.2c-0.2-0.5-0.4-1-0.4-1.5
		c0-0.9,0.3-1.8,1-2.4c0.7-0.7,1.7-1,3-1c0.3,0,0.7,0.1,1.3,0.2c0.3,0.1,0.8,0.2,1.3,0.4c0.1,0.2,0.1,0.5,0.2,0.9
		c0.1,0.6,0.1,1.1,0.1,1.4c0,0.1,0,0.2,0,0.3l-0.1,0l-0.6,0l-0.1,0c-0.3-0.8-0.5-1.3-0.8-1.6c-0.5-0.5-1-0.7-1.6-0.7
		c-0.6,0-1,0.2-1.4,0.5s-0.5,0.7-0.5,1.1c0,0.4,0.2,0.7,0.5,1.1c0.3,0.4,1,0.7,2.1,1c0.4,0.1,0.8,0.3,1.3,0.5s0.9,0.5,1.2,0.8
		c0.4,0.4,0.6,0.7,0.7,1.1s0.2,0.8,0.2,1.3C62.5,26.4,62.4,26.9,62.2,27.5z M72.9,29c-0.3,0-0.5,0-0.7,0.1c-0.6,0.1-1.3,0.4-2.1,0.6
		l-0.4,0l0-1.5c-0.1,0.1-0.2,0.2-0.3,0.3c-0.5,0.5-1,0.8-1.3,0.9c-0.4,0.2-0.8,0.2-1.2,0.2c-0.5,0-0.9-0.1-1.3-0.3
		c-0.4-0.2-0.6-0.5-0.8-0.7c-0.1-0.2-0.2-0.6-0.2-1c0-0.1,0-0.7,0-1.7l0-0.3c0-0.6,0-1,0-1.3c0-0.5,0-0.8,0-1c0-0.1,0-0.2-0.1-0.3
		c-0.1,0-0.2-0.1-0.3-0.1c-0.4-0.1-0.6-0.1-0.7-0.2c0,0,0-0.1,0-0.1c0,0,0-0.1,0-0.1c0-0.1,0-0.2,0-0.3c0.1,0,0.1,0,0.2-0.1h2.7
		l0.2,0l0,0.6l0,0.9l0,0.5l0,1.3v0.9c0,0.6,0,1.1,0.1,1.4c0.1,0.3,0.2,0.5,0.4,0.6c0.2,0.1,0.4,0.2,0.7,0.2c0.3,0,0.5,0,0.7-0.1
		c0.2-0.1,0.4-0.2,0.6-0.3c0.2-0.1,0.4-0.3,0.4-0.3c0.2-0.2,0.3-0.4,0.4-0.5l0.1-2.2c0-0.2,0-0.4,0-0.6c0-0.2,0-0.3,0-0.6
		s0-0.4,0-0.4l0-0.3l0-0.2c-0.1-0.1-0.3-0.1-0.6-0.2l-0.6,0c0,0-0.1,0-0.1-0.1c0-0.1,0-0.2,0-0.3c0-0.1,0-0.2,0-0.3
		c0.2,0,0.4,0,0.5,0l1.4,0c0.4,0,0.8,0,1.4,0l0,0.7l0,0.9l0,1.1l0,1.5l0,0.7l0,0.5c0,0.3,0,0.5,0,0.5c0,0.1,0,0.3,0.1,0.3
		c0.1,0.1,0.1,0.1,0.2,0.1l0.8,0l0.1,0c0,0.2,0,0.3,0,0.4C72.9,28.8,72.9,28.9,72.9,29z M82.4,26.6c-0.1,0.4-0.3,0.8-0.6,1.2
		c-0.2,0.3-0.5,0.6-0.8,0.9c-0.3,0.3-0.7,0.5-1.2,0.7c-0.3,0.1-0.8,0.2-1.5,0.2c-0.7,0-1.4-0.2-2.2-0.7c-0.2-0.1-0.4-0.2-0.5-0.3
		c-0.1,0.2-0.3,0.4-0.4,0.6c-0.1,0.2-0.2,0.4-0.3,0.5l-0.4,0c0-0.1,0-0.3,0-0.4c0-0.1,0-0.3,0-0.4l0-0.7l0-0.2c0-0.1,0-0.3,0-0.5
		v-6.5c0-0.7,0-1.1-0.1-1.3c0-0.1,0-0.1-0.1-0.1s-0.3-0.1-0.9-0.4v-0.4l0.8-0.3c0.2-0.1,0.7-0.3,1.5-0.7h0.4c0.1,0,0.2,0,0.3,0
		c0,0.2,0,0.3,0,0.4l0,0.4l0.1,3.4l0,1.3c0.2-0.2,0.4-0.4,0.7-0.6c0.1,0,0.2-0.1,0.5-0.3c0.3-0.1,0.5-0.2,0.6-0.2
		c0.3-0.1,0.5-0.1,0.8-0.1c0.6,0,1.1,0.1,1.4,0.2s0.7,0.4,1.1,0.7s0.6,0.8,0.8,1.3c0.1,0.4,0.2,0.8,0.2,1.3
		C82.6,25.8,82.6,26.2,82.4,26.6z M89.3,29c-0.5,0.5-1.3,0.7-2.3,0.7c-0.1,0-0.5,0-1-0.1c-0.2,0-0.5-0.1-0.9-0.2
		c-0.1,0-0.3-0.1-0.7-0.3c-0.1,0-0.1-0.1-0.1-0.1c0,0-0.1-0.3-0.1-0.7c-0.1-0.7-0.1-1.2-0.2-1.3c0.2,0,0.3-0.1,0.4-0.1
		c0,0,0.1,0,0.2,0l0.1,0.1c0.3,0.6,0.5,0.9,0.6,1c0.2,0.2,0.4,0.4,0.6,0.6c0.1,0.1,0.4,0.2,0.6,0.3C86.8,29,87,29,87.3,29
		c0.4,0,0.7-0.1,1-0.4s0.4-0.5,0.4-0.8c0-0.2-0.1-0.4-0.2-0.5c-0.1-0.1-0.3-0.3-0.6-0.4c-0.1-0.1-0.5-0.2-1.1-0.3
		c-0.6-0.1-1-0.2-1.1-0.3c-0.3-0.1-0.5-0.3-0.7-0.4c-0.2-0.2-0.4-0.4-0.5-0.6c-0.2-0.3-0.2-0.6-0.2-0.9c0-0.5,0.1-0.8,0.2-1.1
		c0.1-0.3,0.3-0.5,0.6-0.8c0.2-0.2,0.4-0.3,0.8-0.5c0.3-0.1,0.7-0.2,1.1-0.2c0.6,0,1.1,0,1.5,0.1c0.4,0.1,0.8,0.2,1.1,0.3
		c0,0.1,0.1,0.5,0.2,0.9s0.1,0.8,0.1,0.9c0,0,0,0.1,0,0.1c-0.2,0-0.3,0.1-0.4,0.1c-0.1,0-0.1,0-0.3,0c-0.1-0.1-0.1-0.2-0.2-0.4
		c-0.3-0.5-0.6-0.9-0.9-1.1c-0.3-0.2-0.6-0.3-1-0.3c-0.4,0-0.8,0.1-1,0.4c-0.2,0.2-0.3,0.4-0.3,0.7c0,0.2,0.1,0.4,0.3,0.6
		c0.2,0.2,0.6,0.4,1.1,0.5c0.8,0.2,1.4,0.3,1.7,0.5c0.5,0.2,0.9,0.5,1.1,0.9c0.2,0.3,0.3,0.7,0.3,1.2C90.1,27.9,89.9,28.5,89.3,29z
		 M97.9,29c-0.6,0.4-1.4,0.7-2.3,0.7c-0.6,0-1.2-0.1-1.8-0.4s-1-0.6-1.4-1c-0.3-0.3-0.5-0.7-0.6-1.2s-0.2-0.8-0.2-1.2
		c0-0.4,0.1-0.8,0.2-1.3c0.2-0.5,0.4-1,0.8-1.4c0.4-0.4,0.9-0.8,1.5-1c0.6-0.3,1.3-0.4,2-0.4c1,0,1.7,0.2,2.2,0.5
		c0.4,0.3,0.6,0.6,0.6,1c0,0.3-0.1,0.6-0.2,0.7c-0.2,0.2-0.4,0.3-0.7,0.3c-0.2,0-0.5-0.1-0.7-0.2c-0.2-0.2-0.4-0.4-0.5-0.8
		c-0.1-0.3-0.2-0.5-0.4-0.6c-0.2-0.1-0.4-0.2-0.6-0.2c-0.6,0-1.1,0.2-1.5,0.7c-0.4,0.5-0.7,1.1-0.7,2c0,1,0.3,1.8,0.8,2.4
		c0.5,0.6,1.1,0.9,1.8,0.9c0.3,0,0.6,0,0.9-0.1c0.1-0.1,0.4-0.2,0.6-0.3c0.1,0,0.2-0.2,0.4-0.4c0.2-0.2,0.3-0.3,0.4-0.4
		c0.1,0.1,0.2,0.1,0.2,0.1c0.1,0.1,0.2,0.1,0.3,0.2C98.9,28,98.5,28.6,97.9,29z M105.5,23.7c-0.2,0.2-0.4,0.3-0.7,0.3
		c-0.3,0-0.5-0.1-0.8-0.3c-0.2-0.1-0.3-0.2-0.4-0.2l-0.1,0c-0.1,0-0.2,0.2-0.3,0.3c-0.2,0.3-0.2,0.6-0.2,0.9l0,0.2
		c0,0.4,0,1.5,0.1,3.1c0,0.1,0.1,0.3,0.2,0.4c0.1,0.1,0.2,0.1,0.3,0.2c0.1,0,0.3,0.1,0.6,0.1c0.3,0,0.4,0.1,0.5,0.1s0.1,0.1,0.1,0.2
		c0,0.1,0,0.2-0.1,0.3h-0.8l-1.7-0.1c-0.4,0-0.8,0-1.2,0.1h-0.2c0,0-0.4,0-0.9,0c0-0.1,0-0.2,0-0.2c0,0,0-0.1,0-0.2
		c0.1-0.1,0.2-0.1,0.3-0.1c0.3-0.1,0.6-0.2,0.9-0.4c0.1-0.1,0.1-0.6,0.1-1.4c0-1.5,0-2.5-0.1-3c0-0.1-0.1-0.2-0.1-0.2
		c-0.1-0.1-0.4-0.1-0.6-0.2c-0.1,0-0.2-0.1-0.2-0.2l0-0.3c0.4-0.1,0.8-0.2,1.2-0.5c0.4-0.2,0.6-0.5,0.8-0.7c0.1-0.1,0.2-0.2,0.2-0.3
		l0.6,0c0,0.1,0,0.2,0,0.3c0,0.1,0,0.1,0,0.2c0,0.2,0,0.4,0,0.5c0,0.1,0,0.3,0,0.7c0.2-0.4,0.4-0.7,0.5-0.8c0.1-0.1,0.2-0.2,0.5-0.4
		c0.2-0.1,0.4-0.2,0.7-0.2c0.3,0,0.6,0.1,0.8,0.3c0.2,0.2,0.3,0.5,0.3,0.7S105.7,23.4,105.5,23.7z M110.6,29.4c-0.2,0-0.3,0-0.4,0
		c-0.1,0-0.2,0-0.4,0c-0.6,0-1.4,0-2.4,0c-0.3,0-0.6,0-0.8,0c-0.3,0-0.5,0-0.6,0l0-0.6l1-0.1c0.1,0,0.3-0.1,0.3-0.2
		c0.1-0.1,0.1-0.3,0.1-0.5v-0.1c0-0.1,0-0.2,0-0.4s0-0.4,0-0.5c0-0.1,0-0.3,0-0.7l0-0.4l0-0.4l0-1.5c0-0.2,0-0.4-0.1-0.6
		c-0.1-0.1-0.2-0.2-0.4-0.2s-0.5-0.1-0.9-0.1v-0.5c0.6,0,1.2-0.2,1.6-0.4c0.3-0.1,0.7-0.4,1-0.8h0.6c0,0.7,0,1.7,0,2.9l-0.1,3.6
		c0,0.2,0,0.5,0,0.7c0.2,0.1,0.5,0.1,0.9,0.2c0.2,0,0.3,0.1,0.4,0.1L110.6,29.4z M120.2,26.6c-0.1,0.4-0.3,0.8-0.6,1.2
		c-0.2,0.3-0.5,0.6-0.8,0.9c-0.3,0.3-0.7,0.5-1.2,0.7c-0.3,0.1-0.8,0.2-1.5,0.2c-0.7,0-1.4-0.2-2.2-0.7c-0.2-0.1-0.4-0.2-0.5-0.3
		c-0.1,0.2-0.3,0.4-0.4,0.6c-0.1,0.2-0.2,0.4-0.3,0.5l-0.4,0c0-0.1,0-0.3,0-0.4c0-0.1,0-0.3,0-0.4l0-0.7l0-0.2c0-0.1,0-0.3,0-0.5
		v-6.5c0-0.7,0-1.1-0.1-1.3c0-0.1,0-0.1-0.1-0.1s-0.3-0.1-0.9-0.4v-0.4l0.8-0.3c0.2-0.1,0.7-0.3,1.5-0.7h0.4c0.1,0,0.2,0,0.3,0
		c0,0.2,0,0.3,0,0.4l0,0.4l0.1,3.4l0,1.3c0.2-0.2,0.4-0.4,0.7-0.6c0.1,0,0.2-0.1,0.5-0.3c0.3-0.1,0.5-0.2,0.6-0.2
		c0.3-0.1,0.5-0.1,0.8-0.1c0.6,0,1.1,0.1,1.4,0.2s0.7,0.4,1.1,0.7s0.6,0.8,0.8,1.3c0.1,0.4,0.2,0.8,0.2,1.3
		C120.3,25.8,120.3,26.2,120.2,26.6z M127.3,29.3c-0.6,0.3-1.2,0.4-1.9,0.4c-0.5,0-0.9,0-1.2-0.1c-0.4-0.1-0.8-0.3-1.1-0.5
		s-0.6-0.5-0.8-0.8s-0.4-0.7-0.5-1c-0.1-0.5-0.2-0.8-0.2-1.1c0-0.5,0-1,0.1-1.4c0.2-0.5,0.3-0.8,0.4-1c0.3-0.5,0.7-0.9,1.1-1.1
		c0.4-0.3,0.7-0.5,1-0.5c0.4-0.1,0.7-0.2,1-0.2c0.6,0,1,0,1.4,0.1c0.3,0.1,0.6,0.2,0.9,0.4c0.3,0.2,0.6,0.5,0.8,0.7
		c0.2,0.2,0.4,0.5,0.5,0.8c0.1,0.3,0.2,0.7,0.2,1.2l-1,0c-0.3,0-0.9,0-1.8-0.1c-0.3,0-0.6,0-0.7,0c0,0-0.4,0-1,0h-0.8
		c0,0.1,0,0.2,0,0.2c0,0.3,0,0.6,0.1,1c0.1,0.3,0.2,0.7,0.3,0.9c0.2,0.3,0.3,0.5,0.6,0.7c0.2,0.2,0.5,0.3,0.7,0.4l0.5,0.2
		c0.5,0,0.8,0,0.9,0c0.3-0.1,0.5-0.1,0.8-0.2c0.2-0.1,0.5-0.2,0.8-0.5c0.2,0.2,0.4,0.3,0.5,0.4C128.4,28.6,127.9,29,127.3,29.3z"/>
</g>
</svg>
