<?xml version="1.0" encoding="utf-8"?>
<!-- Generator: Adobe Illustrator 21.0.0, SVG Export Plug-In . SVG Version: 6.00 Build 0)  -->
<svg version="1.1" id="Layer_1" xmlns="http://www.w3.org/2000/svg" xmlns:xlink="http://www.w3.org/1999/xlink" x="0px" y="0px"
	 viewBox="0 0 204 79.5" style="enable-background:new 0 0 204 79.5;" xml:space="preserve">
<style type="text/css">
	.st0{fill:#F9F1DD;}
</style>
<g>
	<path class="st0" d="M41.1,37.1l-1.1,3c1.2,0,1.9,0,2.2,0l0.2,0c-0.2-0.5-0.4-1-0.6-1.6S41.3,37.5,41.1,37.1z"/>
	<path class="st0" d="M122.9,38c0,0,0-0.1-0.1-0.3c-0.2-0.9-0.6-1.5-1.1-2c-0.5-0.4-1.2-0.7-2-0.7c-0.5,0-0.9,0.1-1.2,0.3
		s-0.6,0.4-0.8,0.7c-0.3,0.4-0.5,0.9-0.6,1.4c-0.1,0.5-0.2,1.1-0.2,1.9c0,0.4,0,0.8,0.1,1c0,0.1,0,0.2,0,0.3c0,0.4,0.1,0.7,0.2,0.8
		c0.2,0.7,0.4,1.1,0.5,1.2c0.2,0.3,0.4,0.5,0.7,0.8c0.2,0.1,0.4,0.3,0.7,0.4c0.3,0.1,0.6,0.2,0.9,0.2c0.6,0,1.1-0.1,1.6-0.4
		c0.5-0.3,0.9-0.7,1.2-1.3c0.3-0.6,0.4-1.5,0.4-2.5c0-0.4,0-1-0.1-1.7L122.9,38z"/>
	<path class="st0" d="M95.4,38c0,0,0-0.1-0.1-0.3c-0.2-0.9-0.6-1.5-1.1-2c-0.5-0.4-1.2-0.7-2-0.7c-0.5,0-0.9,0.1-1.2,0.3
		s-0.6,0.4-0.8,0.7c-0.3,0.4-0.5,0.9-0.6,1.4c-0.1,0.5-0.2,1.1-0.2,1.9c0,0.4,0,0.8,0.1,1c0,0.1,0,0.2,0,0.3c0,0.4,0.1,0.7,0.2,0.8
		c0.2,0.7,0.4,1.1,0.5,1.2c0.2,0.3,0.4,0.5,0.7,0.8c0.2,0.1,0.4,0.3,0.7,0.4c0.3,0.1,0.6,0.2,0.9,0.2c0.6,0,1.1-0.1,1.6-0.4
		c0.5-0.3,0.9-0.7,1.2-1.3c0.3-0.6,0.4-1.5,0.4-2.5c0-0.4,0-1-0.1-1.7L95.4,38z"/>
	<path class="st0" d="M0,0v79.5h204V0H0z M17.6,35c-0.2,0.1-0.4,0.1-0.7,0.2c-0.3,0.1-0.5,0.1-0.7,0.2c0,0.1,0,0.3,0,0.6
		c0,0.2,0,0.4,0,0.5c0,0.9,0,1.6,0,2l0,2.1l0,1l0,1.6l0,0.3c0,0,0,0.1,0,0.2c0.3,0.1,0.6,0.1,0.9,0.1c0,0,0.2,0,0.5,0.1
		c0,0.2,0,0.3,0,0.4c0,0.1,0,0.1,0,0.3c-0.1,0-0.1,0-0.2,0c-0.2,0-0.3,0-0.3,0c0,0-0.1,0-0.2,0c-0.1,0-0.4,0-1-0.1l-1.4,0
		c-0.3,0-0.7,0-1.2,0.1c-0.3,0-0.6,0-0.7,0.1V44c0.1,0,0.3-0.1,0.5-0.1c0.3-0.1,0.6-0.2,0.8-0.3c0.1-0.2,0.1-0.4,0.1-0.7l0-0.9
		l0-1.8l0-0.4c0-1,0.1-1.6,0.1-1.6l0-1l0-0.4l0-0.9l0-0.3c0-0.1,0-0.1-0.1-0.2c-0.2-0.1-0.6-0.2-1-0.2c-0.1,0-0.2,0-0.3,0l0-0.7
		l2.2,0.1c0.3,0,0.4,0,0.5,0c0.3,0,0.8,0,1.5-0.1c0.4,0,0.6,0,0.7,0c0,0.1,0,0.2,0,0.2C17.6,34.7,17.6,34.8,17.6,35z M35.8,35.9
		c-0.5,1.2-0.9,2.4-1.4,3.5c-0.5,1.1-1.2,2.9-2.2,5.4l-0.8,0c-0.1-0.2-0.1-0.3-0.2-0.5c-0.2-0.3-0.2-0.6-0.3-0.6l-0.9-2
		c-0.1-0.3-0.3-0.6-0.3-0.7c0,0,0-0.1-0.1-0.1c0,0-0.3,0.5-0.8,1.6c-0.5,1-0.9,1.8-1.2,2.4l-0.8,0c-0.2-0.6-0.6-1.5-1.1-2.6
		l-2.5-5.9c-0.3-0.6-0.5-1-0.6-1.1c0,0-0.1-0.1-0.2-0.1c0,0-0.1,0-0.2-0.1l0-0.5c0.1,0,0.1,0,0.1,0c0.4,0,0.9,0,1.3,0.1
		c0.2,0,0.3,0,0.3,0c0.2,0,0.4,0,0.7,0l1,0c0,0,0.1,0,0.1,0.1l-0.1,0.4c-0.1,0.1-0.2,0.1-0.3,0.2c-0.2,0.1-0.3,0.2-0.3,0.3
		c0,0.1,0,0.2,0.1,0.3c0,0.1,0.1,0.2,0.1,0.3c0.1,0.3,0.3,0.9,0.8,1.9l2,4.7c0.3-0.5,0.7-1.3,1.2-2.5l-1.1-2.8
		c-0.2-0.5-0.4-0.9-0.6-1.3c-0.1-0.1-0.1-0.2-0.1-0.3c0-0.1-0.1-0.1-0.1-0.2s-0.1-0.2-0.2-0.2c-0.1-0.1-0.4-0.1-0.8-0.2l0-0.5
		c0.2,0,0.4,0,0.7,0c0.4,0,0.7,0,0.8,0l1.1,0l1.4-0.1c0,0,0.1,0,0.1,0l0,0.3v0.1c0,0,0,0.1,0,0.1c-0.1,0-0.2,0-0.4,0.1
		c-0.1,0-0.2,0-0.3,0.1s-0.1,0.1-0.1,0.2c0,0.2,0.1,0.3,0.2,0.6c0,0.1,0.1,0.2,0.2,0.5c0.3,0.7,0.5,1.2,0.6,1.5l0.5-1.1
		c0.2-0.5,0.4-0.9,0.5-1.1c0-0.1,0-0.1,0-0.1v0c-0.1-0.1-0.1-0.1-0.2-0.1c-0.1-0.1-0.4-0.1-0.7-0.2c0-0.1,0-0.2,0-0.2
		c0-0.1,0-0.1,0-0.3c0.2,0,0.7,0,1.5,0c0.5,0,0.8,0,0.9,0c0.1,0,0.2,0,0.3,0c0.1,0,0.2,0,0.3,0l0,0.1l0,0.4l0,0
		c-0.6,0.2-0.9,0.3-1,0.4c-0.1,0.1-0.2,0.2-0.3,0.4c-0.3,0.5-0.7,1.4-1.4,2.9l0,0.1l0.5,1.2l0.9,2c0.1,0.2,0.2,0.3,0.2,0.4l1-2.6
		l1.4-3.5l0.2-0.7c0,0,0-0.1,0-0.1l0-0.1c-0.2-0.1-0.3-0.1-0.4-0.1c-0.1,0-0.2-0.1-0.3-0.1c0-0.2,0-0.3,0-0.3c0,0,0-0.1,0.1-0.2
		l0.1,0l1.2,0l0.8,0l0.2,0c0,0.1,0,0.2,0,0.2c0,0.1,0,0.2-0.1,0.2c0,0-0.1,0.1-0.2,0.1c-0.2,0.1-0.4,0.2-0.4,0.3
		C36,35.4,35.9,35.6,35.8,35.9z M47.3,44.5c-0.4,0-0.8,0-1.3-0.1c-0.5,0-0.9-0.1-1.2-0.1c-0.4,0-0.7,0-0.9,0l-1.3,0.1l-0.4,0
		c0-0.2,0-0.4,0-0.5l0.9-0.2c0.3-0.1,0.4-0.1,0.5-0.2c0.1-0.1,0.1-0.1,0.1-0.2c0-0.1,0-0.1,0-0.2l-0.3-0.8L42.6,41l-3,0
		c-0.1,0.2-0.3,0.9-0.7,1.8c-0.1,0.3-0.1,0.5-0.1,0.6c0,0.1,0,0.2,0.1,0.3c0.1,0.1,0.3,0.2,0.7,0.2c0,0,0.2,0,0.6,0.1
		c0,0.2,0,0.3,0,0.4c0,0.1,0,0.1,0,0.2c-0.3,0-1.1,0-2.3-0.1l-0.3,0.1c-0.4,0.1-0.8,0.1-1.1,0.1h-0.1l0-0.5c0.1,0,0.3-0.1,0.5-0.1
		c0.4-0.1,0.6-0.1,0.7-0.2s0.2-0.2,0.3-0.5l1.6-4.1l1.9-4.9c0.2,0,0.3,0,0.5,0h0.4l0.1,0.1l1.4,3.2c0.3,0.7,0.6,1.3,0.8,2
		c0.2,0.6,0.5,1.2,0.6,1.6c0.1,0.2,0.2,0.6,0.4,1.1c0.1,0.3,0.2,0.6,0.4,1c0.1,0.2,0.2,0.3,0.2,0.4c0.1,0.1,0.2,0.1,0.5,0.2
		c0.2,0,0.4,0.1,0.7,0.2c0,0.2,0,0.3,0,0.4C47.3,44.4,47.3,44.5,47.3,44.5z M59.7,35.1c-0.3,0.1-0.5,0.1-0.6,0.2
		c-0.3,0.2-0.4,0.2-0.4,0.3c0,0.1-0.1,0.2-0.1,0.3c0,0,0,0.1,0,0.3c0,0.1,0,0.3,0,0.7c0,0.8,0,1.4,0.1,1.8c0,0.1,0,0.3,0,0.5
		l0.1,2.7c0,0.2,0,0.3,0,0.4v1l0,0.4l0,0.4c0,0.2,0,0.3,0,0.4v0.4l-0.9,0l-0.9-1L55.1,42l-1.3-1.3l-1-1C52.1,39,51.6,38.5,51,38
		l-1.3-1.1l0.1,2.9c0,0.2,0,0.4,0,0.5l0,0.6l0,1c0,0.4,0,0.9,0.1,1.4c0,0.1,0,0.2,0,0.3s0,0.1,0.1,0.2c0.2,0.1,0.6,0.1,1.3,0.2
		c0,0,0.1,0,0.2,0.1l0,0.6l-0.3,0c-0.2,0-0.7,0-1.6-0.1c-0.8,0-1.4,0-1.7,0c-0.3,0-0.4,0-0.5,0c-0.1,0-0.1,0-0.3,0
		c0-0.1,0-0.2,0-0.3c0-0.1,0-0.2,0-0.3c0.1,0,0.3,0,0.4,0c0,0,0.1,0,0.3,0c0.4,0,0.7,0,0.8-0.1c0.1-0.1,0.1-0.2,0.1-0.5
		c0-0.8,0.1-1.3,0.1-1.5v-0.4l0-2.5l0-1.6c0-0.6,0-1-0.1-1.3c0-0.1-0.1-0.2-0.2-0.3c-0.2-0.2-0.4-0.3-0.6-0.4
		c-0.1-0.1-0.5-0.1-1.1-0.2l0-0.5h0.7l0.2,0c0.3,0,0.5,0,0.6,0c0.1,0,0.2,0,0.5,0c0.1,0,0.1,0,0.2,0s0.2,0,0.5,0c0.3,0,0.4,0,0.5,0
		c0.1,0,0.1,0,0.2,0c0.8,0.7,1.5,1.4,2,1.9c0.5,0.5,2.3,2.4,5.5,5.5v-0.2l0-0.9c0-0.5,0-1-0.1-1.3c0-0.3,0-0.7,0-1.1
		c0-0.4,0-0.8-0.1-1.2c-0.1-0.7-0.1-1.1-0.1-1.2c0-0.3,0-0.5-0.1-0.6c-0.1-0.1-0.4-0.2-0.8-0.3c-0.3,0-0.5-0.1-0.6-0.2l0-0.5l0.2,0
		l1.5,0l1.7,0c0.1,0,0.2,0,0.3,0l0,0.5C59.9,35,59.8,35,59.7,35.1z M71,36.7c0,0.1,0,0.3,0,0.4c-0.2,0.1-0.4,0.1-0.6,0.1
		c-0.1-0.2-0.3-0.5-0.4-0.9c-0.2-0.4-0.3-0.6-0.3-0.6c-0.1-0.1-0.1-0.1-0.2-0.1c-0.1,0-0.7,0-1.7,0c-0.1,0-0.3,0-0.5,0
		c0,0.2,0,0.4,0,0.5l0,1v2.3l0,2.5l0,1c0,0.4,0,0.6,0.1,0.8c0.1,0,0.2,0.1,0.5,0.1c0,0,0.2,0,0.6,0.1c0.2,0,0.3,0.1,0.4,0.1
		c0,0.2,0,0.3,0,0.3c0,0,0,0.1,0,0.2c-0.1,0-0.2,0-0.3,0c-0.5,0-1,0-1.4-0.1s-1.1-0.1-2-0.1c-0.2,0-0.6,0-1.4,0.1
		c-0.3,0-0.5,0-0.6,0c0-0.1,0-0.1,0-0.2l0-0.2v-0.1c0.1-0.2,0.3-0.3,0.6-0.3c0.5-0.1,0.9-0.2,1.1-0.4c0.1-0.1,0.1-0.2,0.1-0.4
		c0-0.6,0.1-1.6,0.1-3l0-3c0-0.8,0-1.3,0-1.5c0,0,0-0.1-0.1-0.1c0,0-0.1,0-0.1,0c-0.2,0-0.7,0-1.6,0c-0.5,0-0.8,0-1,0.1
		c-0.2,0.1-0.6,0.5-1,1.1c-0.1,0.2-0.2,0.2-0.3,0.2c-0.2-0.1-0.4-0.2-0.5-0.3c0.2-0.3,0.4-1,0.7-2c0.1-0.3,0.1-0.5,0.2-0.6h0.5
		c0,0.1,0.1,0.1,0.1,0.1c0.1,0.3,0.3,0.4,0.3,0.5c0.1,0,0.4,0,1.1,0c0.4,0,0.8,0,1.1,0l0.2,0l0.9,0l1.8,0h2.4l0.5-0.1
		c0.1,0,0.1-0.2,0.2-0.4c0,0,0-0.1,0.1-0.2l0.3,0c0.1,0,0.1,0,0.2,0c0,0.4,0,0.9,0,1.6l0,0.7L71,36.7z M86,36.7c0,0.1,0,0.3,0,0.4
		c-0.2,0.1-0.4,0.1-0.6,0.1c-0.1-0.2-0.3-0.5-0.4-0.9c-0.2-0.4-0.3-0.6-0.3-0.6c-0.1-0.1-0.1-0.1-0.2-0.1c-0.1,0-0.7,0-1.7,0
		c-0.1,0-0.3,0-0.5,0c0,0.2,0,0.4,0,0.5l0,1v2.3l0,2.5l0,1c0,0.4,0,0.6,0.1,0.8c0.1,0,0.2,0.1,0.5,0.1c0,0,0.2,0,0.6,0.1
		c0.2,0,0.3,0.1,0.4,0.1c0,0.2,0,0.3,0,0.3c0,0,0,0.1,0,0.2c-0.1,0-0.2,0-0.3,0c-0.5,0-1,0-1.4-0.1s-1.1-0.1-2-0.1
		c-0.2,0-0.6,0-1.4,0.1c-0.3,0-0.5,0-0.6,0c0-0.1,0-0.1,0-0.2l0-0.2v-0.1c0.1-0.2,0.3-0.3,0.6-0.3c0.5-0.1,0.9-0.2,1.1-0.4
		c0.1-0.1,0.1-0.2,0.1-0.4c0-0.6,0.1-1.6,0.1-3l0-3c0-0.8,0-1.3,0-1.5c0,0,0-0.1-0.1-0.1s-0.1,0-0.1,0c-0.2,0-0.7,0-1.6,0
		c-0.5,0-0.8,0-1,0.1c-0.2,0.1-0.6,0.5-1,1.1c-0.1,0.2-0.2,0.2-0.3,0.2c-0.2-0.1-0.4-0.2-0.5-0.3c0.2-0.3,0.4-1,0.7-2
		c0.1-0.3,0.1-0.5,0.2-0.6h0.5c0,0.1,0.1,0.1,0.1,0.1c0.1,0.3,0.3,0.4,0.3,0.5c0.1,0,0.4,0,1.1,0c0.4,0,0.8,0,1.1,0l0.2,0l0.9,0
		l1.8,0h2.4l0.5-0.1c0.1,0,0.1-0.2,0.2-0.4c0,0,0-0.1,0.1-0.2l0.3,0c0.1,0,0.1,0,0.2,0c0,0.4,0,0.9,0,1.6l0,0.7L86,36.7z M96.6,43.1
		c-1,1.1-2.4,1.6-4.2,1.6c-0.4,0-0.9,0-1.2-0.1c-0.3,0-0.5-0.1-0.8-0.2c-0.4-0.1-0.6-0.2-0.7-0.2c-0.6-0.3-1-0.7-1.4-1
		c-0.3-0.3-0.6-0.7-0.9-1.1c-0.1-0.2-0.3-0.7-0.4-1.3c-0.1-0.4-0.2-0.9-0.2-1.4c0-0.6,0.1-1.3,0.4-1.9c0.2-0.5,0.4-0.9,0.8-1.3
		s0.7-0.7,1.2-1s1-0.5,1.5-0.7c0.5-0.1,1.1-0.2,1.7-0.2c1.1,0,2,0.2,2.8,0.6c0.8,0.4,1.4,1,1.9,1.6c0.6,0.9,0.9,1.8,0.9,2.8
		C98.1,40.8,97.6,42.1,96.6,43.1z M113.1,42.4c0,0.1-0.1,0.4-0.2,1l-0.1,0.2l-0.1,0.4c-0.3,0.2-0.8,0.4-1.3,0.6s-1.3,0.2-2.1,0.2
		c-0.6,0-1.2-0.1-1.8-0.2s-1.1-0.3-1.5-0.6c-0.6-0.4-1.1-0.8-1.4-1.2s-0.6-0.9-0.8-1.4s-0.2-1.1-0.2-1.7c0-1.6,0.5-2.8,1.5-3.8
		c1-1,2.3-1.5,3.9-1.5c0.6,0,1.3,0,1.8,0.1c0.6,0.1,1.1,0.2,1.6,0.3c0.1,0.2,0.2,0.6,0.4,1.3c0.1,0.3,0.1,0.7,0.1,1.1h-0.7
		c-0.5-0.7-1-1.2-1.5-1.5c-0.5-0.3-1.1-0.5-1.8-0.5c-0.8,0-1.5,0.3-2,0.9c-0.7,0.9-1,2-1,3.6c0,0.9,0.1,1.5,0.2,1.9
		c0.2,0.6,0.4,1.1,0.7,1.5c0.2,0.3,0.5,0.5,0.9,0.7c0.5,0.2,0.9,0.4,1.5,0.4c0.6,0,1.1-0.2,1.7-0.5s1-0.9,1.5-1.6
		c0.2,0,0.4-0.1,0.8-0.1C113.2,42,113.1,42.2,113.1,42.4z M124.1,43.1c-1,1.1-2.4,1.6-4.2,1.6c-0.4,0-0.9,0-1.2-0.1
		c-0.3,0-0.5-0.1-0.8-0.2c-0.4-0.1-0.6-0.2-0.7-0.2c-0.6-0.3-1-0.7-1.4-1c-0.3-0.3-0.6-0.7-0.9-1.1c-0.1-0.2-0.3-0.7-0.4-1.3
		c-0.1-0.4-0.2-0.9-0.2-1.4c0-0.6,0.1-1.3,0.4-1.9c0.2-0.5,0.4-0.9,0.8-1.3s0.7-0.7,1.2-1s1-0.5,1.5-0.7c0.5-0.1,1.1-0.2,1.7-0.2
		c1.1,0,2,0.2,2.8,0.6c0.8,0.4,1.4,1,1.9,1.6c0.6,0.9,0.9,1.8,0.9,2.8C125.6,40.8,125.1,42.1,124.1,43.1z M139,35.1
		c-0.3,0.1-0.5,0.1-0.6,0.2c-0.3,0.2-0.4,0.2-0.4,0.3c0,0.1-0.1,0.2-0.1,0.3c0,0,0,0.1,0,0.3c0,0.1,0,0.3,0,0.7c0,0.8,0,1.4,0.1,1.8
		c0,0.1,0,0.3,0,0.5l0.1,2.7c0,0.2,0,0.3,0,0.4v1l0,0.4l0,0.4c0,0.2,0,0.3,0,0.4v0.4l-0.9,0l-0.9-1l-1.9-1.9l-1.3-1.3l-1-1
		c-0.6-0.6-1.2-1.2-1.7-1.6l-1.3-1.1l0.1,2.9c0,0.2,0,0.4,0,0.5l0,0.6l0,1c0,0.4,0,0.9,0.1,1.4c0,0.1,0,0.2,0,0.3s0,0.1,0.1,0.2
		c0.2,0.1,0.6,0.1,1.3,0.2c0,0,0.1,0,0.2,0.1l0,0.6l-0.3,0c-0.2,0-0.7,0-1.6-0.1c-0.8,0-1.4,0-1.7,0c-0.3,0-0.4,0-0.5,0
		c-0.1,0-0.1,0-0.3,0c0-0.1,0-0.2,0-0.3c0-0.1,0-0.2,0-0.3c0.1,0,0.3,0,0.4,0c0,0,0.1,0,0.3,0c0.4,0,0.7,0,0.8-0.1
		c0.1-0.1,0.1-0.2,0.1-0.5c0-0.8,0.1-1.3,0.1-1.5v-0.4l0-2.5l0-1.6c0-0.6,0-1-0.1-1.3c0-0.1-0.1-0.2-0.2-0.3
		c-0.2-0.2-0.4-0.3-0.6-0.4c-0.1-0.1-0.5-0.1-1.1-0.2l0-0.5h0.7l0.2,0c0.3,0,0.5,0,0.6,0c0.1,0,0.2,0,0.5,0c0.1,0,0.1,0,0.2,0
		s0.2,0,0.5,0c0.3,0,0.4,0,0.5,0c0.1,0,0.1,0,0.2,0c0.8,0.7,1.5,1.4,2,1.9c0.5,0.5,2.3,2.4,5.5,5.5v-0.2l0-0.9c0-0.5,0-1-0.1-1.3
		c0-0.3,0-0.7,0-1.1s0-0.8-0.1-1.2c-0.1-0.7-0.1-1.1-0.1-1.2c0-0.3,0-0.5-0.1-0.6c-0.1-0.1-0.4-0.2-0.8-0.3c-0.3,0-0.5-0.1-0.6-0.2
		l0-0.5l0.2,0l1.5,0l1.7,0c0.1,0,0.2,0,0.3,0l0,0.5C139.3,35,139.1,35,139,35.1z M150.4,36.7c0,0.1,0,0.3,0,0.4
		c-0.2,0.1-0.4,0.1-0.6,0.1c-0.1-0.2-0.3-0.5-0.4-0.9c-0.2-0.4-0.3-0.6-0.3-0.6c-0.1-0.1-0.1-0.1-0.2-0.1c-0.1,0-0.7,0-1.7,0
		c-0.1,0-0.3,0-0.5,0c0,0.2,0,0.4,0,0.5l0,1v2.3l0,2.5l0,1c0,0.4,0,0.6,0.1,0.8c0.1,0,0.2,0.1,0.5,0.1c0,0,0.2,0,0.6,0.1
		c0.2,0,0.3,0.1,0.4,0.1c0,0.2,0,0.3,0,0.3c0,0,0,0.1,0,0.2c-0.1,0-0.2,0-0.3,0c-0.5,0-1,0-1.4-0.1s-1.1-0.1-2-0.1
		c-0.2,0-0.6,0-1.4,0.1c-0.3,0-0.5,0-0.6,0c0-0.1,0-0.1,0-0.2l0-0.2v-0.1c0.1-0.2,0.3-0.3,0.6-0.3c0.5-0.1,0.9-0.2,1.1-0.4
		c0.1-0.1,0.1-0.2,0.1-0.4c0-0.6,0.1-1.6,0.1-3l0-3c0-0.8,0-1.3,0-1.5c0,0,0-0.1-0.1-0.1s-0.1,0-0.1,0c-0.2,0-0.7,0-1.6,0
		c-0.5,0-0.8,0-1,0.1c-0.2,0.1-0.6,0.5-1,1.1c-0.1,0.2-0.2,0.2-0.3,0.2c-0.2-0.1-0.4-0.2-0.5-0.3c0.2-0.3,0.4-1,0.7-2
		c0.1-0.3,0.1-0.5,0.2-0.6h0.5c0,0.1,0.1,0.1,0.1,0.1c0.1,0.3,0.3,0.4,0.3,0.5c0.1,0,0.4,0,1.1,0c0.4,0,0.8,0,1.1,0l0.2,0l0.9,0
		l1.8,0h2.4l0.5-0.1c0.1,0,0.1-0.2,0.2-0.4c0,0,0-0.1,0.1-0.2l0.3,0c0.1,0,0.1,0,0.2,0c0,0.4,0,0.9,0,1.6l0,0.7L150.4,36.7z
		 M156.5,35c-0.2,0.1-0.4,0.1-0.7,0.2c-0.3,0.1-0.5,0.1-0.7,0.2c0,0.1,0,0.3,0,0.6c0,0.2,0,0.4,0,0.5c0,0.9,0,1.6,0,2l0,2.1l0,1
		l0,1.6l0,0.3c0,0,0,0.1,0,0.2c0.3,0.1,0.6,0.1,0.9,0.1c0,0,0.2,0,0.5,0.1c0,0.2,0,0.3,0,0.4c0,0.1,0,0.1,0,0.3c-0.1,0-0.1,0-0.2,0
		c-0.2,0-0.3,0-0.3,0c0,0-0.1,0-0.2,0c-0.1,0-0.4,0-1-0.1l-1.4,0c-0.3,0-0.7,0-1.2,0.1c-0.3,0-0.6,0-0.7,0.1V44
		c0.1,0,0.3-0.1,0.5-0.1c0.3-0.1,0.6-0.2,0.8-0.3c0.1-0.2,0.1-0.4,0.1-0.7l0-0.9l0-1.8l0-0.4c0-1,0.1-1.6,0.1-1.6l0-1l0-0.4l0-0.9
		l0-0.3c0-0.1,0-0.1-0.1-0.2c-0.2-0.1-0.6-0.2-1-0.2c-0.1,0-0.2,0-0.3,0l0-0.7l2.2,0.1c0.3,0,0.4,0,0.5,0c0.3,0,0.8,0,1.5-0.1
		c0.4,0,0.6,0,0.7,0c0,0.1,0,0.2,0,0.2C156.5,34.7,156.5,34.8,156.5,35z M169.9,35.1c-0.3,0.1-0.5,0.1-0.6,0.2
		c-0.3,0.2-0.4,0.2-0.4,0.3c0,0.1-0.1,0.2-0.1,0.3c0,0,0,0.1,0,0.3c0,0.1,0,0.3,0,0.7c0,0.8,0,1.4,0.1,1.8c0,0.1,0,0.3,0,0.5
		l0.1,2.7c0,0.2,0,0.3,0,0.4v1l0,0.4l0,0.4c0,0.2,0,0.3,0,0.4v0.4l-0.9,0l-0.9-1l-1.9-1.9l-1.3-1.3l-1-1c-0.6-0.6-1.2-1.2-1.7-1.6
		l-1.3-1.1l0.1,2.9c0,0.2,0,0.4,0,0.5l0,0.6l0,1c0,0.4,0,0.9,0.1,1.4c0,0.1,0,0.2,0,0.3s0,0.1,0.1,0.2c0.2,0.1,0.6,0.1,1.3,0.2
		c0,0,0.1,0,0.2,0.1l0,0.6l-0.3,0c-0.2,0-0.7,0-1.6-0.1c-0.8,0-1.4,0-1.7,0c-0.3,0-0.4,0-0.5,0c-0.1,0-0.1,0-0.3,0
		c0-0.1,0-0.2,0-0.3c0-0.1,0-0.2,0-0.3c0.1,0,0.3,0,0.4,0c0,0,0.1,0,0.3,0c0.4,0,0.7,0,0.8-0.1c0.1-0.1,0.1-0.2,0.1-0.5
		c0-0.8,0.1-1.3,0.1-1.5v-0.4l0-2.5l0-1.6c0-0.6,0-1-0.1-1.3c0-0.1-0.1-0.2-0.2-0.3c-0.2-0.2-0.4-0.3-0.6-0.4
		c-0.1-0.1-0.5-0.1-1.1-0.2l0-0.5h0.7l0.2,0c0.3,0,0.5,0,0.6,0c0.1,0,0.2,0,0.5,0c0.1,0,0.1,0,0.2,0s0.2,0,0.5,0c0.3,0,0.4,0,0.5,0
		c0.1,0,0.1,0,0.2,0c0.8,0.7,1.5,1.4,2,1.9c0.5,0.5,2.3,2.4,5.5,5.5v-0.2l0-0.9c0-0.5,0-1-0.1-1.3c0-0.3,0-0.7,0-1.1s0-0.8-0.1-1.2
		c-0.1-0.7-0.1-1.1-0.1-1.2c0-0.3,0-0.5-0.1-0.6c-0.1-0.1-0.4-0.2-0.8-0.3c-0.3,0-0.5-0.1-0.6-0.2l0-0.5l0.2,0l1.5,0l1.7,0
		c0.1,0,0.2,0,0.3,0l0,0.5C170.1,35,170,35,169.9,35.1z M182.1,35c-0.2,0.1-0.4,0.1-0.6,0.1c-0.3,0-0.5,0.1-0.6,0.1
		c-0.1,0.1-0.1,0.2-0.1,0.3c0,0.1,0,0.2,0,0.4c0,0.1,0,0.4,0,0.7c0,0.2,0,0.3,0,0.4c0,0.1,0,0.2,0,0.3c0,0.4,0,0.8,0,1.1l0.1,1.6
		c0,1.1,0,1.8-0.1,2.1c-0.1,0.4-0.2,0.6-0.3,0.9c-0.2,0.3-0.5,0.6-0.8,0.9s-0.8,0.5-1.3,0.6c-0.5,0.2-1.2,0.2-1.9,0.2
		c-0.8,0-1.5-0.1-2.1-0.3s-1-0.5-1.3-0.9s-0.5-0.8-0.6-1.4c-0.1-0.4-0.1-0.9-0.1-1.7v-3.7c0-0.9,0-1.4-0.1-1.5
		c-0.1-0.2-0.5-0.3-1.1-0.3c-0.1,0-0.2,0-0.3,0l0-0.6c0.1,0,0.2,0,0.3,0c0.3,0,0.5,0,0.8,0c0.7,0,1.1,0.1,1.2,0.1c0.4,0,0.8,0,1.2,0
		c0.4,0,0.8,0,1.1,0s0.5,0,0.6,0l0,0.1l0,0.5v0.1c-0.3,0-0.6,0.1-0.9,0.1c-0.3,0-0.5,0.1-0.6,0.2c-0.1,0.1-0.1,0.4-0.1,0.9
		c0,0.2,0,0.3,0,0.4l0,0.3l0,0.7l0,0.6l0,1.4l0.1,2c0,0.6,0.2,1,0.4,1.4c0.2,0.3,0.4,0.5,0.7,0.6c0.4,0.2,0.9,0.3,1.3,0.3
		c0.5,0,1-0.1,1.4-0.2c0.3-0.1,0.5-0.2,0.7-0.4s0.4-0.3,0.5-0.4c0.2-0.3,0.3-0.6,0.4-0.8c0.1-0.3,0.1-0.9,0.1-1.6
		c0-1.3-0.1-2.7-0.2-4.3l0-0.4c0-0.3-0.1-0.5-0.2-0.6c-0.2-0.2-0.4-0.2-0.6-0.2l-0.7,0l-0.1,0l0-0.6h0.6l1.5,0.1c0.5,0,1,0,1.4-0.1
		l0.1,0c0,0.2,0,0.3,0,0.4C182.2,34.9,182.2,35,182.1,35z M193.5,42l0,0.2l-0.3,1.5l-0.1,0.9c-0.3,0-0.6,0-0.8,0
		c-0.3,0-1.1,0-2.3-0.1c-0.9,0-2-0.1-3.2-0.1c-0.6,0-1.4,0-2.3,0.1h-0.3l-0.9,0V44c0.1,0,0.3-0.1,0.6-0.1c0.5-0.1,0.9-0.1,1.1-0.2
		c0.1-0.2,0.1-0.3,0.1-0.6c0-0.1,0-0.2,0-0.5l0-0.2l0-2.9l0-0.9l0-1.2l0-0.9l-0.1-1c0,0,0-0.1,0-0.2c-0.1-0.1-0.1-0.1-0.2-0.1
		c-0.1,0-0.1,0-0.2,0c-0.3-0.1-0.6-0.1-0.9-0.1c-0.1,0-0.2,0-0.3,0l0-0.6c0.3,0,0.6,0,0.8,0.1c0.4,0.1,0.9,0.1,1.4,0.1
		c0.2,0,0.7,0,1.4,0c1.2,0,2.2-0.1,3.1-0.1l1.4,0c0.3,0,0.8,0,1.4,0.1c0.1,0.1,0.1,0.2,0.1,0.4v1.6l0,0.3c0,0,0,0.1,0,0.1l-0.3,0
		c0,0-0.1,0-0.3,0c0-0.1-0.1-0.3-0.2-0.5l-0.3-0.6c-0.1-0.2-0.3-0.5-0.5-0.7c-0.1,0-0.3-0.1-0.5-0.1c-0.1,0-0.2,0-0.5,0
		c-0.5,0-1-0.1-1.6-0.1c-0.6,0-1.2,0-1.7,0c0,0.1,0,0.6,0,1.5l0,1.3v1c0.1,0,0.2,0,0.3,0c0.9,0,1.6,0,2-0.1c0.4,0,0.6-0.1,0.7-0.2
		c0.1-0.1,0.2-0.2,0.2-0.3c0-0.1,0.1-0.5,0.3-1.1l0.1,0l0.5,0c0,0.5,0,0.8,0,1.1c0,0.5,0,0.9,0,1.1s0,0.3,0,0.4c0,0.1,0,0.4,0,0.7
		c0,0.3,0,0.5,0,0.7v0.2h-0.6c0-0.1-0.1-0.3-0.1-0.5c-0.1-0.5-0.2-0.8-0.3-0.9c-0.1-0.1-0.2-0.2-0.3-0.2c-0.1,0-0.5-0.1-1.2-0.1
		c-0.8,0-1.4,0-1.8,0.1c0,0.1,0,0.2,0,0.3c0,0.6,0,1.1,0,1.5l0,1.7c0,0.2,0.1,0.3,0.2,0.4c0.2,0.1,0.9,0.2,2,0.2
		c0.7,0,1.3-0.1,1.8-0.2c0.3-0.1,0.7-0.3,0.9-0.5c0.4-0.3,0.6-0.8,0.9-1.5c0.2,0,0.3,0,0.4,0c0.1,0,0.1,0,0.3,0
		C193.6,41.8,193.6,41.9,193.5,42z"/>
</g>
</svg>
