<?xml version="1.0" encoding="utf-8"?>
<!-- Generator: Adobe Illustrator 21.0.0, SVG Export Plug-In . SVG Version: 6.00 Build 0)  -->
<svg version="1.1" id="Layer_1" xmlns="http://www.w3.org/2000/svg" xmlns:xlink="http://www.w3.org/1999/xlink" x="0px" y="0px"
	 viewBox="0 0 204 79.5" style="enable-background:new 0 0 204 79.5;" xml:space="preserve">
<style type="text/css">
	.st0{fill:#F9F1DD;}
</style>
<g>
	<path class="st0" d="M12.6,44.6V44c0.1,0,0.3-0.1,0.5-0.1c0.3-0.1,0.6-0.2,0.8-0.3c0.1-0.2,0.1-0.4,0.1-0.7l0-0.9l0-1.8l0-0.4
		c0-1,0.1-1.6,0.1-1.6l0-1l0-0.4l0-0.9l0-0.3c0-0.1,0-0.1-0.1-0.2c-0.2-0.1-0.6-0.2-1-0.2c-0.1,0-0.2,0-0.3,0l0-0.7l2.2,0.1
		c0.3,0,0.4,0,0.5,0c0.3,0,0.8,0,1.5-0.1c0.4,0,0.6,0,0.7,0c0,0.1,0,0.2,0,0.2c0,0.1,0,0.2,0,0.3c-0.2,0.1-0.4,0.1-0.7,0.2
		c-0.3,0.1-0.5,0.1-0.7,0.2c0,0.1,0,0.3,0,0.6c0,0.2,0,0.4,0,0.5c0,0.9,0,1.6,0,2l0,2.1l0,1l0,1.6l0,0.3c0,0,0,0.1,0,0.2
		c0.3,0.1,0.6,0.1,0.9,0.1c0,0,0.2,0,0.5,0.1c0,0.2,0,0.3,0,0.4c0,0.1,0,0.1,0,0.3c-0.1,0-0.1,0-0.2,0c-0.2,0-0.3,0-0.3,0
		c0,0-0.1,0-0.2,0c-0.1,0-0.4,0-1-0.1l-1.4,0c-0.3,0-0.7,0-1.2,0.1C13,44.5,12.7,44.5,12.6,44.6z"/>
	<path class="st0" d="M22.4,35l0-0.5c0.1,0,0.1,0,0.1,0c0.4,0,0.9,0,1.3,0.1c0.2,0,0.3,0,0.3,0c0.2,0,0.4,0,0.7,0l1,0
		c0,0,0.1,0,0.1,0.1l-0.1,0.4c-0.1,0.1-0.2,0.1-0.3,0.2c-0.2,0.1-0.3,0.2-0.3,0.3c0,0.1,0,0.2,0.1,0.3c0,0.1,0.1,0.2,0.1,0.3
		c0.1,0.3,0.3,0.9,0.8,1.9l2,4.7c0.3-0.5,0.7-1.3,1.2-2.5l-1.1-2.8c-0.2-0.5-0.4-0.9-0.6-1.3c-0.1-0.1-0.1-0.2-0.1-0.3
		c0-0.1-0.1-0.1-0.1-0.2s-0.1-0.2-0.2-0.2c-0.1-0.1-0.4-0.1-0.8-0.2l0-0.5c0.2,0,0.4,0,0.7,0c0.4,0,0.7,0,0.8,0l1.1,0l1.4-0.1
		c0,0,0.1,0,0.1,0l0,0.3v0.1c0,0,0,0.1,0,0.1c-0.1,0-0.2,0-0.4,0.1c-0.1,0-0.2,0-0.3,0.1s-0.1,0.1-0.1,0.2c0,0.2,0.1,0.3,0.2,0.6
		c0,0.1,0.1,0.2,0.2,0.5c0.3,0.7,0.5,1.2,0.6,1.5l0.5-1.1c0.2-0.5,0.4-0.9,0.5-1.1c0-0.1,0-0.1,0-0.1v0c-0.1-0.1-0.1-0.1-0.2-0.1
		c-0.1-0.1-0.4-0.1-0.7-0.2c0-0.1,0-0.2,0-0.2c0-0.1,0-0.1,0-0.3c0.2,0,0.7,0,1.5,0c0.5,0,0.8,0,0.9,0c0.1,0,0.2,0,0.3,0
		c0.1,0,0.2,0,0.3,0l0,0.1l0,0.4l0,0c-0.6,0.2-0.9,0.3-1,0.4c-0.1,0.1-0.2,0.2-0.3,0.4c-0.3,0.5-0.7,1.4-1.4,2.9l0,0.1l0.5,1.2
		l0.9,2c0.1,0.2,0.2,0.3,0.2,0.4l1-2.6l1.4-3.5l0.2-0.7c0,0,0-0.1,0-0.1l0-0.1c-0.2-0.1-0.3-0.1-0.4-0.1c-0.1,0-0.2-0.1-0.3-0.1
		c0-0.2,0-0.3,0-0.3c0,0,0-0.1,0.1-0.2l0.1,0l1.2,0l0.8,0l0.2,0c0,0.1,0,0.2,0,0.2c0,0.1,0,0.2-0.1,0.2c0,0-0.1,0.1-0.2,0.1
		c-0.2,0.1-0.4,0.2-0.4,0.3c-0.1,0.1-0.1,0.2-0.2,0.5c-0.5,1.2-0.9,2.4-1.4,3.5c-0.5,1.1-1.2,2.9-2.2,5.4l-0.8,0
		c-0.1-0.2-0.1-0.3-0.2-0.5c-0.2-0.3-0.2-0.6-0.3-0.6l-0.9-2c-0.1-0.3-0.3-0.6-0.3-0.7c0,0,0-0.1-0.1-0.1c0,0-0.3,0.5-0.8,1.6
		c-0.5,1-0.9,1.8-1.2,2.4l-0.8,0c-0.2-0.6-0.6-1.5-1.1-2.6l-2.5-5.9c-0.3-0.6-0.5-1-0.6-1.1c0,0-0.1-0.1-0.2-0.1
		C22.5,35.1,22.4,35,22.4,35z"/>
	<path class="st0" d="M36.3,44.5l0-0.5c0.1,0,0.3-0.1,0.5-0.1c0.4-0.1,0.6-0.1,0.7-0.2s0.2-0.2,0.3-0.5l1.6-4.1l1.9-4.9
		c0.2,0,0.3,0,0.5,0h0.4l0.1,0.1l1.4,3.2c0.3,0.7,0.6,1.3,0.8,2c0.2,0.6,0.5,1.2,0.6,1.6c0.1,0.2,0.2,0.6,0.4,1.1
		c0.1,0.3,0.2,0.6,0.4,1c0.1,0.2,0.2,0.3,0.2,0.4c0.1,0.1,0.2,0.1,0.5,0.2c0.2,0,0.4,0.1,0.7,0.2c0,0.2,0,0.3,0,0.4c0,0,0,0.1,0,0.2
		c-0.4,0-0.8,0-1.3-0.1c-0.5,0-0.9-0.1-1.2-0.1c-0.4,0-0.7,0-0.9,0l-1.3,0.1l-0.4,0c0-0.2,0-0.4,0-0.5l0.9-0.2
		c0.3-0.1,0.4-0.1,0.5-0.2c0.1-0.1,0.1-0.1,0.1-0.2c0-0.1,0-0.1,0-0.2l-0.3-0.8L42.6,41l-3,0c-0.1,0.2-0.3,0.9-0.7,1.8
		c-0.1,0.3-0.1,0.5-0.1,0.6c0,0.1,0,0.2,0.1,0.3c0.1,0.1,0.3,0.2,0.7,0.2c0,0,0.2,0,0.6,0.1c0,0.2,0,0.3,0,0.4c0,0.1,0,0.1,0,0.2
		c-0.3,0-1.1,0-2.3-0.1l-0.3,0.1c-0.4,0.1-0.8,0.1-1.1,0.1H36.3z M40,40.2c1.2,0,1.9,0,2.2,0l0.2,0c-0.2-0.5-0.4-1-0.6-1.6
		s-0.5-1.1-0.6-1.4L40,40.2z"/>
	<path class="st0" d="M47.1,35.1l0-0.5h0.7l0.2,0c0.3,0,0.5,0,0.6,0c0.1,0,0.2,0,0.5,0c0.1,0,0.1,0,0.2,0s0.2,0,0.5,0
		c0.3,0,0.4,0,0.5,0c0.1,0,0.1,0,0.2,0c0.8,0.7,1.5,1.4,2,1.9c0.5,0.5,2.3,2.4,5.5,5.5v-0.2l0-0.9c0-0.5,0-1-0.1-1.3
		c0-0.3,0-0.7,0-1.1c0-0.4,0-0.8-0.1-1.2c-0.1-0.7-0.1-1.1-0.1-1.2c0-0.3,0-0.5-0.1-0.6c-0.1-0.1-0.4-0.2-0.8-0.3
		c-0.3,0-0.5-0.1-0.6-0.2l0-0.5l0.2,0l1.5,0l1.7,0c0.1,0,0.2,0,0.3,0l0,0.5c-0.1,0.1-0.2,0.1-0.4,0.1c-0.3,0.1-0.5,0.1-0.6,0.2
		c-0.3,0.2-0.4,0.2-0.4,0.3c0,0.1-0.1,0.2-0.1,0.3c0,0,0,0.1,0,0.3c0,0.1,0,0.3,0,0.7c0,0.8,0,1.4,0.1,1.8c0,0.1,0,0.3,0,0.5
		l0.1,2.7c0,0.2,0,0.3,0,0.4v1l0,0.4l0,0.4c0,0.2,0,0.3,0,0.4v0.4l-0.9,0l-0.9-1L55.1,42l-1.3-1.3l-1-1C52.1,39,51.6,38.5,51,38
		l-1.3-1.1l0.1,2.9c0,0.2,0,0.4,0,0.5l0,0.6l0,1c0,0.4,0,0.9,0.1,1.4c0,0.1,0,0.2,0,0.3s0,0.1,0.1,0.2c0.2,0.1,0.6,0.1,1.3,0.2
		c0,0,0.1,0,0.2,0.1l0,0.6l-0.3,0c-0.2,0-0.7,0-1.6-0.1c-0.8,0-1.4,0-1.7,0c-0.3,0-0.4,0-0.5,0c-0.1,0-0.1,0-0.3,0
		c0-0.1,0-0.2,0-0.3c0-0.1,0-0.2,0-0.3c0.1,0,0.3,0,0.4,0c0,0,0.1,0,0.3,0c0.4,0,0.7,0,0.8-0.1c0.1-0.1,0.1-0.2,0.1-0.5
		c0-0.8,0.1-1.3,0.1-1.5v-0.4l0-2.5l0-1.6c0-0.6,0-1-0.1-1.3c0-0.1-0.1-0.2-0.2-0.3c-0.2-0.2-0.4-0.3-0.6-0.4
		C48,35.2,47.6,35.1,47.1,35.1z"/>
	<path class="st0" d="M61.3,34h0.5c0,0.1,0.1,0.1,0.1,0.1c0.1,0.3,0.3,0.4,0.3,0.5c0.1,0,0.4,0,1.1,0c0.4,0,0.8,0,1.1,0l0.2,0l0.9,0
		l1.8,0h2.4l0.5-0.1c0.1,0,0.1-0.2,0.2-0.4c0,0,0-0.1,0.1-0.2l0.3,0c0.1,0,0.1,0,0.2,0c0,0.4,0,0.9,0,1.6l0,0.7l0,0.4
		c0,0.1,0,0.3,0,0.4c-0.2,0.1-0.4,0.1-0.6,0.1c-0.1-0.2-0.3-0.5-0.4-0.9c-0.2-0.4-0.3-0.6-0.3-0.6c-0.1-0.1-0.1-0.1-0.2-0.1
		c-0.1,0-0.7,0-1.7,0c-0.1,0-0.3,0-0.5,0c0,0.2,0,0.4,0,0.5l0,1v2.3l0,2.5l0,1c0,0.4,0,0.6,0.1,0.8c0.1,0,0.2,0.1,0.5,0.1
		c0,0,0.2,0,0.6,0.1c0.2,0,0.3,0.1,0.4,0.1c0,0.2,0,0.3,0,0.3c0,0,0,0.1,0,0.2c-0.1,0-0.2,0-0.3,0c-0.5,0-1,0-1.4-0.1
		s-1.1-0.1-2-0.1c-0.2,0-0.6,0-1.4,0.1c-0.3,0-0.5,0-0.6,0c0-0.1,0-0.1,0-0.2l0-0.2v-0.1c0.1-0.2,0.3-0.3,0.6-0.3
		c0.5-0.1,0.9-0.2,1.1-0.4c0.1-0.1,0.1-0.2,0.1-0.4c0-0.6,0.1-1.6,0.1-3l0-3c0-0.8,0-1.3,0-1.5c0,0,0-0.1-0.1-0.1c0,0-0.1,0-0.1,0
		c-0.2,0-0.7,0-1.6,0c-0.5,0-0.8,0-1,0.1c-0.2,0.1-0.6,0.5-1,1.1c-0.1,0.2-0.2,0.2-0.3,0.2c-0.2-0.1-0.4-0.2-0.5-0.3
		c0.2-0.3,0.4-1,0.7-2C61.2,34.3,61.3,34.1,61.3,34z"/>
	<path class="st0" d="M76.3,34h0.5c0,0.1,0.1,0.1,0.1,0.1c0.1,0.3,0.3,0.4,0.3,0.5c0.1,0,0.4,0,1.1,0c0.4,0,0.8,0,1.1,0l0.2,0l0.9,0
		l1.8,0h2.4l0.5-0.1c0.1,0,0.1-0.2,0.2-0.4c0,0,0-0.1,0.1-0.2l0.3,0c0.1,0,0.1,0,0.2,0c0,0.4,0,0.9,0,1.6l0,0.7l0,0.4
		c0,0.1,0,0.3,0,0.4c-0.2,0.1-0.4,0.1-0.6,0.1c-0.1-0.2-0.3-0.5-0.4-0.9c-0.2-0.4-0.3-0.6-0.3-0.6c-0.1-0.1-0.1-0.1-0.2-0.1
		c-0.1,0-0.7,0-1.7,0c-0.1,0-0.3,0-0.5,0c0,0.2,0,0.4,0,0.5l0,1v2.3l0,2.5l0,1c0,0.4,0,0.6,0.1,0.8c0.1,0,0.2,0.1,0.5,0.1
		c0,0,0.2,0,0.6,0.1c0.2,0,0.3,0.1,0.4,0.1c0,0.2,0,0.3,0,0.3c0,0,0,0.1,0,0.2c-0.1,0-0.2,0-0.3,0c-0.5,0-1,0-1.4-0.1
		s-1.1-0.1-2-0.1c-0.2,0-0.6,0-1.4,0.1c-0.3,0-0.5,0-0.6,0c0-0.1,0-0.1,0-0.2l0-0.2v-0.1c0.1-0.2,0.3-0.3,0.6-0.3
		c0.5-0.1,0.9-0.2,1.1-0.4c0.1-0.1,0.1-0.2,0.1-0.4c0-0.6,0.1-1.6,0.1-3l0-3c0-0.8,0-1.3,0-1.5c0,0,0-0.1-0.1-0.1s-0.1,0-0.1,0
		c-0.2,0-0.7,0-1.6,0c-0.5,0-0.8,0-1,0.1c-0.2,0.1-0.6,0.5-1,1.1c-0.1,0.2-0.2,0.2-0.3,0.2c-0.2-0.1-0.4-0.2-0.5-0.3
		c0.2-0.3,0.4-1,0.7-2C76.2,34.3,76.3,34.1,76.3,34z"/>
	<path class="st0" d="M86.9,39.4c0-0.6,0.1-1.3,0.4-1.9c0.2-0.5,0.4-0.9,0.8-1.3s0.7-0.7,1.2-1s1-0.5,1.5-0.7
		c0.5-0.1,1.1-0.2,1.7-0.2c1.1,0,2,0.2,2.8,0.6c0.8,0.4,1.4,1,1.9,1.6c0.6,0.9,0.9,1.8,0.9,2.8c0,1.5-0.5,2.7-1.5,3.8
		c-1,1.1-2.4,1.6-4.2,1.6c-0.4,0-0.9,0-1.2-0.1c-0.3,0-0.5-0.1-0.8-0.2c-0.4-0.1-0.6-0.2-0.7-0.2c-0.6-0.3-1-0.7-1.4-1
		c-0.3-0.3-0.6-0.7-0.9-1.1c-0.1-0.2-0.3-0.7-0.4-1.3C86.9,40.4,86.9,39.9,86.9,39.4z M92.2,35c-0.5,0-0.9,0.1-1.2,0.3
		s-0.6,0.4-0.8,0.7c-0.3,0.4-0.5,0.9-0.6,1.4c-0.1,0.5-0.2,1.1-0.2,1.9c0,0.4,0,0.8,0.1,1c0,0.1,0,0.2,0,0.3c0,0.4,0.1,0.7,0.2,0.8
		c0.2,0.7,0.4,1.1,0.5,1.2c0.2,0.3,0.4,0.5,0.7,0.8c0.2,0.1,0.4,0.3,0.7,0.4c0.3,0.1,0.6,0.2,0.9,0.2c0.6,0,1.1-0.1,1.6-0.4
		c0.5-0.3,0.9-0.7,1.2-1.3c0.3-0.6,0.4-1.5,0.4-2.5c0-0.4,0-1-0.1-1.7l0-0.1c0,0,0-0.1-0.1-0.3c-0.2-0.9-0.6-1.5-1.1-2
		C93.7,35.2,93,35,92.2,35z"/>
	<path class="st0" d="M112.5,34.6c0.1,0.2,0.2,0.6,0.4,1.3c0.1,0.3,0.1,0.7,0.1,1.1h-0.7c-0.5-0.7-1-1.2-1.5-1.5
		c-0.5-0.3-1.1-0.5-1.8-0.5c-0.8,0-1.5,0.3-2,0.9c-0.7,0.9-1,2-1,3.6c0,0.9,0.1,1.5,0.2,1.9c0.2,0.6,0.4,1.1,0.7,1.5
		c0.2,0.3,0.5,0.5,0.9,0.7c0.5,0.2,0.9,0.4,1.5,0.4c0.6,0,1.1-0.2,1.7-0.5s1-0.9,1.5-1.6c0.2,0,0.4-0.1,0.8-0.1
		c0,0.2-0.1,0.4-0.1,0.6c0,0.1-0.1,0.4-0.2,1l-0.1,0.2l-0.1,0.4c-0.3,0.2-0.8,0.4-1.3,0.6s-1.3,0.2-2.1,0.2c-0.6,0-1.2-0.1-1.8-0.2
		s-1.1-0.3-1.5-0.6c-0.6-0.4-1.1-0.8-1.4-1.2s-0.6-0.9-0.8-1.4s-0.2-1.1-0.2-1.7c0-1.6,0.5-2.8,1.5-3.8c1-1,2.3-1.5,3.9-1.5
		c0.6,0,1.3,0,1.8,0.1C111.4,34.4,112,34.5,112.5,34.6z"/>
	<path class="st0" d="M114.4,39.4c0-0.6,0.1-1.3,0.4-1.9c0.2-0.5,0.4-0.9,0.8-1.3s0.7-0.7,1.2-1s1-0.5,1.5-0.7
		c0.5-0.1,1.1-0.2,1.7-0.2c1.1,0,2,0.2,2.8,0.6c0.8,0.4,1.4,1,1.9,1.6c0.6,0.9,0.9,1.8,0.9,2.8c0,1.5-0.5,2.7-1.5,3.8
		c-1,1.1-2.4,1.6-4.2,1.6c-0.4,0-0.9,0-1.2-0.1c-0.3,0-0.5-0.1-0.8-0.2c-0.4-0.1-0.6-0.2-0.7-0.2c-0.6-0.3-1-0.7-1.4-1
		c-0.3-0.3-0.6-0.7-0.9-1.1c-0.1-0.2-0.3-0.7-0.4-1.3C114.4,40.4,114.4,39.9,114.4,39.4z M119.7,35c-0.5,0-0.9,0.1-1.2,0.3
		s-0.6,0.4-0.8,0.7c-0.3,0.4-0.5,0.9-0.6,1.4c-0.1,0.5-0.2,1.1-0.2,1.9c0,0.4,0,0.8,0.1,1c0,0.1,0,0.2,0,0.3c0,0.4,0.1,0.7,0.2,0.8
		c0.2,0.7,0.4,1.1,0.5,1.2c0.2,0.3,0.4,0.5,0.7,0.8c0.2,0.1,0.4,0.3,0.7,0.4c0.3,0.1,0.6,0.2,0.9,0.2c0.6,0,1.1-0.1,1.6-0.4
		c0.5-0.3,0.9-0.7,1.2-1.3c0.3-0.6,0.4-1.5,0.4-2.5c0-0.4,0-1-0.1-1.7l0-0.1c0,0,0-0.1-0.1-0.3c-0.2-0.9-0.6-1.5-1.1-2
		C121.2,35.2,120.5,35,119.7,35z"/>
	<path class="st0" d="M126.4,35.1l0-0.5h0.7l0.2,0c0.3,0,0.5,0,0.6,0c0.1,0,0.2,0,0.5,0c0.1,0,0.1,0,0.2,0s0.2,0,0.5,0
		c0.3,0,0.4,0,0.5,0c0.1,0,0.1,0,0.2,0c0.8,0.7,1.5,1.4,2,1.9c0.5,0.5,2.3,2.4,5.5,5.5v-0.2l0-0.9c0-0.5,0-1-0.1-1.3
		c0-0.3,0-0.7,0-1.1s0-0.8-0.1-1.2c-0.1-0.7-0.1-1.1-0.1-1.2c0-0.3,0-0.5-0.1-0.6c-0.1-0.1-0.4-0.2-0.8-0.3c-0.3,0-0.5-0.1-0.6-0.2
		l0-0.5l0.2,0l1.5,0l1.7,0c0.1,0,0.2,0,0.3,0l0,0.5c-0.1,0.1-0.2,0.1-0.4,0.1c-0.3,0.1-0.5,0.1-0.6,0.2c-0.3,0.2-0.4,0.2-0.4,0.3
		c0,0.1-0.1,0.2-0.1,0.3c0,0,0,0.1,0,0.3c0,0.1,0,0.3,0,0.7c0,0.8,0,1.4,0.1,1.8c0,0.1,0,0.3,0,0.5l0.1,2.7c0,0.2,0,0.3,0,0.4v1
		l0,0.4l0,0.4c0,0.2,0,0.3,0,0.4v0.4l-0.9,0l-0.9-1l-1.9-1.9l-1.3-1.3l-1-1c-0.6-0.6-1.2-1.2-1.7-1.6l-1.3-1.1l0.1,2.9
		c0,0.2,0,0.4,0,0.5l0,0.6l0,1c0,0.4,0,0.9,0.1,1.4c0,0.1,0,0.2,0,0.3s0,0.1,0.1,0.2c0.2,0.1,0.6,0.1,1.3,0.2c0,0,0.1,0,0.2,0.1
		l0,0.6l-0.3,0c-0.2,0-0.7,0-1.6-0.1c-0.8,0-1.4,0-1.7,0c-0.3,0-0.4,0-0.5,0c-0.1,0-0.1,0-0.3,0c0-0.1,0-0.2,0-0.3
		c0-0.1,0-0.2,0-0.3c0.1,0,0.3,0,0.4,0c0,0,0.1,0,0.3,0c0.4,0,0.7,0,0.8-0.1c0.1-0.1,0.1-0.2,0.1-0.5c0-0.8,0.1-1.3,0.1-1.5v-0.4
		l0-2.5l0-1.6c0-0.6,0-1-0.1-1.3c0-0.1-0.1-0.2-0.2-0.3c-0.2-0.2-0.4-0.3-0.6-0.4C127.4,35.2,127,35.1,126.4,35.1z"/>
	<path class="st0" d="M140.7,34h0.5c0,0.1,0.1,0.1,0.1,0.1c0.1,0.3,0.3,0.4,0.3,0.5c0.1,0,0.4,0,1.1,0c0.4,0,0.8,0,1.1,0l0.2,0
		l0.9,0l1.8,0h2.4l0.5-0.1c0.1,0,0.1-0.2,0.2-0.4c0,0,0-0.1,0.1-0.2l0.3,0c0.1,0,0.1,0,0.2,0c0,0.4,0,0.9,0,1.6l0,0.7l0,0.4
		c0,0.1,0,0.3,0,0.4c-0.2,0.1-0.4,0.1-0.6,0.1c-0.1-0.2-0.3-0.5-0.4-0.9c-0.2-0.4-0.3-0.6-0.3-0.6c-0.1-0.1-0.1-0.1-0.2-0.1
		c-0.1,0-0.7,0-1.7,0c-0.1,0-0.3,0-0.5,0c0,0.2,0,0.4,0,0.5l0,1v2.3l0,2.5l0,1c0,0.4,0,0.6,0.1,0.8c0.1,0,0.2,0.1,0.5,0.1
		c0,0,0.2,0,0.6,0.1c0.2,0,0.3,0.1,0.4,0.1c0,0.2,0,0.3,0,0.3c0,0,0,0.1,0,0.2c-0.1,0-0.2,0-0.3,0c-0.5,0-1,0-1.4-0.1
		s-1.1-0.1-2-0.1c-0.2,0-0.6,0-1.4,0.1c-0.3,0-0.5,0-0.6,0c0-0.1,0-0.1,0-0.2l0-0.2v-0.1c0.1-0.2,0.3-0.3,0.6-0.3
		c0.5-0.1,0.9-0.2,1.1-0.4c0.1-0.1,0.1-0.2,0.1-0.4c0-0.6,0.1-1.6,0.1-3l0-3c0-0.8,0-1.3,0-1.5c0,0,0-0.1-0.1-0.1s-0.1,0-0.1,0
		c-0.2,0-0.7,0-1.6,0c-0.5,0-0.8,0-1,0.1c-0.2,0.1-0.6,0.5-1,1.1c-0.1,0.2-0.2,0.2-0.3,0.2c-0.2-0.1-0.4-0.2-0.5-0.3
		c0.2-0.3,0.4-1,0.7-2C140.6,34.3,140.7,34.1,140.7,34z"/>
	<path class="st0" d="M151.5,44.6V44c0.1,0,0.3-0.1,0.5-0.1c0.3-0.1,0.6-0.2,0.8-0.3c0.1-0.2,0.1-0.4,0.1-0.7l0-0.9l0-1.8l0-0.4
		c0-1,0.1-1.6,0.1-1.6l0-1l0-0.4l0-0.9l0-0.3c0-0.1,0-0.1-0.1-0.2c-0.2-0.1-0.6-0.2-1-0.2c-0.1,0-0.2,0-0.3,0l0-0.7l2.2,0.1
		c0.3,0,0.4,0,0.5,0c0.3,0,0.8,0,1.5-0.1c0.4,0,0.6,0,0.7,0c0,0.1,0,0.2,0,0.2c0,0.1,0,0.2,0,0.3c-0.2,0.1-0.4,0.1-0.7,0.2
		c-0.3,0.1-0.5,0.1-0.7,0.2c0,0.1,0,0.3,0,0.6c0,0.2,0,0.4,0,0.5c0,0.9,0,1.6,0,2l0,2.1l0,1l0,1.6l0,0.3c0,0,0,0.1,0,0.2
		c0.3,0.1,0.6,0.1,0.9,0.1c0,0,0.2,0,0.5,0.1c0,0.2,0,0.3,0,0.4c0,0.1,0,0.1,0,0.3c-0.1,0-0.1,0-0.2,0c-0.2,0-0.3,0-0.3,0
		c0,0-0.1,0-0.2,0c-0.1,0-0.4,0-1-0.1l-1.4,0c-0.3,0-0.7,0-1.2,0.1C151.8,44.5,151.6,44.5,151.5,44.6z"/>
	<path class="st0" d="M157.3,35.1l0-0.5h0.7l0.2,0c0.3,0,0.5,0,0.6,0c0.1,0,0.2,0,0.5,0c0.1,0,0.1,0,0.2,0s0.2,0,0.5,0
		c0.3,0,0.4,0,0.5,0c0.1,0,0.1,0,0.2,0c0.8,0.7,1.5,1.4,2,1.9c0.5,0.5,2.3,2.4,5.5,5.5v-0.2l0-0.9c0-0.5,0-1-0.1-1.3
		c0-0.3,0-0.7,0-1.1s0-0.8-0.1-1.2c-0.1-0.7-0.1-1.1-0.1-1.2c0-0.3,0-0.5-0.1-0.6c-0.1-0.1-0.4-0.2-0.8-0.3c-0.3,0-0.5-0.1-0.6-0.2
		l0-0.5l0.2,0l1.5,0l1.7,0c0.1,0,0.2,0,0.3,0l0,0.5c-0.1,0.1-0.2,0.1-0.4,0.1c-0.3,0.1-0.5,0.1-0.6,0.2c-0.3,0.2-0.4,0.2-0.4,0.3
		c0,0.1-0.1,0.2-0.1,0.3c0,0,0,0.1,0,0.3c0,0.1,0,0.3,0,0.7c0,0.8,0,1.4,0.1,1.8c0,0.1,0,0.3,0,0.5l0.1,2.7c0,0.2,0,0.3,0,0.4v1
		l0,0.4l0,0.4c0,0.2,0,0.3,0,0.4v0.4l-0.9,0l-0.9-1l-1.9-1.9l-1.3-1.3l-1-1c-0.6-0.6-1.2-1.2-1.7-1.6l-1.3-1.1l0.1,2.9
		c0,0.2,0,0.4,0,0.5l0,0.6l0,1c0,0.4,0,0.9,0.1,1.4c0,0.1,0,0.2,0,0.3s0,0.1,0.1,0.2c0.2,0.1,0.6,0.1,1.3,0.2c0,0,0.1,0,0.2,0.1
		l0,0.6l-0.3,0c-0.2,0-0.7,0-1.6-0.1c-0.8,0-1.4,0-1.7,0c-0.3,0-0.4,0-0.5,0c-0.1,0-0.1,0-0.3,0c0-0.1,0-0.2,0-0.3
		c0-0.1,0-0.2,0-0.3c0.1,0,0.3,0,0.4,0c0,0,0.1,0,0.3,0c0.4,0,0.7,0,0.8-0.1c0.1-0.1,0.1-0.2,0.1-0.5c0-0.8,0.1-1.3,0.1-1.5v-0.4
		l0-2.5l0-1.6c0-0.6,0-1-0.1-1.3c0-0.1-0.1-0.2-0.2-0.3c-0.2-0.2-0.4-0.3-0.6-0.4C158.2,35.2,157.8,35.1,157.3,35.1z"/>
	<path class="st0" d="M171,35.1l0-0.6c0.1,0,0.2,0,0.3,0c0.3,0,0.5,0,0.8,0c0.7,0,1.1,0.1,1.2,0.1c0.4,0,0.8,0,1.2,0
		c0.4,0,0.8,0,1.1,0s0.5,0,0.6,0l0,0.1l0,0.5v0.1c-0.3,0-0.6,0.1-0.9,0.1c-0.3,0-0.5,0.1-0.6,0.2c-0.1,0.1-0.1,0.4-0.1,0.9
		c0,0.2,0,0.3,0,0.4l0,0.3l0,0.7l0,0.6l0,1.4l0.1,2c0,0.6,0.2,1,0.4,1.4c0.2,0.3,0.4,0.5,0.7,0.6c0.4,0.2,0.9,0.3,1.3,0.3
		c0.5,0,1-0.1,1.4-0.2c0.3-0.1,0.5-0.2,0.7-0.4s0.4-0.3,0.5-0.4c0.2-0.3,0.3-0.6,0.4-0.8c0.1-0.3,0.1-0.9,0.1-1.6
		c0-1.3-0.1-2.7-0.2-4.3l0-0.4c0-0.3-0.1-0.5-0.2-0.6c-0.2-0.2-0.4-0.2-0.6-0.2l-0.7,0l-0.1,0l0-0.6h0.6l1.5,0.1c0.5,0,1,0,1.4-0.1
		l0.1,0c0,0.2,0,0.3,0,0.4c0,0.1,0,0.1,0,0.2c-0.2,0.1-0.4,0.1-0.6,0.1c-0.3,0-0.5,0.1-0.6,0.1c-0.1,0.1-0.1,0.2-0.1,0.3
		c0,0.1,0,0.2,0,0.4c0,0.1,0,0.4,0,0.7c0,0.2,0,0.3,0,0.4c0,0.1,0,0.2,0,0.3c0,0.4,0,0.8,0,1.1l0.1,1.6c0,1.1,0,1.8-0.1,2.1
		c-0.1,0.4-0.2,0.6-0.3,0.9c-0.2,0.3-0.5,0.6-0.8,0.9s-0.8,0.5-1.3,0.6c-0.5,0.2-1.2,0.2-1.9,0.2c-0.8,0-1.5-0.1-2.1-0.3
		s-1-0.5-1.3-0.9s-0.5-0.8-0.6-1.4c-0.1-0.4-0.1-0.9-0.1-1.7v-3.7c0-0.9,0-1.4-0.1-1.5c-0.1-0.2-0.5-0.3-1.1-0.3
		C171.2,35.1,171.1,35.1,171,35.1z"/>
	<path class="st0" d="M183.2,34.4c0.3,0,0.6,0,0.8,0.1c0.4,0.1,0.9,0.1,1.4,0.1c0.2,0,0.7,0,1.4,0c1.2,0,2.2-0.1,3.1-0.1l1.4,0
		c0.3,0,0.8,0,1.4,0.1c0.1,0.1,0.1,0.2,0.1,0.4v1.6l0,0.3c0,0,0,0.1,0,0.1l-0.3,0c0,0-0.1,0-0.3,0c0-0.1-0.1-0.3-0.2-0.5l-0.3-0.6
		c-0.1-0.2-0.3-0.5-0.5-0.7c-0.1,0-0.3-0.1-0.5-0.1c-0.1,0-0.2,0-0.5,0c-0.5,0-1-0.1-1.6-0.1c-0.6,0-1.2,0-1.7,0c0,0.1,0,0.6,0,1.5
		l0,1.3v1c0.1,0,0.2,0,0.3,0c0.9,0,1.6,0,2-0.1c0.4,0,0.6-0.1,0.7-0.2c0.1-0.1,0.2-0.2,0.2-0.3c0-0.1,0.1-0.5,0.3-1.1l0.1,0l0.5,0
		c0,0.5,0,0.8,0,1.1c0,0.5,0,0.9,0,1.1s0,0.3,0,0.4c0,0.1,0,0.4,0,0.7c0,0.3,0,0.5,0,0.7v0.2h-0.6c0-0.1-0.1-0.3-0.1-0.5
		c-0.1-0.5-0.2-0.8-0.3-0.9c-0.1-0.1-0.2-0.2-0.3-0.2c-0.1,0-0.5-0.1-1.2-0.1c-0.8,0-1.4,0-1.8,0.1c0,0.1,0,0.2,0,0.3
		c0,0.6,0,1.1,0,1.5l0,1.7c0,0.2,0.1,0.3,0.2,0.4c0.2,0.1,0.9,0.2,2,0.2c0.7,0,1.3-0.1,1.8-0.2c0.3-0.1,0.7-0.3,0.9-0.5
		c0.4-0.3,0.6-0.8,0.9-1.5c0.2,0,0.3,0,0.4,0c0.1,0,0.1,0,0.3,0c0,0.1,0,0.2,0,0.3l0,0.2l-0.3,1.5l-0.1,0.9c-0.3,0-0.6,0-0.8,0
		c-0.3,0-1.1,0-2.3-0.1c-0.9,0-2-0.1-3.2-0.1c-0.6,0-1.4,0-2.3,0.1h-0.3l-0.9,0V44c0.1,0,0.3-0.1,0.6-0.1c0.5-0.1,0.9-0.1,1.1-0.2
		c0.1-0.2,0.1-0.3,0.1-0.6c0-0.1,0-0.2,0-0.5l0-0.2l0-2.9l0-0.9l0-1.2l0-0.9l-0.1-1c0,0,0-0.1,0-0.2c-0.1-0.1-0.1-0.1-0.2-0.1
		c-0.1,0-0.1,0-0.2,0c-0.3-0.1-0.6-0.1-0.9-0.1c-0.1,0-0.2,0-0.3,0L183.2,34.4z"/>
</g>
</svg>
