<svg xmlns="http://www.w3.org/2000/svg" viewBox="0 0 129.2 125.8"><style type="text/css">  
	.st0{fill:#F6EFDA;}
</style><path class="st0" d="M7.4 65.3c1.1-0.1 1.4-0.2 1.5-0.2 0.3 0 0.5-0.3 0.5-0.7 0-0.1 0.1-0.3 0.1-0.3 0.1 0 0.2 0.2 0.2 0.3 0 0.3 0 0.9 0 1.5 0 0.6 0.1 0.9 0.1 1.1 0 0.2 0 0.3-0.1 0.3 -0.1 0-0.1-0.1-0.2-0.3 -0.1-0.5-0.3-0.7-0.8-0.7 -0.8 0-1.9 0.1-4 0.2 -2 0.1-2.8 0.2-3.2 0.2 -0.4 0-0.6 0.2-0.7 0.8 0 0.2-0.1 0.3-0.1 0.3 -0.1 0-0.1-0.2-0.1-0.3 0-0.2 0-0.6 0-1.1 0-0.7-0.2-1.4-0.2-2.1 -0.1-1 0.1-1.7 0.4-2.2 0.4-0.7 1-1 1.6-1.1 1.2-0.1 2 0.7 2.3 1.7 0 0.1 0.1 0.1 0.3 0 0.6-0.4 1.7-1.3 2.5-1.9 0.6-0.5 0.9-0.9 1.2-1.2 0.4-0.4 0.5-0.9 0.5-1.3 0-0.2 0.1-0.1 0.2 0 0.1 0.1 0.1 0.4 0.2 0.7 0.1 1-0.4 1.6-1 2.3C7.7 62.4 6 63.6 5.5 64c-0.2 0.2-0.3 0.5-0.3 0.7 0 0.1 0 0.5 0 0.7 0 0.1 0.1 0.1 0.3 0.1L7.4 65.3zM0.8 65.6c0 0 0.1 0.1 0.4 0.1 0.2 0 3.2-0.2 3.4-0.2 0.1 0 0.3-0.1 0.3-0.2 0-0.2 0-0.6 0-0.9 -0.1-0.6-0.3-1.1-0.5-1.4 -0.3-0.4-0.9-0.8-1.7-0.8 -0.6 0-1.1 0.3-1.5 0.6 -0.4 0.4-0.7 1.1-0.6 1.9C0.7 65 0.7 65.5 0.8 65.6z"/><path class="st0" d="M7.5 29.5c0.1 0 0.8 0.1 1.3 0.2 2.7 0.3 4.5 0.4 7.5 0.7 0.8 0.1 1.1-0.1 1.5-0.6 0.1-0.1 0.2-0.2 0.3-0.2 0.1 0 0.1 0.2 0 0.3 -0.2 0.4-0.4 0.6-0.8 1.3 -0.3 0.5-0.4 0.9-0.5 1.2 -0.1 0.2-0.2 0.3-0.3 0.2 -0.1 0-0.1-0.2 0-0.4 0.2-0.5 0.1-0.8-0.3-0.8 -0.4 0-1.5-0.2-2.9-0.3 -0.1 0-0.2 0.1-0.3 0.1 -0.2 0.3-1.3 2.4-1.4 2.6 0 0.1 0 0.1 0.1 0.3 0.4 0.5 1 1.3 1.4 1.7 0.4 0.4 0.7 0.6 0.9 0.5 0.2 0 0.3-0.2 0.6-0.4 0.1-0.1 0.2-0.2 0.3-0.2 0.1 0 0 0.2 0 0.3 -0.1 0.3-0.5 0.7-0.7 1.2 -0.2 0.4-0.3 0.6-0.4 1 -0.1 0.1-0.2 0.2-0.2 0.2 -0.1 0 0-0.2 0-0.4 0.2-0.8 0-1.1-0.7-1.9 -0.5-0.8-2.8-3.5-4.4-5.4 -0.1-0.2-0.2-0.2-0.3-0.3 -0.1 0-0.1-0.1-0.1-0.1 0-0.2-0.2-0.6-0.4-0.8 -0.1-0.1-0.1-0.2-0.1-0.2C7.4 29.5 7.4 29.5 7.5 29.5zM12.3 31.2c-1.9-0.2-3-0.3-3.6-0.4 -0.1 0-0.2 0-0.1 0.1 0.7 0.9 1.9 2.2 2.4 2.7 0.1 0.1 0.1 0 0.1 0 0.1-0.2 0.4-0.6 0.6-1.2 0.1-0.3 0.6-1.1 0.6-1.2C12.5 31.3 12.4 31.2 12.3 31.2z"/><path class="st0" d="M26 7.6c0.3-0.2 0.8-0.4 1.2-0.6 0.3-0.2 0.7-0.5 1-0.6 0.2-0.1 0.3-0.1 0.3-0.1 0 0.1 0 0.2-0.2 0.3C28 6.9 28 7 28.3 7.2c1.9 1.4 4.3 3.1 6.3 4.4 0.1 0.1 0.2 0.1 0.1-0.1 0-1-0.1-1.8-0.2-2.9 0-0.1-0.1-0.2-0.1-0.2 -0.5-0.4-2.4-1.8-3.5-2.5 -0.4-0.2-0.7-0.3-1-0.2 -0.1 0-0.3 0.1-0.4 0 -0.1-0.1 0.1-0.2 0.2-0.3 0.4-0.3 0.7-0.3 1.2-0.6 0.5-0.3 0.7-0.5 0.9-0.6 0.2-0.1 0.3-0.2 0.4-0.1 0.1 0.1-0.1 0.2-0.3 0.4 -0.4 0.3-0.4 0.4-0.1 0.7 0.5 0.3 1.6 1.2 2.6 1.8 0 0 0.1 0 0.1-0.1 -0.1-0.7-0.1-1.3-0.2-2.3 -0.1-1.1-0.2-1.3-0.9-1.1 -0.3 0.1-0.4 0.1-0.4 0 0-0.1 0.1-0.2 0.2-0.3 0.3-0.2 0.6-0.3 0.9-0.5 0.4-0.2 0.7-0.5 0.9-0.6 0.1 0 0.3-0.2 0.3-0.1 0.1 0.1-0.1 0.3-0.3 0.4 -0.4 0.4-0.4 0.7-0.4 1.7 0 0.7 0.1 2.5 0.2 3 0 0.1 0.1 0.2 0.2 0.2 0.8 0.6 1.8 1.3 3 2.1 0 0 0.1 0 0.1-0.1 -0.2-2-0.6-6.5-0.9-7.4 -0.1-0.3-0.2-0.5-0.7-0.3 -0.3 0.1-0.4 0.1-0.4 0 0-0.1 0.1-0.2 0.2-0.3 0.3-0.2 0.6-0.3 0.9-0.4 0.4-0.2 0.7-0.5 0.9-0.6 0.2-0.1 0.3-0.1 0.4-0.1 0 0.1-0.1 0.2-0.2 0.3 -0.5 0.5-0.5 0.8-0.4 1.5 0.1 1.8 0.7 6.5 0.9 8.7 0 0.2 0 0.4-0.1 0.4 -0.1 0-0.2 0-0.4-0.2 -0.9-0.7-2.3-1.8-3.2-2.4 -0.1 0-0.1 0-0.1 0 0.1 1.1 0.2 3.1 0.3 4 0 0.2 0.1 0.5 0 0.6 -0.1 0-0.2 0-0.4-0.2 -0.4-0.3-1.4-1.1-1.9-1.4 -1.7-1.2-3.5-2.5-5-3.5 -0.9-0.6-1.2-0.7-1.7-0.5 -0.2 0.1-0.4 0.1-0.4 0C25.8 7.8 25.9 7.7 26 7.6z"/><path class="st0" d="M65 0.7c0 0.6-0.4 0.8-0.8 0.8 -0.4 0-0.7-0.4-0.7-0.7 0-0.4 0.4-0.8 0.8-0.8C64.7 0 65 0.4 65 0.7z"/><path class="st0" d="M90.5 0.3c0.3 0.2 0.7 0.5 1.1 0.7 0.3 0.2 0.8 0.4 1 0.5 0.2 0.1 0.3 0.2 0.2 0.3 0 0.1-0.2 0.1-0.3 0C92.2 1.6 92.1 1.7 92 2c-0.3 2.3-0.5 5.2-0.7 7.6 0 0.1 0 0.2 0.1 0.1 0.8-0.5 1.5-1 2.4-1.6C93.9 8.1 94 8 94 7.9c0.1-0.7 0.3-3 0.4-4.3 0-0.4-0.1-0.7-0.4-1 -0.1-0.1-0.2-0.2-0.2-0.3 0.1-0.1 0.2 0 0.3 0 0.4 0.3 0.6 0.4 1.1 0.7 0.5 0.3 0.8 0.4 1 0.5 0.2 0.1 0.3 0.2 0.3 0.3 -0.1 0.1-0.3 0-0.5 0 -0.5-0.2-0.6-0.1-0.6 0.3 -0.1 0.6-0.2 2-0.3 3.1 0 0.1 0.1 0.1 0.1 0.1 0.6-0.4 1.1-0.7 1.9-1.3 0.9-0.6 1-0.8 0.5-1.3 -0.2-0.2-0.3-0.3-0.2-0.4 0.1-0.1 0.2 0 0.4 0.1 0.3 0.2 0.5 0.4 0.9 0.6 0.4 0.2 0.8 0.4 1 0.5 0.1 0.1 0.3 0.2 0.2 0.3 0 0.1-0.3 0-0.5-0.1 -0.6-0.1-0.8 0-1.6 0.5 -0.6 0.4-2.1 1.4-2.5 1.6 0 0-0.1 0.1-0.1 0.3 -0.1 1-0.2 2.2-0.3 3.7 0 0.1 0 0.1 0.1 0.1 1.6-1.2 5.3-3.8 6-4.5 0.2-0.2 0.3-0.4 0-0.7 -0.2-0.2-0.3-0.3-0.2-0.4 0-0.1 0.2 0 0.4 0.1 0.3 0.2 0.5 0.4 0.8 0.5 0.4 0.2 0.8 0.4 0.9 0.5 0.2 0.1 0.3 0.2 0.2 0.3 0 0.1-0.2 0-0.4 0 -0.6-0.2-0.9 0-1.5 0.3 -1.5 1-5.3 3.8-7.1 5.2 -0.2 0.1-0.3 0.2-0.4 0.2 -0.1 0-0.1-0.2-0.1-0.4 0.1-1.1 0.4-2.9 0.5-4 0-0.1 0-0.1-0.1-0.1 -0.9 0.6-2.6 1.8-3.3 2.3 -0.2 0.1-0.4 0.3-0.5 0.3 -0.1 0-0.1-0.2 0-0.4 0.1-0.5 0.2-1.8 0.3-2.3 0.2-2.1 0.4-4.3 0.5-6.1 0.1-1.1 0.1-1.4-0.4-1.7 -0.2-0.2-0.2-0.3-0.2-0.3C90.3 0.2 90.4 0.2 90.5 0.3z"/><path class="st0" d="M121.6 29.1c0 0-0.5 0.5-0.9 1 -1.7 2-2.8 3.5-4.7 5.8 -0.5 0.6-0.6 1-0.4 1.5 0 0.2 0 0.3 0 0.3 -0.1 0-0.2 0-0.3-0.2 -0.2-0.4-0.3-0.7-0.7-1.4 -0.3-0.5-0.5-0.8-0.7-1.1 -0.1-0.2-0.1-0.3-0.1-0.4 0.1 0 0.2 0.1 0.3 0.2 0.3 0.4 0.6 0.5 0.9 0.2 0.2-0.3 1-1.2 1.9-2.3 0.1-0.1 0.1-0.2 0-0.3 -0.2-0.3-1.3-2.4-1.4-2.6 0-0.1-0.1-0.1-0.3-0.1 -0.6 0-1.6 0.2-2.2 0.2 -0.6 0.1-0.8 0.2-0.9 0.4 -0.1 0.2 0 0.4 0 0.7 0 0.2 0 0.3 0 0.3 -0.1 0-0.2 0-0.3-0.2 -0.2-0.3-0.3-0.8-0.6-1.2 -0.2-0.4-0.4-0.6-0.6-0.9 -0.1-0.1-0.1-0.3 0-0.3 0.1 0 0.2 0.1 0.3 0.2 0.5 0.6 0.9 0.6 2 0.5 1 0 4.5-0.4 6.9-0.6 0.2 0 0.3-0.1 0.4-0.1 0.1 0 0.1 0 0.2 0 0.1 0.1 0.6 0.1 0.8 0.1 0.1 0 0.2 0 0.2 0.1C121.7 29 121.6 29.1 121.6 29.1zM117.5 32.2c1.2-1.4 1.9-2.3 2.3-2.8 0.1-0.1 0.1-0.1 0-0.1 -1.2 0.1-2.9 0.3-3.6 0.4 -0.1 0-0.1 0-0.1 0.1 0.1 0.3 0.3 0.6 0.6 1.2 0.1 0.3 0.6 1 0.7 1.2C117.4 32.3 117.5 32.3 117.5 32.2z"/><path class="st0" d="M122.2 60.6c-1.1 0-1.4 0-1.5 0 -0.3 0-0.5 0.2-0.6 0.7 0 0.1-0.1 0.3-0.2 0.3 -0.1 0-0.1-0.2-0.1-0.4 0-0.3 0.1-0.9 0.1-1.5 0-0.6 0-0.9 0-1.2 0-0.2 0.1-0.3 0.1-0.3 0.1 0 0.1 0.1 0.2 0.3 0.1 0.6 0.2 0.7 0.8 0.8 0.8 0.1 1.9 0.1 4 0.2 2 0.1 2.8 0.1 3.2 0.1 0.4 0 0.7-0.1 0.8-0.7 0-0.2 0.1-0.3 0.2-0.3 0.1 0 0.1 0.2 0.1 0.3 0 0.2-0.1 0.6-0.1 1.1 0 0.7 0 1.4 0 2.1 0 1-0.3 1.6-0.7 2.1 -0.4 0.6-1.1 0.9-1.7 0.9 -1.2-0.1-1.9-0.9-2.1-1.9 0-0.1-0.1-0.1-0.3-0.1 -0.7 0.3-1.8 1.1-2.7 1.6 -0.7 0.4-1 0.8-1.3 1.1 -0.4 0.4-0.6 0.9-0.6 1.2 0 0.2-0.1 0.1-0.2 0 -0.1-0.1-0.1-0.4-0.1-0.8 0-1 0.5-1.5 1.3-2.1 0.9-0.7 2.7-1.8 3.2-2.1 0.2-0.2 0.3-0.4 0.4-0.6 0-0.1 0.1-0.5 0.1-0.7 0-0.1-0.1-0.1-0.3-0.1L122.2 60.6zM128.7 61.1c0 0-0.1-0.1-0.4-0.1 -0.2 0-3.2-0.2-3.4-0.2 -0.1 0-0.3 0-0.3 0.1 0 0.2 0 0.6-0.1 0.9 0 0.6 0.1 1.1 0.3 1.4 0.3 0.4 0.8 0.9 1.6 0.9 0.6 0 1.1-0.1 1.5-0.5 0.5-0.4 0.8-1 0.8-1.8C128.8 61.7 128.8 61.2 128.7 61.1z"/><path class="st0" d="M113.6 90c-0.9-0.6-1.2-0.7-1.3-0.8 -0.3-0.2-0.5 0-0.8 0.3 -0.1 0.1-0.2 0.2-0.3 0.2 -0.1 0 0-0.2 0.1-0.4 0.2-0.3 0.6-0.7 0.9-1.2 0.3-0.5 0.4-0.7 0.6-1 0.1-0.2 0.2-0.2 0.3-0.2 0.1 0 0.1 0.2 0 0.4 -0.2 0.5-0.2 0.7 0.2 1.1 0.7 0.5 1.5 1.1 3.3 2.3 1.7 1.1 2.3 1.6 2.7 1.8 0.4 0.2 0.6 0.2 1.1-0.2 0.1-0.1 0.2-0.2 0.3-0.2 0.1 0 0 0.2-0.1 0.3 -0.1 0.2-0.4 0.5-0.7 0.9 -0.4 0.6-0.7 1.2-1.1 1.8 -0.6 0.9-1.1 1.3-1.7 1.5 -0.7 0.3-1.4 0.2-1.9-0.2 -1-0.7-1.1-1.7-0.9-2.7 0-0.1 0-0.2-0.2-0.2 -0.7-0.1-2.1 0-3.1 0 -0.8 0-1.2 0.1-1.7 0.2 -0.6 0.1-1 0.4-1.1 0.7 -0.1 0.1-0.2 0.1-0.2-0.1 0-0.2 0.1-0.4 0.3-0.7 0.6-0.9 1.2-1 2.2-1.2 1.1-0.2 3.2-0.1 3.8-0.2 0.2 0 0.5-0.2 0.6-0.4 0.1-0.1 0.3-0.4 0.4-0.6 0-0.1 0-0.2-0.2-0.3L113.6 90zM118.9 93.8c0 0 0-0.1-0.3-0.3 -0.2-0.1-2.6-1.8-2.8-1.9 -0.1 0-0.3-0.1-0.3 0 -0.1 0.2-0.3 0.4-0.5 0.7 -0.3 0.5-0.4 1-0.5 1.4 0 0.5 0.2 1.2 0.9 1.6 0.5 0.3 1 0.4 1.5 0.4 0.6-0.1 1.2-0.4 1.6-1.1C118.7 94.3 118.9 93.9 118.9 93.8z"/><path class="st0" d="M93.6 117.4c-0.1 0.1-0.3 0.1-0.3 0 0-0.1 0-0.2 0.2-0.3 0.4-0.3 0.5-0.6 0.3-1 -0.3-0.7-1.1-2.2-1.5-3 -1-1.9-1.6-3-1.8-3.3 -0.3-0.4-0.5-0.5-1.1-0.3 -0.2 0-0.3 0-0.3 0 0-0.1 0.1-0.2 0.3-0.3 0.2-0.1 0.9-0.4 1.3-0.6 0.3-0.2 0.8-0.5 1.1-0.7 0.1-0.1 0.3-0.1 0.3 0 0 0.1 0 0.2-0.2 0.3 -0.5 0.3-0.5 0.7-0.2 1.4 0.4 0.8 1 1.9 1.6 3 0.7 1.4 1.6 3 1.7 3.2 0.2 0.3 0.6 0.3 1 0.2 0.1 0 0.3 0 0.3 0 0 0.1-0.1 0.2-0.2 0.2 -0.4 0.2-0.7 0.3-1.2 0.6C94.5 116.8 93.9 117.2 93.6 117.4z"/><path class="st0" d="M67.8 119.8c0 1.4-0.6 2.7-2.2 3.8 -0.9 0.6-1.9 0.9-3 0.9 -2.8-0.1-4.9-2.4-4.8-5.1 0.1-2.3 1.8-3.8 3-4.3 0.7-0.3 1.3-0.4 2.1-0.4C65.7 114.7 67.9 117.1 67.8 119.8zM60.8 115.5c-0.8 0.6-1.7 1.8-1.7 3.8 0 1.4 0.3 2.7 1.2 3.7 0.5 0.6 1.4 1.2 2.6 1.2 0.8 0 1.8-0.4 2.4-1 0.9-0.9 1.2-2.1 1.2-3.4 0-1.1-0.4-2.4-1-3.2 -0.9-1.2-1.9-1.5-2.9-1.6C61.9 114.9 61.3 115.1 60.8 115.5z"/><path class="st0" d="M34.2 108.6c0.6-0.9 0.7-1.2 0.8-1.3 0.2-0.3 0-0.5-0.3-0.9 -0.1-0.1-0.2-0.2-0.2-0.3 0-0.1 0.2 0 0.4 0.1 0.3 0.2 0.7 0.6 1.2 0.9 0.5 0.3 0.7 0.4 1 0.6 0.2 0.1 0.2 0.2 0.2 0.3 0 0.1-0.2 0-0.4 0 -0.5-0.2-0.7-0.2-1.1 0.2 -0.5 0.7-1.1 1.5-2.3 3.3 -1.1 1.7-1.6 2.4-1.8 2.7 -0.2 0.4-0.2 0.6 0.2 1.1 0.1 0.1 0.2 0.2 0.2 0.3 0 0.1-0.2 0-0.3-0.1 -0.2-0.1-0.5-0.4-0.9-0.7 -0.6-0.4-1.2-0.7-1.8-1.1 -0.9-0.6-1.3-1.1-1.5-1.7 -0.3-0.7-0.2-1.4 0.2-1.9 0.7-1 1.7-1.1 2.7-0.9 0.1 0 0.2 0 0.2-0.2 0.1-0.7 0-2.1 0-3.1 0-0.8-0.2-1.2-0.2-1.7 -0.1-0.6-0.4-1-0.7-1.1 -0.1-0.1-0.1-0.2 0.1-0.2 0.2 0 0.4 0.1 0.7 0.3 0.9 0.6 1 1.2 1.2 2.2 0.2 1.1 0.1 3.2 0.2 3.8 0 0.2 0.2 0.5 0.4 0.6 0.1 0.1 0.4 0.3 0.6 0.4 0.1 0 0.2 0 0.3-0.2L34.2 108.6zM30.5 113.9c0 0 0.2 0 0.3-0.3 0.1-0.2 1.8-2.6 1.9-2.8 0-0.1 0.1-0.3 0-0.3 -0.2-0.1-0.5-0.3-0.7-0.5 -0.5-0.3-1-0.4-1.4-0.5 -0.5 0-1.2 0.2-1.6 0.9 -0.3 0.5-0.4 1-0.4 1.5 0.1 0.6 0.4 1.2 1.1 1.6C29.9 113.7 30.3 113.9 30.5 113.9z"/><path class="st0" d="M12.6 87.5c0.5-0.3 0.9 0 1.1 0.3 0.2 0.3 0 0.8-0.3 1 -0.4 0.2-0.8 0-1-0.3C12 88.1 12.3 87.7 12.6 87.5z"/></svg>