<svg xmlns="http://www.w3.org/2000/svg" viewBox="0 0 339 341"><style type="text/css">  
	.st0{fill:#F6EED9;}
</style><path class="st0" d="M39.9 259.6c1.1 0.2 1.9 0 2.9-0.4 2-0.9 5.6-3.5 7.3-4.7 6.7-4.5 10.5-7.4 12.5-9 2.6-2.3 2.8-3.4 0.9-7.2 -0.7-1.4-0.7-2-0.2-2.3s1.2 0.3 2 1.5c1.8 2.6 2.6 4.6 5.6 9.1 3.8 5.6 4.2 5.2 5.7 7.5 0.8 1.2 0.9 2 0.5 2.2 -0.4 0.3-1.1 0.2-2-0.7 -1.9-1.8-3.2-2.1-6-0.6 -1.7 1-7.1 4.5-13.3 8.6 -5.9 4-8.4 5.6-9.5 6.4 -0.6 0.4-0.6 0.8-1 4.2 -0.1 0.9-0.1 1.2-0.4 1.4 -0.3 0.2-1.1-0.2-1.5-0.5 -3.7-3.2-7.1-5.8-9.2-6.9 -1-0.5-1.4-0.8-1.6-1.2 -0.1-0.2 0.2-0.9 0.7-1.2 1.7-1.1 4.4-2.7 6.5-4.1 0.5-0.3 0.3-0.8 0-0.7 -5.3-0.3-10.9-1.4-13.4-5 -0.8-1.2-1.2-2.6-1.2-3.7 0-1.4 0.2-2.1 1-2.6 0.8-0.6 3.7-0.7 6.4-0.2 1.6 0.3 2.1 0.6 2.4 1.1 0.1 0.2 0.4 0.7 0.4 2 -0.1 1.5 0.3 3.6 1 4.7C37.2 258.5 38.3 259.3 39.9 259.6z"/><path class="st0" d="M9.7 165.8c3-2.3 7.9-2.9 11.3-2.9 5.4-0.1 15 0.1 17.9 0.1 1.6 0 3.6-1.3 3.6-3.8 0-0.9-0.2-2-0.9-3.2 -0.3-0.5 0.4-0.9 1.1-0.6 4.2 2.2 6 6.5 6 10.4 0 4.4-3.1 6.7-5.3 7.6 -0.1 0-0.2 0.3-0.1 0.6 3.7 3.4 5.3 6.9 5.3 10.9 0 4.2-3.7 9.2-10.1 9.3 -3.7 0-6.3-2.6-7.1-4.1 -1.5-2.9-4-12.3-5.2-15.4 -0.2-0.8-0.9-1.2-1.7-1.5 -1.4-0.2-4.4-0.1-5.4-0.1 -4.5 0-6.7 1-8.1 2.6 -1.2 1.4-1.9 3.1-1.9 4.4 0 1.5 0.5 2.9 1.1 4 0.3 0.6 1.1 1 1.9 1.1 0.6 0 2.3-0.1 3.3-0.1 0.1 0 0.7 0.3 0.9 0.7 0.9 1.2 3.1 5.2 3.7 6.9 0.1 0.7-0.7 1.4-1.2 1.4 -1.4 0-3.2-1.4-4.8-2.9 -2.3-2.2-4-4.3-6.3-8.6 -1.4-2.5-2.4-5.8-2.4-7.6C5.1 170.2 7.7 167.1 9.7 165.8zM42 174.6c-0.3-0.3-1.4-0.9-2.3-1 -1.8-0.2-6.5-0.5-11.3-0.5 -0.1 0-0.8 0.2-0.7 0.7 0.4 1.2 1.6 5.1 2.9 7.2 1 2 3.1 3.3 5.9 3.2 4.4 0 6.9-3.2 6.9-6.2C43.4 176.7 42.9 175.4 42 174.6z"/><path class="st0" d="M32 84.9c0.7-0.9 1.5-1.4 2-1 0.2 0.1 0.1 1.1-0.4 2 -1 2.1-0.3 2.5 1.5 3.4 4.7 1.8 14.5 4.6 21.6 6.7 0.7 0.1 0.9 0 0.6-0.4 -0.8-1.8-4.7-9.4-6.9-13.2 -0.4-0.6-1-1.3-1.6-1.5l-5.7-1.5c-2-0.4-3.2-0.5-5.3 1 -1 0.8-1.6 1.1-1.9 0.8 -0.4-0.4-0.2-1 0.4-1.8 1.6-2.1 3.9-4.3 5.5-6.2 2.7-3.4 3.8-5.2 5.7-7.6 0.8-1 1.2-1.2 1.6-0.9 0.3 0.2 0.1 1.1-0.2 2 -1.1 2.3-0.8 3.1 2.9 4.2 3.9 1.1 17 5.3 20.1 6.1 0.5 0.1 0.5-0.5 0.3-0.6 -2.1-3.6-5.6-9.8-8.6-14.4 -1.5-2.3-2.8-4-3.4-4.5s-1.8-1.4-4.5 0.6c-1.2 1-2 1.2-2.3 0.9 -0.4-0.3 0-1.1 0.5-1.7 1.3-1.7 3.1-3.4 4.2-4.9 0.8-1 2.6-3.9 3.4-4.9s1.1-1.2 1.4-0.9c0.4 0.3 0.4 0.8-0.2 2.4 -0.8 2.4-0.7 4.2 0.7 7 2.2 4.6 6.9 12.6 10.9 19.6 2.5 4.5 4.9 8.1 7.2 11.8 1 1.7 1.2 2.7 0.9 3 -0.4 0.5-1.4 0.3-2.9-0.3l-5.6-1.8c-8.2-2.7-14.3-4.3-20.5-6.1 -0.2-0.1-0.7-0.2-0.3 0.4 1.3 2.7 4.8 9.3 7.1 13.6 2.3 4.2 4.5 7.8 6.1 10.6 0.7 1 1.4 2.7 1 3.2 -0.3 0.4-1.4 0.2-2.8-0.5 -1.6-0.5-4-1.4-9.1-3.1 -6.1-2-23.2-6.9-26.7-7.6 -2.4-0.4-3.6-0.5-6.1 1.4 -0.8 0.7-1.5 1-1.9 0.7 -0.5-0.4-0.1-1.4 0.4-2 1.5-1.9 3.6-3.7 6.5-7.4C28.7 89.8 30.4 87 32 84.9z"/><path class="st0" d="M134.9 13.8c1.1-0.1 2.1 0.1 2.1 0.6 0 0.2-0.7 0.9-1.7 1.1 -2.2 0.7-2 1.5-1.3 3.5 2.1 4.5 7.1 13.5 10.6 19.9 0.4 0.5 0.6 0.6 0.7 0.1 0.7-1.8 3.3-10 4.4-14.3 0.1-0.7 0.3-1.6 0-2.2l-3-5.1c-1.1-1.7-1.9-2.6-4.5-3 -1.3-0.2-1.9-0.3-1.9-0.8 -0.1-0.6 0.6-0.9 1.6-1 2.6-0.3 5.8-0.3 8.3-0.6 4.3-0.5 6.4-1 9.4-1.4 1.2-0.2 1.7 0 1.8 0.5 0 0.3-0.7 0.9-1.6 1.2 -2.4 0.9-2.8 1.6-0.9 5 1.9 3.5 8.4 15.7 10 18.5 0.3 0.4 0.7 0 0.7-0.2 1.1-4 3-10.9 4-16.3 0.6-2.7 0.9-4.8 0.8-5.6 -0.1-0.8-0.3-2.2-3.7-2.7 -1.5-0.2-2.2-0.5-2.3-1 -0.1-0.4 0.8-0.8 1.6-0.9 2.1-0.3 4.7-0.2 6.4-0.5 1.2-0.2 4.6-0.9 5.8-1.1 1.2-0.2 1.6-0.1 1.6 0.4 0.1 0.4-0.2 0.8-1.9 1.6 -2.3 1.1-3.5 2.5-4.5 5.5 -1.7 4.8-4 13.7-6.1 21.6 -1.4 5-2.3 9.2-3.2 13.4 -0.4 1.9-1 2.8-1.5 2.8 -0.7 0.1-1.2-0.8-1.9-2.3l-2.7-5.3c-3.9-7.7-7.1-13.1-10.2-18.8 0-0.2-0.3-0.6-0.6 0.1 -1 2.9-3.2 10-4.6 14.6s-2.3 8.7-3.2 11.8c-0.2 1.2-0.9 2.9-1.6 2.9 -0.4 0.1-1.1-0.9-1.7-2.3 -0.8-1.5-1.9-3.9-4.3-8.6 -2.9-5.7-11.6-21.3-13.7-24.2 -1.4-2-2.2-2.9-5.3-3.3 -1-0.1-1.8-0.4-1.8-0.8 -0.1-0.7 0.9-1 1.7-1.1 2.4-0.3 5.1-0.1 9.8-0.7C129.1 14.8 132.3 14.1 134.9 13.8z"/><path class="st0" d="M264 44.4c0.3 3.8-1.8 8.2-3.6 11.1 -2.9 4.6-8.1 12.5-9.7 15 -0.8 1.3-0.9 3.7 1.2 5.1 0.8 0.5 1.8 0.9 3.2 0.9 0.6-0.1 0.5 0.9-0.1 1.3 -4.1 2.3-8.7 1.5-12-0.5 -3.7-2.3-4-6.2-3.6-8.5 0.1-0.1-0.2-0.4-0.4-0.4 -4.8 1.3-8.6 0.7-12.1-1.4 -3.6-2.2-5.8-8-2.4-13.5 2-3.2 5.5-3.9 7.3-3.7 3.3 0.3 12.5 3.3 15.8 3.9 0.8 0.2 1.5-0.1 2.1-0.7 0.9-1 2.4-3.7 3-4.5 2.4-3.8 2.8-6.1 2.2-8.2 -0.5-1.8-1.6-3.3-2.7-4 -1.2-0.8-2.7-1.2-3.9-1.2 -0.7 0-1.5 0.4-2 1 -0.3 0.5-1.1 2-1.6 2.8 -0.1 0.1-0.6 0.4-1.1 0.4 -1.5 0.1-6-0.2-7.8-0.6 -0.6-0.3-0.8-1.3-0.5-1.8 0.7-1.2 2.9-1.9 5-2.5 3.1-0.7 5.8-1.1 10.6-0.7 2.8 0.2 6.2 1.1 7.7 2C262.7 38.2 263.9 42 264 44.4zM239.1 66.8c0.5-0.1 1.5-0.7 2.1-1.4 1.2-1.4 3.9-5.2 6.5-9.3 0.1-0.1 0.2-0.8-0.2-0.9 -1.2-0.4-5.2-1.4-7.6-1.5 -2.3-0.2-4.4 0.8-5.9 3.2 -2.3 3.7-1 7.5 1.5 9.1C236.7 66.9 238 67.2 239.1 66.8z"/><path class="st0" d="M312.4 112.2c-1.1-0.4-1.9-0.3-2.9-0.1 -2.1 0.6-6.1 2.5-8 3.4 -7.3 3.3-11.6 5.5-13.9 6.8 -2.9 1.8-3.3 2.9-2.1 6.9 0.5 1.5 0.3 2.1-0.2 2.3s-1.1-0.5-1.7-1.8c-1.3-2.9-1.7-4.9-4-9.9 -2.8-6.2-3.3-5.9-4.4-8.3 -0.6-1.3-0.6-2.1-0.2-2.3s1.1 0 1.8 1c1.6 2.1 2.8 2.6 5.8 1.6 1.8-0.7 7.7-3.3 14.6-6.2 6.5-3 9.2-4.1 10.4-4.7 0.6-0.3 0.7-0.7 1.7-4 0.2-0.9 0.3-1.2 0.7-1.3 0.3-0.1 1.1 0.4 1.4 0.7 3.1 3.8 6 6.9 7.9 8.4 0.9 0.7 1.2 1.1 1.4 1.5 0.1 0.2-0.4 0.8-0.9 1 -1.9 0.8-4.8 1.9-7.1 3 -0.5 0.2-0.4 0.7-0.1 0.7 5.1 1.2 10.5 3.2 12.4 7.2 0.6 1.3 0.8 2.8 0.5 3.9 -0.3 1.4-0.6 2-1.4 2.4 -0.9 0.4-3.8 0.1-6.4-0.8 -1.5-0.6-1.9-1-2.2-1.5 -0.1-0.2-0.3-0.7-0.1-2.1 0.3-1.5 0.3-3.6-0.2-4.8C314.9 113.8 313.9 112.7 312.4 112.2z"/><path class="st0" d="M323.6 197.6c-0.7-0.9-1.4-1.2-2.4-1.6 -2.1-0.6-6.5-1.1-8.6-1.4 -8-1.1-12.7-1.5-15.3-1.7 -3.4 0-4.3 0.7-5.5 4.7 -0.4 1.5-0.8 1.9-1.4 1.9 -0.6-0.1-0.7-1-0.5-2.5 0.4-3.1 1.2-5.1 1.9-10.5 0.9-6.7 0.4-6.7 0.7-9.4 0.2-1.5 0.6-2.1 1.1-2 0.4 0.1 0.9 0.6 1 1.9 0.2 2.7 1 3.7 4.1 4.5 1.9 0.4 8.3 1.4 15.7 2.5 7.1 1 10 1.5 11.3 1.6 0.7 0.1 0.9-0.2 3.5-2.5 0.7-0.6 0.9-0.8 1.2-0.7 0.3 0 0.7 0.9 0.8 1.4 0.6 4.9 1.4 9 2.2 11.3 0.4 1.1 0.5 1.6 0.4 2 0 0.2-0.8 0.5-1.3 0.4 -2-0.3-5.1-0.9-7.6-1.3 -0.6-0.1-0.7 0.4-0.4 0.5 3.7 3.7 7.2 8.3 6.6 12.7 -0.2 1.5-0.8 2.7-1.6 3.6 -0.9 1-1.6 1.4-2.5 1.3 -1-0.1-3.3-1.9-4.9-4.1 -1-1.3-1.1-1.9-1-2.4 0-0.2 0.1-0.8 1-1.8 1.1-1.1 2.2-2.9 2.4-4.1C324.8 200.3 324.6 198.9 323.6 197.6z"/><path class="st0" d="M301.6 267.6c-2.3 4.7-3 6.8-4.1 10.9 -0.3 0.9-0.3 1.5-0.5 1.8s-0.6 0.2-1.5-0.6c-1.7-1.6-6.3-5.2-10.1-8.1 -10-7.8-17.2-13.4-18.7-14.2 -1.7-1-2.8-1.2-4.7 0.3 -1 0.8-1.5 0.8-1.9 0.6 -0.4-0.3-0.1-1.1 0.4-1.8 1.2-1.5 3.2-3.2 6.2-7 3.1-3.9 4.5-6.1 5.3-7.1 0.6-0.8 1.4-1.3 1.8-1s0.2 1-0.4 2.2c-1.3 2.7-0.6 4.3 2.5 6.7 2.7 2.1 18 14.5 18.9 15.2 1.7 1.3 2.1 1.6 5.5 0.5 0.7-0.2 1.2-0.2 1.5 0.1C302 266 302.1 266.4 301.6 267.6zM307.5 289.4c-3.1-2.4-2.6-5.9-1.1-7.9 1.5-1.9 4.7-2.4 7-0.6 3.1 2.4 2.8 5.9 1.3 7.8C313 290.9 309.5 291 307.5 289.4z"/><path class="st0" d="M194.2 317.4c-2.9-8.6 0.2-16 2.7-19.7 2.7-4 7.5-7.2 11.5-8.5 12.2-4.1 24.6 1.8 28.5 13.3 2.7 8.2 0.2 14.8-2.3 18.5 -3.2 5-7.7 8.1-12.1 9.6C209.7 334.8 198 328.6 194.2 317.4zM226.5 309.2c-1.7-5.2-4.4-11-8.6-14.7 -3.5-3-7.2-4.1-10.1-3.2 -1.9 0.6-3.4 2.2-4.1 4.1 -0.8 1.9-1.3 7.9 1.4 15.8 4.1 12.2 10.4 19.6 17.9 17C227.5 326.8 229.6 318.5 226.5 309.2z"/><path class="st0" d="M122.5 322.4c1-0.5 1.4-1.2 1.9-2.1 1-2 2.1-6.2 2.8-8.3 2.3-7.7 3.5-12.3 4-14.9 0.6-3.4 0-4.4-3.8-6.1 -1.5-0.7-1.8-1.1-1.6-1.7 0.2-0.5 1.1-0.5 2.5-0.1 3 0.9 4.9 1.9 10.1 3.5 6.5 2 6.6 1.4 9.2 2.2 1.4 0.4 2 1 1.8 1.4 -0.1 0.4-0.7 0.8-2 0.7 -2.7-0.2-3.8 0.4-5 3.3 -0.7 1.8-2.7 8-4.9 15.1 -2.1 6.8-3 9.6-3.3 10.9 -0.2 0.7 0.1 1 1.9 3.9 0.5 0.7 0.6 1 0.5 1.3s-1 0.5-1.5 0.6c-4.9-0.2-9.1 0-11.5 0.4 -1.1 0.2-1.6 0.2-2 0.1 -0.2-0.1-0.3-0.8-0.2-1.4 0.6-2 1.7-4.9 2.5-7.3 0.2-0.5-0.2-0.8-0.4-0.5 -4.3 3.1-9.3 5.8-13.6 4.5 -1.4-0.4-2.6-1.3-3.2-2.2 -0.9-1.1-1.1-1.8-0.9-2.6 0.3-1 2.4-2.9 4.8-4.2 1.4-0.8 2-0.8 2.6-0.6 0.2 0.1 0.8 0.2 1.6 1.3 0.9 1.2 2.5 2.7 3.7 3C119.7 323.2 121.1 323.2 122.5 322.4z"/></svg>